<?xml version="1.0" encoding="UTF-8" standalone="no"?>
<svg width="561px" height="440px" viewBox="0 0 561 440" version="1.1" xmlns="http://www.w3.org/2000/svg" xmlns:xlink="http://www.w3.org/1999/xlink">
    <!-- Generator: Sketch 42 (36781) - http://www.bohemiancoding.com/sketch -->
    <title>Group 13</title>
    <desc>Created with Sketch.</desc>
    <defs></defs>
    <g id="POML" stroke="none" stroke-width="1" fill="none" fill-rule="evenodd">
        <g id="BaseHealth-Solution" transform="translate(-757.000000, -888.000000)">
            <g id="Group-13" transform="translate(757.000000, 888.000000)">
                <g id="Group-3" transform="translate(30.000000, 46.278279)" stroke-width="4">
                    <path d="M0.00406127648,22.0133229 C0.00406127648,22.0133229 66.7429871,18.6959924 229.991763,176.580386 C393.240538,334.464779 492.313608,350.263844 527.465889,350.326351" id="Stroke-1" stroke="#00B1D6"></path>
                    <path d="M0.00284738844,349.374014 C0.00284738844,349.374014 66.7334677,352.930657 230.363659,195.632042 C393.995129,38.3334281 493.105255,22.889759 528.258175,22.9531588" id="Stroke-3" stroke="#1F8CC8"></path>
                    <polyline id="Stroke-5" stroke="#C9C9C9" points="0.458310961 0.00294675387 0.00278349959 355.495761 527.303611 356.442294"></polyline>
                </g>
                <path d="M317.381686,235.24784 C317.381686,260.084278 296.701178,280.217402 271.191236,280.217402 C245.680508,280.217402 225,260.084278 225,235.24784 C225,210.412167 245.680508,190.278279 271.191236,190.278279 C296.701178,190.278279 317.381686,210.412167 317.381686,235.24784 Z" id="Stroke-7" stroke="#E84686" stroke-width="4"></path>
                <path d="M484.001927,112.446279 C486.045927,112.446279 487.235927,111.312279 487.893927,110.150279 L486.185927,109.324279 C485.793927,110.080279 484.953927,110.682279 484.001927,110.682279 C482.293927,110.682279 481.061927,109.380279 481.061927,107.616279 C481.061927,105.852279 482.293927,104.550279 484.001927,104.550279 C484.953927,104.550279 485.793927,105.152279 486.185927,105.908279 L487.893927,105.068279 C487.235927,103.892279 486.045927,102.786279 484.001927,102.786279 C481.187927,102.786279 479.017927,104.732279 479.017927,107.616279 C479.017927,110.486279 481.187927,112.446279 484.001927,112.446279 Z M496.911927,112.446279 C494.083927,112.446279 492.025927,110.430279 492.025927,107.616279 C492.025927,104.802279 494.083927,102.786279 496.911927,102.786279 C499.725927,102.786279 501.783927,104.802279 501.783927,107.616279 C501.783927,110.430279 499.725927,112.446279 496.911927,112.446279 Z M496.911927,110.682279 C498.633927,110.682279 499.739927,109.352279 499.739927,107.616279 C499.739927,105.866279 498.633927,104.550279 496.911927,104.550279 C495.175927,104.550279 494.069927,105.866279 494.069927,107.616279 C494.069927,109.352279 495.175927,110.682279 496.911927,110.682279 Z M509.905927,112.446279 C512.411927,112.446279 513.643927,111.158279 513.643927,109.450279 C513.643927,105.964279 508.281927,106.958279 508.281927,105.488279 C508.281927,104.928279 508.757927,104.564279 509.597927,104.564279 C510.549927,104.564279 511.557927,104.886279 512.313927,105.586279 L513.419927,104.102279 C512.495927,103.248279 511.263927,102.800279 509.779927,102.800279 C507.581927,102.800279 506.237927,104.088279 506.237927,105.642279 C506.237927,109.156279 511.613927,108.022279 511.613927,109.646279 C511.613927,110.192279 511.095927,110.682279 509.989927,110.682279 C508.701927,110.682279 507.679927,110.094279 507.021927,109.408279 L505.929927,110.962279 C506.811927,111.844279 508.099927,112.446279 509.905927,112.446279 Z M522.339927,112.278279 L522.339927,104.690279 L525.055927,104.690279 L525.055927,102.940279 L517.607927,102.940279 L517.607927,104.690279 L520.337927,104.690279 L520.337927,112.278279 L522.339927,112.278279 Z M541.145928,112.446279 C538.317928,112.446279 536.259928,110.430279 536.259928,107.616279 C536.259928,104.802279 538.317928,102.786279 541.145928,102.786279 C543.959928,102.786279 546.017928,104.802279 546.017928,107.616279 C546.017928,110.430279 543.959928,112.446279 541.145928,112.446279 Z M541.145928,110.682279 C542.867928,110.682279 543.973928,109.352279 543.973928,107.616279 C543.973928,105.866279 542.867928,104.550279 541.145928,104.550279 C539.409928,104.550279 538.303928,105.866279 538.303928,107.616279 C538.303928,109.352279 539.409928,110.682279 541.145928,110.682279 Z M552.795928,112.278279 L552.795928,108.400279 L557.317928,108.400279 L557.317928,106.650279 L552.795928,106.650279 L552.795928,104.690279 L557.415928,104.690279 L557.415928,102.940279 L550.807928,102.940279 L550.807928,112.278279 L552.795928,112.278279 Z M476.777927,129.446279 C479.283927,129.446279 480.515927,128.158279 480.515927,126.450279 C480.515927,122.964279 475.153927,123.958279 475.153927,122.488279 C475.153927,121.928279 475.629927,121.564279 476.469927,121.564279 C477.421927,121.564279 478.429927,121.886279 479.185927,122.586279 L480.291927,121.102279 C479.367927,120.248279 478.135927,119.800279 476.651927,119.800279 C474.453927,119.800279 473.109927,121.088279 473.109927,122.642279 C473.109927,126.156279 478.485927,125.022279 478.485927,126.646279 C478.485927,127.192279 477.967927,127.682279 476.861927,127.682279 C475.573927,127.682279 474.551927,127.094279 473.893927,126.408279 L472.801927,127.962279 C473.683927,128.844279 474.971927,129.446279 476.777927,129.446279 Z M491.843927,129.278279 L491.843927,127.528279 L487.223927,127.528279 L487.223927,125.400279 L491.745927,125.400279 L491.745927,123.650279 L487.223927,123.650279 L487.223927,121.690279 L491.843927,121.690279 L491.843927,119.940279 L485.235927,119.940279 L485.235927,129.278279 L491.843927,129.278279 Z M504.361927,129.278279 L502.065927,129.278279 L500.231927,125.960279 L498.775927,125.960279 L498.775927,129.278279 L496.787927,129.278279 L496.787927,119.940279 L501.155927,119.940279 C503.101927,119.940279 504.305927,121.214279 504.305927,122.950279 C504.305927,124.588279 503.255927,125.484279 502.247927,125.722279 L504.361927,129.278279 Z M500.875927,124.210279 C501.659927,124.210279 502.261927,123.734279 502.261927,122.936279 C502.261927,122.166279 501.659927,121.690279 500.875927,121.690279 L498.775927,121.690279 L498.775927,124.210279 L500.875927,124.210279 Z M514.149927,129.278279 L517.747927,119.940279 L515.493927,119.940279 L512.903927,127.108279 L510.313927,119.940279 L508.059927,119.940279 L511.657927,129.278279 L514.149927,129.278279 Z M523.993927,129.278279 L523.993927,119.940279 L522.005927,119.940279 L522.005927,129.278279 L523.993927,129.278279 Z M533.767928,129.446279 C535.811928,129.446279 537.001928,128.312279 537.659928,127.150279 L535.951928,126.324279 C535.559928,127.080279 534.719928,127.682279 533.767928,127.682279 C532.059928,127.682279 530.827928,126.380279 530.827928,124.616279 C530.827928,122.852279 532.059928,121.550279 533.767928,121.550279 C534.719928,121.550279 535.559928,122.152279 535.951928,122.908279 L537.659928,122.068279 C537.001928,120.892279 535.811928,119.786279 533.767928,119.786279 C530.953928,119.786279 528.783928,121.732279 528.783928,124.616279 C528.783928,127.486279 530.953928,129.446279 533.767928,129.446279 Z M548.847928,129.278279 L548.847928,127.528279 L544.227928,127.528279 L544.227928,125.400279 L548.749928,125.400279 L548.749928,123.650279 L544.227928,123.650279 L544.227928,121.690279 L548.847928,121.690279 L548.847928,119.940279 L542.239928,119.940279 L542.239928,129.278279 L548.847928,129.278279 Z M557.123928,129.446279 C559.629928,129.446279 560.861928,128.158279 560.861928,126.450279 C560.861928,122.964279 555.499928,123.958279 555.499928,122.488279 C555.499928,121.928279 555.975928,121.564279 556.815928,121.564279 C557.767928,121.564279 558.775928,121.886279 559.531928,122.586279 L560.637928,121.102279 C559.713928,120.248279 558.481928,119.800279 556.997928,119.800279 C554.799928,119.800279 553.455928,121.088279 553.455928,122.642279 C553.455928,126.156279 558.831928,125.022279 558.831928,126.646279 C558.831928,127.192279 558.313928,127.682279 557.207928,127.682279 C555.919928,127.682279 554.897928,127.094279 554.239928,126.408279 L553.147928,127.962279 C554.029928,128.844279 555.317928,129.446279 557.123928,129.446279 Z" id="COST-OF-SERVICES" fill="#138DCD"></path>
                <path d="M429.362,317.446279 C426.534,317.446279 424.476,315.430279 424.476,312.616279 C424.476,309.802279 426.534,307.786279 429.362,307.786279 C432.176,307.786279 434.234,309.802279 434.234,312.616279 C434.234,315.430279 432.176,317.446279 429.362,317.446279 Z M429.362,315.682279 C431.084,315.682279 432.19,314.352279 432.19,312.616279 C432.19,310.866279 431.084,309.550279 429.362,309.550279 C427.626,309.550279 426.52,310.866279 426.52,312.616279 C426.52,314.352279 427.626,315.682279 429.362,315.682279 Z M441.012,317.278279 L439.024,317.278279 L439.024,307.940279 L443.392,307.940279 C445.422,307.940279 446.528,309.312279 446.528,310.950279 C446.528,312.574279 445.408,313.946279 443.392,313.946279 L441.012,313.946279 L441.012,317.278279 Z M443.112,312.196279 C443.896,312.196279 444.498,311.720279 444.498,310.950279 C444.498,310.166279 443.896,309.690279 443.112,309.690279 L441.012,309.690279 L441.012,312.196279 L443.112,312.196279 Z M455.322,317.278279 L455.322,309.690279 L458.038,309.690279 L458.038,307.940279 L450.59,307.940279 L450.59,309.690279 L453.32,309.690279 L453.32,317.278279 L455.322,317.278279 Z M464.69,317.278279 L464.69,307.940279 L462.702,307.940279 L462.702,317.278279 L464.69,317.278279 Z M474.366,317.446279 C471.538,317.446279 469.48,315.430279 469.48,312.616279 C469.48,309.802279 471.538,307.786279 474.366,307.786279 C477.18,307.786279 479.238,309.802279 479.238,312.616279 C479.238,315.430279 477.18,317.446279 474.366,317.446279 Z M474.366,315.682279 C476.088,315.682279 477.194,314.352279 477.194,312.616279 C477.194,310.866279 476.088,309.550279 474.366,309.550279 C472.63,309.550279 471.524,310.866279 471.524,312.616279 C471.524,314.352279 472.63,315.682279 474.366,315.682279 Z M492.386001,317.278279 L492.386001,307.940279 L490.398001,307.940279 L490.398001,313.806279 L486.072001,307.940279 L484.028001,307.940279 L484.028001,317.278279 L486.016001,317.278279 L486.016001,311.188279 L490.468001,317.278279 L492.386001,317.278279 Z M500.956001,317.446279 C503.462001,317.446279 504.694001,316.158279 504.694001,314.450279 C504.694001,310.964279 499.332001,311.958279 499.332001,310.488279 C499.332001,309.928279 499.808001,309.564279 500.648001,309.564279 C501.600001,309.564279 502.608001,309.886279 503.364001,310.586279 L504.470001,309.102279 C503.546001,308.248279 502.314001,307.800279 500.830001,307.800279 C498.632001,307.800279 497.288001,309.088279 497.288001,310.642279 C497.288001,314.156279 502.664001,313.022279 502.664001,314.646279 C502.664001,315.192279 502.146001,315.682279 501.040001,315.682279 C499.752001,315.682279 498.730001,315.094279 498.072001,314.408279 L496.980001,315.962279 C497.862001,316.844279 499.150001,317.446279 500.956001,317.446279 Z M518.390001,317.278279 L518.390001,313.400279 L522.912001,313.400279 L522.912001,311.650279 L518.390001,311.650279 L518.390001,309.690279 L523.010001,309.690279 L523.010001,307.940279 L516.402001,307.940279 L516.402001,317.278279 L518.390001,317.278279 Z M532.224001,317.446279 C529.396001,317.446279 527.338001,315.430279 527.338001,312.616279 C527.338001,309.802279 529.396001,307.786279 532.224001,307.786279 C535.038001,307.786279 537.096001,309.802279 537.096001,312.616279 C537.096001,315.430279 535.038001,317.446279 532.224001,317.446279 Z M532.224001,315.682279 C533.946001,315.682279 535.052001,314.352279 535.052001,312.616279 C535.052001,310.866279 533.946001,309.550279 532.224001,309.550279 C530.488001,309.550279 529.382001,310.866279 529.382001,312.616279 C529.382001,314.352279 530.488001,315.682279 532.224001,315.682279 Z M549.460001,317.278279 L547.164001,317.278279 L545.330001,313.960279 L543.874001,313.960279 L543.874001,317.278279 L541.886001,317.278279 L541.886001,307.940279 L546.254001,307.940279 C548.200001,307.940279 549.404001,309.214279 549.404001,310.950279 C549.404001,312.588279 548.354001,313.484279 547.346001,313.722279 L549.460001,317.278279 Z M545.974001,312.210279 C546.758001,312.210279 547.360001,311.734279 547.360001,310.936279 C547.360001,310.166279 546.758001,309.690279 545.974001,309.690279 L543.874001,309.690279 L543.874001,312.210279 L545.974001,312.210279 Z M426.912,334.278279 L426.912,324.940279 L424.924,324.940279 L424.924,334.278279 L426.912,334.278279 Z M440.508,334.278279 L440.508,324.940279 L438.52,324.940279 L438.52,330.806279 L434.194,324.940279 L432.15,324.940279 L432.15,334.278279 L434.138,334.278279 L434.138,328.188279 L438.59,334.278279 L440.508,334.278279 Z M449.904,334.278279 L449.904,326.690279 L452.62,326.690279 L452.62,324.940279 L445.172,324.940279 L445.172,326.690279 L447.902,326.690279 L447.902,334.278279 L449.904,334.278279 Z M463.892,334.278279 L463.892,332.528279 L459.272,332.528279 L459.272,330.400279 L463.794,330.400279 L463.794,328.650279 L459.272,328.650279 L459.272,326.690279 L463.892,326.690279 L463.892,324.940279 L457.284,324.940279 L457.284,334.278279 L463.892,334.278279 Z M476.41,334.278279 L474.114,334.278279 L472.28,330.960279 L470.824,330.960279 L470.824,334.278279 L468.836,334.278279 L468.836,324.940279 L473.204,324.940279 C475.15,324.940279 476.354,326.214279 476.354,327.950279 C476.354,329.588279 475.304,330.484279 474.296,330.722279 L476.41,334.278279 Z M472.924,329.210279 C473.708,329.210279 474.31,328.734279 474.31,327.936279 C474.31,327.166279 473.708,326.690279 472.924,326.690279 L470.824,326.690279 L470.824,329.210279 L472.924,329.210279 Z M486.198001,334.278279 L489.796001,324.940279 L487.542001,324.940279 L484.952001,332.108279 L482.362001,324.940279 L480.108001,324.940279 L483.706001,334.278279 L486.198001,334.278279 Z M500.662001,334.278279 L500.662001,332.528279 L496.042001,332.528279 L496.042001,330.400279 L500.564001,330.400279 L500.564001,328.650279 L496.042001,328.650279 L496.042001,326.690279 L500.662001,326.690279 L500.662001,324.940279 L494.054001,324.940279 L494.054001,334.278279 L500.662001,334.278279 Z M513.964001,334.278279 L513.964001,324.940279 L511.976001,324.940279 L511.976001,330.806279 L507.650001,324.940279 L505.606001,324.940279 L505.606001,334.278279 L507.594001,334.278279 L507.594001,328.188279 L512.046001,334.278279 L513.964001,334.278279 Z M523.360001,334.278279 L523.360001,326.690279 L526.076001,326.690279 L526.076001,324.940279 L518.628001,324.940279 L518.628001,326.690279 L521.358001,326.690279 L521.358001,334.278279 L523.360001,334.278279 Z M532.728001,334.278279 L532.728001,324.940279 L530.740001,324.940279 L530.740001,334.278279 L532.728001,334.278279 Z M542.404001,334.446279 C539.576001,334.446279 537.518001,332.430279 537.518001,329.616279 C537.518001,326.802279 539.576001,324.786279 542.404001,324.786279 C545.218001,324.786279 547.276001,326.802279 547.276001,329.616279 C547.276001,332.430279 545.218001,334.446279 542.404001,334.446279 Z M542.404001,332.682279 C544.126001,332.682279 545.232001,331.352279 545.232001,329.616279 C545.232001,327.866279 544.126001,326.550279 542.404001,326.550279 C540.668001,326.550279 539.562001,327.866279 539.562001,329.616279 C539.562001,331.352279 540.668001,332.682279 542.404001,332.682279 Z M560.424001,334.278279 L560.424001,324.940279 L558.436001,324.940279 L558.436001,330.806279 L554.110001,324.940279 L552.066001,324.940279 L552.066001,334.278279 L554.054001,334.278279 L554.054001,328.188279 L558.506001,334.278279 L560.424001,334.278279 Z" id="OPTIONS-FOR-INTERVEN" fill="#4EBCEC"></path>
                <path d="M202.178,65.2782786 L204.838,55.9402786 L202.612,55.9402786 L200.974,62.6882786 L199.21,55.9402786 L197.656,55.9402786 L195.878,62.6882786 L194.24,55.9402786 L192.014,55.9402786 L194.688,65.2782786 L196.802,65.2782786 L198.426,58.8662786 L200.064,65.2782786 L202.178,65.2782786 Z M217.566,65.2782786 L217.566,55.9402786 L215.564,55.9402786 L215.564,59.6082786 L211.154,59.6082786 L211.154,55.9402786 L209.166,55.9402786 L209.166,65.2782786 L211.154,65.2782786 L211.154,61.3442786 L215.564,61.3442786 L215.564,65.2782786 L217.566,65.2782786 Z M229.398,65.2782786 L229.398,63.5282786 L224.778,63.5282786 L224.778,61.4002786 L229.3,61.4002786 L229.3,59.6502786 L224.778,59.6502786 L224.778,57.6902786 L229.398,57.6902786 L229.398,55.9402786 L222.79,55.9402786 L222.79,65.2782786 L229.398,65.2782786 Z M241.916,65.2782786 L239.62,65.2782786 L237.786,61.9602786 L236.33,61.9602786 L236.33,65.2782786 L234.342,65.2782786 L234.342,55.9402786 L238.71,55.9402786 C240.656,55.9402786 241.86,57.2142786 241.86,58.9502786 C241.86,60.5882786 240.81,61.4842786 239.802,61.7222786 L241.916,65.2782786 Z M238.43,60.2102786 C239.214,60.2102786 239.816,59.7342786 239.816,58.9362786 C239.816,58.1662786 239.214,57.6902786 238.43,57.6902786 L236.33,57.6902786 L236.33,60.2102786 L238.43,60.2102786 Z M253.342,65.2782786 L253.342,63.5282786 L248.722,63.5282786 L248.722,61.4002786 L253.244,61.4002786 L253.244,59.6502786 L248.722,59.6502786 L248.722,57.6902786 L253.342,57.6902786 L253.342,55.9402786 L246.734,55.9402786 L246.734,65.2782786 L253.342,65.2782786 Z M269.810001,65.4462786 C271.854001,65.4462786 273.044001,64.3122786 273.702001,63.1502786 L271.994001,62.3242786 C271.602001,63.0802786 270.762001,63.6822786 269.810001,63.6822786 C268.102001,63.6822786 266.870001,62.3802786 266.870001,60.6162786 C266.870001,58.8522786 268.102001,57.5502786 269.810001,57.5502786 C270.762001,57.5502786 271.602001,58.1522786 271.994001,58.9082786 L273.702001,58.0682786 C273.044001,56.8922786 271.854001,55.7862786 269.810001,55.7862786 C266.996001,55.7862786 264.826001,57.7322786 264.826001,60.6162786 C264.826001,63.4862786 266.996001,65.4462786 269.810001,65.4462786 Z M282.720001,65.4462786 C279.892001,65.4462786 277.834001,63.4302786 277.834001,60.6162786 C277.834001,57.8022786 279.892001,55.7862786 282.720001,55.7862786 C285.534001,55.7862786 287.592001,57.8022786 287.592001,60.6162786 C287.592001,63.4302786 285.534001,65.4462786 282.720001,65.4462786 Z M282.720001,63.6822786 C284.442001,63.6822786 285.548001,62.3522786 285.548001,60.6162786 C285.548001,58.8662786 284.442001,57.5502786 282.720001,57.5502786 C280.984001,57.5502786 279.878001,58.8662786 279.878001,60.6162786 C279.878001,62.3522786 280.984001,63.6822786 282.720001,63.6822786 Z M295.714001,65.4462786 C298.220001,65.4462786 299.452001,64.1582786 299.452001,62.4502786 C299.452001,58.9642786 294.090001,59.9582786 294.090001,58.4882786 C294.090001,57.9282786 294.566001,57.5642786 295.406001,57.5642786 C296.358001,57.5642786 297.366001,57.8862786 298.122001,58.5862786 L299.228001,57.1022786 C298.304001,56.2482786 297.072001,55.8002786 295.588001,55.8002786 C293.390001,55.8002786 292.046001,57.0882786 292.046001,58.6422786 C292.046001,62.1562786 297.422001,61.0222786 297.422001,62.6462786 C297.422001,63.1922786 296.904001,63.6822786 295.798001,63.6822786 C294.510001,63.6822786 293.488001,63.0942786 292.830001,62.4082786 L291.738001,63.9622786 C292.620001,64.8442786 293.908001,65.4462786 295.714001,65.4462786 Z M308.148001,65.2782786 L308.148001,57.6902786 L310.864001,57.6902786 L310.864001,55.9402786 L303.416001,55.9402786 L303.416001,57.6902786 L306.146001,57.6902786 L306.146001,65.2782786 L308.148001,65.2782786 Z M318.762001,65.4462786 C321.268001,65.4462786 322.500001,64.1582786 322.500001,62.4502786 C322.500001,58.9642786 317.138001,59.9582786 317.138001,58.4882786 C317.138001,57.9282786 317.614001,57.5642786 318.454001,57.5642786 C319.406001,57.5642786 320.414001,57.8862786 321.170001,58.5862786 L322.276001,57.1022786 C321.352001,56.2482786 320.120001,55.8002786 318.636001,55.8002786 C316.438001,55.8002786 315.094001,57.0882786 315.094001,58.6422786 C315.094001,62.1562786 320.470001,61.0222786 320.470001,62.6462786 C320.470001,63.1922786 319.952001,63.6822786 318.846001,63.6822786 C317.558001,63.6822786 316.536001,63.0942786 315.878001,62.4082786 L314.786001,63.9622786 C315.668001,64.8442786 316.956001,65.4462786 318.762001,65.4462786 Z M201.632,82.2782786 L199.378,82.2782786 L198.79,80.6962786 L194.786,80.6962786 L194.198,82.2782786 L191.944,82.2782786 L195.542,72.9402786 L198.034,72.9402786 L201.632,82.2782786 Z M198.244,78.9462786 L196.788,74.9282786 L195.332,78.9462786 L198.244,78.9462786 Z M213.464,82.2782786 L211.168,82.2782786 L209.334,78.9602786 L207.878,78.9602786 L207.878,82.2782786 L205.89,82.2782786 L205.89,72.9402786 L210.258,72.9402786 C212.204,72.9402786 213.408,74.2142786 213.408,75.9502786 C213.408,77.5882786 212.358,78.4842786 211.35,78.7222786 L213.464,82.2782786 Z M209.978,77.2102786 C210.762,77.2102786 211.364,76.7342786 211.364,75.9362786 C211.364,75.1662786 210.762,74.6902786 209.978,74.6902786 L207.878,74.6902786 L207.878,77.2102786 L209.978,77.2102786 Z M224.89,82.2782786 L224.89,80.5282786 L220.27,80.5282786 L220.27,78.4002786 L224.792,78.4002786 L224.792,76.6502786 L220.27,76.6502786 L220.27,74.6902786 L224.89,74.6902786 L224.89,72.9402786 L218.282,72.9402786 L218.282,82.2782786 L224.89,82.2782786 Z M244.396,82.2782786 L242.1,82.2782786 L240.266,78.9602786 L238.81,78.9602786 L238.81,82.2782786 L236.822,82.2782786 L236.822,72.9402786 L241.19,72.9402786 C243.136,72.9402786 244.34,74.2142786 244.34,75.9502786 C244.34,77.5882786 243.29,78.4842786 242.282,78.7222786 L244.396,82.2782786 Z M240.91,77.2102786 C241.694,77.2102786 242.296,76.7342786 242.296,75.9362786 C242.296,75.1662786 241.694,74.6902786 240.91,74.6902786 L238.81,74.6902786 L238.81,77.2102786 L240.91,77.2102786 Z M251.202001,82.2782786 L251.202001,72.9402786 L249.214001,72.9402786 L249.214001,82.2782786 L251.202001,82.2782786 Z M259.772001,82.4462786 C262.278001,82.4462786 263.510001,81.1582786 263.510001,79.4502786 C263.510001,75.9642786 258.148001,76.9582786 258.148001,75.4882786 C258.148001,74.9282786 258.624001,74.5642786 259.464001,74.5642786 C260.416001,74.5642786 261.424001,74.8862786 262.180001,75.5862786 L263.286001,74.1022786 C262.362001,73.2482786 261.130001,72.8002786 259.646001,72.8002786 C257.448001,72.8002786 256.104001,74.0882786 256.104001,75.6422786 C256.104001,79.1562786 261.480001,78.0222786 261.480001,79.6462786 C261.480001,80.1922786 260.962001,80.6822786 259.856001,80.6822786 C258.568001,80.6822786 257.546001,80.0942786 256.888001,79.4082786 L255.796001,80.9622786 C256.678001,81.8442786 257.966001,82.4462786 259.772001,82.4462786 Z M270.218001,82.2782786 L270.218001,72.9402786 L268.230001,72.9402786 L268.230001,82.2782786 L270.218001,82.2782786 Z M283.814001,82.2782786 L283.814001,72.9402786 L281.826001,72.9402786 L281.826001,78.8062786 L277.500001,72.9402786 L275.456001,72.9402786 L275.456001,82.2782786 L277.444001,82.2782786 L277.444001,76.1882786 L281.896001,82.2782786 L283.814001,82.2782786 Z M293.588001,82.4462786 C295.268001,82.4462786 296.598001,81.7602786 297.550001,80.6962786 L297.550001,77.1122786 L293.098001,77.1122786 L293.098001,78.8482786 L295.562001,78.8482786 L295.562001,79.9682786 C295.184001,80.3182786 294.414001,80.6822786 293.588001,80.6822786 C291.880001,80.6822786 290.648001,79.3802786 290.648001,77.6162786 C290.648001,75.8522786 291.880001,74.5502786 293.588001,74.5502786 C294.568001,74.5502786 295.366001,75.1102786 295.800001,75.7682786 L297.438001,74.8722786 C296.738001,73.7662786 295.520001,72.7862786 293.588001,72.7862786 C290.844001,72.7862786 288.604001,74.6622786 288.604001,77.6162786 C288.604001,80.5562786 290.844001,82.4462786 293.588001,82.4462786 Z M304.608001,81.5922786 C304.608001,80.6822786 304.020001,80.1642786 303.362001,80.1642786 C302.760001,80.1642786 302.256001,80.6682786 302.256001,81.2842786 C302.256001,81.8722786 302.676001,82.2922786 303.208001,82.2922786 C303.320001,82.2922786 303.432001,82.2642786 303.474001,82.2502786 C303.362001,82.7402786 302.844001,83.3282786 302.396001,83.5662786 L303.166001,84.1962786 C304.034001,83.5802786 304.608001,82.6422786 304.608001,81.5922786 Z M321.538001,82.2782786 L316.470001,82.2782786 L316.470001,72.9402786 L321.384001,72.9402786 C323.162001,72.9402786 324.072001,74.0742786 324.072001,75.3202786 C324.072001,76.4822786 323.344001,77.2802786 322.462001,77.4622786 C323.470001,77.6162786 324.254001,78.5822786 324.254001,79.7442786 C324.254001,81.1582786 323.330001,82.2782786 321.538001,82.2782786 Z M320.950001,76.6502786 C321.622001,76.6502786 322.042001,76.2722786 322.042001,75.6702786 C322.042001,75.0962786 321.622001,74.6902786 320.950001,74.6902786 L318.458001,74.6902786 L318.458001,76.6502786 L320.950001,76.6502786 Z M321.034001,80.5282786 C321.776001,80.5282786 322.224001,80.1362786 322.224001,79.4642786 C322.224001,78.8762786 321.804001,78.4002786 321.034001,78.4002786 L318.458001,78.4002786 L318.458001,80.5282786 L321.034001,80.5282786 Z M333.356001,82.4462786 C336.198001,82.4462786 337.570001,80.8502786 337.570001,78.5402786 L337.570001,72.9402786 L335.540001,72.9402786 L335.540001,78.4842786 C335.540001,79.7862786 334.798001,80.6822786 333.356001,80.6822786 C331.914001,80.6822786 331.158001,79.7862786 331.158001,78.4842786 L331.158001,72.9402786 L329.142001,72.9402786 L329.142001,78.5402786 C329.142001,80.8502786 330.514001,82.4462786 333.356001,82.4462786 Z M346.966001,82.2782786 L346.966001,74.6902786 L349.682001,74.6902786 L349.682001,72.9402786 L342.234001,72.9402786 L342.234001,74.6902786 L344.964001,74.6902786 L344.964001,82.2782786 L346.966001,82.2782786 Z M194.912,99.2782786 L194.912,89.9402786 L192.924,89.9402786 L192.924,99.2782786 L194.912,99.2782786 Z M210.272,99.2782786 L210.272,89.9402786 L207.472,89.9402786 L205.204,95.7782786 L202.936,89.9402786 L200.15,89.9402786 L200.15,99.2782786 L202.138,99.2782786 L202.138,92.5442786 L204.77,99.2782786 L205.638,99.2782786 L208.27,92.5442786 L208.27,99.2782786 L210.272,99.2782786 Z M217.498,99.2782786 L215.51,99.2782786 L215.51,89.9402786 L219.878,89.9402786 C221.908,89.9402786 223.014,91.3122786 223.014,92.9502786 C223.014,94.5742786 221.894,95.9462786 219.878,95.9462786 L217.498,95.9462786 L217.498,99.2782786 Z M219.598,94.1962786 C220.382,94.1962786 220.984,93.7202786 220.984,92.9502786 C220.984,92.1662786 220.382,91.6902786 219.598,91.6902786 L217.498,91.6902786 L217.498,94.1962786 L219.598,94.1962786 Z M235.322,99.2782786 L233.068,99.2782786 L232.48,97.6962786 L228.476,97.6962786 L227.888,99.2782786 L225.634,99.2782786 L229.232,89.9402786 L231.724,89.9402786 L235.322,99.2782786 Z M231.934,95.9462786 L230.478,91.9282786 L229.022,95.9462786 L231.934,95.9462786 Z M243.64,99.4462786 C245.684,99.4462786 246.874,98.3122786 247.532,97.1502786 L245.824,96.3242786 C245.432,97.0802786 244.592,97.6822786 243.64,97.6822786 C241.932,97.6822786 240.7,96.3802786 240.7,94.6162786 C240.7,92.8522786 241.932,91.5502786 243.64,91.5502786 C244.592,91.5502786 245.432,92.1522786 245.824,92.9082786 L247.532,92.0682786 C246.874,90.8922786 245.684,89.7862786 243.64,89.7862786 C240.826,89.7862786 238.656,91.7322786 238.656,94.6162786 C238.656,97.4862786 240.826,99.4462786 243.64,99.4462786 Z M256.270001,99.2782786 L256.270001,91.6902786 L258.986001,91.6902786 L258.986001,89.9402786 L251.538001,89.9402786 L251.538001,91.6902786 L254.268001,91.6902786 L254.268001,99.2782786 L256.270001,99.2782786 Z M265.638001,99.2782786 L265.638001,95.4002786 L270.160001,95.4002786 L270.160001,93.6502786 L265.638001,93.6502786 L265.638001,91.6902786 L270.258001,91.6902786 L270.258001,89.9402786 L263.650001,89.9402786 L263.650001,99.2782786 L265.638001,99.2782786 Z M279.248001,99.4462786 C282.090001,99.4462786 283.462001,97.8502786 283.462001,95.5402786 L283.462001,89.9402786 L281.432001,89.9402786 L281.432001,95.4842786 C281.432001,96.7862786 280.690001,97.6822786 279.248001,97.6822786 C277.806001,97.6822786 277.050001,96.7862786 277.050001,95.4842786 L277.050001,89.9402786 L275.034001,89.9402786 L275.034001,95.5402786 C275.034001,97.8502786 276.406001,99.4462786 279.248001,99.4462786 Z M294.566001,99.2782786 L294.566001,97.5282786 L290.618001,97.5282786 L290.618001,89.9402786 L288.616001,89.9402786 L288.616001,99.2782786 L294.566001,99.2782786 Z M310.824001,99.4462786 C312.868001,99.4462786 314.058001,98.3122786 314.716001,97.1502786 L313.008001,96.3242786 C312.616001,97.0802786 311.776001,97.6822786 310.824001,97.6822786 C309.116001,97.6822786 307.884001,96.3802786 307.884001,94.6162786 C307.884001,92.8522786 309.116001,91.5502786 310.824001,91.5502786 C311.776001,91.5502786 312.616001,92.1522786 313.008001,92.9082786 L314.716001,92.0682786 C314.058001,90.8922786 312.868001,89.7862786 310.824001,89.7862786 C308.010001,89.7862786 305.840001,91.7322786 305.840001,94.6162786 C305.840001,97.4862786 308.010001,99.4462786 310.824001,99.4462786 Z M327.906001,99.2782786 L325.652001,99.2782786 L325.064001,97.6962786 L321.060001,97.6962786 L320.472001,99.2782786 L318.218001,99.2782786 L321.816001,89.9402786 L324.308001,89.9402786 L327.906001,99.2782786 Z M324.518001,95.9462786 L323.062001,91.9282786 L321.606001,95.9462786 L324.518001,95.9462786 Z M339.738001,99.2782786 L337.442001,99.2782786 L335.608001,95.9602786 L334.152001,95.9602786 L334.152001,99.2782786 L332.164001,99.2782786 L332.164001,89.9402786 L336.532001,89.9402786 C338.478001,89.9402786 339.682001,91.2142786 339.682001,92.9502786 C339.682001,94.5882786 338.632001,95.4842786 337.624001,95.7222786 L339.738001,99.2782786 Z M336.252001,94.2102786 C337.036001,94.2102786 337.638001,93.7342786 337.638001,92.9362786 C337.638001,92.1662786 337.036001,91.6902786 336.252001,91.6902786 L334.152001,91.6902786 L334.152001,94.2102786 L336.252001,94.2102786 Z M351.164001,99.2782786 L351.164001,97.5282786 L346.544001,97.5282786 L346.544001,95.4002786 L351.066001,95.4002786 L351.066001,93.6502786 L346.544001,93.6502786 L346.544001,91.6902786 L351.164001,91.6902786 L351.164001,89.9402786 L344.556001,89.9402786 L344.556001,99.2782786 L351.164001,99.2782786 Z M197.362,116.446279 C194.534,116.446279 192.476,114.430279 192.476,111.616279 C192.476,108.802279 194.534,106.786279 197.362,106.786279 C200.176,106.786279 202.234,108.802279 202.234,111.616279 C202.234,114.430279 200.176,116.446279 197.362,116.446279 Z M197.362,114.682279 C199.084,114.682279 200.19,113.352279 200.19,111.616279 C200.19,109.866279 199.084,108.550279 197.362,108.550279 C195.626,108.550279 194.52,109.866279 194.52,111.616279 C194.52,113.352279 195.626,114.682279 197.362,114.682279 Z M209.012,116.278279 L207.024,116.278279 L207.024,106.940279 L211.392,106.940279 C213.422,106.940279 214.528,108.312279 214.528,109.950279 C214.528,111.574279 213.408,112.946279 211.392,112.946279 L209.012,112.946279 L209.012,116.278279 Z M211.112,111.196279 C211.896,111.196279 212.498,110.720279 212.498,109.950279 C212.498,109.166279 211.896,108.690279 211.112,108.690279 L209.012,108.690279 L209.012,111.196279 L211.112,111.196279 Z M223.322,116.278279 L223.322,108.690279 L226.038,108.690279 L226.038,106.940279 L218.59,106.940279 L218.59,108.690279 L221.32,108.690279 L221.32,116.278279 L223.322,116.278279 Z M232.69,116.278279 L232.69,106.940279 L230.702,106.940279 L230.702,116.278279 L232.69,116.278279 Z M242.366,116.446279 C239.538,116.446279 237.48,114.430279 237.48,111.616279 C237.48,108.802279 239.538,106.786279 242.366,106.786279 C245.18,106.786279 247.238,108.802279 247.238,111.616279 C247.238,114.430279 245.18,116.446279 242.366,116.446279 Z M242.366,114.682279 C244.088,114.682279 245.194,113.352279 245.194,111.616279 C245.194,109.866279 244.088,108.550279 242.366,108.550279 C240.63,108.550279 239.524,109.866279 239.524,111.616279 C239.524,113.352279 240.63,114.682279 242.366,114.682279 Z M260.386001,116.278279 L260.386001,106.940279 L258.398001,106.940279 L258.398001,112.806279 L254.072001,106.940279 L252.028001,106.940279 L252.028001,116.278279 L254.016001,116.278279 L254.016001,110.188279 L258.468001,116.278279 L260.386001,116.278279 Z M268.956001,116.446279 C271.462001,116.446279 272.694001,115.158279 272.694001,113.450279 C272.694001,109.964279 267.332001,110.958279 267.332001,109.488279 C267.332001,108.928279 267.808001,108.564279 268.648001,108.564279 C269.600001,108.564279 270.608001,108.886279 271.364001,109.586279 L272.470001,108.102279 C271.546001,107.248279 270.314001,106.800279 268.830001,106.800279 C266.632001,106.800279 265.288001,108.088279 265.288001,109.642279 C265.288001,113.156279 270.664001,112.022279 270.664001,113.646279 C270.664001,114.192279 270.146001,114.682279 269.040001,114.682279 C267.752001,114.682279 266.730001,114.094279 266.072001,113.408279 L264.980001,114.962279 C265.862001,115.844279 267.150001,116.446279 268.956001,116.446279 Z M291.976001,116.278279 L289.680001,116.278279 L287.846001,112.960279 L286.390001,112.960279 L286.390001,116.278279 L284.402001,116.278279 L284.402001,106.940279 L288.770001,106.940279 C290.716001,106.940279 291.920001,108.214279 291.920001,109.950279 C291.920001,111.588279 290.870001,112.484279 289.862001,112.722279 L291.976001,116.278279 Z M288.490001,111.210279 C289.274001,111.210279 289.876001,110.734279 289.876001,109.936279 C289.876001,109.166279 289.274001,108.690279 288.490001,108.690279 L286.390001,108.690279 L286.390001,111.210279 L288.490001,111.210279 Z M303.402001,116.278279 L303.402001,114.528279 L298.782001,114.528279 L298.782001,112.400279 L303.304001,112.400279 L303.304001,110.650279 L298.782001,110.650279 L298.782001,108.690279 L303.402001,108.690279 L303.402001,106.940279 L296.794001,106.940279 L296.794001,116.278279 L303.402001,116.278279 Z M318.468001,116.278279 L318.468001,106.940279 L315.668001,106.940279 L313.400001,112.778279 L311.132001,106.940279 L308.346001,106.940279 L308.346001,116.278279 L310.334001,116.278279 L310.334001,109.544279 L312.966001,116.278279 L313.834001,116.278279 L316.466001,109.544279 L316.466001,116.278279 L318.468001,116.278279 Z M332.414001,116.278279 L330.160001,116.278279 L329.572001,114.696279 L325.568001,114.696279 L324.980001,116.278279 L322.726001,116.278279 L326.324001,106.940279 L328.816001,106.940279 L332.414001,116.278279 Z M329.026001,112.946279 L327.570001,108.928279 L326.114001,112.946279 L329.026001,112.946279 Z M338.660001,116.278279 L338.660001,106.940279 L336.672001,106.940279 L336.672001,116.278279 L338.660001,116.278279 Z M352.256001,116.278279 L352.256001,106.940279 L350.268001,106.940279 L350.268001,112.806279 L345.942001,106.940279 L343.898001,106.940279 L343.898001,116.278279 L345.886001,116.278279 L345.886001,110.188279 L350.338001,116.278279 L352.256001,116.278279 Z" id="WHERE-COSTS-ARE-RISI" fill="#ED2378"></path>
                <path d="M-110.217409,228.407687 L-110.217409,219.069687 L-112.205409,219.069687 L-112.205409,228.407687 L-110.217409,228.407687 Z M-97.8214086,228.407687 L-97.8214086,219.069687 L-99.8094086,219.069687 L-99.8094086,224.935687 L-104.135409,219.069687 L-106.179409,219.069687 L-106.179409,228.407687 L-104.191409,228.407687 L-104.191409,222.317687 L-99.7394086,228.407687 L-97.8214086,228.407687 Z M-89.2474085,228.575687 C-87.2034085,228.575687 -86.0134085,227.441687 -85.3554085,226.279687 L-87.0634085,225.453687 C-87.4554085,226.209687 -88.2954085,226.811687 -89.2474085,226.811687 C-90.9554085,226.811687 -92.1874085,225.509687 -92.1874085,223.745687 C-92.1874085,221.981687 -90.9554085,220.679687 -89.2474085,220.679687 C-88.2954085,220.679687 -87.4554085,221.281687 -87.0634085,222.037687 L-85.3554085,221.197687 C-86.0134085,220.021687 -87.2034085,218.915687 -89.2474085,218.915687 C-92.0614085,218.915687 -94.2314085,220.861687 -94.2314085,223.745687 C-94.2314085,226.615687 -92.0614085,228.575687 -89.2474085,228.575687 Z M-74.4014085,228.407687 L-76.6974085,228.407687 L-78.5314085,225.089687 L-79.9874085,225.089687 L-79.9874085,228.407687 L-81.9754085,228.407687 L-81.9754085,219.069687 L-77.6074085,219.069687 C-75.6614085,219.069687 -74.4574085,220.343687 -74.4574085,222.079687 C-74.4574085,223.717687 -75.5074085,224.613687 -76.5154085,224.851687 L-74.4014085,228.407687 Z M-77.8874085,223.339687 C-77.1034085,223.339687 -76.5014085,222.863687 -76.5014085,222.065687 C-76.5014085,221.295687 -77.1034085,220.819687 -77.8874085,220.819687 L-79.9874085,220.819687 L-79.9874085,223.339687 L-77.8874085,223.339687 Z M-64.1754084,228.407687 L-64.1754084,226.657687 L-68.7954084,226.657687 L-68.7954084,224.529687 L-64.2734084,224.529687 L-64.2734084,222.779687 L-68.7954084,222.779687 L-68.7954084,220.819687 L-64.1754084,220.819687 L-64.1754084,219.069687 L-70.7834084,219.069687 L-70.7834084,228.407687 L-64.1754084,228.407687 Z M-51.7234083,228.407687 L-53.9774083,228.407687 L-54.5654083,226.825687 L-58.5694083,226.825687 L-59.1574083,228.407687 L-61.4114083,228.407687 L-57.8134083,219.069687 L-55.3214083,219.069687 L-51.7234083,228.407687 Z M-55.1114083,225.075687 L-56.5674083,221.057687 L-58.0234083,225.075687 L-55.1114083,225.075687 Z M-45.4314083,228.575687 C-42.9254083,228.575687 -41.6934083,227.287687 -41.6934083,225.579687 C-41.6934083,222.093687 -47.0554083,223.087687 -47.0554083,221.617687 C-47.0554083,221.057687 -46.5794083,220.693687 -45.7394083,220.693687 C-44.7874083,220.693687 -43.7794083,221.015687 -43.0234083,221.715687 L-41.9174083,220.231687 C-42.8414083,219.377687 -44.0734083,218.929687 -45.5574083,218.929687 C-47.7554083,218.929687 -49.0994083,220.217687 -49.0994083,221.771687 C-49.0994083,225.285687 -43.7234083,224.151687 -43.7234083,225.775687 C-43.7234083,226.321687 -44.2414083,226.811687 -45.3474083,226.811687 C-46.6354083,226.811687 -47.6574083,226.223687 -48.3154083,225.537687 L-49.4074083,227.091687 C-48.5254083,227.973687 -47.2374083,228.575687 -45.4314083,228.575687 Z M-36.1854082,228.407687 L-36.1854082,219.069687 L-38.1734082,219.069687 L-38.1734082,228.407687 L-36.1854082,228.407687 Z M-23.7894082,228.407687 L-23.7894082,219.069687 L-25.7774082,219.069687 L-25.7774082,224.935687 L-30.1034082,219.069687 L-32.1474082,219.069687 L-32.1474082,228.407687 L-30.1594082,228.407687 L-30.1594082,222.317687 L-25.7074082,228.407687 L-23.7894082,228.407687 Z M-15.2154081,228.575687 C-13.5354081,228.575687 -12.2054081,227.889687 -11.2534081,226.825687 L-11.2534081,223.241687 L-15.7054081,223.241687 L-15.7054081,224.977687 L-13.2414081,224.977687 L-13.2414081,226.097687 C-13.6194081,226.447687 -14.3894081,226.811687 -15.2154081,226.811687 C-16.9234081,226.811687 -18.1554081,225.509687 -18.1554081,223.745687 C-18.1554081,221.981687 -16.9234081,220.679687 -15.2154081,220.679687 C-14.2354081,220.679687 -13.4374081,221.239687 -13.0034081,221.897687 L-11.3654081,221.001687 C-12.0654081,219.895687 -13.2834081,218.915687 -15.2154081,218.915687 C-17.9594081,218.915687 -20.1994081,220.791687 -20.1994081,223.745687 C-20.1994081,226.685687 -17.9594081,228.575687 -15.2154081,228.575687 Z M2.842592,228.575687 C4.886592,228.575687 6.076592,227.441687 6.734592,226.279687 L5.026592,225.453687 C4.634592,226.209687 3.794592,226.811687 2.842592,226.811687 C1.134592,226.811687 -0.0974079951,225.509687 -0.0974079951,223.745687 C-0.0974079951,221.981687 1.134592,220.679687 2.842592,220.679687 C3.794592,220.679687 4.634592,221.281687 5.026592,222.037687 L6.734592,221.197687 C6.076592,220.021687 4.886592,218.915687 2.842592,218.915687 C0.0285920049,218.915687 -2.141408,220.861687 -2.141408,223.745687 C-2.141408,226.615687 0.0285920049,228.575687 2.842592,228.575687 Z M14.5525921,228.575687 C11.7245921,228.575687 9.66659206,226.559687 9.66659206,223.745687 C9.66659206,220.931687 11.7245921,218.915687 14.5525921,218.915687 C17.3665921,218.915687 19.4245921,220.931687 19.4245921,223.745687 C19.4245921,226.559687 17.3665921,228.575687 14.5525921,228.575687 Z M14.5525921,226.811687 C16.2745921,226.811687 17.3805921,225.481687 17.3805921,223.745687 C17.3805921,221.995687 16.2745921,220.679687 14.5525921,220.679687 C12.8165921,220.679687 11.7105921,221.995687 11.7105921,223.745687 C11.7105921,225.481687 12.8165921,226.811687 14.5525921,226.811687 Z M26.3465921,228.575687 C28.8525921,228.575687 30.0845921,227.287687 30.0845921,225.579687 C30.0845921,222.093687 24.7225921,223.087687 24.7225921,221.617687 C24.7225921,221.057687 25.1985921,220.693687 26.0385921,220.693687 C26.9905921,220.693687 27.9985921,221.015687 28.7545921,221.715687 L29.8605921,220.231687 C28.9365921,219.377687 27.7045921,218.929687 26.2205921,218.929687 C24.0225921,218.929687 22.6785921,220.217687 22.6785921,221.771687 C22.6785921,225.285687 28.0545921,224.151687 28.0545921,225.775687 C28.0545921,226.321687 27.5365921,226.811687 26.4305921,226.811687 C25.1425921,226.811687 24.1205921,226.223687 23.4625921,225.537687 L22.3705921,227.091687 C23.2525921,227.973687 24.5405921,228.575687 26.3465921,228.575687 Z M37.5805922,228.407687 L37.5805922,220.819687 L40.2965922,220.819687 L40.2965922,219.069687 L32.8485922,219.069687 L32.8485922,220.819687 L35.5785922,220.819687 L35.5785922,228.407687 L37.5805922,228.407687 Z M44.1245922,228.687687 L47.4425922,218.789687 L46.1545922,218.789687 L42.8365922,228.687687 L44.1245922,228.687687 Z M54.9945923,228.575687 C52.1665923,228.575687 50.1085923,226.559687 50.1085923,223.745687 C50.1085923,220.931687 52.1665923,218.915687 54.9945923,218.915687 C57.8085923,218.915687 59.8665923,220.931687 59.8665923,223.745687 C59.8665923,226.559687 57.8085923,228.575687 54.9945923,228.575687 Z M54.9945923,226.811687 C56.7165923,226.811687 57.8225923,225.481687 57.8225923,223.745687 C57.8225923,221.995687 56.7165923,220.679687 54.9945923,220.679687 C53.2585923,220.679687 52.1525923,221.995687 52.1525923,223.745687 C52.1525923,225.481687 53.2585923,226.811687 54.9945923,226.811687 Z M65.4445923,228.407687 L63.4565923,228.407687 L63.4565923,219.069687 L67.8245923,219.069687 C69.8545923,219.069687 70.9605923,220.441687 70.9605923,222.079687 C70.9605923,223.703687 69.8405923,225.075687 67.8245923,225.075687 L65.4445923,225.075687 L65.4445923,228.407687 Z M67.5445923,223.325687 C68.3285923,223.325687 68.9305923,222.849687 68.9305923,222.079687 C68.9305923,221.295687 68.3285923,220.819687 67.5445923,220.819687 L65.4445923,220.819687 L65.4445923,223.325687 L67.5445923,223.325687 Z M78.5545924,228.407687 L78.5545924,220.819687 L81.2705924,220.819687 L81.2705924,219.069687 L73.8225924,219.069687 L73.8225924,220.819687 L76.5525924,220.819687 L76.5525924,228.407687 L78.5545924,228.407687 Z M86.7225925,228.407687 L86.7225925,219.069687 L84.7345925,219.069687 L84.7345925,228.407687 L86.7225925,228.407687 Z M95.1985925,228.575687 C92.3705925,228.575687 90.3125925,226.559687 90.3125925,223.745687 C90.3125925,220.931687 92.3705925,218.915687 95.1985925,218.915687 C98.0125925,218.915687 100.070593,220.931687 100.070593,223.745687 C100.070593,226.559687 98.0125925,228.575687 95.1985925,228.575687 Z M95.1985925,226.811687 C96.9205925,226.811687 98.0265925,225.481687 98.0265925,223.745687 C98.0265925,221.995687 96.9205925,220.679687 95.1985925,220.679687 C93.4625925,220.679687 92.3565925,221.995687 92.3565925,223.745687 C92.3565925,225.481687 93.4625925,226.811687 95.1985925,226.811687 Z M112.018593,228.407687 L112.018593,219.069687 L110.030593,219.069687 L110.030593,224.935687 L105.704593,219.069687 L103.660593,219.069687 L103.660593,228.407687 L105.648593,228.407687 L105.648593,222.317687 L110.100593,228.407687 L112.018593,228.407687 Z M119.388593,228.575687 C121.894593,228.575687 123.126593,227.287687 123.126593,225.579687 C123.126593,222.093687 117.764593,223.087687 117.764593,221.617687 C117.764593,221.057687 118.240593,220.693687 119.080593,220.693687 C120.032593,220.693687 121.040593,221.015687 121.796593,221.715687 L122.902593,220.231687 C121.978593,219.377687 120.746593,218.929687 119.262593,218.929687 C117.064593,218.929687 115.720593,220.217687 115.720593,221.771687 C115.720593,225.285687 121.096593,224.151687 121.096593,225.775687 C121.096593,226.321687 120.578593,226.811687 119.472593,226.811687 C118.184593,226.811687 117.162593,226.223687 116.504593,225.537687 L115.412593,227.091687 C116.294593,227.973687 117.582593,228.575687 119.388593,228.575687 Z" id="INCREASING-COST/OPTI" fill="#474747" transform="translate(5.460592, 223.738687) rotate(-90.000000) translate(-5.460592, -223.738687) "></path>
                <g id="Group-11" transform="translate(84.000000, 420.278279)" fill="#474747">
                    <polygon id="Fill-1" points="311.348749 7.96374065 311.352129 11.8631632 409.794955 11.782085 409.791575 7.88266246"></polygon>
                    <g id="Group-8">
                        <path d="M2.912,14.0956512 L2.912,4.75765119 L0.924,4.75765119 L0.924,14.0956512 L2.912,14.0956512 Z M15.3080001,14.0956512 L15.3080001,4.75765119 L13.3200001,4.75765119 L13.3200001,10.6236512 L8.99400006,4.75765119 L6.95000006,4.75765119 L6.95000006,14.0956512 L8.93800006,14.0956512 L8.93800006,8.00565119 L13.3900001,14.0956512 L15.3080001,14.0956512 Z M23.8820001,14.2636512 C25.9260001,14.2636512 27.1160001,13.1296512 27.7740001,11.9676512 L26.0660001,11.1416512 C25.6740001,11.8976512 24.8340001,12.4996512 23.8820001,12.4996512 C22.1740001,12.4996512 20.9420001,11.1976512 20.9420001,9.43365119 C20.9420001,7.66965119 22.1740001,6.36765119 23.8820001,6.36765119 C24.8340001,6.36765119 25.6740001,6.96965119 26.0660001,7.72565119 L27.7740001,6.88565119 C27.1160001,5.70965119 25.9260001,4.60365119 23.8820001,4.60365119 C21.0680001,4.60365119 18.8980001,6.54965119 18.8980001,9.43365119 C18.8980001,12.3036512 21.0680001,14.2636512 23.8820001,14.2636512 Z M38.7280002,14.0956512 L36.4320002,14.0956512 L34.5980002,10.7776512 L33.1420002,10.7776512 L33.1420002,14.0956512 L31.1540002,14.0956512 L31.1540002,4.75765119 L35.5220002,4.75765119 C37.4680002,4.75765119 38.6720002,6.03165119 38.6720002,7.76765119 C38.6720002,9.40565119 37.6220002,10.3016512 36.6140002,10.5396512 L38.7280002,14.0956512 Z M35.2420002,9.02765119 C36.0260002,9.02765119 36.6280002,8.55165119 36.6280002,7.75365119 C36.6280002,6.98365119 36.0260002,6.50765119 35.2420002,6.50765119 L33.1420002,6.50765119 L33.1420002,9.02765119 L35.2420002,9.02765119 Z M48.9540002,14.0956512 L48.9540002,12.3456512 L44.3340002,12.3456512 L44.3340002,10.2176512 L48.8560002,10.2176512 L48.8560002,8.46765119 L44.3340002,8.46765119 L44.3340002,6.50765119 L48.9540002,6.50765119 L48.9540002,4.75765119 L42.3460002,4.75765119 L42.3460002,14.0956512 L48.9540002,14.0956512 Z M61.4060003,14.0956512 L59.1520003,14.0956512 L58.5640003,12.5136512 L54.5600003,12.5136512 L53.9720003,14.0956512 L51.7180003,14.0956512 L55.3160003,4.75765119 L57.8080003,4.75765119 L61.4060003,14.0956512 Z M58.0180003,10.7636512 L56.5620003,6.74565119 L55.1060003,10.7636512 L58.0180003,10.7636512 Z M67.6980003,14.2636512 C70.2040003,14.2636512 71.4360003,12.9756512 71.4360003,11.2676512 C71.4360003,7.78165119 66.0740003,8.77565119 66.0740003,7.30565119 C66.0740003,6.74565119 66.5500003,6.38165119 67.3900003,6.38165119 C68.3420003,6.38165119 69.3500003,6.70365119 70.1060003,7.40365119 L71.2120003,5.91965119 C70.2880003,5.06565119 69.0560003,4.61765119 67.5720003,4.61765119 C65.3740003,4.61765119 64.0300003,5.90565119 64.0300003,7.45965119 C64.0300003,10.9736512 69.4060003,9.83965119 69.4060003,11.4636512 C69.4060003,12.0096512 68.8880003,12.4996512 67.7820003,12.4996512 C66.4940003,12.4996512 65.4720003,11.9116512 64.8140003,11.2256512 L63.7220003,12.7796512 C64.6040003,13.6616512 65.8920003,14.2636512 67.6980003,14.2636512 Z M76.9440004,14.0956512 L76.9440004,4.75765119 L74.9560004,4.75765119 L74.9560004,14.0956512 L76.9440004,14.0956512 Z M89.3400005,14.0956512 L89.3400005,4.75765119 L87.3520005,4.75765119 L87.3520005,10.6236512 L83.0260005,4.75765119 L80.9820005,4.75765119 L80.9820005,14.0956512 L82.9700005,14.0956512 L82.9700005,8.00565119 L87.4220005,14.0956512 L89.3400005,14.0956512 Z M97.9140005,14.2636512 C99.5940005,14.2636512 100.924001,13.5776512 101.876001,12.5136512 L101.876001,8.92965119 L97.4240005,8.92965119 L97.4240005,10.6656512 L99.8880005,10.6656512 L99.8880005,11.7856512 C99.5100005,12.1356512 98.7400005,12.4996512 97.9140005,12.4996512 C96.2060005,12.4996512 94.9740005,11.1976512 94.9740005,9.43365119 C94.9740005,7.66965119 96.2060005,6.36765119 97.9140005,6.36765119 C98.8940005,6.36765119 99.6920005,6.92765119 100.126001,7.58565119 L101.764001,6.68965119 C101.064001,5.58365119 99.8460005,4.60365119 97.9140005,4.60365119 C95.1700005,4.60365119 92.9300005,6.47965119 92.9300005,9.43365119 C92.9300005,12.3736512 95.1700005,14.2636512 97.9140005,14.2636512 Z M121.558001,14.0956512 L121.558001,4.75765119 L118.758001,4.75765119 L116.490001,10.5956512 L114.222001,4.75765119 L111.436001,4.75765119 L111.436001,14.0956512 L113.424001,14.0956512 L113.424001,7.36165119 L116.056001,14.0956512 L116.924001,14.0956512 L119.556001,7.36165119 L119.556001,14.0956512 L121.558001,14.0956512 Z M132.204001,14.0956512 L132.204001,12.3456512 L127.584001,12.3456512 L127.584001,10.2176512 L132.106001,10.2176512 L132.106001,8.46765119 L127.584001,8.46765119 L127.584001,6.50765119 L132.204001,6.50765119 L132.204001,4.75765119 L125.596001,4.75765119 L125.596001,14.0956512 L132.204001,14.0956512 Z M146.070001,14.0956512 L146.070001,4.75765119 L143.270001,4.75765119 L141.002001,10.5956512 L138.734001,4.75765119 L135.948001,4.75765119 L135.948001,14.0956512 L137.936001,14.0956512 L137.936001,7.36165119 L140.568001,14.0956512 L141.436001,14.0956512 L144.068001,7.36165119 L144.068001,14.0956512 L146.070001,14.0956512 Z M155.176001,14.0956512 L150.108001,14.0956512 L150.108001,4.75765119 L155.022001,4.75765119 C156.800001,4.75765119 157.710001,5.89165119 157.710001,7.13765119 C157.710001,8.29965119 156.982001,9.09765119 156.100001,9.27965119 C157.108001,9.43365119 157.892001,10.3996512 157.892001,11.5616512 C157.892001,12.9756512 156.968001,14.0956512 155.176001,14.0956512 Z M154.588001,8.46765119 C155.260001,8.46765119 155.680001,8.08965119 155.680001,7.48765119 C155.680001,6.91365119 155.260001,6.50765119 154.588001,6.50765119 L152.096001,6.50765119 L152.096001,8.46765119 L154.588001,8.46765119 Z M154.672001,12.3456512 C155.414001,12.3456512 155.862001,11.9536512 155.862001,11.2816512 C155.862001,10.6936512 155.442001,10.2176512 154.672001,10.2176512 L152.096001,10.2176512 L152.096001,12.3456512 L154.672001,12.3456512 Z M168.188001,14.0956512 L168.188001,12.3456512 L163.568001,12.3456512 L163.568001,10.2176512 L168.090001,10.2176512 L168.090001,8.46765119 L163.568001,8.46765119 L163.568001,6.50765119 L168.188001,6.50765119 L168.188001,4.75765119 L161.580001,4.75765119 L161.580001,14.0956512 L168.188001,14.0956512 Z M179.506001,14.0956512 L177.210001,14.0956512 L175.376001,10.7776512 L173.920001,10.7776512 L173.920001,14.0956512 L171.932001,14.0956512 L171.932001,4.75765119 L176.300001,4.75765119 C178.246001,4.75765119 179.450001,6.03165119 179.450001,7.76765119 C179.450001,9.40565119 178.400001,10.3016512 177.392001,10.5396512 L179.506001,14.0956512 Z M176.020001,9.02765119 C176.804001,9.02765119 177.406001,8.55165119 177.406001,7.75365119 C177.406001,6.98365119 176.804001,6.50765119 176.020001,6.50765119 L173.920001,6.50765119 L173.920001,9.02765119 L176.020001,9.02765119 Z M190.900001,14.0956512 L190.900001,4.75765119 L188.912001,4.75765119 L188.912001,14.0956512 L190.900001,14.0956512 Z M203.296001,14.0956512 L203.296001,4.75765119 L201.308001,4.75765119 L201.308001,10.6236512 L196.982001,4.75765119 L194.938001,4.75765119 L194.938001,14.0956512 L196.926001,14.0956512 L196.926001,8.00565119 L201.378001,14.0956512 L203.296001,14.0956512 Z M211.492001,14.0956512 L211.492001,6.50765119 L214.208001,6.50765119 L214.208001,4.75765119 L206.760001,4.75765119 L206.760001,6.50765119 L209.490001,6.50765119 L209.490001,14.0956512 L211.492001,14.0956512 Z M224.280001,14.0956512 L224.280001,12.3456512 L219.660001,12.3456512 L219.660001,10.2176512 L224.182001,10.2176512 L224.182001,8.46765119 L219.660001,8.46765119 L219.660001,6.50765119 L224.280001,6.50765119 L224.280001,4.75765119 L217.672001,4.75765119 L217.672001,14.0956512 L224.280001,14.0956512 Z M236.382001,14.0956512 L236.382001,4.75765119 L234.394001,4.75765119 L234.394001,10.6236512 L230.068001,4.75765119 L228.024001,4.75765119 L228.024001,14.0956512 L230.012001,14.0956512 L230.012001,8.00565119 L234.464001,14.0956512 L236.382001,14.0956512 Z M243.752001,14.2636512 C246.258001,14.2636512 247.490001,12.9756512 247.490001,11.2676512 C247.490001,7.78165119 242.128001,8.77565119 242.128001,7.30565119 C242.128001,6.74565119 242.604001,6.38165119 243.444001,6.38165119 C244.396001,6.38165119 245.404001,6.70365119 246.160001,7.40365119 L247.266001,5.91965119 C246.342001,5.06565119 245.110001,4.61765119 243.626001,4.61765119 C241.428001,4.61765119 240.084001,5.90565119 240.084001,7.45965119 C240.084001,10.9736512 245.460001,9.83965119 245.460001,11.4636512 C245.460001,12.0096512 244.942001,12.4996512 243.836001,12.4996512 C242.548001,12.4996512 241.526001,11.9116512 240.868001,11.2256512 L239.776001,12.7796512 C240.658001,13.6616512 241.946001,14.2636512 243.752001,14.2636512 Z M252.998001,14.0956512 L252.998001,4.75765119 L251.010001,4.75765119 L251.010001,14.0956512 L252.998001,14.0956512 Z M261.194001,14.0956512 L261.194001,6.50765119 L263.910001,6.50765119 L263.910001,4.75765119 L256.462001,4.75765119 L256.462001,6.50765119 L259.192001,6.50765119 L259.192001,14.0956512 L261.194001,14.0956512 Z M271.966001,14.0956512 L271.966001,10.2736512 L275.536001,4.75765119 L273.282001,4.75765119 L270.972001,8.49565119 L268.662001,4.75765119 L266.394001,4.75765119 L269.978001,10.2736512 L269.978001,14.0956512 L271.966001,14.0956512 Z" id="INCREASING-MEMBER-IN"></path>
                        <polygon id="Fill-2" points="403.7141 0.000109565119 403.729872 19.6385614 421.209163 9.80509203"></polygon>
                    </g>
                </g>
                <path d="M55.0167752,15.2782786 L55.0167752,3.35427865 L59.2847752,3.35427865 L59.2847752,0.604278649 L47.5807752,0.604278649 L47.5807752,3.35427865 L51.8707752,3.35427865 L51.8707752,15.2782786 L55.0167752,15.2782786 Z M78.4467752,15.2782786 L78.4467752,0.604278649 L75.3007752,0.604278649 L75.3007752,6.36827865 L68.3707752,6.36827865 L68.3707752,0.604278649 L65.2467752,0.604278649 L65.2467752,15.2782786 L68.3707752,15.2782786 L68.3707752,9.09627865 L75.3007752,9.09627865 L75.3007752,15.2782786 L78.4467752,15.2782786 Z M95.6727753,15.2782786 L95.6727753,12.5282786 L88.4127753,12.5282786 L88.4127753,9.18427865 L95.5187753,9.18427865 L95.5187753,6.43427865 L88.4127753,6.43427865 L88.4127753,3.35427865 L95.6727753,3.35427865 L95.6727753,0.604278649 L85.2887753,0.604278649 L85.2887753,15.2782786 L95.6727753,15.2782786 Z M114.812775,15.2782786 L111.688775,15.2782786 L111.688775,0.604278649 L118.552775,0.604278649 C121.742775,0.604278649 123.480775,2.76027865 123.480775,5.33427865 C123.480775,7.88627865 121.720775,10.0422786 118.552775,10.0422786 L114.812775,10.0422786 L114.812775,15.2782786 Z M118.112775,7.29227865 C119.344775,7.29227865 120.290775,6.54427865 120.290775,5.33427865 C120.290775,4.10227865 119.344775,3.35427865 118.112775,3.35427865 L114.812775,3.35427865 L114.812775,7.29227865 L118.112775,7.29227865 Z M136.372775,15.5422786 C131.928775,15.5422786 128.694775,12.3742786 128.694775,7.95227865 C128.694775,3.53027865 131.928775,0.362278649 136.372775,0.362278649 C140.794775,0.362278649 144.028775,3.53027865 144.028775,7.95227865 C144.028775,12.3742786 140.794775,15.5422786 136.372775,15.5422786 Z M136.372775,12.7702786 C139.078775,12.7702786 140.816775,10.6802786 140.816775,7.95227865 C140.816775,5.20227865 139.078775,3.13427865 136.372775,3.13427865 C133.644775,3.13427865 131.906775,5.20227865 131.906775,7.95227865 C131.906775,10.6802786 133.644775,12.7702786 136.372775,12.7702786 Z M153.312775,15.2782786 L153.312775,0.604278649 L150.188775,0.604278649 L150.188775,15.2782786 L153.312775,15.2782786 Z M173.310775,15.2782786 L173.310775,0.604278649 L170.186775,0.604278649 L170.186775,9.82227865 L163.388775,0.604278649 L160.176775,0.604278649 L160.176775,15.2782786 L163.300775,15.2782786 L163.300775,5.70827865 L170.296775,15.2782786 L173.310775,15.2782786 Z M186.708776,15.2782786 L186.708776,3.35427865 L190.976776,3.35427865 L190.976776,0.604278649 L179.272776,0.604278649 L179.272776,3.35427865 L183.562776,3.35427865 L183.562776,15.2782786 L186.708776,15.2782786 Z M213.526776,15.5422786 C209.082776,15.5422786 205.848776,12.3742786 205.848776,7.95227865 C205.848776,3.53027865 209.082776,0.362278649 213.526776,0.362278649 C217.948776,0.362278649 221.182776,3.53027865 221.182776,7.95227865 C221.182776,12.3742786 217.948776,15.5422786 213.526776,15.5422786 Z M213.526776,12.7702786 C216.232776,12.7702786 217.970776,10.6802786 217.970776,7.95227865 C217.970776,5.20227865 216.232776,3.13427865 213.526776,3.13427865 C210.798776,3.13427865 209.060776,5.20227865 209.060776,7.95227865 C209.060776,10.6802786 210.798776,12.7702786 213.526776,12.7702786 Z M230.466776,15.2782786 L230.466776,9.18427865 L237.572776,9.18427865 L237.572776,6.43427865 L230.466776,6.43427865 L230.466776,3.35427865 L237.726776,3.35427865 L237.726776,0.604278649 L227.342776,0.604278649 L227.342776,15.2782786 L230.466776,15.2782786 Z M269.384776,15.2782786 L269.384776,0.604278649 L264.984776,0.604278649 L261.420776,9.77827865 L257.856776,0.604278649 L253.478776,0.604278649 L253.478776,15.2782786 L256.602776,15.2782786 L256.602776,4.69627865 L260.738776,15.2782786 L262.102776,15.2782786 L266.238776,4.69627865 L266.238776,15.2782786 L269.384776,15.2782786 Z M289.932776,15.2782786 L286.390776,15.2782786 L285.466776,12.7922786 L279.174776,12.7922786 L278.250776,15.2782786 L274.708776,15.2782786 L280.362776,0.604278649 L284.278776,0.604278649 L289.932776,15.2782786 Z M284.608776,10.0422786 L282.320776,3.72827865 L280.032776,10.0422786 L284.608776,10.0422786 Z M308.566776,15.2782786 L303.242776,7.73227865 L308.236776,0.604278649 L304.474776,0.604278649 L301.152776,5.62027865 L297.786776,0.604278649 L294.068776,0.604278649 L299.062776,7.75427865 L293.738776,15.2782786 L297.456776,15.2782786 L301.152776,9.91027865 L304.826776,15.2782786 L308.566776,15.2782786 Z M317.036776,15.2782786 L317.036776,0.604278649 L313.912776,0.604278649 L313.912776,15.2782786 L317.036776,15.2782786 Z M339.806776,15.2782786 L339.806776,0.604278649 L335.406776,0.604278649 L331.842776,9.77827865 L328.278776,0.604278649 L323.900776,0.604278649 L323.900776,15.2782786 L327.024776,15.2782786 L327.024776,4.69627865 L331.160776,15.2782786 L332.524776,15.2782786 L336.660776,4.69627865 L336.660776,15.2782786 L339.806776,15.2782786 Z M353.292776,15.5422786 C357.758776,15.5422786 359.914776,13.0342786 359.914776,9.40427865 L359.914776,0.604278649 L356.724776,0.604278649 L356.724776,9.31627865 C356.724776,11.3622786 355.558776,12.7702786 353.292776,12.7702786 C351.026776,12.7702786 349.838776,11.3622786 349.838776,9.31627865 L349.838776,0.604278649 L346.670776,0.604278649 L346.670776,9.40427865 C346.670776,13.0342786 348.826776,15.5422786 353.292776,15.5422786 Z M382.684776,15.2782786 L382.684776,0.604278649 L378.284776,0.604278649 L374.720776,9.77827865 L371.156776,0.604278649 L366.778776,0.604278649 L366.778776,15.2782786 L369.902776,15.2782786 L369.902776,4.69627865 L374.038776,15.2782786 L375.402776,15.2782786 L379.538776,4.69627865 L379.538776,15.2782786 L382.684776,15.2782786 Z M408.380776,15.2782786 L408.380776,12.5282786 L402.176776,12.5282786 L402.176776,0.604278649 L399.030776,0.604278649 L399.030776,15.2782786 L408.380776,15.2782786 Z M424.836776,15.2782786 L424.836776,12.5282786 L417.576776,12.5282786 L417.576776,9.18427865 L424.682776,9.18427865 L424.682776,6.43427865 L417.576776,6.43427865 L417.576776,3.35427865 L424.836776,3.35427865 L424.836776,0.604278649 L414.452776,0.604278649 L414.452776,15.2782786 L424.836776,15.2782786 Z M439.268776,15.2782786 L444.922776,0.604278649 L441.380776,0.604278649 L437.310776,11.8682786 L433.240776,0.604278649 L429.698776,0.604278649 L435.352776,15.2782786 L439.268776,15.2782786 Z M460.630776,15.2782786 L460.630776,12.5282786 L453.370776,12.5282786 L453.370776,9.18427865 L460.476776,9.18427865 L460.476776,6.43427865 L453.370776,6.43427865 L453.370776,3.35427865 L460.630776,3.35427865 L460.630776,0.604278649 L450.246776,0.604278649 L450.246776,15.2782786 L460.630776,15.2782786 Z M478.934776,15.2782786 L475.326776,15.2782786 L472.444776,10.0642786 L470.156776,10.0642786 L470.156776,15.2782786 L467.032776,15.2782786 L467.032776,0.604278649 L473.896776,0.604278649 C476.954776,0.604278649 478.846776,2.60627865 478.846776,5.33427865 C478.846776,7.90827865 477.196776,9.31627865 475.612776,9.69027865 L478.934776,15.2782786 Z M473.456776,7.31427865 C474.688776,7.31427865 475.634776,6.56627865 475.634776,5.31227865 C475.634776,4.10227865 474.688776,3.35427865 473.456776,3.35427865 L470.156776,3.35427865 L470.156776,7.31427865 L473.456776,7.31427865 Z M498.822776,15.2782786 L495.280776,15.2782786 L494.356776,12.7922786 L488.064776,12.7922786 L487.140776,15.2782786 L483.598776,15.2782786 L489.252776,0.604278649 L493.168776,0.604278649 L498.822776,15.2782786 Z M493.498776,10.0422786 L491.210776,3.72827865 L488.922776,10.0422786 L493.498776,10.0422786 Z M510.526776,15.5422786 C513.166776,15.5422786 515.256776,14.4642786 516.752776,12.7922786 L516.752776,7.16027865 L509.756776,7.16027865 L509.756776,9.88827865 L513.628776,9.88827865 L513.628776,11.6482786 C513.034776,12.1982786 511.824776,12.7702786 510.526776,12.7702786 C507.842776,12.7702786 505.906776,10.7242786 505.906776,7.95227865 C505.906776,5.18027865 507.842776,3.13427865 510.526776,3.13427865 C512.066776,3.13427865 513.320776,4.01427865 514.002776,5.04827865 L516.576776,3.64027865 C515.476776,1.90227865 513.562776,0.362278649 510.526776,0.362278649 C506.214776,0.362278649 502.694776,3.31027865 502.694776,7.95227865 C502.694776,12.5722786 506.214776,15.5422786 510.526776,15.5422786 Z M533.582776,15.2782786 L533.582776,12.5282786 L526.322776,12.5282786 L526.322776,9.18427865 L533.428776,9.18427865 L533.428776,6.43427865 L526.322776,6.43427865 L526.322776,3.35427865 L533.582776,3.35427865 L533.582776,0.604278649 L523.198776,0.604278649 L523.198776,15.2782786 L533.582776,15.2782786 Z" id="THE-POINT-OF-MAXIMUM" fill="#138DCD"></path>
                <path d="M269,130.294599 L269,188.5285" id="Line" stroke="#ED2378" stroke-width="4" stroke-linecap="square"></path>
            </g>
        </g>
    </g>
</svg>