<?xml version="1.0" encoding="UTF-8" standalone="no"?>
<svg width="864px" height="267px" viewBox="0 0 864 267" version="1.1" xmlns="http://www.w3.org/2000/svg" xmlns:xlink="http://www.w3.org/1999/xlink">
    <!-- Generator: Sketch 42 (36781) - http://www.bohemiancoding.com/sketch -->
    <title>Page 1</title>
    <desc>Created with Sketch.</desc>
    <defs>
        <polygon id="path-1" points="0 102.2256 0 0.5886 169.8514 0.5886 169.8514 102.2256 1.96110489e-15 102.2256"></polygon>
        <polygon id="path-3" points="0 102.4834 0 0.8474 169.8514 0.8474 169.8514 102.4834 1.96110489e-15 102.4834"></polygon>
        <polygon id="path-5" points="0.0098 0.738 174.917 0.738 174.917 80.2969 0.0098 80.2969"></polygon>
    </defs>
    <g id="POML" stroke="none" stroke-width="1" fill="none" fill-rule="evenodd">
        <g id="BaseHealth-Solution" transform="translate(-288.000000, -2673.000000)">
            <g id="Group-9" transform="translate(209.000000, 2635.000000)">
                <g id="Page-1" transform="translate(79.000000, 37.000000)">
                    <polygon id="Fill-1" fill="#45BBD4" points="278.578 171.2913 233.781 180.7063 251.399 189.9033 253.605 209.6553"></polygon>
                    <g id="Group-14" transform="translate(0.000000, 17.262000)">
                        <path d="M195.5683,192.7305 C182.8813,192.7305 168.1443,191.0305 151.3103,186.5595 L153.4413,178.5375 C227.0473,198.0865 258.2773,162.9405 258.5843,162.5835 L264.8813,167.9915 C264.5233,168.4085 255.8953,178.2895 237.4203,185.4545 C227.5793,189.2695 213.6623,192.7305 195.5683,192.7305" id="Fill-2" fill="#45BBD4"></path>
                        <polygon id="Fill-4" fill="#138BCB" points="278.578 65.2539 233.781 55.8389 251.399 46.6419 253.605 26.8899"></polygon>
                        <path d="M195.5683,26.5527 C182.8813,26.5527 168.1443,28.2527 151.3103,32.7237 L153.4413,40.7457 C227.0473,21.1967 258.2773,56.3427 258.5843,56.6997 L264.8813,51.2917 C264.5233,50.8747 255.8953,40.9937 237.4203,33.8287 C227.5793,30.0137 213.6623,26.5527 195.5683,26.5527" id="Fill-6" fill="#138BCB"></path>
                        <g id="Group-10">
                            <mask id="mask-2" fill="white">
                                <use xlink:href="#path-1"></use>
                            </mask>
                            <g id="Clip-9"></g>
                            <path d="M134.8734,102.2256 L34.9784,102.2256 C15.6604,102.2256 -0.0006,86.5646 -0.0006,67.2466 L-0.0006,35.5676 C-0.0006,16.2496 15.6604,0.5886 34.9784,0.5886 L134.8734,0.5886 C154.1914,0.5886 169.8514,16.2496 169.8514,35.5676 L169.8514,67.2466 C169.8514,86.5646 154.1914,102.2256 134.8734,102.2256" id="Fill-8" fill="#138BCB" mask="url(#mask-2)"></path>
                        </g>
                        <g id="Group-13" transform="translate(0.000000, 122.000000)">
                            <mask id="mask-4" fill="white">
                                <use xlink:href="#path-3"></use>
                            </mask>
                            <g id="Clip-12"></g>
                            <path d="M134.8734,102.4834 L34.9784,102.4834 C15.6604,102.4834 -0.0006,86.8234 -0.0006,67.5054 L-0.0006,35.8264 C-0.0006,16.5084 15.6604,0.8474 34.9784,0.8474 L134.8734,0.8474 C154.1914,0.8474 169.8514,16.5084 169.8514,35.8264 L169.8514,67.5054 C169.8514,86.8234 154.1914,102.4834 134.8734,102.4834" id="Fill-11" fill="#45BBD4" mask="url(#mask-4)"></path>
                        </g>
                    </g>
                    <path d="M68.0110872,61.7240294 L62.4003338,61.7240294 L60.936659,57.7860472 L50.9697306,57.7860472 L49.5060558,61.7240294 L43.8953024,61.7240294 L52.8515982,38.4794796 L59.0547914,38.4794796 L68.0110872,61.7240294 Z M59.5775324,53.4298722 L55.9531948,43.4280944 L52.3288572,53.4298722 L59.5775324,53.4298722 Z M80.289076,62.1422222 C73.4585936,62.1422222 67.8826896,57.4375532 67.8826896,50.1191792 C67.8826896,42.7659558 73.4585936,38.0961362 80.289076,38.0961362 C85.0982932,38.0961362 88.130191,40.5355942 89.872661,43.2886968 L85.7952812,45.5190584 C84.7149498,43.8811366 82.728534,42.4871606 80.289076,42.4871606 C76.0374492,42.4871606 72.970702,45.7281548 72.970702,50.1191792 C72.970702,54.5102036 76.0374492,57.7511978 80.289076,57.7511978 C82.3451906,57.7511978 84.2619076,56.8451134 85.2028414,55.9738784 L85.2028414,53.1859264 L79.069347,53.1859264 L79.069347,48.8646008 L90.1514562,48.8646008 L90.1514562,57.7860472 C87.781697,60.4346016 84.471004,62.1422222 80.289076,62.1422222 Z M111.734235,61.7240294 L111.734235,57.3678544 L100.233933,57.3678544 L100.233933,52.0707456 L111.490289,52.0707456 L111.490289,47.7145706 L100.233933,47.7145706 L100.233933,42.8356546 L111.734235,42.8356546 L111.734235,38.4794796 L95.285318,38.4794796 L95.285318,61.7240294 L111.734235,61.7240294 Z" id="AGE" fill="#FFFFFF"></path>
                    <path d="M43.7133744,187.565213 L50.3347604,164.320663 L44.7937058,164.320663 L40.716326,181.118074 L36.3253016,164.320663 L32.4570182,164.320663 L28.0311444,181.118074 L23.9537646,164.320663 L18.41271,164.320663 L25.0689454,187.565213 L30.3312048,187.565213 L34.3737352,171.604188 L38.451115,187.565213 L43.7133744,187.565213 Z M69.163587,187.565213 L69.163587,183.209038 L57.663285,183.209038 L57.663285,177.911929 L68.9196412,177.911929 L68.9196412,173.555754 L57.663285,173.555754 L57.663285,168.676838 L69.163587,168.676838 L69.163587,164.320663 L52.7146702,164.320663 L52.7146702,187.565213 L69.163587,187.565213 Z M78.0254852,187.565213 L78.0254852,164.320663 L73.0768704,164.320663 L73.0768704,187.565213 L78.0254852,187.565213 Z M93.9618116,187.983406 C98.1437396,187.983406 101.454433,186.275785 103.824192,183.627231 L103.824192,174.705784 L92.7420826,174.705784 L92.7420826,179.02711 L98.875577,179.02711 L98.875577,181.815062 C97.9346432,182.686297 96.0179262,183.592381 93.9618116,183.592381 C89.7101848,183.592381 86.6434376,180.351387 86.6434376,175.960363 C86.6434376,171.569338 89.7101848,168.328344 93.9618116,168.328344 C96.4012696,168.328344 98.3876854,169.72232 99.4680168,171.360242 L103.545397,169.12988 C101.802927,166.376778 98.7710288,163.93732 93.9618116,163.93732 C87.1313292,163.93732 81.5554252,168.607139 81.5554252,175.960363 C81.5554252,183.278737 87.1313292,187.983406 93.9618116,187.983406 Z M128.716814,187.565213 L128.716814,164.320663 L123.73335,164.320663 L123.73335,173.451206 L112.755789,173.451206 L112.755789,164.320663 L107.807174,164.320663 L107.807174,187.565213 L112.755789,187.565213 L112.755789,177.772531 L123.73335,177.772531 L123.73335,187.565213 L128.716814,187.565213 Z M143.677357,187.565213 L143.677357,168.676838 L150.438141,168.676838 L150.438141,164.320663 L131.89826,164.320663 L131.89826,168.676838 L138.693893,168.676838 L138.693893,187.565213 L143.677357,187.565213 Z" id="WEIGHT" fill="#FFFFFF"></path>
                    <path d="M24.6619,87.5619595 C27.583055,87.5619595 29.0135175,85.890577 29.0135175,83.4060895 L29.0135175,77.337917 L27.221675,77.337917 L27.221675,83.360917 C27.221675,84.957012 26.3332825,85.9959795 24.6619,85.9959795 C22.9905175,85.9959795 22.102125,84.957012 22.102125,83.360917 L22.102125,77.337917 L20.3102825,77.337917 L20.3102825,83.4060895 C20.3102825,85.890577 21.7558025,87.5619595 24.6619,87.5619595 Z M39.9599175,87.3812695 L39.9599175,77.337917 L38.19819,77.337917 L38.19819,84.294482 L33.0635825,77.337917 L31.2566825,77.337917 L31.2566825,87.3812695 L33.01841,87.3812695 L33.01841,80.198842 L38.25842,87.3812695 L39.9599175,87.3812695 Z M51.25264,87.3812695 L49.2499925,87.3812695 L48.512175,85.438852 L43.90458,85.438852 L43.1667625,87.3812695 L41.164115,87.3812695 L45.10918,77.337917 L47.307575,77.337917 L51.25264,87.3812695 Z M48.0152775,83.8879295 L46.2083775,79.0996445 L44.4014775,83.8879295 L48.0152775,83.8879295 Z M56.2212125,87.5619595 C53.254885,87.5619595 50.9510875,85.4539095 50.9510875,82.367122 C50.9510875,79.265277 53.254885,77.1722845 56.2212125,77.1722845 C58.2389175,77.1722845 59.5037475,78.211252 60.241565,79.415852 L58.7508725,80.198842 C58.2690325,79.355622 57.290295,78.7382645 56.2212125,78.7382645 C54.2336225,78.7382645 52.7579875,80.2440145 52.7579875,82.367122 C52.7579875,84.4601145 54.2336225,85.9959795 56.2212125,85.9959795 C57.290295,85.9959795 58.2690325,85.3635645 58.7508725,84.535402 L60.2566225,85.288277 C59.48869,86.492877 58.2389175,87.5619595 56.2212125,87.5619595 Z M65.91784,87.3812695 L65.91784,78.8888395 L68.959455,78.8888395 L68.959455,77.337917 L61.1144975,77.337917 L61.1144975,78.8888395 L64.1561125,78.8888395 L64.1561125,87.3812695 L65.91784,87.3812695 Z M72.316875,87.3812695 L72.316875,77.337917 L70.5551475,77.337917 L70.5551475,87.3812695 L72.316875,87.3812695 Z M79.25798,87.5619595 C76.24648,87.5619595 74.1233725,85.3635645 74.1233725,82.367122 C74.1233725,79.3706795 76.24648,77.1722845 79.25798,77.1722845 C82.2544225,77.1722845 84.3925875,79.3706795 84.3925875,82.367122 C84.3925875,85.3635645 82.2544225,87.5619595 79.25798,87.5619595 Z M79.25798,85.9959795 C81.275685,85.9959795 82.5856875,84.4299995 82.5856875,82.367122 C82.5856875,80.289187 81.275685,78.7382645 79.25798,78.7382645 C77.2252175,78.7382645 75.9302725,80.289187 75.9302725,82.367122 C75.9302725,84.4299995 77.2252175,85.9959795 79.25798,85.9959795 Z M94.8872625,87.3812695 L94.8872625,77.337917 L93.125535,77.337917 L93.125535,84.294482 L87.9909275,77.337917 L86.1840275,77.337917 L86.1840275,87.3812695 L87.945755,87.3812695 L87.945755,80.198842 L93.185765,87.3812695 L94.8872625,87.3812695 Z M106.179985,87.3812695 L104.177338,87.3812695 L103.43952,85.438852 L98.831925,85.438852 L98.0941075,87.3812695 L96.09146,87.3812695 L100.036525,77.337917 L102.23492,77.337917 L106.179985,87.3812695 Z M102.942623,83.8879295 L101.135723,79.0996445 L99.3288225,83.8879295 L102.942623,83.8879295 Z M112.443503,87.3812695 L107.369125,87.3812695 L107.369125,77.337917 L112.307985,77.337917 C114.160058,77.337917 115.16891,78.482287 115.16891,79.897692 C115.16891,81.1474645 114.355805,82.005742 113.42224,82.2014895 C114.50638,82.367122 115.364658,83.4362045 115.364658,84.655862 C115.364658,86.221842 114.340748,87.3812695 112.443503,87.3812695 Z M111.961663,81.4787295 C112.850055,81.4787295 113.36201,80.951717 113.36201,80.1837845 C113.36201,79.445967 112.850055,78.8888395 111.961663,78.8888395 L109.130853,78.8888395 L109.130853,81.4787295 L111.961663,81.4787295 Z M112.03695,85.830347 C112.985573,85.830347 113.557758,85.3033345 113.557758,84.4299995 C113.557758,83.6771245 113.030745,83.029652 112.03695,83.029652 L109.130853,83.029652 L109.130853,85.830347 L112.03695,85.830347 Z M123.314615,87.3812695 L123.314615,85.830347 L118.88771,85.830347 L118.88771,77.337917 L117.125983,77.337917 L117.125983,87.3812695 L123.314615,87.3812695 Z M131.851815,87.3812695 L131.851815,85.830347 L126.732265,85.830347 L126.732265,83.029652 L131.746413,83.029652 L131.746413,81.4787295 L126.732265,81.4787295 L126.732265,78.8888395 L131.851815,78.8888395 L131.851815,77.337917 L124.970538,77.337917 L124.970538,87.3812695 L131.851815,87.3812695 Z" id="UNACTIONABLE" fill="#FFFFFF"></path>
                    <path d="M54.6413825,102.333367 L52.879655,102.333367 L52.879655,92.2900145 L59.7609325,92.2900145 L59.7609325,93.840937 L54.6413825,93.840937 L54.6413825,96.430827 L59.65553,96.430827 L59.65553,97.9817495 L54.6413825,97.9817495 L54.6413825,102.333367 Z M69.306985,102.333367 L67.3043375,102.333367 L66.56652,100.390949 L61.958925,100.390949 L61.2211075,102.333367 L59.21846,102.333367 L63.163525,92.2900145 L65.36192,92.2900145 L69.306985,102.333367 Z M66.0696225,98.840027 L64.2627225,94.051742 L62.4558225,98.840027 L66.0696225,98.840027 Z M74.2755575,102.514057 C71.30923,102.514057 69.0054325,100.406007 69.0054325,97.3192195 C69.0054325,94.2173745 71.30923,92.124382 74.2755575,92.124382 C76.2932625,92.124382 77.5580925,93.1633495 78.29591,94.3679495 L76.8052175,95.1509395 C76.3233775,94.3077195 75.34464,93.690362 74.2755575,93.690362 C72.2879675,93.690362 70.8123325,95.196112 70.8123325,97.3192195 C70.8123325,99.412212 72.2879675,100.948077 74.2755575,100.948077 C75.34464,100.948077 76.3233775,100.315662 76.8052175,99.4874995 L78.3109675,100.240374 C77.543035,101.444974 76.2932625,102.514057 74.2755575,102.514057 Z M83.972185,102.333367 L83.972185,93.840937 L87.0138,93.840937 L87.0138,92.2900145 L79.1688425,92.2900145 L79.1688425,93.840937 L82.2104575,93.840937 L82.2104575,102.333367 L83.972185,102.333367 Z M92.5545575,102.514057 C89.5430575,102.514057 87.41995,100.315662 87.41995,97.3192195 C87.41995,94.322777 89.5430575,92.124382 92.5545575,92.124382 C95.551,92.124382 97.689165,94.322777 97.689165,97.3192195 C97.689165,100.315662 95.551,102.514057 92.5545575,102.514057 Z M92.5545575,100.948077 C94.5722625,100.948077 95.882265,99.382097 95.882265,97.3192195 C95.882265,95.2412845 94.5722625,93.690362 92.5545575,93.690362 C90.521795,93.690362 89.22685,95.2412845 89.22685,97.3192195 C89.22685,99.382097 90.521795,100.948077 92.5545575,100.948077 Z M107.265333,102.333367 L105.217513,102.333367 L103.00406,98.5840495 L101.242333,98.5840495 L101.242333,102.333367 L99.480605,102.333367 L99.480605,92.2900145 L103.892453,92.2900145 C105.880043,92.2900145 107.190045,93.569902 107.190045,95.437032 C107.190045,97.213817 106.01556,98.1925545 104.795903,98.388302 L107.265333,102.333367 Z M103.66659,97.033127 C104.660385,97.033127 105.383145,96.400712 105.383145,95.4219745 C105.383145,94.4582945 104.660385,93.840937 103.66659,93.840937 L101.242333,93.840937 L101.242333,97.033127 L103.66659,97.033127 Z" id="FACTOR" fill="#FFFFFF"></path>
                    <path d="M520.9657,187.2786 L321.4457,187.2786 C302.1277,187.2786 286.4667,171.6186 286.4667,152.2996 L286.4667,107.6406 C286.4667,88.3236 302.1277,72.6626 321.4457,72.6626 L520.9657,72.6626 C540.2837,72.6626 555.9447,88.3236 555.9447,107.6406 L555.9447,152.2996 C555.9447,171.6186 540.2837,187.2786 520.9657,187.2786" id="Fill-15" fill="#EB4689"></path>
                    <path d="M373.275214,155.896522 C375.745946,155.896522 377.276325,154.587403 378.216678,153.112339 L376.372848,152.190424 C375.782822,153.20453 374.584333,153.978939 373.275214,153.978939 C370.841358,153.978939 369.034405,152.098232 369.034405,149.535309 C369.034405,146.935508 370.841358,145.091678 373.275214,145.091678 C374.584333,145.091678 375.782822,145.847649 376.372848,146.880194 L378.19824,145.921402 C377.294763,144.446338 375.745946,143.174095 373.275214,143.174095 C369.642868,143.174095 366.821809,145.737019 366.821809,149.535309 C366.821809,153.31516 369.642868,155.896522 373.275214,155.896522 Z M385.789189,155.896522 C382.101529,155.896522 379.501729,153.20453 379.501729,149.535309 C379.501729,145.866087 382.101529,143.174095 385.789189,143.174095 C389.458411,143.174095 392.07665,145.866087 392.07665,149.535309 C392.07665,153.20453 389.458411,155.896522 385.789189,155.896522 Z M385.789189,153.978939 C388.259922,153.978939 389.864054,152.061356 389.864054,149.535309 C389.864054,146.990823 388.259922,145.091678 385.789189,145.091678 C383.300019,145.091678 381.714325,146.990823 381.714325,149.535309 C381.714325,152.061356 383.300019,153.978939 385.789189,153.978939 Z M404.904077,155.675263 L404.904077,143.376917 L402.746796,143.376917 L402.746796,151.895411 L396.459335,143.376917 L394.246739,143.376917 L394.246739,155.675263 L396.40402,155.675263 L396.40402,146.880194 L402.820549,155.675263 L404.904077,155.675263 Z M412.218452,155.675263 L407.627315,155.675263 L407.627315,143.376917 L412.200014,143.376917 C416.053618,143.376917 418.63498,145.921402 418.63498,149.51687 C418.63498,153.149216 416.053618,155.675263 412.218452,155.675263 Z M412.200014,153.776118 C414.873567,153.776118 416.422384,151.858535 416.422384,149.51687 C416.422384,147.156768 414.94732,145.276061 412.218452,145.276061 L409.784596,145.276061 L409.784596,153.776118 L412.200014,153.776118 Z M422.980789,155.675263 L422.980789,143.376917 L420.823508,143.376917 L420.823508,155.675263 L422.980789,155.675263 Z M430.792999,155.675263 L430.792999,145.276061 L434.517535,145.276061 L434.517535,143.376917 L424.911181,143.376917 L424.911181,145.276061 L428.635718,145.276061 L428.635718,155.675263 L430.792999,155.675263 Z M438.605208,155.675263 L438.605208,143.376917 L436.447927,143.376917 L436.447927,155.675263 L438.605208,155.675263 Z M447.081196,155.896522 C443.393536,155.896522 440.793736,153.20453 440.793736,149.535309 C440.793736,145.866087 443.393536,143.174095 447.081196,143.174095 C450.750418,143.174095 453.368657,145.866087 453.368657,149.535309 C453.368657,153.20453 450.750418,155.896522 447.081196,155.896522 Z M447.081196,153.978939 C449.551929,153.978939 451.156061,152.061356 451.156061,149.535309 C451.156061,146.990823 449.551929,145.091678 447.081196,145.091678 C444.592026,145.091678 443.006332,146.990823 443.006332,149.535309 C443.006332,152.061356 444.592026,153.978939 447.081196,153.978939 Z M466.196084,155.675263 L466.196084,143.376917 L464.038803,143.376917 L464.038803,151.895411 L457.751342,143.376917 L455.538746,143.376917 L455.538746,155.675263 L457.696027,155.675263 L457.696027,146.880194 L464.112556,155.675263 L466.196084,155.675263 Z" id="CONDITION" fill="#FFFFFF"></path>
                    <path d="M45.78174,209.354869 L43.7790925,209.354869 L43.041275,207.412452 L38.43368,207.412452 L37.6958625,209.354869 L35.693215,209.354869 L39.63828,199.311517 L41.836675,199.311517 L45.78174,209.354869 Z M42.5443775,205.861529 L40.7374775,201.073244 L38.9305775,205.861529 L42.5443775,205.861529 Z M50.7503125,209.535559 C47.783985,209.535559 45.4801875,207.427509 45.4801875,204.340722 C45.4801875,201.238877 47.783985,199.145884 50.7503125,199.145884 C52.7680175,199.145884 54.0328475,200.184852 54.770665,201.389452 L53.2799725,202.172442 C52.7981325,201.329222 51.819395,200.711864 50.7503125,200.711864 C48.7627225,200.711864 47.2870875,202.217614 47.2870875,204.340722 C47.2870875,206.433714 48.7627225,207.969579 50.7503125,207.969579 C51.819395,207.969579 52.7981325,207.337164 53.2799725,206.509002 L54.7857225,207.261877 C54.01779,208.466477 52.7680175,209.535559 50.7503125,209.535559 Z M60.44694,209.354869 L60.44694,200.862439 L63.488555,200.862439 L63.488555,199.311517 L55.6435975,199.311517 L55.6435975,200.862439 L58.6852125,200.862439 L58.6852125,209.354869 L60.44694,209.354869 Z M66.845975,209.354869 L66.845975,199.311517 L65.0842475,199.311517 L65.0842475,209.354869 L66.845975,209.354869 Z M73.78708,209.535559 C70.77558,209.535559 68.6524725,207.337164 68.6524725,204.340722 C68.6524725,201.344279 70.77558,199.145884 73.78708,199.145884 C76.7835225,199.145884 78.9216875,201.344279 78.9216875,204.340722 C78.9216875,207.337164 76.7835225,209.535559 73.78708,209.535559 Z M73.78708,207.969579 C75.804785,207.969579 77.1147875,206.403599 77.1147875,204.340722 C77.1147875,202.262787 75.804785,200.711864 73.78708,200.711864 C71.7543175,200.711864 70.4593725,202.262787 70.4593725,204.340722 C70.4593725,206.403599 71.7543175,207.969579 73.78708,207.969579 Z M89.4163625,209.354869 L89.4163625,199.311517 L87.654635,199.311517 L87.654635,206.268082 L82.5200275,199.311517 L80.7131275,199.311517 L80.7131275,209.354869 L82.474855,209.354869 L82.474855,202.172442 L87.714865,209.354869 L89.4163625,209.354869 Z M100.709085,209.354869 L98.7064375,209.354869 L97.96862,207.412452 L93.361025,207.412452 L92.6232075,209.354869 L90.62056,209.354869 L94.565625,199.311517 L96.76402,199.311517 L100.709085,209.354869 Z M97.4717225,205.861529 L95.6648225,201.073244 L93.8579225,205.861529 L97.4717225,205.861529 Z M106.972602,209.354869 L101.898225,209.354869 L101.898225,199.311517 L106.837085,199.311517 C108.689157,199.311517 109.69801,200.455887 109.69801,201.871292 C109.69801,203.121064 108.884905,203.979342 107.95134,204.175089 C109.03548,204.340722 109.893757,205.409804 109.893757,206.629462 C109.893757,208.195442 108.869847,209.354869 106.972602,209.354869 Z M106.490762,203.452329 C107.379155,203.452329 107.89111,202.925317 107.89111,202.157384 C107.89111,201.419567 107.379155,200.862439 106.490762,200.862439 L103.659953,200.862439 L103.659953,203.452329 L106.490762,203.452329 Z M106.56605,207.803947 C107.514672,207.803947 108.086858,207.276934 108.086858,206.403599 C108.086858,205.650724 107.559845,205.003252 106.56605,205.003252 L103.659953,205.003252 L103.659953,207.803947 L106.56605,207.803947 Z M117.843715,209.354869 L117.843715,207.803947 L113.41681,207.803947 L113.41681,199.311517 L111.655082,199.311517 L111.655082,209.354869 L117.843715,209.354869 Z M126.380915,209.354869 L126.380915,207.803947 L121.261365,207.803947 L121.261365,205.003252 L126.275513,205.003252 L126.275513,203.452329 L121.261365,203.452329 L121.261365,200.862439 L126.380915,200.862439 L126.380915,199.311517 L119.499638,199.311517 L119.499638,209.354869 L126.380915,209.354869 Z" id="ACTIONABLE" fill="#FFFFFF"></path>
                    <path d="M58.640845,224.306967 L56.8791175,224.306967 L56.8791175,214.263614 L63.760395,214.263614 L63.760395,215.814537 L58.640845,215.814537 L58.640845,218.404427 L63.6549925,218.404427 L63.6549925,219.955349 L58.640845,219.955349 L58.640845,224.306967 Z M73.3064475,224.306967 L71.3038,224.306967 L70.5659825,222.364549 L65.9583875,222.364549 L65.22057,224.306967 L63.2179225,224.306967 L67.1629875,214.263614 L69.3613825,214.263614 L73.3064475,224.306967 Z M70.069085,220.813627 L68.262185,216.025342 L66.455285,220.813627 L70.069085,220.813627 Z M78.27502,224.487657 C75.3086925,224.487657 73.004895,222.379607 73.004895,219.292819 C73.004895,216.190974 75.3086925,214.097982 78.27502,214.097982 C80.292725,214.097982 81.557555,215.136949 82.2953725,216.341549 L80.80468,217.124539 C80.32284,216.281319 79.3441025,215.663962 78.27502,215.663962 C76.28743,215.663962 74.811795,217.169712 74.811795,219.292819 C74.811795,221.385812 76.28743,222.921677 78.27502,222.921677 C79.3441025,222.921677 80.32284,222.289262 80.80468,221.461099 L82.31043,222.213974 C81.5424975,223.418574 80.292725,224.487657 78.27502,224.487657 Z M87.9716475,224.306967 L87.9716475,215.814537 L91.0132625,215.814537 L91.0132625,214.263614 L83.168305,214.263614 L83.168305,215.814537 L86.20992,215.814537 L86.20992,224.306967 L87.9716475,224.306967 Z M96.55402,224.487657 C93.54252,224.487657 91.4194125,222.289262 91.4194125,219.292819 C91.4194125,216.296377 93.54252,214.097982 96.55402,214.097982 C99.5504625,214.097982 101.688628,216.296377 101.688628,219.292819 C101.688628,222.289262 99.5504625,224.487657 96.55402,224.487657 Z M96.55402,222.921677 C98.571725,222.921677 99.8817275,221.355697 99.8817275,219.292819 C99.8817275,217.214884 98.571725,215.663962 96.55402,215.663962 C94.5212575,215.663962 93.2263125,217.214884 93.2263125,219.292819 C93.2263125,221.355697 94.5212575,222.921677 96.55402,222.921677 Z M111.264795,224.306967 L109.216975,224.306967 L107.003523,220.557649 L105.241795,220.557649 L105.241795,224.306967 L103.480068,224.306967 L103.480068,214.263614 L107.891915,214.263614 C109.879505,214.263614 111.189508,215.543502 111.189508,217.410632 C111.189508,219.187417 110.015023,220.166154 108.795365,220.361902 L111.264795,224.306967 Z M107.666053,219.006727 C108.659848,219.006727 109.382608,218.374312 109.382608,217.395574 C109.382608,216.431894 108.659848,215.814537 107.666053,215.814537 L105.241795,215.814537 L105.241795,219.006727 L107.666053,219.006727 Z" id="FACTOR" fill="#FFFFFF"></path>
                    <g id="Group-30" transform="translate(508.000000, 0.262000)">
                        <path d="M0.5917,129.709 L147.8187,129.709" id="Stroke-17" stroke="#EB4689" stroke-width="9.113"></path>
                        <polyline id="Stroke-19" stroke="#EB4689" stroke-width="9.113" points="151.4843 228.1914 64.1253 228.1914 64.1253 40.5824 147.8183 40.5824"></polyline>
                        <polygon id="Fill-21" fill="#EB4689" points="170.8671 41.4258 137.9021 58.3738 145.4311 40.9638 138.5381 23.2928"></polygon>
                        <polygon id="Fill-23" fill="#EB4689" points="170.8671 129.3105 137.9021 146.2585 145.4311 128.8495 138.5381 111.1775"></polygon>
                        <polygon id="Fill-25" fill="#EB4689" points="170.8671 227.8125 137.9021 244.7605 145.4311 227.3515 138.5381 209.6795"></polygon>
                        <g id="Group-29" transform="translate(181.000000, 0.000000)">
                            <mask id="mask-6" fill="white">
                                <use xlink:href="#path-5"></use>
                            </mask>
                            <g id="Clip-28"></g>
                            <path d="M139.9388,80.2969 L34.9878,80.2969 C15.6698,80.2969 0.0098,64.6369 0.0098,45.3179 L0.0098,35.7159 C0.0098,16.3989 15.6698,0.7379 34.9878,0.7379 L139.9388,0.7379 C159.2568,0.7379 174.9178,16.3989 174.9178,35.7159 L174.9178,45.3179 C174.9178,64.6369 159.2568,80.2969 139.9388,80.2969" id="Fill-27" fill="#41BD41" mask="url(#mask-6)"></path>
                        </g>
                    </g>
                    <path d="M709.87924,38.615375 C713.85483,38.615375 715.80931,36.572055 715.80931,33.862435 C715.80931,28.332145 707.30288,29.909055 707.30288,27.577005 C707.30288,26.688605 708.05802,26.111145 709.39062,26.111145 C710.9009,26.111145 712.50002,26.621975 713.69936,27.732475 L715.45395,25.378215 C713.98809,24.023405 712.03361,23.312685 709.67935,23.312685 C706.19238,23.312685 704.06022,25.356005 704.06022,27.821315 C704.06022,33.396025 712.58886,31.597015 712.58886,34.173375 C712.58886,35.039565 711.76709,35.816915 710.0125,35.816915 C707.96918,35.816915 706.34785,34.884095 705.30398,33.795805 L703.5716,36.261115 C704.97083,37.660345 707.01415,38.615375 709.87924,38.615375 Z M721.11808,38.348855 L717.96426,38.348855 L717.96426,23.534785 L724.89378,23.534785 C728.11423,23.534785 729.86882,25.711365 729.86882,28.309935 C729.86882,30.886295 728.09202,33.062875 724.89378,33.062875 L721.11808,33.062875 L721.11808,38.348855 Z M724.44958,30.286625 C725.69334,30.286625 726.64837,29.531485 726.64837,28.309935 C726.64837,27.066175 725.69334,26.311035 724.44958,26.311035 L721.11808,26.311035 L721.11808,30.286625 L724.44958,30.286625 Z M742.37363,38.348855 L742.37363,35.572605 L735.04433,35.572605 L735.04433,32.196685 L742.21816,32.196685 L742.21816,29.420435 L735.04433,29.420435 L735.04433,26.311035 L742.37363,26.311035 L742.37363,23.534785 L731.89051,23.534785 L731.89051,38.348855 L742.37363,38.348855 Z M752.07998,38.615375 C755.32264,38.615375 757.21049,36.816365 758.25436,34.972935 L755.54474,33.662545 C754.92286,34.861885 753.59026,35.816915 752.07998,35.816915 C749.37036,35.816915 747.41588,33.751385 747.41588,30.952925 C747.41588,28.154465 749.37036,26.088935 752.07998,26.088935 C753.59026,26.088935 754.92286,27.043965 755.54474,28.243305 L758.25436,26.910705 C757.21049,25.045065 755.32264,23.290475 752.07998,23.290475 C747.61577,23.290475 744.17322,26.377665 744.17322,30.952925 C744.17322,35.505975 747.61577,38.615375 752.07998,38.615375 Z M763.34103,38.348855 L763.34103,23.534785 L760.18721,23.534785 L760.18721,38.348855 L763.34103,38.348855 Z M780.13237,38.348855 L776.55656,38.348855 L775.62374,35.839125 L769.27168,35.839125 L768.33886,38.348855 L764.76305,38.348855 L770.47102,23.534785 L774.4244,23.534785 L780.13237,38.348855 Z M774.75755,33.062875 L772.44771,26.688605 L770.13787,33.062875 L774.75755,33.062875 Z M790.86038,38.348855 L790.86038,35.572605 L784.59716,35.572605 L784.59716,23.534785 L781.42113,23.534785 L781.42113,38.348855 L790.86038,38.348855 Z M796.19136,38.348855 L796.19136,23.534785 L793.03754,23.534785 L793.03754,38.348855 L796.19136,38.348855 Z M804.45406,38.615375 C808.42965,38.615375 810.38413,36.572055 810.38413,33.862435 C810.38413,28.332145 801.8777,29.909055 801.8777,27.577005 C801.8777,26.688605 802.63284,26.111145 803.96544,26.111145 C805.47572,26.111145 807.07484,26.621975 808.27418,27.732475 L810.02877,25.378215 C808.56291,24.023405 806.60843,23.312685 804.25417,23.312685 C800.7672,23.312685 798.63504,25.356005 798.63504,27.821315 C798.63504,33.396025 807.16368,31.597015 807.16368,34.173375 C807.16368,35.039565 806.34191,35.816915 804.58732,35.816915 C802.544,35.816915 800.92267,34.884095 799.8788,33.795805 L798.14642,36.261115 C799.54565,37.660345 801.58897,38.615375 804.45406,38.615375 Z M818.55799,38.348855 L818.55799,26.311035 L822.86673,26.311035 L822.86673,23.534785 L811.05101,23.534785 L811.05101,26.311035 L815.38196,26.311035 L815.38196,38.348855 L818.55799,38.348855 Z M829.90788,38.615375 C833.88347,38.615375 835.83795,36.572055 835.83795,33.862435 C835.83795,28.332145 827.33152,29.909055 827.33152,27.577005 C827.33152,26.688605 828.08666,26.111145 829.41926,26.111145 C830.92954,26.111145 832.52866,26.621975 833.728,27.732475 L835.48259,25.378215 C834.01673,24.023405 832.06225,23.312685 829.70799,23.312685 C826.22102,23.312685 824.08886,25.356005 824.08886,27.821315 C824.08886,33.396025 832.6175,31.597015 832.6175,34.173375 C832.6175,35.039565 831.79573,35.816915 830.04114,35.816915 C827.99782,35.816915 826.37649,34.884095 825.33262,33.795805 L823.60024,36.261115 C824.99947,37.660345 827.04279,38.615375 829.90788,38.615375 Z" id="SPECIALISTS" fill="#FFFFFF"></path>
                    <path d="M754.447014,65.5156222 C756.917746,65.5156222 758.448125,64.2065029 759.388478,62.7314389 L757.544648,61.8095239 C756.954622,62.8236304 755.756133,63.598039 754.447014,63.598039 C752.013158,63.598039 750.206205,61.7173324 750.206205,59.1544087 C750.206205,56.5546084 752.013158,54.7107784 754.447014,54.7107784 C755.756133,54.7107784 756.954622,55.4667487 757.544648,56.4992935 L759.37004,55.5405019 C758.466563,54.0654379 756.917746,52.7931952 754.447014,52.7931952 C750.814668,52.7931952 747.993609,55.3561189 747.993609,59.1544087 C747.993609,62.9342602 750.814668,65.5156222 754.447014,65.5156222 Z M766.960989,65.5156222 C763.273329,65.5156222 760.673529,62.8236304 760.673529,59.1544087 C760.673529,55.485187 763.273329,52.7931952 766.960989,52.7931952 C770.630211,52.7931952 773.24845,55.485187 773.24845,59.1544087 C773.24845,62.8236304 770.630211,65.5156222 766.960989,65.5156222 Z M766.960989,63.598039 C769.431722,63.598039 771.035854,61.6804558 771.035854,59.1544087 C771.035854,56.6099233 769.431722,54.7107784 766.960989,54.7107784 C764.471819,54.7107784 762.886125,56.6099233 762.886125,59.1544087 C762.886125,61.6804558 764.471819,63.598039 766.960989,63.598039 Z M779.64091,65.5156222 C782.941366,65.5156222 784.397991,63.7455454 784.397991,61.6988941 C784.397991,57.1261957 777.243931,58.5459448 777.243931,56.2411573 C777.243931,55.3376806 778.055216,54.7107784 779.309021,54.7107784 C780.599702,54.7107784 781.908821,55.1532976 782.886051,56.1305275 L784.102979,54.5263954 C782.978242,53.4200974 781.410987,52.7931952 779.511842,52.7931952 C776.801412,52.7931952 775.031335,54.3604507 775.031335,56.407102 C775.031335,60.9244855 782.185395,59.3203534 782.185395,61.9017154 C782.185395,62.7314389 781.503178,63.598039 779.733102,63.598039 C778.01834,63.598039 776.672344,62.7867538 775.84262,61.8832771 L774.625692,63.5611624 C775.73199,64.704337 777.372999,65.5156222 779.64091,65.5156222 Z M791.196094,65.2943626 L791.196094,54.8951614 L794.920631,54.8951614 L794.920631,52.9960165 L785.314277,52.9960165 L785.314277,54.8951614 L789.038813,54.8951614 L789.038813,65.2943626 L791.196094,65.2943626 Z" id="COST" fill="#FFFFFF"></path>
                    <path d="M828.4965,175.1233 L723.5455,175.1233 C704.2275,175.1233 688.5675,159.4623 688.5675,140.1443 L688.5675,130.5423 C688.5675,111.2243 704.2275,95.5633 723.5455,95.5633 L828.4965,95.5633 C847.8145,95.5633 863.4745,111.2243 863.4745,130.5423 L863.4745,140.1443 C863.4745,159.4623 847.8145,175.1233 828.4965,175.1233" id="Fill-31" fill="#41BD41"></path>
                    <path d="M712.10108,132.912355 L708.94726,132.912355 L708.94726,118.098285 L715.87678,118.098285 C719.09723,118.098285 720.85182,120.274865 720.85182,122.873435 C720.85182,125.449795 719.07502,127.626375 715.87678,127.626375 L712.10108,127.626375 L712.10108,132.912355 Z M715.43258,124.850125 C716.67634,124.850125 717.63137,124.094985 717.63137,122.873435 C717.63137,121.629675 716.67634,120.874535 715.43258,120.874535 L712.10108,120.874535 L712.10108,124.850125 L715.43258,124.850125 Z M736.22951,132.912355 L736.22951,118.098285 L733.05348,118.098285 L733.05348,123.917305 L726.05733,123.917305 L726.05733,118.098285 L722.90351,118.098285 L722.90351,132.912355 L726.05733,132.912355 L726.05733,126.671345 L733.05348,126.671345 L733.05348,132.912355 L736.22951,132.912355 Z M753.02864,132.912355 L749.45283,132.912355 L748.52001,130.402625 L742.16795,130.402625 L741.23513,132.912355 L737.65932,132.912355 L743.36729,118.098285 L747.32067,118.098285 L753.02864,132.912355 Z M747.65382,127.626375 L745.34398,121.252105 L743.03414,127.626375 L747.65382,127.626375 Z M766.49627,132.912355 L762.85383,132.912355 L759.94432,127.648585 L757.63448,127.648585 L757.63448,132.912355 L754.48066,132.912355 L754.48066,118.098285 L761.41018,118.098285 C764.49737,118.098285 766.40743,120.119395 766.40743,122.873435 C766.40743,125.472005 764.74168,126.893445 763.14256,127.271015 L766.49627,132.912355 Z M760.96598,124.872335 C762.20974,124.872335 763.16477,124.117195 763.16477,122.851225 C763.16477,121.629675 762.20974,120.874535 760.96598,120.874535 L757.63448,120.874535 L757.63448,124.872335 L760.96598,124.872335 Z M784.89452,132.912355 L784.89452,118.098285 L780.45252,118.098285 L776.8545,127.359855 L773.25648,118.098285 L768.83669,118.098285 L768.83669,132.912355 L771.99051,132.912355 L771.99051,122.229345 L776.16599,132.912355 L777.54301,132.912355 L781.71849,122.229345 L781.71849,132.912355 L784.89452,132.912355 Z M801.71586,132.912355 L798.14005,132.912355 L797.20723,130.402625 L790.85517,130.402625 L789.92235,132.912355 L786.34654,132.912355 L792.05451,118.098285 L796.00789,118.098285 L801.71586,132.912355 Z M796.34104,127.626375 L794.0312,121.252105 L791.72136,127.626375 L796.34104,127.626375 Z M808.85364,133.178875 C804.38943,133.178875 800.94688,130.069475 800.94688,125.516425 C800.94688,120.941165 804.38943,117.853975 808.85364,117.853975 C812.0963,117.853975 813.98415,119.608565 815.02802,121.474205 L812.3184,122.806805 C811.69652,121.607465 810.36392,120.652435 808.85364,120.652435 C806.14402,120.652435 804.18954,122.717965 804.18954,125.516425 C804.18954,128.314885 806.14402,130.380415 808.85364,130.380415 C810.36392,130.380415 811.69652,129.425385 812.3184,128.226045 L815.02802,129.536435 C813.98415,131.379865 812.0963,133.178875 808.85364,133.178875 Z M823.25409,132.912355 L820.10027,132.912355 L820.10027,126.849025 L814.41451,118.098285 L818.01253,118.098285 L821.67718,124.028355 L825.34183,118.098285 L828.91764,118.098285 L823.25409,126.849025 L823.25409,132.912355 Z" id="PHARMACY" fill="#FFFFFF"></path>
                    <path d="M754.004714,160.079122 C756.475446,160.079122 758.005825,158.770003 758.946178,157.294939 L757.102348,156.373024 C756.512322,157.38713 755.313833,158.161539 754.004714,158.161539 C751.570858,158.161539 749.763905,156.280832 749.763905,153.717909 C749.763905,151.118108 751.570858,149.274278 754.004714,149.274278 C755.313833,149.274278 756.512322,150.030249 757.102348,151.062794 L758.92774,150.104002 C758.024263,148.628938 756.475446,147.356695 754.004714,147.356695 C750.372369,147.356695 747.551309,149.919619 747.551309,153.717909 C747.551309,157.49776 750.372369,160.079122 754.004714,160.079122 Z M766.51869,160.079122 C762.83103,160.079122 760.231229,157.38713 760.231229,153.717909 C760.231229,150.048687 762.83103,147.356695 766.51869,147.356695 C770.187911,147.356695 772.80615,150.048687 772.80615,153.717909 C772.80615,157.38713 770.187911,160.079122 766.51869,160.079122 Z M766.51869,158.161539 C768.989422,158.161539 770.593554,156.243956 770.593554,153.717909 C770.593554,151.173423 768.989422,149.274278 766.51869,149.274278 C764.029519,149.274278 762.443825,151.173423 762.443825,153.717909 C762.443825,156.243956 764.029519,158.161539 766.51869,158.161539 Z M779.19861,160.079122 C782.499066,160.079122 783.955692,158.309045 783.955692,156.262394 C783.955692,151.689696 776.801631,153.109445 776.801631,150.804657 C776.801631,149.901181 777.612916,149.274278 778.866721,149.274278 C780.157402,149.274278 781.466521,149.716798 782.443751,150.694028 L783.660679,149.089895 C782.535942,147.983597 780.968687,147.356695 779.069542,147.356695 C776.359112,147.356695 774.589035,148.923951 774.589035,150.970602 C774.589035,155.487986 781.743096,153.883853 781.743096,156.465215 C781.743096,157.294939 781.060878,158.161539 779.290802,158.161539 C777.57604,158.161539 776.230044,157.350254 775.40032,156.446777 L774.183393,158.124662 C775.289691,159.267837 776.930699,160.079122 779.19861,160.079122 Z M790.753794,159.857863 L790.753794,149.458661 L794.478331,149.458661 L794.478331,147.559517 L784.871977,147.559517 L784.871977,149.458661 L788.596513,149.458661 L788.596513,159.857863 L790.753794,159.857863 Z" id="COST" fill="#FFFFFF"></path>
                    <path d="M827.8646,267.262 L722.9136,267.262 C703.5956,267.262 687.9356,251.602 687.9356,232.283 L687.9356,222.681 C687.9356,203.364 703.5956,187.703 722.9136,187.703 L827.8646,187.703 C847.1826,187.703 862.8436,203.364 862.8436,222.681 L862.8436,232.283 C862.8436,251.602 847.1826,267.262 827.8646,267.262" id="Fill-33" fill="#41BD41"></path>
                    <path d="M727.8283,225.050955 L721.96486,225.050955 L721.96486,210.236885 L727.80609,210.236885 C732.44798,210.236885 735.66843,213.190815 735.66843,217.632815 C735.66843,222.119235 732.44798,225.050955 727.8283,225.050955 Z M727.80609,222.274705 C730.73781,222.274705 732.44798,220.164755 732.44798,217.632815 C732.44798,215.034245 730.84886,213.013135 727.8283,213.013135 L725.11868,213.013135 L725.11868,222.274705 L727.80609,222.274705 Z M741.15546,225.050955 L741.15546,210.236885 L738.00164,210.236885 L738.00164,225.050955 L741.15546,225.050955 Z M757.9918,225.050955 L754.41599,225.050955 L753.48317,222.541225 L747.13111,222.541225 L746.19829,225.050955 L742.62248,225.050955 L748.33045,210.236885 L752.28383,210.236885 L757.9918,225.050955 Z M752.61698,219.764975 L750.30714,213.390705 L747.9973,219.764975 L752.61698,219.764975 Z M768.76481,225.050955 L759.32556,225.050955 L759.32556,210.236885 L762.50159,210.236885 L762.50159,222.274705 L768.76481,222.274705 L768.76481,225.050955 Z M772.63051,225.050955 L769.47669,225.050955 L769.47669,218.987625 L763.79093,210.236885 L767.38895,210.236885 L771.0536,216.166955 L774.71825,210.236885 L778.29406,210.236885 L772.63051,218.987625 L772.63051,225.050955 Z M784.15866,225.317475 C781.29357,225.317475 779.25025,224.362445 777.85102,222.963215 L779.5834,220.497905 C780.62727,221.586195 782.2486,222.519015 784.29192,222.519015 C786.04651,222.519015 786.86828,221.741665 786.86828,220.875475 C786.86828,218.299115 778.33964,220.098125 778.33964,214.523415 C778.33964,212.058105 780.4718,210.014785 783.95877,210.014785 C786.31303,210.014785 788.26751,210.725505 789.73337,212.080315 L787.97878,214.434575 C786.77944,213.324075 785.18032,212.813245 783.67004,212.813245 C782.33744,212.813245 781.5823,213.390705 781.5823,214.279105 C781.5823,216.611155 790.08873,215.034245 790.08873,220.564535 C790.08873,223.274155 788.13425,225.317475 784.15866,225.317475 Z M795.4425,225.050955 L795.4425,210.236885 L792.28868,210.236885 L792.28868,225.050955 L795.4425,225.050955 Z M803.7502,225.317475 C807.72579,225.317475 809.68027,223.274155 809.68027,220.564535 C809.68027,215.034245 801.17384,216.611155 801.17384,214.279105 C801.17384,213.390705 801.92898,212.813245 803.26158,212.813245 C804.77186,212.813245 806.37098,213.324075 807.57032,214.434575 L809.32491,212.080315 C807.85905,210.725505 805.90457,210.014785 803.55031,210.014785 C800.06334,210.014785 797.93118,212.058105 797.93118,214.523415 C797.93118,220.098125 806.45982,218.299115 806.45982,220.875475 C806.45982,221.741665 805.63805,222.519015 803.88346,222.519015 C801.84014,222.519015 800.21881,221.586195 799.17494,220.497905 L797.44256,222.963215 C798.84179,224.362445 800.88511,225.317475 803.7502,225.317475 Z" id="DIALYSIS" fill="#FFFFFF"></path>
                    <path d="M753.372814,252.217822 C755.843546,252.217822 757.373925,250.908703 758.314278,249.433639 L756.470448,248.511724 C755.880422,249.52583 754.681933,250.300239 753.372814,250.300239 C750.938958,250.300239 749.132005,248.419532 749.132005,245.856609 C749.132005,243.256808 750.938958,241.412978 753.372814,241.412978 C754.681933,241.412978 755.880422,242.168949 756.470448,243.201494 L758.29584,242.242702 C757.392363,240.767638 755.843546,239.495395 753.372814,239.495395 C749.740468,239.495395 746.919409,242.058319 746.919409,245.856609 C746.919409,249.63646 749.740468,252.217822 753.372814,252.217822 Z M765.886789,252.217822 C762.199129,252.217822 759.599329,249.52583 759.599329,245.856609 C759.599329,242.187387 762.199129,239.495395 765.886789,239.495395 C769.556011,239.495395 772.17425,242.187387 772.17425,245.856609 C772.17425,249.52583 769.556011,252.217822 765.886789,252.217822 Z M765.886789,250.300239 C768.357522,250.300239 769.961654,248.382656 769.961654,245.856609 C769.961654,243.312123 768.357522,241.412978 765.886789,241.412978 C763.397619,241.412978 761.811925,243.312123 761.811925,245.856609 C761.811925,248.382656 763.397619,250.300239 765.886789,250.300239 Z M778.56671,252.217822 C781.867166,252.217822 783.323791,250.447745 783.323791,248.401094 C783.323791,243.828396 776.169731,245.248145 776.169731,242.943357 C776.169731,242.039881 776.981016,241.412978 778.234821,241.412978 C779.525502,241.412978 780.834621,241.855498 781.811851,242.832728 L783.028779,241.228595 C781.904042,240.122297 780.336787,239.495395 778.437642,239.495395 C775.727212,239.495395 773.957135,241.062651 773.957135,243.109302 C773.957135,247.626686 781.111195,246.022553 781.111195,248.603915 C781.111195,249.433639 780.428978,250.300239 778.658902,250.300239 C776.94414,250.300239 775.598144,249.488954 774.76842,248.585477 L773.551492,250.263362 C774.65779,251.406537 776.298799,252.217822 778.56671,252.217822 Z M790.121894,251.996563 L790.121894,241.597361 L793.846431,241.597361 L793.846431,239.698217 L784.240077,239.698217 L784.240077,241.597361 L787.964613,241.597361 L787.964613,251.996563 L790.121894,251.996563 Z" id="COST" fill="#FFFFFF"></path>
                    <path d="M321.926742,130.052741 L321.926742,110.518112 L317.738658,110.518112 L317.738658,118.191384 L308.513158,118.191384 L308.513158,110.518112 L304.354362,110.518112 L304.354362,130.052741 L308.513158,130.052741 L308.513158,121.823009 L317.738658,121.823009 L317.738658,130.052741 L321.926742,130.052741 Z M339.616984,130.052741 L339.616984,126.391828 L329.952175,126.391828 L329.952175,121.940159 L339.411973,121.940159 L339.411973,118.279246 L329.952175,118.279246 L329.952175,114.179024 L339.616984,114.179024 L339.616984,110.518112 L325.793378,110.518112 L325.793378,130.052741 L339.616984,130.052741 Z M361.114575,130.052741 L356.399319,130.052741 L355.169253,126.743276 L346.793085,126.743276 L345.563018,130.052741 L340.847763,130.052741 L348.374599,110.518112 L353.587738,110.518112 L361.114575,130.052741 Z M354.027048,123.082363 L350.981169,114.676908 L347.93529,123.082363 L354.027048,123.082363 Z M378.804816,130.052741 L374.001699,130.052741 L370.165063,123.111651 L367.119184,123.111651 L367.119184,130.052741 L362.960387,130.052741 L362.960387,110.518112 L372.098025,110.518112 C376.168959,110.518112 378.687667,113.183256 378.687667,116.814881 C378.687667,120.241495 376.49112,122.115882 374.382434,122.613766 L378.804816,130.052741 Z M371.512279,119.450738 C373.152368,119.450738 374.411721,118.45497 374.411721,116.785594 C374.411721,115.174792 373.152368,114.179024 371.512279,114.179024 L367.119184,114.179024 L367.119184,119.450738 L371.512279,119.450738 Z M389.934703,130.052741 L389.934703,114.179024 L395.616439,114.179024 L395.616439,110.518112 L380.035596,110.518112 L380.035596,114.179024 L385.746619,114.179024 L385.746619,130.052741 L389.934703,130.052741 Z M413.600267,130.052741 L405.86842,130.052741 L405.86842,110.518112 L413.57098,110.518112 C419.692025,110.518112 423.938684,114.413322 423.938684,120.270782 C423.938684,126.186817 419.692025,130.052741 413.600267,130.052741 Z M413.57098,126.391828 C417.436903,126.391828 419.692025,123.609535 419.692025,120.270782 C419.692025,116.844168 417.58334,114.179024 413.600267,114.179024 L410.027216,114.179024 L410.027216,126.391828 L413.57098,126.391828 Z M431.085498,130.052741 L431.085498,110.518112 L426.926701,110.518112 L426.926701,130.052741 L431.085498,130.052741 Z M441.951799,130.404188 C447.194225,130.404188 449.771508,127.709757 449.771508,124.136706 C449.771508,116.844168 438.554472,118.923567 438.554472,115.8484 C438.554472,114.676908 439.55024,113.915438 441.307478,113.915438 C443.299015,113.915438 445.4077,114.589046 446.989214,116.053411 L449.302911,112.948957 C447.369949,111.162432 444.792667,110.225239 441.688213,110.225239 C437.090107,110.225239 434.278526,112.91967 434.278526,116.17056 C434.278526,123.521673 445.524849,121.149401 445.524849,124.546728 C445.524849,125.688933 444.441219,126.713988 442.127523,126.713988 C439.433091,126.713988 437.295118,125.483922 435.918615,124.048844 L433.634206,127.299734 C435.479305,129.144834 438.173737,130.404188 441.951799,130.404188 Z M466.407407,130.052741 L466.407407,126.391828 L456.742598,126.391828 L456.742598,121.940159 L466.202396,121.940159 L466.202396,118.279246 L456.742598,118.279246 L456.742598,114.179024 L466.407407,114.179024 L466.407407,110.518112 L452.583801,110.518112 L452.583801,130.052741 L466.407407,130.052741 Z M487.904998,130.052741 L483.189743,130.052741 L481.959676,126.743276 L473.583508,126.743276 L472.353442,130.052741 L467.638186,130.052741 L475.165022,110.518112 L480.378162,110.518112 L487.904998,130.052741 Z M480.817471,123.082363 L477.771592,114.676908 L474.725713,123.082363 L480.817471,123.082363 Z M496.311166,130.404188 C501.553592,130.404188 504.130875,127.709757 504.130875,124.136706 C504.130875,116.844168 492.913839,118.923567 492.913839,115.8484 C492.913839,114.676908 493.909607,113.915438 495.666845,113.915438 C497.658381,113.915438 499.767067,114.589046 501.348581,116.053411 L503.662278,112.948957 C501.729316,111.162432 499.152034,110.225239 496.04758,110.225239 C491.449474,110.225239 488.637893,112.91967 488.637893,116.17056 C488.637893,123.521673 499.884216,121.149401 499.884216,124.546728 C499.884216,125.688933 498.800586,126.713988 496.486889,126.713988 C493.792458,126.713988 491.654485,125.483922 490.277982,124.048844 L487.993572,127.299734 C489.838672,129.144834 492.533104,130.404188 496.311166,130.404188 Z M520.766774,130.052741 L520.766774,126.391828 L511.101965,126.391828 L511.101965,121.940159 L520.561763,121.940159 L520.561763,118.279246 L511.101965,118.279246 L511.101965,114.179024 L520.766774,114.179024 L520.766774,110.518112 L506.943168,110.518112 L506.943168,130.052741 L520.766774,130.052741 Z" id="HEART-DISEASE" fill="#FFFFFF"></path>
                </g>
            </g>
        </g>
    </g>
</svg>