<?xml version="1.0" encoding="UTF-8" standalone="no"?>
<svg width="321px" height="216px" viewBox="0 0 321 216" version="1.1" xmlns="http://www.w3.org/2000/svg" xmlns:xlink="http://www.w3.org/1999/xlink">
    <!-- Generator: Sketch 42 (36781) - http://www.bohemiancoding.com/sketch -->
    <title>Group 16</title>
    <desc>Created with Sketch.</desc>
    <defs></defs>
    <g id="POML" stroke="none" stroke-width="1" fill="none" fill-rule="evenodd">
        <g id="BaseHealth-Solution" transform="translate(-171.000000, -4113.000000)">
            <g id="Group-16" transform="translate(173.000000, 4113.000000)">
                <path d="M255.630846,174.598521 C255.630846,172.959632 254.596223,171.725731 252.985354,171.725731 C251.359934,171.725731 250.325311,172.959632 250.325311,174.598521 C250.325311,176.224299 251.359934,177.471311 252.985354,177.471311 C254.596223,177.471311 255.630846,176.224299 255.630846,174.598521 Z M248.411768,174.598521 C248.411768,171.961731 250.338408,170.075188 252.985354,170.075188 C255.617749,170.075188 257.542934,171.961731 257.542934,174.598521 C257.542934,177.235311 255.617749,179.123311 252.985354,179.123311 C250.338408,179.123311 248.411768,177.235311 248.411768,174.598521 Z" id="Fill-1" fill="#45BBD4"></path>
                <path d="M265.282669,173.037862 C265.282669,172.30364 264.71952,171.856405 263.984662,171.856405 L262.020188,171.856405 L262.020188,174.206207 L263.984662,174.206207 C264.71952,174.206207 265.282669,173.758973 265.282669,173.037862 L265.282669,173.037862 Z M260.159031,178.965541 L260.159031,170.217516 L264.248047,170.217516 C266.147038,170.217516 267.183116,171.503862 267.183116,173.037862 C267.183116,174.560207 266.133941,175.845096 264.248047,175.845096 L262.020188,175.845096 L262.020188,178.965541 L260.159031,178.965541 Z" id="Fill-3" fill="#45BBD4"></path>
                <polygon id="Fill-5" fill="#45BBD4" points="271.67172 178.965978 271.67172 171.856842 269.116449 171.856842 269.116449 170.217953 276.086693 170.217953 276.086693 171.856842 273.544519 171.856842 273.544519 178.965978"></polygon>
                <polygon id="Fill-7" fill="#45BBD4" points="278.586523 178.966123 280.44768 178.966123 280.44768 170.218099 278.586523 170.218099"></polygon>
                <path d="M290.283436,174.598521 C290.283436,172.959632 289.248813,171.725731 287.637945,171.725731 C286.012525,171.725731 284.977902,172.959632 284.977902,174.598521 C284.977902,176.224299 286.012525,177.471311 287.637945,177.471311 C289.248813,177.471311 290.283436,176.224299 290.283436,174.598521 M283.064359,174.598521 C283.064359,171.961731 284.990998,170.075188 287.637945,170.075188 C290.27034,170.075188 292.195524,171.961731 292.195524,174.598521 C292.195524,177.235311 290.27034,179.123311 287.637945,179.123311 C284.990998,179.123311 283.064359,177.235311 283.064359,174.598521" id="Fill-9" fill="#45BBD4"></path>
                <polygon id="Fill-10" fill="#45BBD4" points="300.839063 178.965978 296.674379 173.261188 296.674379 178.965978 294.811767 178.965978 294.811767 170.217953 296.72531 170.217953 300.773581 175.714422 300.773581 170.217953 302.633283 170.217953 302.633283 178.965978"></polygon>
                <path d="M305.066611,177.732659 L306.088137,176.277326 C306.705128,176.91977 307.661172,177.470437 308.866049,177.470437 C309.900672,177.470437 310.385242,177.011548 310.385242,176.500215 C310.385242,174.977869 305.354734,176.041326 305.354734,172.74898 C305.354734,171.293647 306.611997,170.087425 308.671057,170.087425 C310.059285,170.087425 311.211776,170.50698 312.074689,171.306758 L311.040067,172.696536 C310.332856,172.042437 309.391364,171.739425 308.499347,171.739425 C307.713558,171.739425 307.268277,172.080314 307.268277,172.604758 C307.268277,173.982881 312.285689,173.050536 312.285689,176.316659 C312.285689,177.917672 311.133197,179.123894 308.78747,179.123894 C307.098022,179.123894 305.89169,178.558659 305.066611,177.732659" id="Fill-11" fill="#45BBD4"></path>
                <path d="M280.674103,35.9103531 C280.674103,33.2094642 282.705515,31.3870198 285.33791,31.3870198 C287.251453,31.3870198 288.364655,32.4213407 288.98019,33.5226741 L287.380963,34.3093407 C287.014261,33.6027975 286.228471,33.037563 285.33791,33.037563 C283.740138,33.037563 282.586191,34.2583531 282.586191,35.9103531 C282.586191,37.5638099 283.740138,38.7831432 285.33791,38.7831432 C286.228471,38.7831432 287.014261,38.2193654 287.380963,37.5113654 L288.98019,38.284921 C288.364655,39.3731432 287.251453,40.4351432 285.33791,40.4351432 C282.705515,40.4351432 280.674103,38.5995877 280.674103,35.9103531" id="Fill-12" fill="#138BCB"></path>
                <path d="M298.20012,35.9103531 C298.20012,34.2714642 297.165497,33.037563 295.554629,33.037563 C293.929209,33.037563 292.894586,34.2714642 292.894586,35.9103531 C292.894586,37.5361309 293.929209,38.7831432 295.554629,38.7831432 C297.165497,38.7831432 298.20012,37.5361309 298.20012,35.9103531 M290.981043,35.9103531 C290.981043,33.273563 292.907682,31.3870198 295.554629,31.3870198 C298.187024,31.3870198 300.112208,33.273563 300.112208,35.9103531 C300.112208,38.5471432 298.187024,40.4351432 295.554629,40.4351432 C292.907682,40.4351432 290.981043,38.5471432 290.981043,35.9103531" id="Fill-13" fill="#138BCB"></path>
                <path d="M302.126449,39.0444914 L303.147975,37.589158 C303.764965,38.2316025 304.721009,38.7822691 305.925886,38.7822691 C306.960509,38.7822691 307.44508,38.3233802 307.44508,37.8120469 C307.44508,36.2897012 302.414571,37.353158 302.414571,34.0608123 C302.414571,32.605479 303.671835,31.3992568 305.730894,31.3992568 C307.119122,31.3992568 308.271614,31.8188123 309.134527,32.6185901 L308.099904,34.0083679 C307.392694,33.3542691 306.451201,33.0512568 305.559185,33.0512568 C304.773395,33.0512568 304.328114,33.3921457 304.328114,33.9165901 C304.328114,35.2947136 309.345526,34.3623679 309.345526,37.6284914 C309.345526,39.2295037 308.193035,40.4357259 305.848763,40.4357259 C304.15786,40.4357259 302.951528,39.8704914 302.126449,39.0444914" id="Fill-14" fill="#138BCB"></path>
                <polygon id="Fill-15" fill="#138BCB" points="313.743619 40.2779556 313.743619 33.1688198 311.188348 33.1688198 311.188348 31.5299309 318.158592 31.5299309 318.158592 33.1688198 315.616418 33.1688198 315.616418 40.2779556"></polygon>
                <path d="M0.914260526,13.5193432 C0.914260526,13.5193432 40.8076306,11.5351951 138.391048,106.015319 C235.973011,200.498356 295.193893,209.952923 316.207942,209.989343" id="Stroke-16" stroke="#00B1D6" stroke-width="4"></path>
                <path d="M0.914260526,209.419156 C0.914260526,209.419156 40.80181,211.547526 138.613689,117.417032 C236.425568,23.2850815 295.668277,14.0446617 316.680871,14.0825383" id="Stroke-17" stroke="#1F8CC8" stroke-width="4"></path>
                <polyline id="Stroke-18" stroke="#C9C9C9" stroke-width="4" points="1.18564895 0.348503704 0.913532943 213.082109 316.109719 213.6488"></polyline>
                <path d="M73.66833,40.7288321 C73.66833,47.1649309 68.4559261,52.3831531 62.0270037,52.3831531 C55.5980812,52.3831531 50.3856774,47.1649309 50.3856774,40.7288321 C50.3856774,34.2927333 55.5980812,29.0745111 62.0270037,29.0745111 C68.4559261,29.0745111 73.66833,34.2927333 73.66833,40.7288321" id="Fill-19" fill="#41BD41"></path>
                <path d="M75.1234958,179.123894 C75.1234958,185.559993 69.9110919,190.778215 63.4821695,190.778215 C57.053247,190.778215 51.8408432,185.559993 51.8408432,179.123894 C51.8408432,172.687795 57.053247,167.469573 63.4821695,167.469573 C69.9110919,167.469573 75.1234958,172.687795 75.1234958,179.123894" id="Fill-20" fill="#41BD41"></path>
            </g>
        </g>
    </g>
</svg>