<?xml version="1.0" encoding="UTF-8" standalone="no"?>
<svg width="320px" height="216px" viewBox="0 0 320 216" version="1.1" xmlns="http://www.w3.org/2000/svg" xmlns:xlink="http://www.w3.org/1999/xlink">
    <!-- Generator: Sketch 42 (36781) - http://www.bohemiancoding.com/sketch -->
    <title>Group 25</title>
    <desc>Created with Sketch.</desc>
    <defs></defs>
    <g id="POML" stroke="none" stroke-width="1" fill="none" fill-rule="evenodd">
        <g id="BaseHealth-Solution" transform="translate(-559.000000, -4113.000000)">
            <g id="Group-25" transform="translate(561.000000, 4113.000000)">
                <g id="Group-17">
                    <g id="Group-19">
                        <path d="M255.34286,174.598521 C255.34286,172.959632 254.308237,171.725731 252.697369,171.725731 C251.071949,171.725731 250.037326,172.959632 250.037326,174.598521 C250.037326,176.224299 251.071949,177.471311 252.697369,177.471311 C254.308237,177.471311 255.34286,176.224299 255.34286,174.598521 M248.123783,174.598521 C248.123783,171.961731 250.050422,170.075188 252.697369,170.075188 C255.329764,170.075188 257.254948,171.961731 257.254948,174.598521 C257.254948,177.235311 255.329764,179.123311 252.697369,179.123311 C250.050422,179.123311 248.123783,177.235311 248.123783,174.598521" id="Fill-21" fill="#45BBD4"></path>
                        <path d="M264.994684,173.037862 C264.994684,172.30364 264.431535,171.856405 263.696676,171.856405 L261.732202,171.856405 L261.732202,174.206207 L263.696676,174.206207 C264.431535,174.206207 264.994684,173.758973 264.994684,173.037862 L264.994684,173.037862 Z M259.871045,178.965541 L259.871045,170.217516 L263.960061,170.217516 C265.859052,170.217516 266.89513,171.503862 266.89513,173.037862 C266.89513,174.560207 265.845956,175.845096 263.960061,175.845096 L261.732202,175.845096 L261.732202,178.965541 L259.871045,178.965541 Z" id="Fill-22" fill="#45BBD4"></path>
                        <polygon id="Fill-23" fill="#45BBD4" points="271.383735 178.965978 271.383735 171.856842 268.828464 171.856842 268.828464 170.217953 275.798708 170.217953 275.798708 171.856842 273.256533 171.856842 273.256533 178.965978"></polygon>
                        <polygon id="Fill-24" fill="#45BBD4" points="278.298537 178.966123 280.159694 178.966123 280.159694 170.218099 278.298537 170.218099"></polygon>
                        <path d="M289.995451,174.598521 C289.995451,172.959632 288.960828,171.725731 287.349959,171.725731 C285.724539,171.725731 284.689916,172.959632 284.689916,174.598521 C284.689916,176.224299 285.724539,177.471311 287.349959,177.471311 C288.960828,177.471311 289.995451,176.224299 289.995451,174.598521 M282.776373,174.598521 C282.776373,171.961731 284.703013,170.075188 287.349959,170.075188 C289.982354,170.075188 291.907539,171.961731 291.907539,174.598521 C291.907539,177.235311 289.982354,179.123311 287.349959,179.123311 C284.703013,179.123311 282.776373,177.235311 282.776373,174.598521" id="Fill-25" fill="#45BBD4"></path>
                        <polygon id="Fill-26" fill="#45BBD4" points="300.551078 178.965978 296.386393 173.261188 296.386393 178.965978 294.523781 178.965978 294.523781 170.217953 296.437324 170.217953 300.485595 175.714422 300.485595 170.217953 302.345297 170.217953 302.345297 178.965978"></polygon>
                        <path d="M304.778625,177.732659 L305.800152,176.277326 C306.417142,176.91977 307.373186,177.470437 308.578063,177.470437 C309.612686,177.470437 310.097256,177.011548 310.097256,176.500215 C310.097256,174.977869 305.066748,176.041326 305.066748,172.74898 C305.066748,171.293647 306.324012,170.087425 308.383071,170.087425 C309.771299,170.087425 310.923791,170.50698 311.786704,171.306758 L310.752081,172.696536 C310.04487,172.042437 309.103378,171.739425 308.211362,171.739425 C307.425572,171.739425 306.980291,172.080314 306.980291,172.604758 C306.980291,173.982881 311.997703,173.050536 311.997703,176.316659 C311.997703,177.917672 310.845212,179.123894 308.499484,179.123894 C306.810037,179.123894 305.603704,178.558659 304.778625,177.732659" id="Fill-27" fill="#45BBD4"></path>
                        <path d="M280.386118,35.9103531 C280.386118,33.2094642 282.417529,31.3870198 285.049924,31.3870198 C286.963467,31.3870198 288.076669,32.4213407 288.692204,33.5226741 L287.092977,34.3093407 C286.726275,33.6027975 285.940486,33.037563 285.049924,33.037563 C283.452152,33.037563 282.298206,34.2583531 282.298206,35.9103531 C282.298206,37.5638099 283.452152,38.7831432 285.049924,38.7831432 C285.940486,38.7831432 286.726275,38.2193654 287.092977,37.5113654 L288.692204,38.284921 C288.076669,39.3731432 286.963467,40.4351432 285.049924,40.4351432 C282.417529,40.4351432 280.386118,38.5995877 280.386118,35.9103531" id="Fill-28" fill="#138BCB"></path>
                        <path d="M297.912135,35.9103531 C297.912135,34.2714642 296.877512,33.037563 295.266643,33.037563 C293.641223,33.037563 292.6066,34.2714642 292.6066,35.9103531 C292.6066,37.5361309 293.641223,38.7831432 295.266643,38.7831432 C296.877512,38.7831432 297.912135,37.5361309 297.912135,35.9103531 M290.693057,35.9103531 C290.693057,33.273563 292.619697,31.3870198 295.266643,31.3870198 C297.899038,31.3870198 299.824222,33.273563 299.824222,35.9103531 C299.824222,38.5471432 297.899038,40.4351432 295.266643,40.4351432 C292.619697,40.4351432 290.693057,38.5471432 290.693057,35.9103531" id="Fill-29" fill="#138BCB"></path>
                        <path d="M301.838463,39.0444914 L302.859989,37.589158 C303.47698,38.2316025 304.433024,38.7822691 305.637901,38.7822691 C306.672524,38.7822691 307.157094,38.3233802 307.157094,37.8120469 C307.157094,36.2897012 302.126586,37.353158 302.126586,34.0608123 C302.126586,32.605479 303.383849,31.3992568 305.442909,31.3992568 C306.831137,31.3992568 307.983628,31.8188123 308.846541,32.6185901 L307.811919,34.0083679 C307.104708,33.3542691 306.163216,33.0512568 305.271199,33.0512568 C304.48541,33.0512568 304.040129,33.3921457 304.040129,33.9165901 C304.040129,35.2947136 309.05754,34.3623679 309.05754,37.6284914 C309.05754,39.2295037 307.905049,40.4357259 305.560777,40.4357259 C303.869874,40.4357259 302.663542,39.8704914 301.838463,39.0444914" id="Fill-30" fill="#138BCB"></path>
                        <polygon id="Fill-31" fill="#138BCB" points="313.455634 40.2779556 313.455634 33.1688198 310.900362 33.1688198 310.900362 31.5299309 317.870607 31.5299309 317.870607 33.1688198 315.328432 33.1688198 315.328432 40.2779556"></polygon>
                        <path d="M0.626274922,13.5193432 C0.626274922,13.5193432 40.519645,11.5351951 138.103063,106.015319 C235.685026,200.498356 294.905908,209.952923 315.919957,209.989343" id="Stroke-32" stroke="#00B1D6" stroke-width="4"></path>
                        <path d="M0.626274922,209.419156 C0.626274922,209.419156 40.5138244,211.547526 138.325703,117.417032 C236.137582,23.2850815 295.380292,14.0446617 316.392886,14.0825383" id="Stroke-33" stroke="#1F8CC8" stroke-width="4"></path>
                        <polyline id="Stroke-34" stroke="#C9C9C9" stroke-width="4" points="0.897663342 0.348503704 0.625547339 213.082109 315.821733 213.6488"></polyline>
                        <path d="M74.8355102,40.7288321 C74.8355102,47.1649309 69.6231063,52.3831531 63.1941839,52.3831531 C56.7652614,52.3831531 51.5528576,47.1649309 51.5528576,40.7288321 C51.5528576,34.2927333 56.7652614,29.0745111 63.1941839,29.0745111 C69.6231063,29.0745111 74.8355102,34.2927333 74.8355102,40.7288321" id="Fill-38" fill="#41BD41"></path>
                        <path d="M76.290676,179.123894 C76.290676,185.559993 71.0782721,190.778215 64.6493497,190.778215 C58.2204272,190.778215 53.0080234,185.559993 53.0080234,179.123894 C53.0080234,172.687795 58.2204272,167.469573 64.6493497,167.469573 C71.0782721,167.469573 76.290676,172.687795 76.290676,179.123894" id="Fill-39" fill="#41BD41"></path>
                        <path d="M122.855981,141.247351 C122.855981,147.683449 117.643577,152.901672 111.214655,152.901672 C104.785732,152.901672 99.5733286,147.683449 99.5733286,141.247351 C99.5733286,134.811252 104.785732,129.59303 111.214655,129.59303 C117.643577,129.59303 122.855981,134.811252 122.855981,141.247351" id="Fill-40" fill="#ECCD00"></path>
                        <path d="M202.8901,151.444881 C202.8901,157.88098 197.677696,163.099202 191.248773,163.099202 C184.819851,163.099202 179.607447,157.88098 179.607447,151.444881 C179.607447,145.008783 184.819851,139.79056 191.248773,139.79056 C197.677696,139.79056 202.8901,145.008783 202.8901,151.444881" id="Fill-41" fill="#CF2244"></path>
                        <path d="M124.311147,81.5189556 C124.311147,87.9550543 119.098743,93.1732765 112.669821,93.1732765 C106.240898,93.1732765 101.028494,87.9550543 101.028494,81.5189556 C101.028494,75.0828568 106.240898,69.8646346 112.669821,69.8646346 C119.098743,69.8646346 124.311147,75.0828568 124.311147,81.5189556" id="Fill-42" fill="#ECCD00"></path>
                        <path d="M208.710763,66.9510543 C208.710763,73.3871531 203.498359,78.6053753 197.069436,78.6053753 C190.640514,78.6053753 185.42811,73.3871531 185.42811,66.9510543 C185.42811,60.5149556 190.640514,55.2967333 197.069436,55.2967333 C203.498359,55.2967333 208.710763,60.5149556 208.710763,66.9510543" id="Fill-43" fill="#CF2244"></path>
                    </g>
                </g>
                <g id="Group-20" transform="translate(97.000000, 9.000000)">
                    <path d="M20.7137138,22.2108049 C20.101089,22.3171506 19.4710022,22.3739654 18.8467361,22.3797926 C16.6319738,22.4016444 14.4172114,22.4016444 12.2024491,22.3870765 C10.9320894,22.3797926 9.6588193,22.3637679 8.3913699,22.2880148 C6.82852184,22.1918667 5.81427129,21.5363111 5.56107244,20.4145827 C5.42719719,19.8202123 5.43447301,19.1777679 5.51014164,18.5702864 C5.79826446,16.2263111 8.1745502,14.2072 10.6847112,14.0892 C10.8884344,14.3791012 11.033951,14.7054222 11.2856947,14.9268543 C12.1995388,15.7353728 13.1453965,16.5162123 14.0999853,17.282484 C14.1916607,17.3553235 14.4826939,17.3276444 14.5947417,17.247521 C15.168077,16.838163 15.729771,16.4127802 16.2667271,15.9655457 C16.9171863,15.4265333 17.5676454,14.8831506 17.9052438,14.0775457 C20.8985199,14.3150025 23.22533,16.6560642 23.2296955,19.3992 C23.2311506,21.0308049 22.4642782,21.9107062 20.7137138,22.2108049 M10.5377394,6.41774321 C11.1983847,5.30329877 12.359607,4.45107654 13.7332835,4.2369284 C13.7842143,4.22818765 13.8366003,4.2209037 13.8904414,4.21361975 C16.0688246,3.9557679 18.100236,5.33971852 18.7710675,7.20878025 C19.1348589,8.22416296 18.9893423,9.2512 18.7608813,10.2636691 C18.4451103,11.6592741 17.82812,12.9179407 16.5664913,13.825521 C15.2306491,14.7855457 13.6023186,14.7520395 12.2955797,13.7555951 C11.6072863,13.2326074 11.1227161,12.5741383 10.7487385,11.8355457 C10.2685338,10.8886321 10.0910035,9.87470617 9.98186611,8.84621235 C9.89310099,8.00855802 10.0997345,7.1563358 10.5377394,6.41774321 M14.342998,0.000582716049 C6.6771846,0.000582716049 0.463626679,6.22107654 0.463626679,13.8939901 C0.463626679,21.5683605 6.6771846,27.7888543 14.342998,27.7888543 C22.0073562,27.7888543 28.2209141,21.5683605 28.2209141,13.8939901 C28.2209141,6.22107654 22.0073562,0.000582716049 14.342998,0.000582716049" id="Fill-35" fill="#41BD41"></path>
                    <path d="M54.2990857,22.2108049 C53.6864609,22.3171506 53.0563741,22.3739654 52.432108,22.3797926 C50.2173457,22.4016444 48.0025834,22.4016444 45.787821,22.3870765 C44.5174613,22.3797926 43.2441912,22.3637679 41.9767418,22.2880148 C40.4138938,22.1918667 39.3996432,21.5363111 39.1464444,20.4145827 C39.0125691,19.8202123 39.0198449,19.1777679 39.0955136,18.5702864 C39.3836364,16.2263111 41.7599221,14.2072 44.2700831,14.0892 C44.4738063,14.3791012 44.6193229,14.7054222 44.8710666,14.9268543 C45.7849107,15.7353728 46.7307685,16.5162123 47.6853572,17.282484 C47.7770327,17.3553235 48.0680658,17.3276444 48.1815688,17.247521 C48.7534489,16.838163 49.3151429,16.4127802 49.8520991,15.9655457 C50.5025582,15.4265333 51.1530173,14.8831506 51.4906158,14.0775457 C54.4838918,14.3150025 56.8107019,16.6560642 56.8150674,19.3992 C56.8165225,21.0308049 56.0496502,21.9107062 54.2990857,22.2108049 M44.1231114,6.41774321 C44.7837566,5.30329877 45.9449789,4.45107654 47.3186554,4.2369284 C47.3710414,4.22818765 47.4219722,4.2209037 47.4758133,4.21361975 C49.6541965,3.9557679 51.685608,5.33971852 52.3564394,7.20878025 C52.7202309,8.22416296 52.5747143,9.2512 52.3462532,10.2636691 C52.0304823,11.6592741 51.413492,12.9179407 50.1518632,13.825521 C48.816021,14.7855457 47.1876905,14.7520395 45.8809516,13.7555951 C45.1926582,13.2326074 44.708088,12.5741383 44.3341104,11.8355457 C43.8539057,10.8886321 43.6763755,9.87470617 43.567238,8.84621235 C43.4784729,8.00855802 43.6851065,7.1563358 44.1231114,6.41774321 M47.9283699,0.000582716049 C40.2625565,0.000582716049 34.0489986,6.22107654 34.0489986,13.8939901 C34.0489986,21.5683605 40.2625565,27.7888543 47.9283699,27.7888543 C55.5941833,27.7888543 61.806286,21.5683605 61.806286,13.8939901 C61.806286,6.22107654 55.5941833,0.000582716049 47.9283699,0.000582716049" id="Fill-36" fill="#ECCD00"></path>
                    <path d="M87.8843121,22.2108049 C87.2716873,22.3171506 86.6416006,22.3739654 86.0173344,22.3797926 C83.8025721,22.4016444 81.5878098,22.4016444 79.3730474,22.3870765 C78.1026877,22.3797926 76.8294176,22.3637679 75.5619682,22.2880148 C73.9991202,22.1918667 72.9848696,21.5363111 72.7331259,20.4145827 C72.5992507,19.8202123 72.6050714,19.1777679 72.68074,18.5702864 C72.9688628,16.2263111 75.3451485,14.2072 77.8553095,14.0892 C78.0590327,14.3791012 78.2045493,14.7054222 78.456293,14.9268543 C79.3701371,15.7353728 80.3159949,16.5162123 81.2705836,17.282484 C81.3622591,17.3553235 81.6532922,17.3276444 81.7667952,17.247521 C82.3386753,16.838163 82.9003693,16.4127802 83.4373255,15.9655457 C84.0877846,15.4265333 84.7382437,14.8831506 85.0758422,14.0775457 C88.0691182,14.3150025 90.3959283,16.6560642 90.4002938,19.3992 C90.401749,21.0308049 89.6348766,21.9107062 87.8843121,22.2108049 M77.7083378,6.41774321 C78.3689831,5.30329877 79.5302054,4.45107654 80.9038819,4.2369284 C80.9562678,4.22818765 81.0071986,4.2209037 81.0610398,4.21361975 C83.2394229,3.9557679 85.2708344,5.33971852 85.9416658,7.20878025 C86.3054573,8.22416296 86.1599407,9.2512 85.9314797,10.2636691 C85.6157087,11.6592741 84.9987184,12.9179407 83.7370896,13.825521 C82.4012475,14.7855457 80.7729169,14.7520395 79.4661781,13.7555951 C78.7778846,13.2326074 78.2933144,12.5741383 77.9193368,11.8355457 C77.4391321,10.8886321 77.2616019,9.87470617 77.1524645,8.84621235 C77.0636993,8.00855802 77.2703329,7.1563358 77.7083378,6.41774321 M81.5135963,0.000582716049 C73.8477829,0.000582716049 67.634225,6.22107654 67.634225,13.8939901 C67.634225,21.5683605 73.8477829,27.7888543 81.5135963,27.7888543 C89.1794097,27.7888543 95.3915125,21.5683605 95.3915125,13.8939901 C95.3915125,6.22107654 89.1794097,0.000582716049 81.5135963,0.000582716049" id="Fill-37" fill="#CF2244"></path>
                </g>
            </g>
        </g>
    </g>
</svg>