<?xml version="1.0" encoding="UTF-8" standalone="no"?>
<svg width="320px" height="216px" viewBox="0 0 320 216" version="1.1" xmlns="http://www.w3.org/2000/svg" xmlns:xlink="http://www.w3.org/1999/xlink">
    <!-- Generator: Sketch 42 (36781) - http://www.bohemiancoding.com/sketch -->
    <title>Group 22</title>
    <desc>Created with Sketch.</desc>
    <defs></defs>
    <g id="POML" stroke="none" stroke-width="1" fill="none" fill-rule="evenodd">
        <g id="BaseHealth-Solution" transform="translate(-953.000000, -4113.000000)">
            <g id="Group-22" transform="translate(955.000000, 4113.000000)">
                <path d="M255.054875,174.598521 C255.054875,172.959632 254.020252,171.725731 252.409383,171.725731 C250.783963,171.725731 249.74934,172.959632 249.74934,174.598521 C249.74934,176.224299 250.783963,177.471311 252.409383,177.471311 C254.020252,177.471311 255.054875,176.224299 255.054875,174.598521 M247.835797,174.598521 C247.835797,171.961731 249.762437,170.075188 252.409383,170.075188 C255.041778,170.075188 256.966962,171.961731 256.966962,174.598521 C256.966962,177.235311 255.041778,179.123311 252.409383,179.123311 C249.762437,179.123311 247.835797,177.235311 247.835797,174.598521" id="Fill-44" fill="#45BBD4"></path>
                <path d="M264.706698,173.037862 C264.706698,172.30364 264.143549,171.856405 263.40869,171.856405 L261.444217,171.856405 L261.444217,174.206207 L263.40869,174.206207 C264.143549,174.206207 264.706698,173.758973 264.706698,173.037862 L264.706698,173.037862 Z M259.583059,178.965541 L259.583059,170.217516 L263.672075,170.217516 C265.571067,170.217516 266.607145,171.503862 266.607145,173.037862 C266.607145,174.560207 265.55797,175.845096 263.672075,175.845096 L261.444217,175.845096 L261.444217,178.965541 L259.583059,178.965541 Z" id="Fill-45" fill="#45BBD4"></path>
                <polygon id="Fill-46" fill="#45BBD4" points="271.095749 178.965978 271.095749 171.856842 268.540478 171.856842 268.540478 170.217953 275.510722 170.217953 275.510722 171.856842 272.968547 171.856842 272.968547 178.965978"></polygon>
                <polygon id="Fill-47" fill="#45BBD4" points="278.010551 178.966123 279.871708 178.966123 279.871708 170.218099 278.010551 170.218099"></polygon>
                <path d="M289.70732,174.598521 C289.70732,172.959632 288.672697,171.725731 287.061828,171.725731 C285.436408,171.725731 284.401785,172.959632 284.401785,174.598521 C284.401785,176.224299 285.436408,177.471311 287.061828,177.471311 C288.672697,177.471311 289.70732,176.224299 289.70732,174.598521 M282.488242,174.598521 C282.488242,171.961731 284.414882,170.075188 287.061828,170.075188 C289.694223,170.075188 291.619407,171.961731 291.619407,174.598521 C291.619407,177.235311 289.694223,179.123311 287.061828,179.123311 C284.414882,179.123311 282.488242,177.235311 282.488242,174.598521" id="Fill-48" fill="#45BBD4"></path>
                <polygon id="Fill-49" fill="#45BBD4" points="300.262947 178.965978 296.098262 173.261188 296.098262 178.965978 294.23565 178.965978 294.23565 170.217953 296.149193 170.217953 300.197464 175.714422 300.197464 170.217953 302.057166 170.217953 302.057166 178.965978"></polygon>
                <path d="M304.49064,177.732659 L305.512166,176.277326 C306.129157,176.91977 307.0852,177.470437 308.290078,177.470437 C309.324701,177.470437 309.809271,177.011548 309.809271,176.500215 C309.809271,174.977869 304.778763,176.041326 304.778763,172.74898 C304.778763,171.293647 306.036026,170.087425 308.095086,170.087425 C309.483314,170.087425 310.635805,170.50698 311.498718,171.306758 L310.464095,172.696536 C309.756885,172.042437 308.815393,171.739425 307.923376,171.739425 C307.137586,171.739425 306.692306,172.080314 306.692306,172.604758 C306.692306,173.982881 311.709717,173.050536 311.709717,176.316659 C311.709717,177.917672 310.557226,179.123894 308.211499,179.123894 C306.522051,179.123894 305.315719,178.558659 304.49064,177.732659" id="Fill-50" fill="#45BBD4"></path>
                <path d="M280.098132,35.9103531 C280.098132,33.2094642 282.129544,31.3870198 284.761939,31.3870198 C286.675482,31.3870198 287.788683,32.4213407 288.404219,33.5226741 L286.804991,34.3093407 C286.43829,33.6027975 285.6525,33.037563 284.761939,33.037563 C283.164167,33.037563 282.01022,34.2583531 282.01022,35.9103531 C282.01022,37.5638099 283.164167,38.7831432 284.761939,38.7831432 C285.6525,38.7831432 286.43829,38.2193654 286.804991,37.5113654 L288.404219,38.284921 C287.788683,39.3731432 286.675482,40.4351432 284.761939,40.4351432 C282.129544,40.4351432 280.098132,38.5995877 280.098132,35.9103531" id="Fill-51" fill="#138BCB"></path>
                <path d="M297.624149,35.9103531 C297.624149,34.2714642 296.589526,33.037563 294.978658,33.037563 C293.353237,33.037563 292.318615,34.2714642 292.318615,35.9103531 C292.318615,37.5361309 293.353237,38.7831432 294.978658,38.7831432 C296.589526,38.7831432 297.624149,37.5361309 297.624149,35.9103531 M290.405072,35.9103531 C290.405072,33.273563 292.331711,31.3870198 294.978658,31.3870198 C297.611053,31.3870198 299.536237,33.273563 299.536237,35.9103531 C299.536237,38.5471432 297.611053,40.4351432 294.978658,40.4351432 C292.331711,40.4351432 290.405072,38.5471432 290.405072,35.9103531" id="Fill-52" fill="#138BCB"></path>
                <path d="M301.550477,39.0444914 L302.572004,37.589158 C303.188994,38.2316025 304.145038,38.7822691 305.349915,38.7822691 C306.384538,38.7822691 306.869108,38.3233802 306.869108,37.8120469 C306.869108,36.2897012 301.8386,37.353158 301.8386,34.0608123 C301.8386,32.605479 303.095863,31.3992568 305.154923,31.3992568 C306.543151,31.3992568 307.695642,31.8188123 308.558556,32.6185901 L307.523933,34.0083679 C306.816722,33.3542691 305.87523,33.0512568 304.983213,33.0512568 C304.197424,33.0512568 303.752143,33.3921457 303.752143,33.9165901 C303.752143,35.2947136 308.769555,34.3623679 308.769555,37.6284914 C308.769555,39.2295037 307.617064,40.4357259 305.272791,40.4357259 C303.581889,40.4357259 302.375556,39.8704914 301.550477,39.0444914" id="Fill-53" fill="#138BCB"></path>
                <polygon id="Fill-54" fill="#138BCB" points="313.167648 40.2779556 313.167648 33.1688198 310.612377 33.1688198 310.612377 31.5299309 317.582621 31.5299309 317.582621 33.1688198 315.040446 33.1688198 315.040446 40.2779556"></polygon>
                <path d="M0.338289319,13.5193432 C0.338289319,13.5193432 40.2316594,11.5351951 137.815077,106.015319 C235.39704,200.498356 294.617922,209.952923 315.631971,209.989343" id="Stroke-55" stroke="#00B1D6" stroke-width="4"></path>
                <path d="M0.338289319,209.419156 C0.338289319,209.419156 40.2258388,211.547526 138.037718,117.417032 C235.849596,23.2850815 295.092306,14.0446617 316.1049,14.0825383" id="Stroke-56" stroke="#1F8CC8" stroke-width="4"></path>
                <polyline id="Stroke-57" stroke="#C9C9C9" stroke-width="4" points="0.609677738 0.348503704 0.337561736 213.082109 315.533748 213.6488"></polyline>
                <path d="M183.905125,112.472978 C183.905125,133.590607 166.341274,150.710805 144.673856,150.710805 C123.004982,150.710805 105.441131,133.590607 105.441131,112.472978 C105.441131,91.3553481 123.004982,74.2351506 144.673856,74.2351506 C166.341274,74.2351506 183.905125,91.3553481 183.905125,112.472978 Z" id="Stroke-58" stroke="#E84686" stroke-width="4"></path>
            </g>
        </g>
    </g>
</svg>