<?xml version="1.0" encoding="UTF-8" standalone="no"?>
<svg width="643px" height="286px" viewBox="0 0 643 286" version="1.1" xmlns="http://www.w3.org/2000/svg" xmlns:xlink="http://www.w3.org/1999/xlink">
    <!-- Generator: Sketch 42 (36781) - http://www.bohemiancoding.com/sketch -->
    <title>Group 18</title>
    <desc>Created with Sketch.</desc>
    <defs>
        <polygon id="path-1" points="552.710208 0.0903772306 552.710208 233.078547 0.542463366 233.078547 0.542463366 0.0903772306 552.710208 0.0903772306"></polygon>
        <polygon id="path-3" points="553.410703 0.619916686 553.410703 113.503954 0.631129255 113.503954 0.631129255 0.619916686 553.410703 0.619916686"></polygon>
    </defs>
    <g id="POML" stroke="none" stroke-width="1" fill="none" fill-rule="evenodd">
        <g id="BaseHealth-Solution" transform="translate(-390.000000, -4908.000000)">
            <g id="Group-18" transform="translate(390.000000, 4907.000000)">
                <path d="M-56.5050009,115.75 L-56.5050009,106.412 L-59.3050009,106.412 L-61.5730009,112.25 L-63.8410009,106.412 L-66.6270009,106.412 L-66.6270009,115.75 L-64.6390009,115.75 L-64.6390009,109.016 L-62.0070009,115.75 L-61.1390009,115.75 L-58.5070009,109.016 L-58.5070009,115.75 L-56.5050009,115.75 Z M-45.1290008,115.918 C-47.9570008,115.918 -50.0150008,113.902 -50.0150008,111.088 C-50.0150008,108.274 -47.9570008,106.258 -45.1290008,106.258 C-42.3150008,106.258 -40.2570008,108.274 -40.2570008,111.088 C-40.2570008,113.902 -42.3150008,115.918 -45.1290008,115.918 Z M-45.1290008,114.154 C-43.4070008,114.154 -42.3010008,112.824 -42.3010008,111.088 C-42.3010008,109.338 -43.4070008,108.022 -45.1290008,108.022 C-46.8650008,108.022 -47.9710008,109.338 -47.9710008,111.088 C-47.9710008,112.824 -46.8650008,114.154 -45.1290008,114.154 Z M-25.4090006,115.75 L-25.4090006,106.412 L-27.3970006,106.412 L-27.3970006,112.278 L-31.7230006,106.412 L-33.7670006,106.412 L-33.7670006,115.75 L-31.7790006,115.75 L-31.7790006,109.66 L-27.3270006,115.75 L-25.4090006,115.75 Z M-14.3130005,115.75 L-14.3130005,108.162 L-11.5970005,108.162 L-11.5970005,106.412 L-19.0450005,106.412 L-19.0450005,108.162 L-16.3150005,108.162 L-16.3150005,115.75 L-14.3130005,115.75 Z M3.16699969,115.75 L3.16699969,106.412 L1.16499969,106.412 L1.16499969,110.08 L-3.24500031,110.08 L-3.24500031,106.412 L-5.23300031,106.412 L-5.23300031,115.75 L-3.24500031,115.75 L-3.24500031,111.816 L1.16499969,111.816 L1.16499969,115.75 L3.16699969,115.75 Z M15.9569998,115.75 L15.9569998,114 L12.0089998,114 L12.0089998,106.412 L10.0069998,106.412 L10.0069998,115.75 L15.9569998,115.75 Z M25.205,115.75 L25.205,111.928 L28.775,106.412 L26.521,106.412 L24.211,110.15 L21.901,106.412 L19.633,106.412 L23.217,111.928 L23.217,115.75 L25.205,115.75 Z M47.9570003,115.918 C50.0010003,115.918 51.1910003,114.784 51.8490003,113.622 L50.1410003,112.796 C49.7490003,113.552 48.9090003,114.154 47.9570003,114.154 C46.2490003,114.154 45.0170003,112.852 45.0170003,111.088 C45.0170003,109.324 46.2490003,108.022 47.9570003,108.022 C48.9090003,108.022 49.7490003,108.624 50.1410003,109.38 L51.8490003,108.54 C51.1910003,107.364 50.0010003,106.258 47.9570003,106.258 C45.1430003,106.258 42.9730003,108.204 42.9730003,111.088 C42.9730003,113.958 45.1430003,115.918 47.9570003,115.918 Z M62.5670005,115.918 C59.7390005,115.918 57.6810005,113.902 57.6810005,111.088 C57.6810005,108.274 59.7390005,106.258 62.5670005,106.258 C65.3810005,106.258 67.4390005,108.274 67.4390005,111.088 C67.4390005,113.902 65.3810005,115.918 62.5670005,115.918 Z M62.5670005,114.154 C64.2890005,114.154 65.3950005,112.824 65.3950005,111.088 C65.3950005,109.338 64.2890005,108.022 62.5670005,108.022 C60.8310005,108.022 59.7250005,109.338 59.7250005,111.088 C59.7250005,112.824 60.8310005,114.154 62.5670005,114.154 Z M77.2610006,115.918 C79.7670006,115.918 80.9990006,114.63 80.9990006,112.922 C80.9990006,109.436 75.6370006,110.43 75.6370006,108.96 C75.6370006,108.4 76.1130006,108.036 76.9530006,108.036 C77.9050006,108.036 78.9130006,108.358 79.6690006,109.058 L80.7750006,107.574 C79.8510006,106.72 78.6190006,106.272 77.1350006,106.272 C74.9370006,106.272 73.5930006,107.56 73.5930006,109.114 C73.5930006,112.628 78.9690006,111.494 78.9690006,113.118 C78.9690006,113.664 78.4510006,114.154 77.3450006,114.154 C76.0570006,114.154 75.0350006,113.566 74.3770006,112.88 L73.2850006,114.434 C74.1670006,115.316 75.4550006,115.918 77.2610006,115.918 Z M91.3950008,115.75 L91.3950008,108.162 L94.1110008,108.162 L94.1110008,106.412 L86.6630008,106.412 L86.6630008,108.162 L89.3930008,108.162 L89.3930008,115.75 L91.3950008,115.75 Z M-50.5680008,132.75 L-52.5560008,132.75 L-52.5560008,123.412 L-48.1880008,123.412 C-46.1580008,123.412 -45.0520008,124.784 -45.0520008,126.422 C-45.0520008,128.046 -46.1720008,129.418 -48.1880008,129.418 L-50.5680008,129.418 L-50.5680008,132.75 Z M-48.4680008,127.668 C-47.6840008,127.668 -47.0820008,127.192 -47.0820008,126.422 C-47.0820008,125.638 -47.6840008,125.162 -48.4680008,125.162 L-50.5680008,125.162 L-50.5680008,127.668 L-48.4680008,127.668 Z M-32.1080006,132.75 L-32.1080006,131 L-36.7280006,131 L-36.7280006,128.872 L-32.2060006,128.872 L-32.2060006,127.122 L-36.7280006,127.122 L-36.7280006,125.162 L-32.1080006,125.162 L-32.1080006,123.412 L-38.7160006,123.412 L-38.7160006,132.75 L-32.1080006,132.75 Z M-17.8900005,132.75 L-20.1860005,132.75 L-22.0200005,129.432 L-23.4760005,129.432 L-23.4760005,132.75 L-25.4640005,132.75 L-25.4640005,123.412 L-21.0960005,123.412 C-19.1500005,123.412 -17.9460005,124.686 -17.9460005,126.422 C-17.9460005,128.06 -18.9960005,128.956 -20.0040005,129.194 L-17.8900005,132.75 Z M-21.3760005,127.682 C-20.5920005,127.682 -19.9900005,127.206 -19.9900005,126.408 C-19.9900005,125.638 -20.5920005,125.162 -21.3760005,125.162 L-23.4760005,125.162 L-23.4760005,127.682 L-21.3760005,127.682 Z M7.43799985,132.75 L7.43799985,123.412 L4.63799985,123.412 L2.36999985,129.25 L0.101999847,123.412 L-2.68400015,123.412 L-2.68400015,132.75 L-0.696000153,132.75 L-0.696000153,126.016 L1.93599985,132.75 L2.80399985,132.75 L5.43599985,126.016 L5.43599985,132.75 L7.43799985,132.75 Z M20.984,132.75 L20.984,131 L16.364,131 L16.364,128.872 L20.886,128.872 L20.886,127.122 L16.364,127.122 L16.364,125.162 L20.984,125.162 L20.984,123.412 L14.376,123.412 L14.376,132.75 L20.984,132.75 Z M37.7500002,132.75 L37.7500002,123.412 L34.9500002,123.412 L32.6820002,129.25 L30.4140002,123.412 L27.6280002,123.412 L27.6280002,132.75 L29.6160002,132.75 L29.6160002,126.016 L32.2480002,132.75 L33.1160002,132.75 L35.7480002,126.016 L35.7480002,132.75 L37.7500002,132.75 Z M49.7560003,132.75 L44.6880003,132.75 L44.6880003,123.412 L49.6020003,123.412 C51.3800003,123.412 52.2900003,124.546 52.2900003,125.792 C52.2900003,126.954 51.5620003,127.752 50.6800003,127.934 C51.6880003,128.088 52.4720003,129.054 52.4720003,130.216 C52.4720003,131.63 51.5480003,132.75 49.7560003,132.75 Z M49.1680003,127.122 C49.8400003,127.122 50.2600003,126.744 50.2600003,126.142 C50.2600003,125.568 49.8400003,125.162 49.1680003,125.162 L46.6760003,125.162 L46.6760003,127.122 L49.1680003,127.122 Z M49.2520003,131 C49.9940003,131 50.4420003,130.608 50.4420003,129.936 C50.4420003,129.348 50.0220003,128.872 49.2520003,128.872 L46.6760003,128.872 L46.6760003,131 L49.2520003,131 Z M65.6680005,132.75 L65.6680005,131 L61.0480005,131 L61.0480005,128.872 L65.5700005,128.872 L65.5700005,127.122 L61.0480005,127.122 L61.0480005,125.162 L65.6680005,125.162 L65.6680005,123.412 L59.0600005,123.412 L59.0600005,132.75 L65.6680005,132.75 Z M79.8860006,132.75 L77.5900006,132.75 L75.7560006,129.432 L74.3000006,129.432 L74.3000006,132.75 L72.3120006,132.75 L72.3120006,123.412 L76.6800006,123.412 C78.6260006,123.412 79.8300006,124.686 79.8300006,126.422 C79.8300006,128.06 78.7800006,128.956 77.7720006,129.194 L79.8860006,132.75 Z M76.4000006,127.682 C77.1840006,127.682 77.7860006,127.206 77.7860006,126.408 C77.7860006,125.638 77.1840006,125.162 76.4000006,125.162 L74.3000006,125.162 L74.3000006,127.682 L76.4000006,127.682 Z" id="MONTHLY-COST-PER-MEM" fill="#474747" transform="translate(13.742000, 119.504000) rotate(-90.000000) translate(-13.742000, -119.504000) "></path>
                <path d="M301.692,286 L301.692,276.662 L298.892,276.662 L296.624,282.5 L294.356,276.662 L291.57,276.662 L291.57,286 L293.558,286 L293.558,279.266 L296.19,286 L297.058,286 L299.69,279.266 L299.69,286 L301.692,286 Z M313.068,286.168 C310.24,286.168 308.182,284.152 308.182,281.338 C308.182,278.524 310.24,276.508 313.068,276.508 C315.882,276.508 317.94,278.524 317.94,281.338 C317.94,284.152 315.882,286.168 313.068,286.168 Z M313.068,284.404 C314.79,284.404 315.896,283.074 315.896,281.338 C315.896,279.588 314.79,278.272 313.068,278.272 C311.332,278.272 310.226,279.588 310.226,281.338 C310.226,283.074 311.332,284.404 313.068,284.404 Z M332.788,286 L332.788,276.662 L330.8,276.662 L330.8,282.528 L326.474,276.662 L324.43,276.662 L324.43,286 L326.418,286 L326.418,279.91 L330.87,286 L332.788,286 Z M343.884,286 L343.884,278.412 L346.6,278.412 L346.6,276.662 L339.152,276.662 L339.152,278.412 L341.882,278.412 L341.882,286 L343.884,286 Z M361.364,286 L361.364,276.662 L359.362,276.662 L359.362,280.33 L354.952,280.33 L354.952,276.662 L352.964,276.662 L352.964,286 L354.952,286 L354.952,282.066 L359.362,282.066 L359.362,286 L361.364,286 Z M371.62,286.168 C374.126,286.168 375.358,284.88 375.358,283.172 C375.358,279.686 369.996,280.68 369.996,279.21 C369.996,278.65 370.472,278.286 371.312,278.286 C372.264,278.286 373.272,278.608 374.028,279.308 L375.134,277.824 C374.21,276.97 372.978,276.522 371.494,276.522 C369.296,276.522 367.952,277.81 367.952,279.364 C367.952,282.878 373.328,281.744 373.328,283.368 C373.328,283.914 372.81,284.404 371.704,284.404 C370.416,284.404 369.394,283.816 368.736,283.13 L367.644,284.684 C368.526,285.566 369.814,286.168 371.62,286.168 Z" id="MONTHS" fill="#474747"></path>
                <g id="Group-21" transform="translate(53.000000, 3.920304)">
                    <polyline id="Fill-1" fill="#00B1D6" points="35.5672158 224.697351 2.64394851 230.284815 31.3642455 229.586382 101.41375 223.300485 206.324092 212.13324 296.151374 198.85533 387.505035 178.971641 468.910265 156.86484 522.75802 138.652501 554.010607 125.809016 554.010607 0.323653854 541.234978 8.43036572 477.25106 46.0123472 424.341968 75.2326887 340.282562 118.535535 268.832067 150.663453 192.478107 180.696072 114.723156 206.538093 56.0777109 220.765174"></polyline>
                    <path d="M558.643401,234.141213 L1.53968812,234.141213 C0.958277228,234.141213 0.486844059,233.671168 0.486844059,233.091468 C0.486844059,232.511071 0.958277228,232.041025 1.53968812,232.041025 L558.643401,232.041025 C559.225512,232.041025 559.696946,232.511071 559.696946,233.091468 C559.696946,233.671168 559.225512,234.141213 558.643401,234.141213" id="Fill-3" fill="#C9C9C9"></path>
                    <path d="M5.23353861,250.233179 C5.23353861,249.597605 5.1936104,249.07867 5.11375396,248.672182 C5.03319703,248.267091 4.92742228,247.948605 4.79432822,247.717424 C4.66193465,247.486242 4.51132822,247.327698 4.34180842,247.241791 C4.1736896,247.155185 4.00276881,247.111882 3.82974653,247.111882 C3.65672426,247.111882 3.48720446,247.155185 3.32118713,247.241791 C3.15446931,247.327698 3.00736535,247.486242 2.87917475,247.717424 C2.75028366,247.948605 2.6466104,248.267091 2.56885545,248.672182 C2.4911005,249.07867 2.45187277,249.597605 2.45187277,250.233179 C2.45187277,250.87015 2.4911005,251.392578 2.56885545,251.794876 C2.6466104,252.19857 2.75028366,252.517754 2.87917475,252.750332 C3.00736535,252.983609 3.15446931,253.142851 3.32118713,253.229457 C3.48720446,253.315364 3.65672426,253.358667 3.82974653,253.358667 C4.00276881,253.358667 4.1736896,253.315364 4.34180842,253.229457 C4.51132822,253.142851 4.66193465,252.983609 4.79432822,252.750332 C4.92742228,252.517754 5.03319703,252.19857 5.11375396,251.794876 C5.1936104,251.392578 5.23353861,250.87015 5.23353861,250.233179 M7.25586782,250.233179 C7.25586782,251.03498 7.16970693,251.729921 6.99668465,252.318002 C6.82366238,252.906781 6.58549406,253.393589 6.27937772,253.780521 C5.97466238,254.167453 5.61110545,254.455207 5.1929099,254.644482 C4.77261287,254.833059 4.31869208,254.928046 3.82974653,254.928046 C3.34080099,254.928046 2.88898168,254.833059 2.47428861,254.644482 C2.05889505,254.455207 1.69954109,254.167453 1.39552624,253.780521 C1.09221188,253.393589 0.855444554,252.906781 0.684523762,252.318002 C0.514303465,251.729921 0.429543564,251.03498 0.429543564,250.233179 C0.429543564,249.43068 0.514303465,248.734342 0.684523762,248.146262 C0.855444554,247.558181 1.09221188,247.070675 1.39552624,246.683743 C1.69954109,246.296811 2.05889505,246.010453 2.47428861,245.823273 C2.88898168,245.636093 3.34080099,245.542503 3.82974653,245.542503 C4.31869208,245.542503 4.77261287,245.636093 5.1929099,245.823273 C5.61110545,246.010453 5.97466238,246.296811 6.27937772,246.683743 C6.58549406,247.070675 6.82366238,247.558181 6.99668465,248.146262 C7.16970693,248.734342 7.25586782,249.43068 7.25586782,250.233179" id="Fill-5" fill="#474748"></path>
                    <path d="M142.12253,251.902155 C142.12253,252.129844 142.149849,252.333088 142.204488,252.513982 C142.259827,252.694876 142.343186,252.849928 142.457367,252.980535 C142.570847,253.110444 142.713748,253.211018 142.88677,253.280163 C143.059792,253.34861 143.264337,253.38423 143.500404,253.38423 C143.702847,253.38423 143.890579,253.345816 144.065703,253.269687 C144.241527,253.194954 144.392134,253.090189 144.517523,252.958884 C144.645013,252.825483 144.745183,252.670431 144.818035,252.492331 C144.892287,252.313532 144.928713,252.119368 144.928713,251.908441 C144.928713,251.673069 144.894389,251.463539 144.823639,251.277756 C144.75499,251.093369 144.657622,250.938317 144.530131,250.812599 C144.404042,250.686183 144.251334,250.589799 144.072008,250.522051 C143.893381,250.454303 143.694441,250.421477 143.474485,250.421477 C143.276946,250.421477 143.095518,250.4557 142.931602,250.525543 C142.766985,250.594688 142.624785,250.694564 142.5043,250.825171 C142.384515,250.955778 142.290649,251.110132 142.224102,251.291724 C142.156154,251.471222 142.12253,251.675863 142.12253,251.902155 M144.170777,249.008547 C144.502812,249.008547 144.831344,249.06512 145.156374,249.173377 C145.480703,249.282333 145.772109,249.450655 146.029191,249.677646 C146.285572,249.904637 146.493619,250.190994 146.65123,250.538115 C146.809542,250.88384 146.888698,251.293121 146.888698,251.764564 C146.888698,252.192703 146.808141,252.599191 146.649129,252.983329 C146.488015,253.368864 146.261055,253.704112 145.968948,253.992565 C145.676141,254.278922 145.323092,254.508008 144.9105,254.675632 C144.497208,254.844653 144.039785,254.927767 143.538931,254.927767 C143.024067,254.927767 142.56174,254.846748 142.153352,254.68541 C141.744963,254.523374 141.397518,254.29778 141.113817,254.007232 C140.830117,253.718081 140.612963,253.37096 140.463057,252.967964 C140.312451,252.564269 140.238899,252.120764 140.238899,251.637449 C140.238899,251.179277 140.327161,250.723898 140.503686,250.269917 C140.680211,249.816634 140.942196,249.354271 141.28824,248.883527 L143.361005,246.091891 C143.453471,245.964776 143.592869,245.859313 143.7785,245.772707 C143.963431,245.6868 144.17498,245.643497 144.410347,245.643497 L146.15528,245.643497 L143.42405,248.895401 C143.38202,248.942894 143.341391,248.989689 143.302164,249.037183 C143.260834,249.086771 143.223008,249.133566 143.18448,249.179663 C143.331584,249.124487 143.487094,249.083279 143.648909,249.053247 C143.811424,249.023913 143.984446,249.008547 144.170777,249.008547" id="Fill-7" fill="#474748"></path>
                    <path d="M281.096895,253.414961 L282.867747,253.414961 L282.867747,248.782255 C282.867747,248.555962 282.87265,248.318495 282.885259,248.069853 L281.842922,248.933815 C281.776375,248.988292 281.707026,249.028103 281.640479,249.051151 C281.573932,249.072803 281.507385,249.085375 281.445041,249.085375 C281.334363,249.085375 281.237695,249.060929 281.151534,249.012738 C281.064672,248.965244 281.000927,248.91356 280.958898,248.857685 L280.338959,248.039122 L283.208888,245.637211 L284.82563,245.637211 L284.82563,253.414961 L286.344303,253.414961 L286.344303,254.826494 L281.096895,254.826494 L281.096895,253.414961 Z" id="Fill-9" fill="#474748"></path>
                    <path d="M293.360322,245.542573 C293.816344,245.542573 294.226834,245.608924 294.589691,245.741627 C294.954649,245.87363 295.266369,246.05662 295.52345,246.293389 C295.779832,246.528761 295.977371,246.808832 296.113267,247.134302 C296.251965,247.46047 296.318512,247.818766 296.318512,248.208492 C296.318512,248.545137 296.270879,248.856638 296.177012,249.141598 C296.081045,249.427258 295.952854,249.699646 295.787537,249.958067 C295.624322,250.216487 295.434488,250.466526 295.216634,250.708184 C294.99948,250.949143 294.767616,251.194293 294.523144,251.442935 L292.722871,253.283306 C292.954735,253.215558 293.182396,253.162477 293.409356,253.122667 C293.634215,253.082856 293.846465,253.061903 294.044005,253.061903 L295.76302,253.061903 C295.972468,253.061903 296.140587,253.119873 296.261772,253.235813 C296.384359,253.351054 296.446703,253.503313 296.446703,253.691889 L296.446703,254.826843 L289.972027,254.826843 L289.972027,254.196857 C289.972027,254.075329 289.996545,253.944024 290.048381,253.806432 C290.098116,253.667444 290.187079,253.541726 290.312468,253.427183 L292.969446,250.762661 C293.197106,250.534274 293.394646,250.319157 293.562765,250.11242 C293.732985,249.906383 293.870983,249.703139 293.98026,249.504085 C294.090938,249.305032 294.172196,249.10528 294.226834,248.905528 C294.280772,248.705776 294.308792,248.49485 294.308792,248.271351 C294.308792,247.90607 294.22123,247.6253 294.046106,247.431136 C293.870983,247.235575 293.604795,247.137794 293.246141,247.137794 C293.100438,247.137794 292.965243,247.158747 292.841255,247.200653 C292.72077,247.242559 292.612193,247.299132 292.512723,247.370372 C292.416755,247.442311 292.332696,247.526123 292.264047,247.623205 C292.194698,247.71889 292.137958,247.825052 292.095228,247.938198 C292.029381,248.126077 291.94322,248.263668 291.841649,248.348179 C291.737975,248.431991 291.596475,248.473198 291.41925,248.473198 C291.37722,248.473198 291.332389,248.471103 291.283354,248.466912 C291.236421,248.464118 291.186686,248.456436 291.134849,248.448753 L290.098116,248.265065 C290.166765,247.807591 290.295656,247.408786 290.487592,247.067951 C290.678126,246.727814 290.917696,246.443552 291.202097,246.217259 C291.485797,245.990967 291.811527,245.82055 292.179287,245.709499 C292.544946,245.599146 292.940025,245.542573 293.360322,245.542573" id="Fill-11" fill="#474748"></path>
                    <path d="M423.273433,253.414961 L425.043584,253.414961 L425.043584,248.782255 C425.043584,248.555962 425.048488,248.318495 425.061097,248.069853 L424.01876,248.933815 C423.952213,248.988292 423.882864,249.028103 423.816317,249.051151 C423.74977,249.072803 423.683223,249.085375 423.621579,249.085375 C423.5102,249.085375 423.413532,249.060929 423.327371,249.012738 C423.24121,248.965244 423.176765,248.91356 423.135436,248.857685 L422.515498,248.039122 L425.384725,245.637211 L427.001468,245.637211 L427.001468,253.414961 L428.520141,253.414961 L428.520141,254.826494 L423.273433,254.826494 L423.273433,253.414961 Z" id="Fill-13" fill="#474748"></path>
                    <path d="M435.398022,249.343725 C435.617277,249.343725 435.795202,249.308105 435.936702,249.236865 C436.0747,249.165625 436.183277,249.070638 436.264534,248.951904 C436.34369,248.835266 436.398329,248.69977 436.42775,248.54821 C436.45717,248.398047 436.471881,248.242296 436.471881,248.083053 C436.471881,247.940573 436.455069,247.801585 436.415141,247.667486 C436.378014,247.53199 436.317071,247.413256 436.229509,247.310587 C436.143349,247.207917 436.029868,247.124105 435.893972,247.061246 C435.758777,246.999085 435.592759,246.966957 435.398022,246.966957 C435.200482,246.966957 435.032363,246.999085 434.899269,247.061246 C434.763373,247.124105 434.652695,247.207917 434.565834,247.310587 C434.478972,247.413256 434.418029,247.53199 434.380202,247.667486 C434.343076,247.801585 434.323462,247.940573 434.323462,248.083053 C434.323462,248.242296 434.338173,248.398047 434.367594,248.54821 C434.397715,248.69977 434.451653,248.835266 434.531509,248.951904 C434.612767,249.070638 434.721344,249.165625 434.859341,249.236865 C435.000841,249.308105 435.178066,249.343725 435.398022,249.343725 M435.398022,253.453305 C435.617277,253.453305 435.807811,253.41978 435.966123,253.352032 C436.126537,253.284982 436.259631,253.193488 436.361202,253.078246 C436.464175,252.962306 436.54123,252.825413 436.590264,252.668266 C436.637898,252.51042 436.662415,252.341399 436.662415,252.160505 C436.662415,251.963547 436.639299,251.782653 436.59797,251.61922 C436.55594,251.455088 436.487292,251.314703 436.390623,251.198763 C436.293955,251.084918 436.163663,250.993424 436.002549,250.928469 C435.840034,250.863515 435.637591,250.831387 435.398022,250.831387 C435.158452,250.831387 434.956009,250.863515 434.795596,250.928469 C434.632381,250.993424 434.501388,251.084918 434.40542,251.198763 C434.308752,251.314703 434.240103,251.455088 434.197373,251.61922 C434.156044,251.782653 434.133628,251.963547 434.133628,252.160505 C434.133628,252.341399 434.158146,252.51042 434.205079,252.668266 C434.254113,252.825413 434.331168,252.962306 434.434841,253.078246 C434.536413,253.193488 434.666705,253.284982 434.825017,253.352032 C434.982628,253.41978 435.175965,253.453305 435.398022,253.453305 M435.398022,254.927697 C434.909076,254.927697 434.46216,254.862743 434.057274,254.732136 C433.652388,254.601529 433.306344,254.418539 433.01774,254.181072 C432.728435,253.942906 432.506378,253.656549 432.348066,253.319904 C432.190455,252.983958 432.111299,252.611693 432.111299,252.198919 C432.111299,251.950975 432.138618,251.715603 432.195358,251.495597 C432.252099,251.275591 432.343163,251.073744 432.46645,250.891453 C432.592539,250.707765 432.753653,250.545728 432.948391,250.403248 C433.143128,250.260069 433.380596,250.13924 433.659393,250.043555 C433.236995,249.853581 432.925975,249.59097 432.72143,249.255024 C432.516185,248.919776 432.414613,248.515383 432.414613,248.045338 C432.414613,247.688439 432.488866,247.356683 432.634569,247.052166 C432.783074,246.74765 432.98972,246.48434 433.253806,246.26154 C433.520695,246.03874 433.835217,245.864132 434.200175,245.734223 C434.565834,245.60641 434.963014,245.542853 435.398022,245.542853 C435.832329,245.542853 436.232311,245.60641 436.595168,245.734223 C436.960826,245.864132 437.274648,246.03874 437.541537,246.26154 C437.805623,246.48434 438.012269,246.74765 438.160774,247.052166 C438.306477,247.356683 438.38073,247.688439 438.38073,248.045338 C438.38073,248.515383 438.279158,248.919776 438.071811,249.255024 C437.864465,249.59097 437.553445,249.853581 437.13595,250.043555 C437.410544,250.13924 437.64521,250.260069 437.839948,250.403248 C438.038188,250.545728 438.1979,250.707765 438.321888,250.891453 C438.445175,251.073744 438.53624,251.275591 438.595081,251.495597 C438.654623,251.715603 438.684044,251.950975 438.684044,252.198919 C438.684044,252.611693 438.605589,252.983958 438.447977,253.319904 C438.289665,253.656549 438.067608,253.942906 437.778304,254.181072 C437.489,254.418539 437.143655,254.601529 436.738769,254.732136 C436.333883,254.862743 435.886267,254.927697 435.398022,254.927697" id="Fill-15" fill="#474748"></path>
                    <path d="M552.477854,245.542573 C552.934576,245.542573 553.344366,245.608924 553.707923,245.741627 C554.072881,245.87363 554.384601,246.05662 554.640982,246.293389 C554.897364,246.528761 555.094903,246.808832 555.2315,247.134302 C555.369497,247.46047 555.436044,247.818766 555.436044,248.208492 C555.436044,248.545137 555.389111,248.856638 555.295245,249.141598 C555.199277,249.427258 555.070386,249.699646 554.905069,249.958067 C554.741854,250.216487 554.55202,250.466526 554.334166,250.708184 C554.117713,250.949143 553.885148,251.194293 553.640675,251.442935 L551.841104,253.283306 C552.072968,253.215558 552.299928,253.162477 552.526888,253.122667 C552.752448,253.082856 552.963997,253.061903 553.162237,253.061903 L554.880552,253.061903 C555.09,253.061903 555.258819,253.119873 555.379304,253.235813 C555.502591,253.351054 555.564235,253.503313 555.564235,253.691889 L555.564235,254.826843 L549.089559,254.826843 L549.089559,254.196857 C549.089559,254.075329 549.114076,253.944024 549.165913,253.806432 C549.215648,253.667444 549.304611,253.541726 549.43,253.427183 L552.087678,250.762661 C552.315339,250.534274 552.512178,250.319157 552.680297,250.11242 C552.850517,249.906383 552.988515,249.703139 553.097792,249.504085 C553.20847,249.305032 553.290428,249.10528 553.344366,248.905528 C553.398304,248.705776 553.426324,248.49485 553.426324,248.271351 C553.426324,247.90607 553.339463,247.6253 553.163638,247.431136 C552.988515,247.235575 552.722326,247.137794 552.364374,247.137794 C552.218671,247.137794 552.082775,247.158747 551.959487,247.200653 C551.838302,247.242559 551.729725,247.299132 551.630955,247.370372 C551.534287,247.442311 551.450227,247.526123 551.381579,247.623205 C551.31223,247.71889 551.25549,247.825052 551.21346,247.938198 C551.146913,248.126077 551.060752,248.263668 550.95918,248.348179 C550.855507,248.431991 550.714708,248.473198 550.536782,248.473198 C550.494752,248.473198 550.449921,248.471103 550.400886,248.466912 C550.353953,248.464118 550.304218,248.456436 550.252381,248.448753 L549.215648,248.265065 C549.284297,247.807591 549.413188,247.408786 549.605824,247.067951 C549.796359,246.727814 550.035928,246.443552 550.319628,246.217259 C550.603329,245.990967 550.92976,245.82055 551.296819,245.709499 C551.663178,245.599146 552.057557,245.542573 552.477854,245.542573" id="Fill-17" fill="#474748"></path>
                    <path d="M563.187092,248.864251 C563.187092,248.71758 563.192696,248.559035 563.204604,248.388618 C563.214411,248.218899 563.229822,248.042894 563.251538,247.861301 L560.816617,251.259876 L563.187092,251.259876 L563.187092,248.864251 Z M564.894199,251.259876 L565.841968,251.259876 L565.841968,252.356416 C565.841968,252.454196 565.809746,252.53731 565.7453,252.60855 C565.679453,252.680489 565.585587,252.716109 565.464401,252.716109 L564.894199,252.716109 L564.894199,254.826773 L563.187092,254.826773 L563.187092,252.716109 L559.483575,252.716109 C559.359587,252.716109 559.251711,252.677695 559.152241,252.602963 C559.051369,252.526135 558.989726,252.431148 558.965208,252.318002 L558.762765,251.354164 L563.024577,245.643776 L564.894199,245.643776 L564.894199,251.259876 Z" id="Fill-19" fill="#474748"></path>
                </g>
                <g id="Group-24" transform="translate(54.400990, 0.428139)">
                    <mask id="mask-2" fill="white">
                        <use xlink:href="#path-1"></use>
                    </mask>
                    <g id="Clip-23"></g>
                    <path d="M0.542463366,233.078547 C0.542463366,233.078547 205.6278,220.752602 558.559622,0.0903772306" id="Stroke-22" stroke="#EB4689" stroke-width="4" stroke-linecap="round" mask="url(#mask-2)"></path>
                </g>
                <g id="Group-27" transform="translate(53.700495, 121.955482)">
                    <mask id="mask-4" fill="white">
                        <use xlink:href="#path-3"></use>
                    </mask>
                    <g id="Clip-26"></g>
                    <path d="M2.03136559,113.503954 C1.28603886,113.503954 0.665400248,112.917968 0.63247698,112.167851 C0.598853218,111.396781 1.19847698,110.745143 1.97182351,110.711619 C154.131257,104.10095 291.258066,84.5147935 421.187989,50.8328619 C458.707905,40.7370129 503.101078,27.8697816 547.782856,8.99183601 C553.961222,6.25397864 560.372853,3.41275318 566.497281,0.737754781 C567.208984,0.427650528 568.032066,0.751025008 568.343086,1.45644234 C568.653405,2.16325654 568.330477,2.98740748 567.622276,3.2968133 C561.504153,5.96901797 555.096024,8.80884656 548.898744,11.5543867 C504.038341,30.5077631 459.530286,43.4106144 421.905296,53.5330039 C291.770828,87.2687148 154.452784,106.883507 2.09300916,113.502557 C2.0726948,113.503255 2.05167995,113.503954 2.03136559,113.503954" id="Fill-25" fill="#138BCB" mask="url(#mask-4)"></path>
                </g>
                <path d="M569.2341,77.7499809 L569.2341,15.4755991 L518.228954,15.4755991 C516.874897,15.4755991 515.777221,14.3811546 515.777221,13.0310836 C515.777221,11.6810126 516.874897,10.5865681 518.228954,10.5865681 L574.137565,10.5865681 L574.137565,77.7499809 C574.137565,79.1000519 573.039889,80.1944965 571.685832,80.1944965 C570.331775,80.1944965 569.2341,79.1000519 569.2341,77.7499809 Z" id="Fill-29" fill="#4EBCEC"></path>
                <path d="M558.39625,84.9212116 C562.368057,92.2393926 571.538238,94.9611861 578.878025,91.0003725 C586.218513,87.0402574 588.948342,77.8963725 584.975835,70.5788899 C581.003327,63.2600105 571.833847,60.5382171 564.493359,64.4990306 C557.154273,68.4598442 554.423743,77.6023322 558.39625,84.9212116" id="Fill-31" fill="#FFFFFF"></path>
                <path d="M54.4091859,238.035606 C53.8270745,238.035606 53.3563418,237.56556 53.3563418,236.985163 L53.3563418,15.6119332 C53.3563418,15.0322338 53.8270745,14.56149 54.4091859,14.56149 C54.9912973,14.56149 55.46203,15.0322338 55.46203,15.6119332 L55.46203,236.985163 C55.46203,237.56556 54.9912973,238.035606 54.4091859,238.035606" id="Fill-33" fill="#C9C9C9"></path>
                <path d="M404.611927,10.5 L404.611927,6.622 L409.133927,6.622 L409.133927,4.872 L404.611927,4.872 L404.611927,2.912 L409.231927,2.912 L409.231927,1.162 L402.623927,1.162 L402.623927,10.5 L404.611927,10.5 Z M415.995927,10.5 L415.995927,1.162 L414.007927,1.162 L414.007927,10.5 L415.995927,10.5 Z M429.591927,10.5 L429.591927,1.162 L427.603927,1.162 L427.603927,7.028 L423.277927,1.162 L421.233927,1.162 L421.233927,10.5 L423.221927,10.5 L423.221927,4.41 L427.673927,10.5 L429.591927,10.5 Z M443.537927,10.5 L441.283927,10.5 L440.695927,8.918 L436.691927,8.918 L436.103927,10.5 L433.849927,10.5 L437.447927,1.162 L439.939927,1.162 L443.537927,10.5 Z M440.149927,7.168 L438.693927,3.15 L437.237927,7.168 L440.149927,7.168 Z M456.153927,10.5 L456.153927,1.162 L454.165927,1.162 L454.165927,7.028 L449.839927,1.162 L447.795927,1.162 L447.795927,10.5 L449.783927,10.5 L449.783927,4.41 L454.235927,10.5 L456.153927,10.5 Z M465.927927,10.668 C467.971927,10.668 469.161927,9.534 469.819927,8.372 L468.111927,7.546 C467.719927,8.302 466.879927,8.904 465.927927,8.904 C464.219927,8.904 462.987927,7.602 462.987927,5.838 C462.987927,4.074 464.219927,2.772 465.927927,2.772 C466.879927,2.772 467.719927,3.374 468.111927,4.13 L469.819927,3.29 C469.161927,2.114 467.971927,1.008 465.927927,1.008 C463.113927,1.008 460.943927,2.954 460.943927,5.838 C460.943927,8.708 463.113927,10.668 465.927927,10.668 Z M476.387927,10.5 L476.387927,1.162 L474.399927,1.162 L474.399927,10.5 L476.387927,10.5 Z M490.333928,10.5 L488.079928,10.5 L487.491928,8.918 L483.487928,8.918 L482.899928,10.5 L480.645928,10.5 L484.243928,1.162 L486.735928,1.162 L490.333928,10.5 Z M486.945928,7.168 L485.489928,3.15 L484.033928,7.168 L486.945928,7.168 Z M500.457928,10.5 L500.457928,8.75 L496.509928,8.75 L496.509928,1.162 L494.507928,1.162 L494.507928,10.5 L500.457928,10.5 Z M374.913927,27.668 C372.085927,27.668 370.027927,25.652 370.027927,22.838 C370.027927,20.024 372.085927,18.008 374.913927,18.008 C377.727927,18.008 379.785927,20.024 379.785927,22.838 C379.785927,25.652 377.727927,27.668 374.913927,27.668 Z M374.913927,25.904 C376.635927,25.904 377.741927,24.574 377.741927,22.838 C377.741927,21.088 376.635927,19.772 374.913927,19.772 C373.177927,19.772 372.071927,21.088 372.071927,22.838 C372.071927,24.574 373.177927,25.904 374.913927,25.904 Z M386.563927,27.5 L384.575927,27.5 L384.575927,18.162 L388.943927,18.162 C390.973927,18.162 392.079927,19.534 392.079927,21.172 C392.079927,22.796 390.959927,24.168 388.943927,24.168 L386.563927,24.168 L386.563927,27.5 Z M388.663927,22.418 C389.447927,22.418 390.049927,21.942 390.049927,21.172 C390.049927,20.388 389.447927,19.912 388.663927,19.912 L386.563927,19.912 L386.563927,22.418 L388.663927,22.418 Z M398.703927,27.5 L396.715927,27.5 L396.715927,18.162 L401.083927,18.162 C403.113927,18.162 404.219927,19.534 404.219927,21.172 C404.219927,22.796 403.099927,24.168 401.083927,24.168 L398.703927,24.168 L398.703927,27.5 Z M400.803927,22.418 C401.587927,22.418 402.189927,21.942 402.189927,21.172 C402.189927,20.388 401.587927,19.912 400.803927,19.912 L398.703927,19.912 L398.703927,22.418 L400.803927,22.418 Z M413.293927,27.668 C410.465927,27.668 408.407927,25.652 408.407927,22.838 C408.407927,20.024 410.465927,18.008 413.293927,18.008 C416.107927,18.008 418.165927,20.024 418.165927,22.838 C418.165927,25.652 416.107927,27.668 413.293927,27.668 Z M413.293927,25.904 C415.015927,25.904 416.121927,24.574 416.121927,22.838 C416.121927,21.088 415.015927,19.772 413.293927,19.772 C411.557927,19.772 410.451927,21.088 410.451927,22.838 C410.451927,24.574 411.557927,25.904 413.293927,25.904 Z M430.529927,27.5 L428.233927,27.5 L426.399927,24.182 L424.943927,24.182 L424.943927,27.5 L422.955927,27.5 L422.955927,18.162 L427.323927,18.162 C429.269927,18.162 430.473927,19.436 430.473927,21.172 C430.473927,22.81 429.423927,23.706 428.415927,23.944 L430.529927,27.5 Z M427.043927,22.432 C427.827927,22.432 428.429927,21.956 428.429927,21.158 C428.429927,20.388 427.827927,19.912 427.043927,19.912 L424.943927,19.912 L424.943927,22.432 L427.043927,22.432 Z M439.365927,27.5 L439.365927,19.912 L442.081927,19.912 L442.081927,18.162 L434.633927,18.162 L434.633927,19.912 L437.363927,19.912 L437.363927,27.5 L439.365927,27.5 Z M450.959927,27.668 C453.801927,27.668 455.173927,26.072 455.173927,23.762 L455.173927,18.162 L453.143927,18.162 L453.143927,23.706 C453.143927,25.008 452.401927,25.904 450.959927,25.904 C449.517927,25.904 448.761927,25.008 448.761927,23.706 L448.761927,18.162 L446.745927,18.162 L446.745927,23.762 C446.745927,26.072 448.117927,27.668 450.959927,27.668 Z M468.769927,27.5 L468.769927,18.162 L466.781927,18.162 L466.781927,24.028 L462.455927,18.162 L460.411927,18.162 L460.411927,27.5 L462.399927,27.5 L462.399927,21.41 L466.851927,27.5 L468.769927,27.5 Z M475.995927,27.5 L475.995927,18.162 L474.007927,18.162 L474.007927,27.5 L475.995927,27.5 Z M485.391928,27.5 L485.391928,19.912 L488.107928,19.912 L488.107928,18.162 L480.659928,18.162 L480.659928,19.912 L483.389928,19.912 L483.389928,27.5 L485.391928,27.5 Z M497.363928,27.5 L497.363928,23.678 L500.933928,18.162 L498.679928,18.162 L496.369928,21.9 L494.059928,18.162 L491.791928,18.162 L495.375928,23.678 L495.375928,27.5 L497.363928,27.5 Z" id="FINANCIAL-OPPORTUNIT" fill="#4EBCEC"></path>
                <path d="M233.46,105.168 C235.504,105.168 236.694,104.034 237.352,102.872 L235.644,102.046 C235.252,102.802 234.412,103.404 233.46,103.404 C231.752,103.404 230.52,102.102 230.52,100.338 C230.52,98.574 231.752,97.272 233.46,97.272 C234.412,97.272 235.252,97.874 235.644,98.63 L237.352,97.79 C236.694,96.614 235.504,95.508 233.46,95.508 C230.646,95.508 228.476,97.454 228.476,100.338 C228.476,103.208 230.646,105.168 233.46,105.168 Z M246.146,105.168 C248.988,105.168 250.36,103.572 250.36,101.262 L250.36,95.662 L248.33,95.662 L248.33,101.206 C248.33,102.508 247.588,103.404 246.146,103.404 C244.704,103.404 243.948,102.508 243.948,101.206 L243.948,95.662 L241.932,95.662 L241.932,101.262 C241.932,103.572 243.304,105.168 246.146,105.168 Z M263.172,105 L260.876,105 L259.042,101.682 L257.586,101.682 L257.586,105 L255.598,105 L255.598,95.662 L259.966,95.662 C261.912,95.662 263.116,96.936 263.116,98.672 C263.116,100.31 262.066,101.206 261.058,101.444 L263.172,105 Z M259.686,99.932 C260.47,99.932 261.072,99.456 261.072,98.658 C261.072,97.888 260.47,97.412 259.686,97.412 L257.586,97.412 L257.586,99.932 L259.686,99.932 Z M275.564,105 L273.268,105 L271.434,101.682 L269.978,101.682 L269.978,105 L267.99,105 L267.99,95.662 L272.358,95.662 C274.304,95.662 275.508,96.936 275.508,98.672 C275.508,100.31 274.458,101.206 273.45,101.444 L275.564,105 Z M272.078,99.932 C272.862,99.932 273.464,99.456 273.464,98.658 C273.464,97.888 272.862,97.412 272.078,97.412 L269.978,97.412 L269.978,99.932 L272.078,99.932 Z M286.99,105 L286.99,103.25 L282.37,103.25 L282.37,101.122 L286.892,101.122 L286.892,99.372 L282.37,99.372 L282.37,97.412 L286.99,97.412 L286.99,95.662 L280.382,95.662 L280.382,105 L286.99,105 Z M300.292001,105 L300.292001,95.662 L298.304001,95.662 L298.304001,101.528 L293.978001,95.662 L291.934001,95.662 L291.934001,105 L293.922001,105 L293.922001,98.91 L298.374001,105 L300.292001,105 Z M309.688001,105 L309.688001,97.412 L312.404001,97.412 L312.404001,95.662 L304.956001,95.662 L304.956001,97.412 L307.686001,97.412 L307.686001,105 L309.688001,105 Z M230.912,122 L228.924,122 L228.924,112.662 L233.292,112.662 C235.322,112.662 236.428,114.034 236.428,115.672 C236.428,117.296 235.308,118.668 233.292,118.668 L230.912,118.668 L230.912,122 Z M233.012,116.918 C233.796,116.918 234.398,116.442 234.398,115.672 C234.398,114.888 233.796,114.412 233.012,114.412 L230.912,114.412 L230.912,116.918 L233.012,116.918 Z M248.638,122 L246.342,122 L244.508,118.682 L243.052,118.682 L243.052,122 L241.064,122 L241.064,112.662 L245.432,112.662 C247.378,112.662 248.582,113.936 248.582,115.672 C248.582,117.31 247.532,118.206 246.524,118.444 L248.638,122 Z M245.152,116.932 C245.936,116.932 246.538,116.456 246.538,115.658 C246.538,114.888 245.936,114.412 245.152,114.412 L243.052,114.412 L243.052,116.932 L245.152,116.932 Z M260.064,122 L260.064,120.25 L255.444,120.25 L255.444,118.122 L259.966,118.122 L259.966,116.372 L255.444,116.372 L255.444,114.412 L260.064,114.412 L260.064,112.662 L253.456,112.662 L253.456,122 L260.064,122 Z M268.704,122 L265.008,122 L265.008,112.662 L268.69,112.662 C271.616,112.662 273.646,114.524 273.646,117.324 C273.646,120.152 271.616,122 268.704,122 Z M268.69,120.25 C270.538,120.25 271.616,118.92 271.616,117.324 C271.616,115.686 270.608,114.412 268.704,114.412 L266.996,114.412 L266.996,120.25 L268.69,120.25 Z M280.438,122 L280.438,112.662 L278.45,112.662 L278.45,122 L280.438,122 Z M290.212001,122.168 C292.256001,122.168 293.446001,121.034 294.104001,119.872 L292.396001,119.046 C292.004001,119.802 291.164001,120.404 290.212001,120.404 C288.504001,120.404 287.272001,119.102 287.272001,117.338 C287.272001,115.574 288.504001,114.272 290.212001,114.272 C291.164001,114.272 292.004001,114.874 292.396001,115.63 L294.104001,114.79 C293.446001,113.614 292.256001,112.508 290.212001,112.508 C287.398001,112.508 285.228001,114.454 285.228001,117.338 C285.228001,120.208 287.398001,122.168 290.212001,122.168 Z M302.842001,122 L302.842001,114.412 L305.558001,114.412 L305.558001,112.662 L298.110001,112.662 L298.110001,114.412 L300.840001,114.412 L300.840001,122 L302.842001,122 Z M316.830001,122 L316.830001,120.25 L312.210001,120.25 L312.210001,118.122 L316.732001,118.122 L316.732001,116.372 L312.210001,116.372 L312.210001,114.412 L316.830001,114.412 L316.830001,112.662 L310.222001,112.662 L310.222001,122 L316.830001,122 Z M325.470001,122 L321.774001,122 L321.774001,112.662 L325.456001,112.662 C328.382001,112.662 330.412001,114.524 330.412001,117.324 C330.412001,120.152 328.382001,122 325.470001,122 Z M325.456001,120.25 C327.304001,120.25 328.382001,118.92 328.382001,117.324 C328.382001,115.686 327.374001,114.412 325.470001,114.412 L323.762001,114.412 L323.762001,120.25 L325.456001,120.25 Z M234.79,139 L234.79,137.25 L230.842,137.25 L230.842,129.662 L228.84,129.662 L228.84,139 L234.79,139 Z M241.512,139 L241.512,129.662 L239.524,129.662 L239.524,139 L241.512,139 Z M255.458,139 L253.204,139 L252.616,137.418 L248.612,137.418 L248.024,139 L245.77,139 L249.368,129.662 L251.86,129.662 L255.458,139 Z M252.07,135.668 L250.614,131.65 L249.158,135.668 L252.07,135.668 Z M264.784,139 L259.716,139 L259.716,129.662 L264.63,129.662 C266.408,129.662 267.318,130.796 267.318,132.042 C267.318,133.204 266.59,134.002 265.708,134.184 C266.716,134.338 267.5,135.304 267.5,136.466 C267.5,137.88 266.576,139 264.784,139 Z M264.196,133.372 C264.868,133.372 265.288,132.994 265.288,132.392 C265.288,131.818 264.868,131.412 264.196,131.412 L261.704,131.412 L261.704,133.372 L264.196,133.372 Z M264.28,137.25 C265.022,137.25 265.47,136.858 265.47,136.186 C265.47,135.598 265.05,135.122 264.28,135.122 L261.704,135.122 L261.704,137.25 L264.28,137.25 Z M274.376,139 L274.376,129.662 L272.388,129.662 L272.388,139 L274.376,139 Z M285.480001,139 L285.480001,137.25 L281.532001,137.25 L281.532001,129.662 L279.530001,129.662 L279.530001,139 L285.480001,139 Z M292.202001,139 L292.202001,129.662 L290.214001,129.662 L290.214001,139 L292.202001,139 Z M301.598001,139 L301.598001,131.412 L304.314001,131.412 L304.314001,129.662 L296.866001,129.662 L296.866001,131.412 L299.596001,131.412 L299.596001,139 L301.598001,139 Z M313.570001,139 L313.570001,135.178 L317.140001,129.662 L314.886001,129.662 L312.576001,133.4 L310.266001,129.662 L307.998001,129.662 L311.582001,135.178 L311.582001,139 L313.570001,139 Z" id="CURRENT-PREDICTED-LI" fill="#ED2378"></path>
                <path d="M511.082,186 L511.082,178.412 L513.798,178.412 L513.798,176.662 L506.35,176.662 L506.35,178.412 L509.08,178.412 L509.08,186 L511.082,186 Z M526.274,186 L524.02,186 L523.432,184.418 L519.428,184.418 L518.84,186 L516.586,186 L520.184,176.662 L522.676,176.662 L526.274,186 Z M522.886,182.668 L521.43,178.65 L519.974,182.668 L522.886,182.668 Z M538.106,186 L535.81,186 L533.976,182.682 L532.52,182.682 L532.52,186 L530.532,186 L530.532,176.662 L534.9,176.662 C536.846,176.662 538.05,177.936 538.05,179.672 C538.05,181.31 537,182.206 535.992,182.444 L538.106,186 Z M534.62,180.932 C535.404,180.932 536.006,180.456 536.006,179.658 C536.006,178.888 535.404,178.412 534.62,178.412 L532.52,178.412 L532.52,180.932 L534.62,180.932 Z M547.46,186.168 C549.14,186.168 550.47,185.482 551.422,184.418 L551.422,180.834 L546.97,180.834 L546.97,182.57 L549.434,182.57 L549.434,183.69 C549.056,184.04 548.286,184.404 547.46,184.404 C545.752,184.404 544.52,183.102 544.52,181.338 C544.52,179.574 545.752,178.272 547.46,178.272 C548.44,178.272 549.238,178.832 549.672,179.49 L551.31,178.594 C550.61,177.488 549.392,176.508 547.46,176.508 C544.716,176.508 542.476,178.384 542.476,181.338 C542.476,184.278 544.716,186.168 547.46,186.168 Z M563.002,186 L563.002,184.25 L558.382,184.25 L558.382,182.122 L562.904,182.122 L562.904,180.372 L558.382,180.372 L558.382,178.412 L563.002,178.412 L563.002,176.662 L556.394,176.662 L556.394,186 L563.002,186 Z M572.104001,186 L572.104001,178.412 L574.820001,178.412 L574.820001,176.662 L567.372001,176.662 L567.372001,178.412 L570.102001,178.412 L570.102001,186 L572.104001,186 Z M586.092001,186 L586.092001,184.25 L581.472001,184.25 L581.472001,182.122 L585.994001,182.122 L585.994001,180.372 L581.472001,180.372 L581.472001,178.412 L586.092001,178.412 L586.092001,176.662 L579.484001,176.662 L579.484001,186 L586.092001,186 Z M594.732001,186 L591.036001,186 L591.036001,176.662 L594.718001,176.662 C597.644001,176.662 599.674001,178.524 599.674001,181.324 C599.674001,184.152 597.644001,186 594.732001,186 Z M594.718001,184.25 C596.566001,184.25 597.644001,182.92 597.644001,181.324 C597.644001,179.686 596.636001,178.412 594.732001,178.412 L593.024001,178.412 L593.024001,184.25 L594.718001,184.25 Z M508.912,203 L506.924,203 L506.924,193.662 L511.292,193.662 C513.322,193.662 514.428,195.034 514.428,196.672 C514.428,198.296 513.308,199.668 511.292,199.668 L508.912,199.668 L508.912,203 Z M511.012,197.918 C511.796,197.918 512.398,197.442 512.398,196.672 C512.398,195.888 511.796,195.412 511.012,195.412 L508.912,195.412 L508.912,197.918 L511.012,197.918 Z M526.638,203 L524.342,203 L522.508,199.682 L521.052,199.682 L521.052,203 L519.064,203 L519.064,193.662 L523.432,193.662 C525.378,193.662 526.582,194.936 526.582,196.672 C526.582,198.31 525.532,199.206 524.524,199.444 L526.638,203 Z M523.152,197.932 C523.936,197.932 524.538,197.456 524.538,196.658 C524.538,195.888 523.936,195.412 523.152,195.412 L521.052,195.412 L521.052,197.932 L523.152,197.932 Z M538.064,203 L538.064,201.25 L533.444,201.25 L533.444,199.122 L537.966,199.122 L537.966,197.372 L533.444,197.372 L533.444,195.412 L538.064,195.412 L538.064,193.662 L531.456,193.662 L531.456,203 L538.064,203 Z M547.544,203.168 C549.588,203.168 550.778,202.034 551.436,200.872 L549.728,200.046 C549.336,200.802 548.496,201.404 547.544,201.404 C545.836,201.404 544.604,200.102 544.604,198.338 C544.604,196.574 545.836,195.272 547.544,195.272 C548.496,195.272 549.336,195.874 549.728,196.63 L551.436,195.79 C550.778,194.614 549.588,193.508 547.544,193.508 C544.73,193.508 542.56,195.454 542.56,198.338 C542.56,201.208 544.73,203.168 547.544,203.168 Z M558.004,203 L558.004,193.662 L556.016,193.662 L556.016,203 L558.004,203 Z M566.574001,203.168 C569.080001,203.168 570.312001,201.88 570.312001,200.172 C570.312001,196.686 564.950001,197.68 564.950001,196.21 C564.950001,195.65 565.426001,195.286 566.266001,195.286 C567.218001,195.286 568.226001,195.608 568.982001,196.308 L570.088001,194.824 C569.164001,193.97 567.932001,193.522 566.448001,193.522 C564.250001,193.522 562.906001,194.81 562.906001,196.364 C562.906001,199.878 568.282001,198.744 568.282001,200.368 C568.282001,200.914 567.764001,201.404 566.658001,201.404 C565.370001,201.404 564.348001,200.816 563.690001,200.13 L562.598001,201.684 C563.480001,202.566 564.768001,203.168 566.574001,203.168 Z M577.020001,203 L577.020001,193.662 L575.032001,193.662 L575.032001,203 L577.020001,203 Z M586.696001,203.168 C583.868001,203.168 581.810001,201.152 581.810001,198.338 C581.810001,195.524 583.868001,193.508 586.696001,193.508 C589.510001,193.508 591.568001,195.524 591.568001,198.338 C591.568001,201.152 589.510001,203.168 586.696001,203.168 Z M586.696001,201.404 C588.418001,201.404 589.524001,200.074 589.524001,198.338 C589.524001,196.588 588.418001,195.272 586.696001,195.272 C584.960001,195.272 583.854001,196.588 583.854001,198.338 C583.854001,200.074 584.960001,201.404 586.696001,201.404 Z M604.716001,203 L604.716001,193.662 L602.728001,193.662 L602.728001,199.528 L598.402001,193.662 L596.358001,193.662 L596.358001,203 L598.346001,203 L598.346001,196.91 L602.798001,203 L604.716001,203 Z M508.912,220 L508.912,210.662 L506.924,210.662 L506.924,220 L508.912,220 Z M522.508,220 L522.508,210.662 L520.52,210.662 L520.52,216.528 L516.194,210.662 L514.15,210.662 L514.15,220 L516.138,220 L516.138,213.91 L520.59,220 L522.508,220 Z M531.904,220 L531.904,212.412 L534.62,212.412 L534.62,210.662 L527.172,210.662 L527.172,212.412 L529.902,212.412 L529.902,220 L531.904,220 Z M545.892,220 L545.892,218.25 L541.272,218.25 L541.272,216.122 L545.794,216.122 L545.794,214.372 L541.272,214.372 L541.272,212.412 L545.892,212.412 L545.892,210.662 L539.284,210.662 L539.284,220 L545.892,220 Z M558.41,220 L556.114,220 L554.28,216.682 L552.824,216.682 L552.824,220 L550.836,220 L550.836,210.662 L555.204,210.662 C557.15,210.662 558.354,211.936 558.354,213.672 C558.354,215.31 557.304,216.206 556.296,216.444 L558.41,220 Z M554.924,214.932 C555.708,214.932 556.31,214.456 556.31,213.658 C556.31,212.888 555.708,212.412 554.924,212.412 L552.824,212.412 L552.824,214.932 L554.924,214.932 Z M568.198001,220 L571.796001,210.662 L569.542001,210.662 L566.952001,217.83 L564.362001,210.662 L562.108001,210.662 L565.706001,220 L568.198001,220 Z M582.662001,220 L582.662001,218.25 L578.042001,218.25 L578.042001,216.122 L582.564001,216.122 L582.564001,214.372 L578.042001,214.372 L578.042001,212.412 L582.662001,212.412 L582.662001,210.662 L576.054001,210.662 L576.054001,220 L582.662001,220 Z M595.964001,220 L595.964001,210.662 L593.976001,210.662 L593.976001,216.528 L589.650001,210.662 L587.606001,210.662 L587.606001,220 L589.594001,220 L589.594001,213.91 L594.046001,220 L595.964001,220 Z M605.360001,220 L605.360001,212.412 L608.076001,212.412 L608.076001,210.662 L600.628001,210.662 L600.628001,212.412 L603.358001,212.412 L603.358001,220 L605.360001,220 Z M614.728001,220 L614.728001,210.662 L612.740001,210.662 L612.740001,220 L614.728001,220 Z M624.404001,220.168 C621.576001,220.168 619.518001,218.152 619.518001,215.338 C619.518001,212.524 621.576001,210.508 624.404001,210.508 C627.218001,210.508 629.276001,212.524 629.276001,215.338 C629.276001,218.152 627.218001,220.168 624.404001,220.168 Z M624.404001,218.404 C626.126001,218.404 627.232001,217.074 627.232001,215.338 C627.232001,213.588 626.126001,212.272 624.404001,212.272 C622.668001,212.272 621.562001,213.588 621.562001,215.338 C621.562001,217.074 622.668001,218.404 624.404001,218.404 Z M642.424001,220 L642.424001,210.662 L640.436001,210.662 L640.436001,216.528 L636.110001,210.662 L634.066001,210.662 L634.066001,220 L636.054001,220 L636.054001,213.91 L640.506001,220 L642.424001,220 Z" id="TARGETED-PRECISION-I" fill="#138DCD"></path>
            </g>
        </g>
    </g>
</svg>