<?xml version="1.0" encoding="UTF-8" standalone="no"?>
<svg width="448px" height="467px" viewBox="0 0 448 467" version="1.1" xmlns="http://www.w3.org/2000/svg" xmlns:xlink="http://www.w3.org/1999/xlink">
    <!-- Generator: Sketch 42 (36781) - http://www.bohemiancoding.com/sketch -->
    <title>Group 23</title>
    <desc>Created with Sketch.</desc>
    <defs></defs>
    <g id="POML" stroke="none" stroke-width="1" fill="none" fill-rule="evenodd">
        <g id="BaseHealth-Solution" transform="translate(-840.000000, -5698.000000)">
            <g id="Group-23" transform="translate(840.000000, 5698.000000)">
                <path d="M42.5370007,422 L36.0210007,422 L36.0210007,409.994 L42.3390007,409.994 C44.6250007,409.994 45.7950007,411.452 45.7950007,413.054 C45.7950007,414.548 44.8590007,415.574 43.7250007,415.808 C45.0210007,416.006 46.0290007,417.248 46.0290007,418.742 C46.0290007,420.56 44.8410007,422 42.5370007,422 Z M41.7810007,414.764 C42.6450007,414.764 43.1850007,414.278 43.1850007,413.504 C43.1850007,412.766 42.6450007,412.244 41.7810007,412.244 L38.5770007,412.244 L38.5770007,414.764 L41.7810007,414.764 Z M41.8890007,419.75 C42.8430007,419.75 43.4190007,419.246 43.4190007,418.382 C43.4190007,417.626 42.8790007,417.014 41.8890007,417.014 L38.5770007,417.014 L38.5770007,419.75 L41.8890007,419.75 Z M62.7010006,422 L59.8030006,422 L59.0470006,419.966 L53.8990006,419.966 L53.1430006,422 L50.2450006,422 L54.8710006,409.994 L58.0750006,409.994 L62.7010006,422 Z M58.3450006,417.716 L56.4730006,412.55 L54.6010006,417.716 L58.3450006,417.716 Z M71.5250006,422.216 C74.7470006,422.216 76.3310006,420.56 76.3310006,418.364 C76.3310006,413.882 69.4370006,415.16 69.4370006,413.27 C69.4370006,412.55 70.0490006,412.082 71.1290006,412.082 C72.3530006,412.082 73.6490006,412.496 74.6210006,413.396 L76.0430006,411.488 C74.8550006,410.39 73.2710006,409.814 71.3630006,409.814 C68.5370006,409.814 66.8090006,411.47 66.8090006,413.468 C66.8090006,417.986 73.7210006,416.528 73.7210006,418.616 C73.7210006,419.318 73.0550006,419.948 71.6330006,419.948 C69.9770006,419.948 68.6630006,419.192 67.8170006,418.31 L66.4130006,420.308 C67.5470006,421.442 69.2030006,422.216 71.5250006,422.216 Z M90.0870005,422 L90.0870005,419.75 L84.1470005,419.75 L84.1470005,417.014 L89.9610005,417.014 L89.9610005,414.764 L84.1470005,414.764 L84.1470005,412.244 L90.0870005,412.244 L90.0870005,409.994 L81.5910005,409.994 L81.5910005,422 L90.0870005,422 Z M106.435,422 L106.435,409.994 L103.861,409.994 L103.861,414.71 L98.1910005,414.71 L98.1910005,409.994 L95.6350005,409.994 L95.6350005,422 L98.1910005,422 L98.1910005,416.942 L103.861,416.942 L103.861,422 L106.435,422 Z M120.839,422 L120.839,419.75 L114.899,419.75 L114.899,417.014 L120.713,417.014 L120.713,414.764 L114.899,414.764 L114.899,412.244 L120.839,412.244 L120.839,409.994 L112.343,409.994 L112.343,422 L120.839,422 Z M137.583,422 L134.685,422 L133.929,419.966 L128.781,419.966 L128.025,422 L125.127,422 L129.753,409.994 L132.957,409.994 L137.583,422 Z M133.227,417.716 L131.355,412.55 L129.483,417.716 L133.227,417.716 Z M149.791,422 L149.791,419.75 L144.715,419.75 L144.715,409.994 L142.141,409.994 L142.141,422 L149.791,422 Z M158.615,422 L158.615,412.244 L162.107,412.244 L162.107,409.994 L152.531,409.994 L152.531,412.244 L156.041,412.244 L156.041,422 L158.615,422 Z M178.095,422 L178.095,409.994 L175.521,409.994 L175.521,414.71 L169.851,414.71 L169.851,409.994 L167.295,409.994 L167.295,422 L169.851,422 L169.851,416.942 L175.521,416.942 L175.521,422 L178.095,422 Z M197.525,422 L197.525,412.244 L201.017,412.244 L201.017,409.994 L191.441,409.994 L191.441,412.244 L194.951,412.244 L194.951,422 L197.525,422 Z M215.943,422 L212.991,422 L210.633,417.734 L208.761,417.734 L208.761,422 L206.205,422 L206.205,409.994 L211.821,409.994 C214.323,409.994 215.871,411.632 215.871,413.864 C215.871,415.97 214.521,417.122 213.225,417.428 L215.943,422 Z M211.461,415.484 C212.469,415.484 213.243,414.872 213.243,413.846 C213.243,412.856 212.469,412.244 211.461,412.244 L208.761,412.244 L208.761,415.484 L211.461,415.484 Z M232.525,422 L229.627,422 L228.871,419.966 L223.723,419.966 L222.967,422 L220.069,422 L224.695,409.994 L227.899,409.994 L232.525,422 Z M228.169,417.716 L226.297,412.55 L224.425,417.716 L228.169,417.716 Z M239.747,422 L239.747,409.994 L237.191,409.994 L237.191,422 L239.747,422 Z M256.419,422 L256.419,409.994 L253.863,409.994 L253.863,417.536 L248.301,409.994 L245.673,409.994 L245.673,422 L248.229,422 L248.229,414.17 L253.953,422 L256.419,422 Z M270.841,422 L270.841,419.75 L264.901,419.75 L264.901,417.014 L270.715,417.014 L270.715,414.764 L264.901,414.764 L264.901,412.244 L270.841,412.244 L270.841,409.994 L262.345,409.994 L262.345,422 L270.841,422 Z M281.141,422 L276.389,422 L276.389,409.994 L281.123,409.994 C284.885,409.994 287.495,412.388 287.495,415.988 C287.495,419.624 284.885,422 281.141,422 Z M281.123,419.75 C283.499,419.75 284.885,418.04 284.885,415.988 C284.885,413.882 283.589,412.244 281.141,412.244 L278.945,412.244 L278.945,419.75 L281.123,419.75 Z M314.053,422 L314.053,409.994 L310.453,409.994 L307.537,417.5 L304.621,409.994 L301.039,409.994 L301.039,422 L303.595,422 L303.595,413.342 L306.979,422 L308.095,422 L311.479,413.342 L311.479,422 L314.053,422 Z M325.685,422.216 C322.049,422.216 319.403,419.624 319.403,416.006 C319.403,412.388 322.049,409.796 325.685,409.796 C329.303,409.796 331.949,412.388 331.949,416.006 C331.949,419.624 329.303,422.216 325.685,422.216 Z M325.685,419.948 C327.899,419.948 329.321,418.238 329.321,416.006 C329.321,413.756 327.899,412.064 325.685,412.064 C323.453,412.064 322.031,413.756 322.031,416.006 C322.031,418.238 323.453,419.948 325.685,419.948 Z M342.051,422 L337.299,422 L337.299,409.994 L342.033,409.994 C345.795,409.994 348.405,412.388 348.405,415.988 C348.405,419.624 345.795,422 342.051,422 Z M342.033,419.75 C344.409,419.75 345.795,418.04 345.795,415.988 C345.795,413.882 344.499,412.244 342.051,412.244 L339.855,412.244 L339.855,419.75 L342.033,419.75 Z M362.269,422 L362.269,419.75 L356.329,419.75 L356.329,417.014 L362.143,417.014 L362.143,414.764 L356.329,414.764 L356.329,412.244 L362.269,412.244 L362.269,409.994 L353.773,409.994 L353.773,422 L362.269,422 Z M375.359,422 L375.359,419.75 L370.283,419.75 L370.283,409.994 L367.709,409.994 L367.709,422 L375.359,422 Z M394.518999,422.216 C390.882999,422.216 388.236999,419.624 388.236999,416.006 C388.236999,412.388 390.882999,409.796 394.518999,409.796 C398.136999,409.796 400.782999,412.388 400.782999,416.006 C400.782999,419.624 398.136999,422.216 394.518999,422.216 Z M394.518999,419.948 C396.732999,419.948 398.154999,418.238 398.154999,416.006 C398.154999,413.756 396.732999,412.064 394.518999,412.064 C392.286999,412.064 390.864999,413.756 390.864999,416.006 C390.864999,418.238 392.286999,419.948 394.518999,419.948 Z M416.878999,422 L416.878999,409.994 L414.322999,409.994 L414.322999,417.536 L408.760999,409.994 L406.132999,409.994 L406.132999,422 L408.688999,422 L408.688999,414.17 L414.412999,422 L416.878999,422 Z M30.6730007,444.216 C33.8950007,444.216 35.4790007,442.56 35.4790007,440.364 C35.4790007,435.882 28.5850007,437.16 28.5850007,435.27 C28.5850007,434.55 29.1970007,434.082 30.2770007,434.082 C31.5010007,434.082 32.7970007,434.496 33.7690007,435.396 L35.1910007,433.488 C34.0030007,432.39 32.4190007,431.814 30.5110007,431.814 C27.6850007,431.814 25.9570007,433.47 25.9570007,435.468 C25.9570007,439.986 32.8690007,438.528 32.8690007,440.616 C32.8690007,441.318 32.2030007,441.948 30.7810007,441.948 C29.1250007,441.948 27.8110007,441.192 26.9650007,440.31 L25.5610007,442.308 C26.6950007,443.442 28.3510007,444.216 30.6730007,444.216 Z M46.1570006,444.216 C49.8110006,444.216 51.5750006,442.164 51.5750006,439.194 L51.5750006,431.994 L48.9650006,431.994 L48.9650006,439.122 C48.9650006,440.796 48.0110006,441.948 46.1570006,441.948 C44.3030006,441.948 43.3310006,440.796 43.3310006,439.122 L43.3310006,431.994 L40.7390006,431.994 L40.7390006,439.194 C40.7390006,442.164 42.5030006,444.216 46.1570006,444.216 Z M64.0170006,444 L57.5010006,444 L57.5010006,431.994 L63.8190006,431.994 C66.1050006,431.994 67.2750006,433.452 67.2750006,435.054 C67.2750006,436.548 66.3390006,437.574 65.2050006,437.808 C66.5010006,438.006 67.5090006,439.248 67.5090006,440.742 C67.5090006,442.56 66.3210006,444 64.0170006,444 Z M63.2610006,436.764 C64.1250006,436.764 64.6650006,436.278 64.6650006,435.504 C64.6650006,434.766 64.1250006,434.244 63.2610006,434.244 L60.0570006,434.244 L60.0570006,436.764 L63.2610006,436.764 Z M63.3690006,441.75 C64.3230006,441.75 64.8990006,441.246 64.8990006,440.382 C64.8990006,439.626 64.3590006,439.014 63.3690006,439.014 L60.0570006,439.014 L60.0570006,441.75 L63.3690006,441.75 Z M76.6570005,440.616 L76.6570005,438.672 L72.3370005,438.672 L72.3370005,440.616 L76.6570005,440.616 Z M84.4910005,444 L81.9350005,444 L81.9350005,431.994 L87.5510005,431.994 C90.1610005,431.994 91.5830005,433.758 91.5830005,435.864 C91.5830005,437.952 90.1430005,439.716 87.5510005,439.716 L84.4910005,439.716 L84.4910005,444 Z M87.1910005,437.466 C88.1990005,437.466 88.9730005,436.854 88.9730005,435.864 C88.9730005,434.856 88.1990005,434.244 87.1910005,434.244 L84.4910005,434.244 L84.4910005,437.466 L87.1910005,437.466 Z M102.441,444.216 C98.8050005,444.216 96.1590005,441.624 96.1590005,438.006 C96.1590005,434.388 98.8050005,431.796 102.441,431.796 C106.059,431.796 108.705,434.388 108.705,438.006 C108.705,441.624 106.059,444.216 102.441,444.216 Z M102.441,441.948 C104.655,441.948 106.077,440.238 106.077,438.006 C106.077,435.756 104.655,434.064 102.441,434.064 C100.209,434.064 98.7870005,435.756 98.7870005,438.006 C98.7870005,440.238 100.209,441.948 102.441,441.948 Z M116.611,444 L114.055,444 L114.055,431.994 L119.671,431.994 C122.281,431.994 123.703,433.758 123.703,435.864 C123.703,437.952 122.263,439.716 119.671,439.716 L116.611,439.716 L116.611,444 Z M119.311,437.466 C120.319,437.466 121.093,436.854 121.093,435.864 C121.093,434.856 120.319,434.244 119.311,434.244 L116.611,434.244 L116.611,437.466 L119.311,437.466 Z M134.273,444.216 C137.927,444.216 139.691,442.164 139.691,439.194 L139.691,431.994 L137.081,431.994 L137.081,439.122 C137.081,440.796 136.127,441.948 134.273,441.948 C132.419,441.948 131.447,440.796 131.447,439.122 L131.447,431.994 L128.855,431.994 L128.855,439.194 C128.855,442.164 130.619,444.216 134.273,444.216 Z M153.159,444 L153.159,441.75 L148.083,441.75 L148.083,431.994 L145.509,431.994 L145.509,444 L153.159,444 Z M169.633,444 L166.735,444 L165.979,441.966 L160.831,441.966 L160.075,444 L157.177,444 L161.803,431.994 L165.007,431.994 L169.633,444 Z M165.277,439.716 L163.405,434.55 L161.533,439.716 L165.277,439.716 Z M178.493,444 L178.493,434.244 L181.985,434.244 L181.985,431.994 L172.409,431.994 L172.409,434.244 L175.919,434.244 L175.919,444 L178.493,444 Z M189.729,444 L189.729,431.994 L187.173,431.994 L187.173,444 L189.729,444 Z M201.361,444.216 C197.725,444.216 195.079,441.624 195.079,438.006 C195.079,434.388 197.725,431.796 201.361,431.796 C204.979,431.796 207.625,434.388 207.625,438.006 C207.625,441.624 204.979,444.216 201.361,444.216 Z M201.361,441.948 C203.575,441.948 204.997,440.238 204.997,438.006 C204.997,435.756 203.575,434.064 201.361,434.064 C199.129,434.064 197.707,435.756 197.707,438.006 C197.707,440.238 199.129,441.948 201.361,441.948 Z M223.721,444 L223.721,431.994 L221.165,431.994 L221.165,439.536 L215.603,431.994 L212.975,431.994 L212.975,444 L215.531,444 L215.531,436.17 L221.255,444 L223.721,444 Z M243.655,444.216 C246.283,444.216 247.813,442.758 248.659,441.264 L246.463,440.202 C245.959,441.174 244.879,441.948 243.655,441.948 C241.459,441.948 239.875,440.274 239.875,438.006 C239.875,435.738 241.459,434.064 243.655,434.064 C244.879,434.064 245.959,434.838 246.463,435.81 L248.659,434.73 C247.813,433.218 246.283,431.796 243.655,431.796 C240.037,431.796 237.247,434.298 237.247,438.006 C237.247,441.696 240.037,444.216 243.655,444.216 Z M259.445,444.216 C255.809,444.216 253.163,441.624 253.163,438.006 C253.163,434.388 255.809,431.796 259.445,431.796 C263.063,431.796 265.709,434.388 265.709,438.006 C265.709,441.624 263.063,444.216 259.445,444.216 Z M259.445,441.948 C261.659,441.948 263.081,440.238 263.081,438.006 C263.081,435.756 261.659,434.064 259.445,434.064 C257.213,434.064 255.791,435.756 255.791,438.006 C255.791,440.238 257.213,441.948 259.445,441.948 Z M284.073,444 L284.073,431.994 L280.473,431.994 L277.557,439.5 L274.641,431.994 L271.059,431.994 L271.059,444 L273.615,444 L273.615,435.342 L276.999,444 L278.115,444 L281.499,435.342 L281.499,444 L284.073,444 Z M292.555,444 L289.999,444 L289.999,431.994 L295.615,431.994 C298.225,431.994 299.647,433.758 299.647,435.864 C299.647,437.952 298.207,439.716 295.615,439.716 L292.555,439.716 L292.555,444 Z M295.255,437.466 C296.263,437.466 297.037,436.854 297.037,435.864 C297.037,434.856 296.263,434.244 295.255,434.244 L292.555,434.244 L292.555,437.466 L295.255,437.466 Z M314.663,444 L311.765,444 L311.009,441.966 L305.861,441.966 L305.105,444 L302.207,444 L306.833,431.994 L310.037,431.994 L314.663,444 Z M310.307,439.716 L308.435,434.55 L306.563,439.716 L310.307,439.716 Z M329.067,444 L326.115,444 L323.757,439.734 L321.885,439.734 L321.885,444 L319.329,444 L319.329,431.994 L324.945,431.994 C327.447,431.994 328.995,433.632 328.995,435.864 C328.995,437.97 327.645,439.122 326.349,439.428 L329.067,444 Z M324.585,437.484 C325.593,437.484 326.367,436.872 326.367,435.846 C326.367,434.856 325.593,434.244 324.585,434.244 L321.885,434.244 L321.885,437.484 L324.585,437.484 Z M342.949,444 L342.949,441.75 L337.009,441.75 L337.009,439.014 L342.823,439.014 L342.823,436.764 L337.009,436.764 L337.009,434.244 L342.949,434.244 L342.949,431.994 L334.453,431.994 L334.453,444 L342.949,444 Z M353.249,444 L348.497,444 L348.497,431.994 L353.231,431.994 C356.993,431.994 359.603,434.388 359.603,437.988 C359.603,441.624 356.993,444 353.249,444 Z M353.231,441.75 C355.607,441.75 356.993,440.04 356.993,437.988 C356.993,435.882 355.697,434.244 353.249,434.244 L351.053,434.244 L351.053,441.75 L353.231,441.75 Z M385.045,444 L388.465,431.994 L385.603,431.994 L383.497,440.67 L381.229,431.994 L379.231,431.994 L376.945,440.67 L374.839,431.994 L371.977,431.994 L375.415,444 L378.133,444 L380.221,435.756 L382.327,444 L385.045,444 Z M395.776999,444 L395.776999,431.994 L393.220999,431.994 L393.220999,444 L395.776999,444 Z M407.048999,444 L407.048999,434.244 L410.540999,434.244 L410.540999,431.994 L400.964999,431.994 L400.964999,434.244 L404.474999,434.244 L404.474999,444 L407.048999,444 Z M426.528999,444 L426.528999,431.994 L423.954999,431.994 L423.954999,436.71 L418.284999,436.71 L418.284999,431.994 L415.728999,431.994 L415.728999,444 L418.284999,444 L418.284999,438.942 L423.954999,438.942 L423.954999,444 L426.528999,444 Z M112.858,466 L109.96,466 L109.204,463.966 L104.056,463.966 L103.3,466 L100.402,466 L105.028,453.994 L108.232,453.994 L112.858,466 Z M108.502,461.716 L106.63,456.55 L104.758,461.716 L108.502,461.716 Z M128.27,466 L128.27,453.994 L125.714,453.994 L125.714,461.536 L120.152,453.994 L117.524,453.994 L117.524,466 L120.08,466 L120.08,458.17 L125.804,466 L128.27,466 Z M147.79,466.216 C151.444,466.216 153.208,464.164 153.208,461.194 L153.208,453.994 L150.598,453.994 L150.598,461.122 C150.598,462.796 149.644,463.948 147.79,463.948 C145.936,463.948 144.964,462.796 144.964,461.122 L144.964,453.994 L142.372,453.994 L142.372,461.194 C142.372,464.164 144.136,466.216 147.79,466.216 Z M169.88,466 L169.88,453.994 L167.324,453.994 L167.324,461.536 L161.762,453.994 L159.134,453.994 L159.134,466 L161.69,466 L161.69,458.17 L167.414,466 L169.88,466 Z M181.152,466 L181.152,456.244 L184.644,456.244 L184.644,453.994 L175.068,453.994 L175.068,456.244 L178.578,456.244 L178.578,466 L181.152,466 Z M199.57,466 L196.618,466 L194.26,461.734 L192.388,461.734 L192.388,466 L189.832,466 L189.832,453.994 L195.448,453.994 C197.95,453.994 199.498,455.632 199.498,457.864 C199.498,459.97 198.148,461.122 196.852,461.428 L199.57,466 Z M195.088,459.484 C196.096,459.484 196.87,458.872 196.87,457.846 C196.87,456.856 196.096,456.244 195.088,456.244 L192.388,456.244 L192.388,459.484 L195.088,459.484 Z M216.152,466 L213.254,466 L212.498,463.966 L207.35,463.966 L206.594,466 L203.696,466 L208.322,453.994 L211.526,453.994 L216.152,466 Z M211.796,461.716 L209.924,456.55 L208.052,461.716 L211.796,461.716 Z M223.374,466 L223.374,453.994 L220.818,453.994 L220.818,466 L223.374,466 Z M240.046,466 L240.046,453.994 L237.49,453.994 L237.49,461.536 L231.928,453.994 L229.3,453.994 L229.3,466 L231.856,466 L231.856,458.17 L237.58,466 L240.046,466 Z M254.468,466 L254.468,463.75 L248.528,463.75 L248.528,461.014 L254.342,461.014 L254.342,458.764 L248.528,458.764 L248.528,456.244 L254.468,456.244 L254.468,453.994 L245.972,453.994 L245.972,466 L254.468,466 Z M264.768,466 L260.016,466 L260.016,453.994 L264.75,453.994 C268.512,453.994 271.122,456.388 271.122,459.988 C271.122,463.624 268.512,466 264.768,466 Z M264.75,463.75 C267.126,463.75 268.512,462.04 268.512,459.988 C268.512,457.882 267.216,456.244 264.768,456.244 L262.572,456.244 L262.572,463.75 L264.75,463.75 Z M297.68,466 L297.68,453.994 L294.08,453.994 L291.164,461.5 L288.248,453.994 L284.666,453.994 L284.666,466 L287.222,466 L287.222,457.342 L290.606,466 L291.722,466 L295.106,457.342 L295.106,466 L297.68,466 Z M309.312,466.216 C305.676,466.216 303.03,463.624 303.03,460.006 C303.03,456.388 305.676,453.796 309.312,453.796 C312.93,453.796 315.576,456.388 315.576,460.006 C315.576,463.624 312.93,466.216 309.312,466.216 Z M309.312,463.948 C311.526,463.948 312.948,462.238 312.948,460.006 C312.948,457.756 311.526,456.064 309.312,456.064 C307.08,456.064 305.658,457.756 305.658,460.006 C305.658,462.238 307.08,463.948 309.312,463.948 Z M325.678,466 L320.926,466 L320.926,453.994 L325.66,453.994 C329.422,453.994 332.032,456.388 332.032,459.988 C332.032,463.624 329.422,466 325.678,466 Z M325.66,463.75 C328.036,463.75 329.422,462.04 329.422,459.988 C329.422,457.882 328.126,456.244 325.678,456.244 L323.482,456.244 L323.482,463.75 L325.66,463.75 Z M345.896,466 L345.896,463.75 L339.956,463.75 L339.956,461.014 L345.77,461.014 L345.77,458.764 L339.956,458.764 L339.956,456.244 L345.896,456.244 L345.896,453.994 L337.4,453.994 L337.4,466 L345.896,466 Z M358.986,466 L358.986,463.75 L353.91,463.75 L353.91,453.994 L351.336,453.994 L351.336,466 L358.986,466 Z" id="BASEHEALTH-TRAINED-M" fill="#138DCD"></path>
                <g id="Group-12">
                    <g id="Group-9" transform="translate(26.000000, 8.000000)">
                        <g id="Group-2">
                            <g id="Page-1" transform="translate(29.000000, 32.000000)">
                                <polygon id="Fill-1" fill="#C9C9C9" points="0 315 61 315 61 96.788 0 96.788"></polygon>
                                <polygon id="Fill-2" fill="#C9C9C9" points="229 315 290 315 290 0 229 0"></polygon>
                                <polygon id="Fill-3" fill="#138BCB" points="95 315 155.999 315 155.999 223.492 95 223.492"></polygon>
                                <polygon id="Fill-4" fill="#138BCB" points="323 315 384 315 384 167.179 323 167.179"></polygon>
                            </g>
                            <polyline id="Page-1" stroke="#C9C9C9" stroke-width="4" points="0.714 0.003 0 346.526 421.418 347.588"></polyline>
                        </g>
                        <path d="M56.5251943,375 L56.5251943,368.243374 L58.9436177,368.243374 L58.9436177,366.685111 L52.3116525,366.685111 L52.3116525,368.243374 L54.742542,368.243374 L54.742542,375 L56.5251943,375 Z M65.4969136,375 L65.4969136,371.596755 L68.6757691,366.685111 L66.668727,366.685111 L64.6118205,370.01356 L62.554914,366.685111 L60.5354058,366.685111 L63.7267274,371.596755 L63.7267274,375 L65.4969136,375 Z M72.5488536,375 L70.7786674,375 L70.7786674,366.685111 L74.6680906,366.685111 C76.4756751,366.685111 77.460497,367.906789 77.460497,369.365323 C77.460497,370.81139 76.463209,372.033068 74.6680906,372.033068 L72.5488536,372.033068 L72.5488536,375 Z M74.4187686,370.474806 C75.1168702,370.474806 75.6529125,370.050958 75.6529125,369.365323 C75.6529125,368.667221 75.1168702,368.243374 74.4187686,368.243374 L72.5488536,368.243374 L72.5488536,370.474806 L74.4187686,370.474806 Z M85.7839791,375 L85.7839791,373.441738 L81.6701661,373.441738 L81.6701661,371.54689 L85.6967164,371.54689 L85.6967164,369.988628 L81.6701661,369.988628 L81.6701661,368.243374 L85.7839791,368.243374 L85.7839791,366.685111 L79.8999799,366.685111 L79.8999799,375 L85.7839791,375 Z M99.0526303,375 L99.0526303,373.441738 L95.6618511,373.441738 C97.8184864,371.871009 98.9902998,370.636865 98.9902998,369.21573 C98.9902998,367.557738 97.5940966,366.56045 95.8114443,366.56045 C94.652097,366.56045 93.4179531,366.984298 92.6076566,367.919255 L93.6174107,369.091069 C94.1783852,368.505162 94.901419,368.131179 95.8488426,368.131179 C96.5344781,368.131179 97.1951814,368.48023 97.1951814,369.21573 C97.1951814,370.23795 96.1978934,371.085645 92.7946481,373.603797 L92.7946481,375 L99.0526303,375 Z M109.666002,375 L106.374952,375 L106.374952,366.685111 L109.653536,366.685111 C112.258951,366.685111 114.066536,368.343103 114.066536,370.836323 C114.066536,373.354475 112.258951,375 109.666002,375 Z M109.653536,373.441738 C111.299061,373.441738 112.258951,372.257458 112.258951,370.836323 C112.258951,369.377789 111.361392,368.243374 109.666002,368.243374 L108.145138,368.243374 L108.145138,373.441738 L109.653536,373.441738 Z M118.425798,375 L118.425798,366.685111 L116.655612,366.685111 L116.655612,375 L118.425798,375 Z M129.155237,375 L127.148195,375 L126.624619,373.591331 L123.059314,373.591331 L122.535738,375 L120.528696,375 L123.732484,366.685111 L125.95145,366.685111 L129.155237,375 Z M126.138441,372.033068 L124.841967,368.455298 L123.545492,372.033068 L126.138441,372.033068 Z M135.770864,375 L131.258136,375 L131.258136,366.685111 L135.633737,366.685111 C137.216931,366.685111 138.027228,367.694865 138.027228,368.804348 C138.027228,369.839035 137.378991,370.549602 136.593626,370.711662 C137.491186,370.848789 138.189287,371.70895 138.189287,372.743636 C138.189287,374.002712 137.366525,375 135.770864,375 Z M135.247288,369.988628 C135.84566,369.988628 136.219643,369.652043 136.219643,369.116001 C136.219643,368.604891 135.84566,368.243374 135.247288,368.243374 L133.028322,368.243374 L133.028322,369.988628 L135.247288,369.988628 Z M135.322084,373.441738 C135.982787,373.441738 136.381703,373.092687 136.381703,372.494314 C136.381703,371.970738 136.00772,371.54689 135.322084,371.54689 L133.028322,371.54689 L133.028322,373.441738 L135.322084,373.441738 Z M146.737159,375 L146.737159,373.441738 L142.623346,373.441738 L142.623346,371.54689 L146.649896,371.54689 L146.649896,369.988628 L142.623346,369.988628 L142.623346,368.243374 L146.737159,368.243374 L146.737159,366.685111 L140.85316,366.685111 L140.85316,375 L146.737159,375 Z M153.153328,375 L153.153328,368.243374 L155.571751,368.243374 L155.571751,366.685111 L148.939786,366.685111 L148.939786,368.243374 L151.370676,368.243374 L151.370676,375 L153.153328,375 Z M163.920166,375 L163.920166,373.441738 L159.806353,373.441738 L159.806353,371.54689 L163.832903,371.54689 L163.832903,369.988628 L159.806353,369.988628 L159.806353,368.243374 L163.920166,368.243374 L163.920166,366.685111 L158.036166,366.685111 L158.036166,375 L163.920166,375 Z M169.600835,375.149593 C171.832267,375.149593 172.929283,374.002712 172.929283,372.481848 C172.929283,369.377789 168.154767,370.262882 168.154767,368.953942 C168.154767,368.455298 168.578614,368.131179 169.32658,368.131179 C170.174275,368.131179 171.071834,368.417899 171.745004,369.041204 L172.729826,367.719798 C171.907063,366.959366 170.810046,366.56045 169.48864,366.56045 C167.531462,366.56045 166.334716,367.707332 166.334716,369.091069 C166.334716,372.22006 171.121699,371.210306 171.121699,372.656373 C171.121699,373.142551 170.660453,373.578865 169.675631,373.578865 C168.52875,373.578865 167.618725,373.055288 167.032818,372.44445 L166.060462,373.828187 C166.845827,374.613551 167.992708,375.149593 169.600835,375.149593 Z" id="TYPE-2-DIABETES" fill="#474747"></path>
                        <path d="M288.302423,375 L288.302423,366.685111 L286.51977,366.685111 L286.51977,369.95123 L282.592949,369.95123 L282.592949,366.685111 L280.822763,366.685111 L280.822763,375 L282.592949,375 L282.592949,371.497026 L286.51977,371.497026 L286.51977,375 L288.302423,375 Z M297.149481,375 L297.149481,373.441738 L293.035668,373.441738 L293.035668,371.54689 L297.062218,371.54689 L297.062218,369.988628 L293.035668,369.988628 L293.035668,368.243374 L297.149481,368.243374 L297.149481,366.685111 L291.265482,366.685111 L291.265482,375 L297.149481,375 Z M307.617132,375 L305.61009,375 L305.086514,373.591331 L301.521209,373.591331 L300.997633,375 L298.990591,375 L302.194379,366.685111 L304.413345,366.685111 L307.617132,375 Z M304.600336,372.033068 L303.303862,368.455298 L302.007387,372.033068 L304.600336,372.033068 Z M316.464191,375 L314.41975,375 L312.786691,372.045534 L311.490217,372.045534 L311.490217,375 L309.720031,375 L309.720031,366.685111 L313.609454,366.685111 C315.342242,366.685111 316.414326,367.819526 316.414326,369.365323 C316.414326,370.823857 315.479369,371.621687 314.58181,371.833611 L316.464191,375 Z M313.360132,370.487272 C314.058233,370.487272 314.594276,370.063424 314.594276,369.352857 C314.594276,368.667221 314.058233,368.243374 313.360132,368.243374 L311.490217,368.243374 L311.490217,370.487272 L313.360132,370.487272 Z M322.643504,375 L322.643504,368.243374 L325.061927,368.243374 L325.061927,366.685111 L318.429962,366.685111 L318.429962,368.243374 L320.860851,368.243374 L320.860851,375 L322.643504,375 Z M335.35118,375 L332.06013,375 L332.06013,366.685111 L335.338714,366.685111 C337.944129,366.685111 339.751714,368.343103 339.751714,370.836323 C339.751714,373.354475 337.944129,375 335.35118,375 Z M335.338714,373.441738 C336.984239,373.441738 337.944129,372.257458 337.944129,370.836323 C337.944129,369.377789 337.04657,368.243374 335.35118,368.243374 L333.830316,368.243374 L333.830316,373.441738 L335.338714,373.441738 Z M344.110976,375 L344.110976,366.685111 L342.34079,366.685111 L342.34079,375 L344.110976,375 Z M350.053433,375.149593 C352.284865,375.149593 353.381882,374.002712 353.381882,372.481848 C353.381882,369.377789 348.607365,370.262882 348.607365,368.953942 C348.607365,368.455298 349.031213,368.131179 349.779179,368.131179 C350.626874,368.131179 351.524433,368.417899 352.197602,369.041204 L353.182424,367.719798 C352.359661,366.959366 351.262645,366.56045 349.941238,366.56045 C347.98406,366.56045 346.787315,367.707332 346.787315,369.091069 C346.787315,372.22006 351.574297,371.210306 351.574297,372.656373 C351.574297,373.142551 351.113051,373.578865 350.12823,373.578865 C348.981348,373.578865 348.071323,373.055288 347.485416,372.44445 L346.513061,373.828187 C347.298425,374.613551 348.445306,375.149593 350.053433,375.149593 Z M361.78016,375 L361.78016,373.441738 L357.666347,373.441738 L357.666347,371.54689 L361.692898,371.54689 L361.692898,369.988628 L357.666347,369.988628 L357.666347,368.243374 L361.78016,368.243374 L361.78016,366.685111 L355.896161,366.685111 L355.896161,375 L361.78016,375 Z M372.247812,375 L370.24077,375 L369.717193,373.591331 L366.151889,373.591331 L365.628313,375 L363.621271,375 L366.825058,366.685111 L369.044024,366.685111 L372.247812,375 Z M369.231016,372.033068 L367.934541,368.455298 L366.638067,372.033068 L369.231016,372.033068 Z M377.230379,375.149593 C379.461811,375.149593 380.558828,374.002712 380.558828,372.481848 C380.558828,369.377789 375.784311,370.262882 375.784311,368.953942 C375.784311,368.455298 376.208159,368.131179 376.956125,368.131179 C377.80382,368.131179 378.701379,368.417899 379.374548,369.041204 L380.35937,367.719798 C379.536608,366.959366 378.439591,366.56045 377.118184,366.56045 C375.161006,366.56045 373.964261,367.707332 373.964261,369.091069 C373.964261,372.22006 378.751243,371.210306 378.751243,372.656373 C378.751243,373.142551 378.289998,373.578865 377.305176,373.578865 C376.158294,373.578865 375.248269,373.055288 374.662362,372.44445 L373.690007,373.828187 C374.475371,374.613551 375.622252,375.149593 377.230379,375.149593 Z M388.957107,375 L388.957107,373.441738 L384.843294,373.441738 L384.843294,371.54689 L388.869844,371.54689 L388.869844,369.988628 L384.843294,369.988628 L384.843294,368.243374 L388.957107,368.243374 L388.957107,366.685111 L383.073107,366.685111 L383.073107,375 L388.957107,375 Z" id="HEART-DISEASE" fill="#474747"></path>
                    </g>
                    <path d="M-54.3790007,185.129409 L-58.0750007,185.129409 L-58.0750007,175.791409 L-54.3930007,175.791409 C-51.4670007,175.791409 -49.4370007,177.653409 -49.4370007,180.453409 C-49.4370007,183.281409 -51.4670007,185.129409 -54.3790007,185.129409 Z M-54.3930007,183.379409 C-52.5450007,183.379409 -51.4670007,182.049409 -51.4670007,180.453409 C-51.4670007,178.815409 -52.4750007,177.541409 -54.3790007,177.541409 L-56.0870007,177.541409 L-56.0870007,183.379409 L-54.3930007,183.379409 Z M-40.9450005,185.129409 L-40.9450005,175.791409 L-42.9330005,175.791409 L-42.9330005,185.129409 L-40.9450005,185.129409 Z M-32.0190004,185.129409 L-32.0190004,181.251409 L-27.4970004,181.251409 L-27.4970004,179.501409 L-32.0190004,179.501409 L-32.0190004,177.541409 L-27.3990004,177.541409 L-27.3990004,175.791409 L-34.0070004,175.791409 L-34.0070004,185.129409 L-32.0190004,185.129409 Z M-18.9350002,185.129409 L-18.9350002,181.251409 L-14.4130002,181.251409 L-14.4130002,179.501409 L-18.9350002,179.501409 L-18.9350002,177.541409 L-14.3150002,177.541409 L-14.3150002,175.791409 L-20.9230002,175.791409 L-20.9230002,185.129409 L-18.9350002,185.129409 Z M-1.23100008,185.129409 L-1.23100008,183.379409 L-5.85100008,183.379409 L-5.85100008,181.251409 L-1.32900008,181.251409 L-1.32900008,179.501409 L-5.85100008,179.501409 L-5.85100008,177.541409 L-1.23100008,177.541409 L-1.23100008,175.791409 L-7.83900008,175.791409 L-7.83900008,185.129409 L-1.23100008,185.129409 Z M12.9870001,185.129409 L10.6910001,185.129409 L8.85700008,181.811409 L7.40100008,181.811409 L7.40100008,185.129409 L5.41300008,185.129409 L5.41300008,175.791409 L9.78100008,175.791409 C11.7270001,175.791409 12.9310001,177.065409 12.9310001,178.801409 C12.9310001,180.439409 11.8810001,181.335409 10.8730001,181.573409 L12.9870001,185.129409 Z M9.50100008,180.061409 C10.2850001,180.061409 10.8870001,179.585409 10.8870001,178.787409 C10.8870001,178.017409 10.2850001,177.541409 9.50100008,177.541409 L7.40100008,177.541409 L7.40100008,180.061409 L9.50100008,180.061409 Z M26.1130002,185.129409 L26.1130002,183.379409 L21.4930002,183.379409 L21.4930002,181.251409 L26.0150002,181.251409 L26.0150002,179.501409 L21.4930002,179.501409 L21.4930002,177.541409 L26.1130002,177.541409 L26.1130002,175.791409 L19.5050002,175.791409 L19.5050002,185.129409 L26.1130002,185.129409 Z M41.1150004,185.129409 L41.1150004,175.791409 L39.1270004,175.791409 L39.1270004,181.657409 L34.8010004,175.791409 L32.7570004,175.791409 L32.7570004,185.129409 L34.7450004,185.129409 L34.7450004,179.039409 L39.1970004,185.129409 L41.1150004,185.129409 Z M52.5890005,185.297409 C54.6330005,185.297409 55.8230005,184.163409 56.4810005,183.001409 L54.7730005,182.175409 C54.3810005,182.931409 53.5410005,183.533409 52.5890005,183.533409 C50.8810005,183.533409 49.6490005,182.231409 49.6490005,180.467409 C49.6490005,178.703409 50.8810005,177.401409 52.5890005,177.401409 C53.5410005,177.401409 54.3810005,178.003409 54.7730005,178.759409 L56.4810005,177.919409 C55.8230005,176.743409 54.6330005,175.637409 52.5890005,175.637409 C49.7750005,175.637409 47.6050005,177.583409 47.6050005,180.467409 C47.6050005,183.337409 49.7750005,185.297409 52.5890005,185.297409 Z M69.3690007,185.129409 L69.3690007,183.379409 L64.7490007,183.379409 L64.7490007,181.251409 L69.2710007,181.251409 L69.2710007,179.501409 L64.7490007,179.501409 L64.7490007,177.541409 L69.3690007,177.541409 L69.3690007,175.791409 L62.7610007,175.791409 L62.7610007,185.129409 L69.3690007,185.129409 Z" id="DIFFERENCE" fill="#474747" transform="translate(5.647000, 180.467409) rotate(-90.000000) translate(-5.647000, -180.467409) "></path>
                    <path d="M49.4879638,106 L47.4999638,106 L47.4999638,96.662 L51.8679638,96.662 C53.8979638,96.662 55.0039638,98.034 55.0039638,99.672 C55.0039638,101.296 53.8839638,102.668 51.8679638,102.668 L49.4879638,102.668 L49.4879638,106 Z M51.5879638,100.918 C52.3719638,100.918 52.9739638,100.442 52.9739638,99.672 C52.9739638,98.888 52.3719638,98.412 51.5879638,98.412 L49.4879638,98.412 L49.4879638,100.918 L51.5879638,100.918 Z M60.2279639,106 L58.2399639,106 L58.2399639,96.662 L62.6079639,96.662 C64.6379639,96.662 65.7439639,98.034 65.7439639,99.672 C65.7439639,101.296 64.6239639,102.668 62.6079639,102.668 L60.2279639,102.668 L60.2279639,106 Z M62.3279639,100.918 C63.1119639,100.918 63.7139639,100.442 63.7139639,99.672 C63.7139639,98.888 63.1119639,98.412 62.3279639,98.412 L60.2279639,98.412 L60.2279639,100.918 L62.3279639,100.918 Z M74.0899639,106 L77.6879639,96.662 L75.4339639,96.662 L72.8439639,103.83 L70.2539639,96.662 L67.9999639,96.662 L71.5979639,106 L74.0899639,106 Z M85.1939639,96.662 C85.0959639,97.908 84.8859639,99.154 84.3259639,99.154 C83.4859639,99.154 83.8919639,96.676 82.0719639,96.676 C80.5179639,96.676 80.1259639,98.426 79.9859639,100.092 L81.2039639,100.232 C81.3019639,99.028 81.5119639,97.768 82.0719639,97.768 C82.9119639,97.768 82.5059639,100.232 84.3259639,100.232 C85.8939639,100.232 86.2579639,98.482 86.3979639,96.802 L85.1939639,96.662 Z M93.0919639,106.168 C90.4179639,106.168 89.2279639,103.746 89.2279639,101.338 C89.2279639,98.93 90.4179639,96.522 93.0919639,96.522 C95.7659639,96.522 96.9559639,98.93 96.9559639,101.338 C96.9559639,103.746 95.7659639,106.168 93.0919639,106.168 Z M93.0919639,104.404 C94.4219639,104.404 94.9259639,103.06 94.9259639,101.338 C94.9259639,99.616 94.4359639,98.286 93.0919639,98.286 C91.7619639,98.286 91.2579639,99.616 91.2579639,101.338 C91.2579639,103.06 91.7619639,104.404 93.0919639,104.404 Z M100.919964,106.154 C101.535964,106.154 102.053964,105.636 102.053964,105.02 C102.053964,104.404 101.535964,103.886 100.919964,103.886 C100.303964,103.886 99.7859639,104.404 99.7859639,105.02 C99.7859639,105.636 100.303964,106.154 100.919964,106.154 Z M108.957964,106.168 C106.997964,106.168 105.205964,105.314 105.205964,103.578 C105.205964,102.444 106.087964,101.576 107.207964,101.184 C106.171964,100.82 105.359964,100.148 105.359964,98.986 C105.359964,97.222 107.221964,96.522 108.957964,96.522 C110.679964,96.522 112.555964,97.222 112.555964,98.986 C112.555964,100.148 111.729964,100.82 110.707964,101.184 C111.813964,101.576 112.709964,102.444 112.709964,103.578 C112.709964,105.314 110.917964,106.168 108.957964,106.168 Z M108.957964,100.4 C109.531964,100.302 110.525964,100.008 110.525964,99.322 C110.525964,98.664 109.867964,98.286 108.957964,98.286 C108.033964,98.286 107.375964,98.664 107.375964,99.322 C107.375964,100.008 108.383964,100.302 108.957964,100.4 Z M108.957964,104.404 C109.909964,104.404 110.693964,103.97 110.693964,103.298 C110.693964,102.528 109.531964,102.164 108.957964,102.08 C108.369964,102.164 107.221964,102.528 107.221964,103.298 C107.221964,103.97 107.977964,104.404 108.957964,104.404 Z M119.697964,106.168 C116.855964,106.168 115.665964,103.984 115.665964,101.352 C115.665964,98.524 117.261964,96.522 120.019964,96.522 C121.153964,96.522 122.105964,96.9 122.777964,97.488 L121.881964,99.014 C121.377964,98.538 120.845964,98.286 120.019964,98.286 C118.647964,98.286 117.681964,99.448 117.681964,100.932 C117.681964,101.002 117.681964,101.058 117.695964,101.128 C118.129964,100.498 119.067964,99.924 120.089964,99.924 C121.769964,99.924 123.281964,100.974 123.281964,102.962 C123.281964,104.782 121.825964,106.168 119.697964,106.168 Z M119.585964,104.404 C120.663964,104.404 121.251964,103.676 121.251964,103.032 C121.251964,102.052 120.411964,101.632 119.529964,101.632 C118.829964,101.632 118.143964,101.954 117.695964,102.514 C117.779964,103.41 118.283964,104.404 119.585964,104.404 Z M68.1539639,123.168 C65.4799639,123.168 64.2899639,120.746 64.2899639,118.338 C64.2899639,115.93 65.4799639,113.522 68.1539639,113.522 C70.8279639,113.522 72.0179639,115.93 72.0179639,118.338 C72.0179639,120.746 70.8279639,123.168 68.1539639,123.168 Z M68.1539639,121.404 C69.4839639,121.404 69.9879639,120.06 69.9879639,118.338 C69.9879639,116.616 69.4979639,115.286 68.1539639,115.286 C66.8239639,115.286 66.3199639,116.616 66.3199639,118.338 C66.3199639,120.06 66.8239639,121.404 68.1539639,121.404 Z M75.9819639,123.154 C76.5979639,123.154 77.1159639,122.636 77.1159639,122.02 C77.1159639,121.404 76.5979639,120.886 75.9819639,120.886 C75.3659639,120.886 74.8479639,121.404 74.8479639,122.02 C74.8479639,122.636 75.3659639,123.154 75.9819639,123.154 Z M83.8239639,123.168 C81.1499639,123.168 79.9599639,120.746 79.9599639,118.338 C79.9599639,115.93 81.1499639,113.522 83.8239639,113.522 C86.4979639,113.522 87.6879639,115.93 87.6879639,118.338 C87.6879639,120.746 86.4979639,123.168 83.8239639,123.168 Z M83.8239639,121.404 C85.1539639,121.404 85.6579639,120.06 85.6579639,118.338 C85.6579639,116.616 85.1679639,115.286 83.8239639,115.286 C82.4939639,115.286 81.9899639,116.616 81.9899639,118.338 C81.9899639,120.06 82.4939639,121.404 83.8239639,121.404 Z M94.4939639,123.168 C91.8199639,123.168 90.6299639,120.746 90.6299639,118.338 C90.6299639,115.93 91.8199639,113.522 94.4939639,113.522 C97.1679639,113.522 98.3579639,115.93 98.3579639,118.338 C98.3579639,120.746 97.1679639,123.168 94.4939639,123.168 Z M94.4939639,121.404 C95.8239639,121.404 96.3279639,120.06 96.3279639,118.338 C96.3279639,116.616 95.8379639,115.286 94.4939639,115.286 C93.1639639,115.286 92.6599639,116.616 92.6599639,118.338 C92.6599639,120.06 93.1639639,121.404 94.4939639,121.404 Z M104.701964,123 L108.173964,115.048 L108.173964,113.662 L101.159964,113.662 L101.159964,115.412 L105.863964,115.412 L102.517964,123 L104.701964,123 Z" id="PPV~0.86-0.007" fill="#D32F45"></path>
                    <path d="M275.634964,10 L273.646964,10 L273.646964,0.662 L278.014964,0.662 C280.044964,0.662 281.150964,2.034 281.150964,3.672 C281.150964,5.296 280.030964,6.668 278.014964,6.668 L275.634964,6.668 L275.634964,10 Z M277.734964,4.918 C278.518964,4.918 279.120964,4.442 279.120964,3.672 C279.120964,2.888 278.518964,2.412 277.734964,2.412 L275.634964,2.412 L275.634964,4.918 L277.734964,4.918 Z M286.374964,10 L284.386964,10 L284.386964,0.662 L288.754964,0.662 C290.784964,0.662 291.890964,2.034 291.890964,3.672 C291.890964,5.296 290.770964,6.668 288.754964,6.668 L286.374964,6.668 L286.374964,10 Z M288.474964,4.918 C289.258964,4.918 289.860964,4.442 289.860964,3.672 C289.860964,2.888 289.258964,2.412 288.474964,2.412 L286.374964,2.412 L286.374964,4.918 L288.474964,4.918 Z M300.236964,10 L303.834964,0.662 L301.580964,0.662 L298.990964,7.83 L296.400964,0.662 L294.146964,0.662 L297.744964,10 L300.236964,10 Z M311.340964,0.662 C311.242964,1.908 311.032964,3.154 310.472964,3.154 C309.632964,3.154 310.038964,0.676 308.218964,0.676 C306.664964,0.676 306.272964,2.426 306.132964,4.092 L307.350964,4.232 C307.448964,3.028 307.658964,1.768 308.218964,1.768 C309.058964,1.768 308.652964,4.232 310.472964,4.232 C312.040964,4.232 312.404964,2.482 312.544964,0.802 L311.340964,0.662 Z M319.238964,10.168 C316.564964,10.168 315.374964,7.746 315.374964,5.338 C315.374964,2.93 316.564964,0.522 319.238964,0.522 C321.912964,0.522 323.102964,2.93 323.102964,5.338 C323.102964,7.746 321.912964,10.168 319.238964,10.168 Z M319.238964,8.404 C320.568964,8.404 321.072964,7.06 321.072964,5.338 C321.072964,3.616 320.582964,2.286 319.238964,2.286 C317.908964,2.286 317.404964,3.616 317.404964,5.338 C317.404964,7.06 317.908964,8.404 319.238964,8.404 Z M327.066964,10.154 C327.682964,10.154 328.200964,9.636 328.200964,9.02 C328.200964,8.404 327.682964,7.886 327.066964,7.886 C326.450964,7.886 325.932964,8.404 325.932964,9.02 C325.932964,9.636 326.450964,10.154 327.066964,10.154 Z M335.104964,10.168 C333.144964,10.168 331.352964,9.314 331.352964,7.578 C331.352964,6.444 332.234964,5.576 333.354964,5.184 C332.318964,4.82 331.506964,4.148 331.506964,2.986 C331.506964,1.222 333.368964,0.522 335.104964,0.522 C336.826964,0.522 338.702964,1.222 338.702964,2.986 C338.702964,4.148 337.876964,4.82 336.854964,5.184 C337.960964,5.576 338.856964,6.444 338.856964,7.578 C338.856964,9.314 337.064964,10.168 335.104964,10.168 Z M335.104964,4.4 C335.678964,4.302 336.672964,4.008 336.672964,3.322 C336.672964,2.664 336.014964,2.286 335.104964,2.286 C334.180964,2.286 333.522964,2.664 333.522964,3.322 C333.522964,4.008 334.530964,4.302 335.104964,4.4 Z M335.104964,8.404 C336.056964,8.404 336.840964,7.97 336.840964,7.298 C336.840964,6.528 335.678964,6.164 335.104964,6.08 C334.516964,6.164 333.368964,6.528 333.368964,7.298 C333.368964,7.97 334.124964,8.404 335.104964,8.404 Z M345.298964,10.168 C347.538964,10.168 348.980964,9.034 348.980964,7.424 C348.980964,6.024 347.748964,5.282 346.796964,5.184 C347.832964,5.002 348.840964,4.232 348.840964,3.056 C348.840964,1.502 347.496964,0.522 345.312964,0.522 C343.674964,0.522 342.498964,1.152 341.742964,2.006 L342.736964,3.252 C343.394964,2.622 344.206964,2.286 345.116964,2.286 C346.082964,2.286 346.852964,2.65 346.852964,3.392 C346.852964,4.078 346.152964,4.386 345.116964,4.386 C344.766964,4.386 344.122964,4.386 343.954964,4.372 L343.954964,6.164 C344.094964,6.15 344.724964,6.136 345.116964,6.136 C346.418964,6.136 346.992964,6.472 346.992964,7.214 C346.992964,7.914 346.362964,8.404 345.228964,8.404 C344.318964,8.404 343.296964,8.012 342.666964,7.34 L341.616964,8.67 C342.302964,9.51 343.590964,10.168 345.298964,10.168 Z M295.559964,27.168 C292.885964,27.168 291.695964,24.746 291.695964,22.338 C291.695964,19.93 292.885964,17.522 295.559964,17.522 C298.233964,17.522 299.423964,19.93 299.423964,22.338 C299.423964,24.746 298.233964,27.168 295.559964,27.168 Z M295.559964,25.404 C296.889964,25.404 297.393964,24.06 297.393964,22.338 C297.393964,20.616 296.903964,19.286 295.559964,19.286 C294.229964,19.286 293.725964,20.616 293.725964,22.338 C293.725964,24.06 294.229964,25.404 295.559964,25.404 Z M303.387964,27.154 C304.003964,27.154 304.521964,26.636 304.521964,26.02 C304.521964,25.404 304.003964,24.886 303.387964,24.886 C302.771964,24.886 302.253964,25.404 302.253964,26.02 C302.253964,26.636 302.771964,27.154 303.387964,27.154 Z M311.229964,27.168 C308.555964,27.168 307.365964,24.746 307.365964,22.338 C307.365964,19.93 308.555964,17.522 311.229964,17.522 C313.903964,17.522 315.093964,19.93 315.093964,22.338 C315.093964,24.746 313.903964,27.168 311.229964,27.168 Z M311.229964,25.404 C312.559964,25.404 313.063964,24.06 313.063964,22.338 C313.063964,20.616 312.573964,19.286 311.229964,19.286 C309.899964,19.286 309.395964,20.616 309.395964,22.338 C309.395964,24.06 309.899964,25.404 311.229964,25.404 Z M322.389964,27 L322.389964,17.662 L320.653964,17.662 L317.713964,20.616 L318.847964,21.806 L320.401964,20.224 L320.401964,27 L322.389964,27 Z M330.133964,27 L330.133964,17.662 L328.397964,17.662 L325.457964,20.616 L326.591964,21.806 L328.145964,20.224 L328.145964,27 L330.133964,27 Z" id="PPV~0.83-0.011" fill="#D32F45"></path>
                    <path d="M373.501964,177 L371.513964,177 L371.513964,167.662 L375.881964,167.662 C377.911964,167.662 379.017964,169.034 379.017964,170.672 C379.017964,172.296 377.897964,173.668 375.881964,173.668 L373.501964,173.668 L373.501964,177 Z M375.601964,171.918 C376.385964,171.918 376.987964,171.442 376.987964,170.672 C376.987964,169.888 376.385964,169.412 375.601964,169.412 L373.501964,169.412 L373.501964,171.918 L375.601964,171.918 Z M384.241964,177 L382.253964,177 L382.253964,167.662 L386.621964,167.662 C388.651964,167.662 389.757964,169.034 389.757964,170.672 C389.757964,172.296 388.637964,173.668 386.621964,173.668 L384.241964,173.668 L384.241964,177 Z M386.341964,171.918 C387.125964,171.918 387.727964,171.442 387.727964,170.672 C387.727964,169.888 387.125964,169.412 386.341964,169.412 L384.241964,169.412 L384.241964,171.918 L386.341964,171.918 Z M398.103964,177 L401.701964,167.662 L399.447964,167.662 L396.857964,174.83 L394.267964,167.662 L392.013964,167.662 L395.611964,177 L398.103964,177 Z M409.207964,167.662 C409.109964,168.908 408.899964,170.154 408.339964,170.154 C407.499964,170.154 407.905964,167.676 406.085964,167.676 C404.531964,167.676 404.139964,169.426 403.999964,171.092 L405.217964,171.232 C405.315964,170.028 405.525964,168.768 406.085964,168.768 C406.925964,168.768 406.519964,171.232 408.339964,171.232 C409.907964,171.232 410.271964,169.482 410.411964,167.802 L409.207964,167.662 Z M417.105964,177.168 C414.431964,177.168 413.241964,174.746 413.241964,172.338 C413.241964,169.93 414.431964,167.522 417.105964,167.522 C419.779964,167.522 420.969964,169.93 420.969964,172.338 C420.969964,174.746 419.779964,177.168 417.105964,177.168 Z M417.105964,175.404 C418.435964,175.404 418.939964,174.06 418.939964,172.338 C418.939964,170.616 418.449964,169.286 417.105964,169.286 C415.775964,169.286 415.271964,170.616 415.271964,172.338 C415.271964,174.06 415.775964,175.404 417.105964,175.404 Z M424.933964,177.154 C425.549964,177.154 426.067964,176.636 426.067964,176.02 C426.067964,175.404 425.549964,174.886 424.933964,174.886 C424.317964,174.886 423.799964,175.404 423.799964,176.02 C423.799964,176.636 424.317964,177.154 424.933964,177.154 Z M432.971964,177.168 C431.011964,177.168 429.219964,176.314 429.219964,174.578 C429.219964,173.444 430.101964,172.576 431.221964,172.184 C430.185964,171.82 429.373964,171.148 429.373964,169.986 C429.373964,168.222 431.235964,167.522 432.971964,167.522 C434.693964,167.522 436.569964,168.222 436.569964,169.986 C436.569964,171.148 435.743964,171.82 434.721964,172.184 C435.827964,172.576 436.723964,173.444 436.723964,174.578 C436.723964,176.314 434.931964,177.168 432.971964,177.168 Z M432.971964,171.4 C433.545964,171.302 434.539964,171.008 434.539964,170.322 C434.539964,169.664 433.881964,169.286 432.971964,169.286 C432.047964,169.286 431.389964,169.664 431.389964,170.322 C431.389964,171.008 432.397964,171.302 432.971964,171.4 Z M432.971964,175.404 C433.923964,175.404 434.707964,174.97 434.707964,174.298 C434.707964,173.528 433.545964,173.164 432.971964,173.08 C432.383964,173.164 431.235964,173.528 431.235964,174.298 C431.235964,174.97 431.991964,175.404 432.971964,175.404 Z M443.445964,177.168 C441.485964,177.168 439.693964,176.314 439.693964,174.578 C439.693964,173.444 440.575964,172.576 441.695964,172.184 C440.659964,171.82 439.847964,171.148 439.847964,169.986 C439.847964,168.222 441.709964,167.522 443.445964,167.522 C445.167964,167.522 447.043964,168.222 447.043964,169.986 C447.043964,171.148 446.217964,171.82 445.195964,172.184 C446.301964,172.576 447.197964,173.444 447.197964,174.578 C447.197964,176.314 445.405964,177.168 443.445964,177.168 Z M443.445964,171.4 C444.019964,171.302 445.013964,171.008 445.013964,170.322 C445.013964,169.664 444.355964,169.286 443.445964,169.286 C442.521964,169.286 441.863964,169.664 441.863964,170.322 C441.863964,171.008 442.871964,171.302 443.445964,171.4 Z M443.445964,175.404 C444.397964,175.404 445.181964,174.97 445.181964,174.298 C445.181964,173.528 444.019964,173.164 443.445964,173.08 C442.857964,173.164 441.709964,173.528 441.709964,174.298 C441.709964,174.97 442.465964,175.404 443.445964,175.404 Z M396.052964,194.168 C393.378964,194.168 392.188964,191.746 392.188964,189.338 C392.188964,186.93 393.378964,184.522 396.052964,184.522 C398.726964,184.522 399.916964,186.93 399.916964,189.338 C399.916964,191.746 398.726964,194.168 396.052964,194.168 Z M396.052964,192.404 C397.382964,192.404 397.886964,191.06 397.886964,189.338 C397.886964,187.616 397.396964,186.286 396.052964,186.286 C394.722964,186.286 394.218964,187.616 394.218964,189.338 C394.218964,191.06 394.722964,192.404 396.052964,192.404 Z M403.880964,194.154 C404.496964,194.154 405.014964,193.636 405.014964,193.02 C405.014964,192.404 404.496964,191.886 403.880964,191.886 C403.264964,191.886 402.746964,192.404 402.746964,193.02 C402.746964,193.636 403.264964,194.154 403.880964,194.154 Z M411.722964,194.168 C409.048964,194.168 407.858964,191.746 407.858964,189.338 C407.858964,186.93 409.048964,184.522 411.722964,184.522 C414.396964,184.522 415.586964,186.93 415.586964,189.338 C415.586964,191.746 414.396964,194.168 411.722964,194.168 Z M411.722964,192.404 C413.052964,192.404 413.556964,191.06 413.556964,189.338 C413.556964,187.616 413.066964,186.286 411.722964,186.286 C410.392964,186.286 409.888964,187.616 409.888964,189.338 C409.888964,191.06 410.392964,192.404 411.722964,192.404 Z M422.560964,194.168 C419.718964,194.168 418.528964,191.984 418.528964,189.352 C418.528964,186.524 420.124964,184.522 422.882964,184.522 C424.016964,184.522 424.968964,184.9 425.640964,185.488 L424.744964,187.014 C424.240964,186.538 423.708964,186.286 422.882964,186.286 C421.510964,186.286 420.544964,187.448 420.544964,188.932 C420.544964,189.002 420.544964,189.058 420.558964,189.128 C420.992964,188.498 421.930964,187.924 422.952964,187.924 C424.632964,187.924 426.144964,188.974 426.144964,190.962 C426.144964,192.782 424.688964,194.168 422.560964,194.168 Z M422.448964,192.404 C423.526964,192.404 424.114964,191.676 424.114964,191.032 C424.114964,190.052 423.274964,189.632 422.392964,189.632 C421.692964,189.632 421.006964,189.954 420.558964,190.514 C420.642964,191.41 421.146964,192.404 422.448964,192.404 Z" id="PPV~0.88-0.06" fill="#D32F45"></path>
                    <path d="M145.852964,230 L143.864964,230 L143.864964,220.662 L148.232964,220.662 C150.262964,220.662 151.368964,222.034 151.368964,223.672 C151.368964,225.296 150.248964,226.668 148.232964,226.668 L145.852964,226.668 L145.852964,230 Z M147.952964,224.918 C148.736964,224.918 149.338964,224.442 149.338964,223.672 C149.338964,222.888 148.736964,222.412 147.952964,222.412 L145.852964,222.412 L145.852964,224.918 L147.952964,224.918 Z M156.592964,230 L154.604964,230 L154.604964,220.662 L158.972964,220.662 C161.002964,220.662 162.108964,222.034 162.108964,223.672 C162.108964,225.296 160.988964,226.668 158.972964,226.668 L156.592964,226.668 L156.592964,230 Z M158.692964,224.918 C159.476964,224.918 160.078964,224.442 160.078964,223.672 C160.078964,222.888 159.476964,222.412 158.692964,222.412 L156.592964,222.412 L156.592964,224.918 L158.692964,224.918 Z M170.454964,230 L174.052964,220.662 L171.798964,220.662 L169.208964,227.83 L166.618964,220.662 L164.364964,220.662 L167.962964,230 L170.454964,230 Z M181.558964,220.662 C181.460964,221.908 181.250964,223.154 180.690964,223.154 C179.850964,223.154 180.256964,220.676 178.436964,220.676 C176.882964,220.676 176.490964,222.426 176.350964,224.092 L177.568964,224.232 C177.666964,223.028 177.876964,221.768 178.436964,221.768 C179.276964,221.768 178.870964,224.232 180.690964,224.232 C182.258964,224.232 182.622964,222.482 182.762964,220.802 L181.558964,220.662 Z M189.456964,230.168 C186.782964,230.168 185.592964,227.746 185.592964,225.338 C185.592964,222.93 186.782964,220.522 189.456964,220.522 C192.130964,220.522 193.320964,222.93 193.320964,225.338 C193.320964,227.746 192.130964,230.168 189.456964,230.168 Z M189.456964,228.404 C190.786964,228.404 191.290964,227.06 191.290964,225.338 C191.290964,223.616 190.800964,222.286 189.456964,222.286 C188.126964,222.286 187.622964,223.616 187.622964,225.338 C187.622964,227.06 188.126964,228.404 189.456964,228.404 Z M197.284964,230.154 C197.900964,230.154 198.418964,229.636 198.418964,229.02 C198.418964,228.404 197.900964,227.886 197.284964,227.886 C196.668964,227.886 196.150964,228.404 196.150964,229.02 C196.150964,229.636 196.668964,230.154 197.284964,230.154 Z M204.762964,230.154 C203.628964,230.154 202.676964,229.776 202.018964,229.188 L202.900964,227.662 C203.404964,228.138 203.936964,228.39 204.762964,228.39 C206.302964,228.39 207.100964,227.088 207.100964,225.758 L207.100964,225.548 C206.652964,226.178 205.714964,226.752 204.692964,226.752 C203.012964,226.752 201.514964,225.702 201.514964,223.714 C201.514964,221.894 202.956964,220.508 205.084964,220.508 C207.926964,220.508 209.116964,222.692 209.116964,225.324 C209.116964,228.152 207.520964,230.154 204.762964,230.154 Z M205.252964,225.044 C205.966964,225.044 206.638964,224.722 207.086964,224.162 C207.002964,223.266 206.498964,222.272 205.196964,222.272 C204.118964,222.272 203.530964,223 203.530964,223.644 C203.530964,224.624 204.384964,225.044 205.252964,225.044 Z M216.412964,230 L216.412964,220.662 L214.676964,220.662 L211.736964,223.616 L212.870964,224.806 L214.424964,223.224 L214.424964,230 L216.412964,230 Z M162.859964,247.168 C160.185964,247.168 158.995964,244.746 158.995964,242.338 C158.995964,239.93 160.185964,237.522 162.859964,237.522 C165.533964,237.522 166.723964,239.93 166.723964,242.338 C166.723964,244.746 165.533964,247.168 162.859964,247.168 Z M162.859964,245.404 C164.189964,245.404 164.693964,244.06 164.693964,242.338 C164.693964,240.616 164.203964,239.286 162.859964,239.286 C161.529964,239.286 161.025964,240.616 161.025964,242.338 C161.025964,244.06 161.529964,245.404 162.859964,245.404 Z M170.687964,247.154 C171.303964,247.154 171.821964,246.636 171.821964,246.02 C171.821964,245.404 171.303964,244.886 170.687964,244.886 C170.071964,244.886 169.553964,245.404 169.553964,246.02 C169.553964,246.636 170.071964,247.154 170.687964,247.154 Z M178.529964,247.168 C175.855964,247.168 174.665964,244.746 174.665964,242.338 C174.665964,239.93 175.855964,237.522 178.529964,237.522 C181.203964,237.522 182.393964,239.93 182.393964,242.338 C182.393964,244.746 181.203964,247.168 178.529964,247.168 Z M178.529964,245.404 C179.859964,245.404 180.363964,244.06 180.363964,242.338 C180.363964,240.616 179.873964,239.286 178.529964,239.286 C177.199964,239.286 176.695964,240.616 176.695964,242.338 C176.695964,244.06 177.199964,245.404 178.529964,245.404 Z M189.199964,247.168 C186.525964,247.168 185.335964,244.746 185.335964,242.338 C185.335964,239.93 186.525964,237.522 189.199964,237.522 C191.873964,237.522 193.063964,239.93 193.063964,242.338 C193.063964,244.746 191.873964,247.168 189.199964,247.168 Z M189.199964,245.404 C190.529964,245.404 191.033964,244.06 191.033964,242.338 C191.033964,240.616 190.543964,239.286 189.199964,239.286 C187.869964,239.286 187.365964,240.616 187.365964,242.338 C187.365964,244.06 187.869964,245.404 189.199964,245.404 Z M199.491964,247.168 C201.731964,247.168 203.173964,246.034 203.173964,244.424 C203.173964,243.024 201.941964,242.282 200.989964,242.184 C202.025964,242.002 203.033964,241.232 203.033964,240.056 C203.033964,238.502 201.689964,237.522 199.505964,237.522 C197.867964,237.522 196.691964,238.152 195.935964,239.006 L196.929964,240.252 C197.587964,239.622 198.399964,239.286 199.309964,239.286 C200.275964,239.286 201.045964,239.65 201.045964,240.392 C201.045964,241.078 200.345964,241.386 199.309964,241.386 C198.959964,241.386 198.315964,241.386 198.147964,241.372 L198.147964,243.164 C198.287964,243.15 198.917964,243.136 199.309964,243.136 C200.611964,243.136 201.185964,243.472 201.185964,244.214 C201.185964,244.914 200.555964,245.404 199.421964,245.404 C198.511964,245.404 197.489964,245.012 196.859964,244.34 L195.809964,245.67 C196.495964,246.51 197.783964,247.168 199.491964,247.168 Z" id="PPV~0.91-0.003" fill="#D32F45"></path>
                </g>
            </g>
        </g>
    </g>
</svg>