<?xml version="1.0" encoding="UTF-8" standalone="no"?>
<svg width="321px" height="225px" viewBox="0 0 321 225" version="1.1" xmlns="http://www.w3.org/2000/svg" xmlns:xlink="http://www.w3.org/1999/xlink">
    <!-- Generator: Sketch 42 (36781) - http://www.bohemiancoding.com/sketch -->
    <title>Group 13</title>
    <desc>Created with Sketch.</desc>
    <defs></defs>
    <g id="POML" stroke="none" stroke-width="1" fill="none" fill-rule="evenodd">
        <g id="BaseHealth-Home" transform="translate(-560.000000, -256.000000)">
            <g id="Group-13" transform="translate(560.000000, 256.000000)">
                <g id="Group-3" transform="translate(17.143039, 0.242920)" stroke-width="4">
                    <path d="M0.00232075406,12.563159 C0.00232075406,12.563159 38.1392548,10.6699351 131.42526,100.775675 C224.711265,190.881414 281.325049,199.898053 301.41228,199.933726" id="Stroke-1" stroke="#00B1D6"></path>
                    <path d="M0.00162709639,199.39022 C0.00162709639,199.39022 38.133815,201.420021 131.637775,111.64859 C225.142465,21.8771584 281.777423,13.0633473 301.86502,13.09953" id="Stroke-3" stroke="#1F8CC8"></path>
                    <polyline id="Stroke-5" stroke="#C9C9C9" points="0.261894759 0.00168173327 0.00159058809 202.883945 301.319549 203.424138"></polyline>
                </g>
                <path d="M181.362889,108.089185 C181.362889,122.263516 169.545331,133.753632 154.968066,133.753632 C140.390353,133.753632 128.572794,122.263516 128.572794,108.089185 C128.572794,93.9152907 140.390353,82.424738 154.968066,82.424738 C169.545331,82.424738 181.362889,93.9152907 181.362889,108.089185 Z" id="Stroke-7" stroke="#E84686" stroke-width="4"></path>
                <path d="M276.575467,38.0054652 C277.743479,38.0054652 278.423486,37.3582834 278.79949,36.6951218 L277.82348,36.2237178 C277.599478,36.6551723 277.119472,36.998738 276.575467,36.998738 C275.599456,36.998738 274.895449,36.2556774 274.895449,35.2489501 C274.895449,34.2422228 275.599456,33.4991622 276.575467,33.4991622 C277.119472,33.4991622 277.599478,33.8427279 277.82348,34.2741824 L278.79949,33.7947885 C278.423486,33.123637 277.743479,32.4924349 276.575467,32.4924349 C274.96745,32.4924349 273.727436,33.6030309 273.727436,35.2489501 C273.727436,36.8868794 274.96745,38.0054652 276.575467,38.0054652 Z M283.952688,38.0054652 C282.336671,38.0054652 281.160658,36.8549198 281.160658,35.2489501 C281.160658,33.6429804 282.336671,32.4924349 283.952688,32.4924349 C285.560705,32.4924349 286.736718,33.6429804 286.736718,35.2489501 C286.736718,36.8549198 285.560705,38.0054652 283.952688,38.0054652 Z M283.952688,36.998738 C284.936698,36.998738 285.568705,36.2396976 285.568705,35.2489501 C285.568705,34.2502127 284.936698,33.4991622 283.952688,33.4991622 C282.960677,33.4991622 282.328671,34.2502127 282.328671,35.2489501 C282.328671,36.2396976 282.960677,36.998738 283.952688,36.998738 Z M291.37791,38.0054652 C292.809925,38.0054652 293.513932,37.2703945 293.513932,36.2956269 C293.513932,34.306142 290.4499,34.8734248 290.4499,34.0344854 C290.4499,33.7148895 290.721903,33.5071521 291.201908,33.5071521 C291.745914,33.5071521 292.32192,33.6909198 292.753924,34.0904147 L293.385931,33.2434854 C292.857925,32.7561016 292.153918,32.5004248 291.305909,32.5004248 C290.049896,32.5004248 289.281887,33.2354955 289.281887,34.1223743 C289.281887,36.127839 292.35392,35.4806572 292.35392,36.4074854 C292.35392,36.7190915 292.057917,36.998738 291.42591,36.998738 C290.689902,36.998738 290.105896,36.6631622 289.729892,36.2716572 L289.105886,37.158536 C289.609891,37.6618996 290.345899,38.0054652 291.37791,38.0054652 Z M298.483128,37.9095865 L298.483128,33.5790612 L300.035145,33.5790612 L300.035145,32.5803238 L295.779099,32.5803238 L295.779099,33.5790612 L297.339116,33.5790612 L297.339116,37.9095865 L298.483128,37.9095865 Z M309.229528,38.0054652 C307.613511,38.0054652 306.437498,36.8549198 306.437498,35.2489501 C306.437498,33.6429804 307.613511,32.4924349 309.229528,32.4924349 C310.837545,32.4924349 312.013558,33.6429804 312.013558,35.2489501 C312.013558,36.8549198 310.837545,38.0054652 309.229528,38.0054652 Z M309.229528,36.998738 C310.213539,36.998738 310.845545,36.2396976 310.845545,35.2489501 C310.845545,34.2502127 310.213539,33.4991622 309.229528,33.4991622 C308.237518,33.4991622 307.605511,34.2502127 307.605511,35.2489501 C307.605511,36.2396976 308.237518,36.998738 309.229528,36.998738 Z M315.886742,37.9095865 L315.886742,35.6963844 L318.470769,35.6963844 L318.470769,34.6976471 L315.886742,34.6976471 L315.886742,33.5790612 L318.52677,33.5790612 L318.52677,32.5803238 L314.75073,32.5803238 L314.75073,37.9095865 L315.886742,37.9095865 Z M272.447423,47.7074854 C273.879438,47.7074854 274.583446,46.9724147 274.583446,45.9976471 C274.583446,44.0081622 271.519413,44.575445 271.519413,43.7365057 C271.519413,43.4169097 271.791416,43.2091723 272.271421,43.2091723 C272.815427,43.2091723 273.391433,43.39294 273.823437,43.7924349 L274.455444,42.9455057 C273.927439,42.4581218 273.223431,42.202445 272.375422,42.202445 C271.119409,42.202445 270.351401,42.9375158 270.351401,43.8243945 C270.351401,45.8298592 273.423433,45.1826774 273.423433,46.1095057 C273.423433,46.4211117 273.12743,46.7007582 272.495423,46.7007582 C271.759416,46.7007582 271.175409,46.3651824 270.799405,45.9736774 L270.175399,46.8605562 C270.679404,47.3639198 271.415412,47.7074854 272.447423,47.7074854 Z M281.056657,47.6116067 L281.056657,46.6128693 L278.416629,46.6128693 L278.416629,45.3984046 L281.000657,45.3984046 L281.000657,44.3996673 L278.416629,44.3996673 L278.416629,43.2810814 L281.056657,43.2810814 L281.056657,42.282344 L277.280617,42.282344 L277.280617,47.6116067 L281.056657,47.6116067 Z M288.209876,47.6116067 L286.897862,47.6116067 L285.849851,45.7180006 L285.017842,45.7180006 L285.017842,47.6116067 L283.88183,47.6116067 L283.88183,42.282344 L286.377857,42.282344 C287.489868,42.282344 288.177876,43.0094248 288.177876,44.0001723 C288.177876,44.9349905 287.577869,45.446344 287.001863,45.5821723 L288.209876,47.6116067 Z M286.217855,44.7192632 C286.66586,44.7192632 287.009863,44.4476067 287.009863,43.9921824 C287.009863,43.552738 286.66586,43.2810814 286.217855,43.2810814 L285.017842,43.2810814 L285.017842,44.7192632 L286.217855,44.7192632 Z M293.803078,47.6116067 L295.8591,42.282344 L294.571087,42.282344 L293.091071,46.3731723 L291.611055,42.282344 L290.323041,42.282344 L292.379063,47.6116067 L293.803078,47.6116067 Z M299.428281,47.6116067 L299.428281,42.282344 L298.292269,42.282344 L298.292269,47.6116067 L299.428281,47.6116067 Z M305.013483,47.7074854 C306.181496,47.7074854 306.861503,47.0603036 307.237507,46.397142 L306.261497,45.925738 C306.037494,46.3571925 305.557489,46.7007582 305.013483,46.7007582 C304.037473,46.7007582 303.333465,45.9576976 303.333465,44.9509703 C303.333465,43.944243 304.037473,43.2011824 305.013483,43.2011824 C305.557489,43.2011824 306.037494,43.5447481 306.261497,43.9762026 L307.237507,43.4968087 C306.861503,42.8256572 306.181496,42.1944551 305.013483,42.1944551 C303.405466,42.1944551 302.165453,43.3050511 302.165453,44.9509703 C302.165453,46.5888996 303.405466,47.7074854 305.013483,47.7074854 Z M313.630718,47.6116067 L313.630718,46.6128693 L310.99069,46.6128693 L310.99069,45.3984046 L313.574717,45.3984046 L313.574717,44.3996673 L310.99069,44.3996673 L310.99069,43.2810814 L313.630718,43.2810814 L313.630718,42.282344 L309.854678,42.282344 L309.854678,47.6116067 L313.630718,47.6116067 Z M318.359911,47.7074854 C319.791926,47.7074854 320.495934,46.9724147 320.495934,45.9976471 C320.495934,44.0081622 317.431901,44.575445 317.431901,43.7365057 C317.431901,43.4169097 317.703904,43.2091723 318.183909,43.2091723 C318.727915,43.2091723 319.303921,43.39294 319.735925,43.7924349 L320.367932,42.9455057 C319.839927,42.4581218 319.135919,42.202445 318.28791,42.202445 C317.031897,42.202445 316.263889,42.9375158 316.263889,43.8243945 C316.263889,45.8298592 319.335921,45.1826774 319.335921,46.1095057 C319.335921,46.4211117 319.039918,46.7007582 318.407911,46.7007582 C317.671904,46.7007582 317.087897,46.3651824 316.711893,45.9736774 L316.087887,46.8605562 C316.591892,47.3639198 317.3279,47.7074854 318.359911,47.7074854 Z" id="COST-OF-SERVICES" fill="#138DCD"></path>
                <path d="M245.35232,155.000415 C243.736303,155.000415 242.56029,153.849869 242.56029,152.2439 C242.56029,150.63793 243.736303,149.487384 245.35232,149.487384 C246.960337,149.487384 248.136349,150.63793 248.136349,152.2439 C248.136349,153.849869 246.960337,155.000415 245.35232,155.000415 Z M245.35232,153.993687 C246.33633,153.993687 246.968337,153.234647 246.968337,152.2439 C246.968337,151.245162 246.33633,150.494112 245.35232,150.494112 C244.360309,150.494112 243.728302,151.245162 243.728302,152.2439 C243.728302,153.234647 244.360309,153.993687 245.35232,153.993687 Z M252.009533,154.904536 L250.873521,154.904536 L250.873521,149.575273 L253.369548,149.575273 C254.52956,149.575273 255.161567,150.358283 255.161567,151.293102 C255.161567,152.21993 254.52156,153.00294 253.369548,153.00294 L252.009533,153.00294 L252.009533,154.904536 Z M253.209546,152.004203 C253.657551,152.004203 254.001554,151.732546 254.001554,151.293102 C254.001554,150.845667 253.657551,150.574011 253.209546,150.574011 L252.009533,150.574011 L252.009533,152.004203 L253.209546,152.004203 Z M260.186763,154.904536 L260.186763,150.574011 L261.73878,150.574011 L261.73878,149.575273 L257.482734,149.575273 L257.482734,150.574011 L259.042751,150.574011 L259.042751,154.904536 L260.186763,154.904536 Z M265.539963,154.904536 L265.539963,149.575273 L264.403951,149.575273 L264.403951,154.904536 L265.539963,154.904536 Z M271.069164,155.000415 C269.453147,155.000415 268.277135,153.849869 268.277135,152.2439 C268.277135,150.63793 269.453147,149.487384 271.069164,149.487384 C272.677182,149.487384 273.853194,150.63793 273.853194,152.2439 C273.853194,153.849869 272.677182,155.000415 271.069164,155.000415 Z M271.069164,153.993687 C272.053175,153.993687 272.685182,153.234647 272.685182,152.2439 C272.685182,151.245162 272.053175,150.494112 271.069164,150.494112 C270.077154,150.494112 269.445147,151.245162 269.445147,152.2439 C269.445147,153.234647 270.077154,153.993687 271.069164,153.993687 Z M281.366417,154.904536 L281.366417,149.575273 L280.230405,149.575273 L280.230405,152.923041 L277.758378,149.575273 L276.590366,149.575273 L276.590366,154.904536 L277.726378,154.904536 L277.726378,151.42893 L280.270405,154.904536 L281.366417,154.904536 Z M286.263612,155.000415 C287.695627,155.000415 288.399634,154.265344 288.399634,153.290576 C288.399634,151.301092 285.335602,151.868374 285.335602,151.029435 C285.335602,150.709839 285.607605,150.502102 286.08761,150.502102 C286.631616,150.502102 287.207622,150.685869 287.639626,151.085364 L288.271633,150.238435 C287.743627,149.751051 287.03962,149.495374 286.191611,149.495374 C284.935598,149.495374 284.167589,150.230445 284.167589,151.117324 C284.167589,153.122788 287.239622,152.475607 287.239622,153.402435 C287.239622,153.714041 286.943619,153.993687 286.311612,153.993687 C285.575604,153.993687 284.991598,153.658112 284.615594,153.266607 L283.991588,154.153485 C284.495593,154.656849 285.231601,155.000415 286.263612,155.000415 Z M296.226003,154.904536 L296.226003,152.691334 L298.810031,152.691334 L298.810031,151.692597 L296.226003,151.692597 L296.226003,150.574011 L298.866031,150.574011 L298.866031,149.575273 L295.089991,149.575273 L295.089991,154.904536 L296.226003,154.904536 Z M304.13123,155.000415 C302.515213,155.000415 301.3392,153.849869 301.3392,152.2439 C301.3392,150.63793 302.515213,149.487384 304.13123,149.487384 C305.739247,149.487384 306.91526,150.63793 306.91526,152.2439 C306.91526,153.849869 305.739247,155.000415 304.13123,155.000415 Z M304.13123,153.993687 C305.115241,153.993687 305.747247,153.234647 305.747247,152.2439 C305.747247,151.245162 305.115241,150.494112 304.13123,150.494112 C303.13922,150.494112 302.507213,151.245162 302.507213,152.2439 C302.507213,153.234647 303.13922,153.993687 304.13123,153.993687 Z M313.980478,154.904536 L312.668464,154.904536 L311.620453,153.01093 L310.788444,153.01093 L310.788444,154.904536 L309.652432,154.904536 L309.652432,149.575273 L312.148458,149.575273 C313.26047,149.575273 313.948477,150.302354 313.948477,151.293102 C313.948477,152.22792 313.348471,152.739273 312.772465,152.875102 L313.980478,154.904536 Z M311.988457,152.012193 C312.436461,152.012193 312.780465,151.740536 312.780465,151.285112 C312.780465,150.845667 312.436461,150.574011 311.988457,150.574011 L310.788444,150.574011 L310.788444,152.012193 L311.988457,152.012193 Z M243.952305,164.606556 L243.952305,159.277294 L242.816293,159.277294 L242.816293,164.606556 L243.952305,164.606556 Z M251.72153,164.606556 L251.72153,159.277294 L250.585518,159.277294 L250.585518,162.625061 L248.113492,159.277294 L246.94548,159.277294 L246.94548,164.606556 L248.081492,164.606556 L248.081492,161.13095 L250.625519,164.606556 L251.72153,164.606556 Z M257.09073,164.606556 L257.09073,160.276031 L258.642747,160.276031 L258.642747,159.277294 L254.386701,159.277294 L254.386701,160.276031 L255.946718,160.276031 L255.946718,164.606556 L257.09073,164.606556 Z M265.083958,164.606556 L265.083958,163.607819 L262.44393,163.607819 L262.44393,162.393354 L265.027957,162.393354 L265.027957,161.394617 L262.44393,161.394617 L262.44393,160.276031 L265.083958,160.276031 L265.083958,159.277294 L261.307918,159.277294 L261.307918,164.606556 L265.083958,164.606556 Z M272.237177,164.606556 L270.925163,164.606556 L269.877152,162.71295 L269.045143,162.71295 L269.045143,164.606556 L267.909131,164.606556 L267.909131,159.277294 L270.405157,159.277294 C271.517169,159.277294 272.205177,160.004374 272.205177,160.995122 C272.205177,161.92994 271.60517,162.441294 271.029164,162.577122 L272.237177,164.606556 Z M270.245156,161.714213 C270.69316,161.714213 271.037164,161.442556 271.037164,160.987132 C271.037164,160.547687 270.69316,160.276031 270.245156,160.276031 L269.045143,160.276031 L269.045143,161.714213 L270.245156,161.714213 Z M277.830379,164.606556 L279.886401,159.277294 L278.598387,159.277294 L277.118372,163.368122 L275.638356,159.277294 L274.350342,159.277294 L276.406364,164.606556 L277.830379,164.606556 Z M286.09561,164.606556 L286.09561,163.607819 L283.455582,163.607819 L283.455582,162.393354 L286.039609,162.393354 L286.039609,161.394617 L283.455582,161.394617 L283.455582,160.276031 L286.09561,160.276031 L286.09561,159.277294 L282.31957,159.277294 L282.31957,164.606556 L286.09561,164.606556 Z M293.696834,164.606556 L293.696834,159.277294 L292.560821,159.277294 L292.560821,162.625061 L290.088795,159.277294 L288.920783,159.277294 L288.920783,164.606556 L290.056795,164.606556 L290.056795,161.13095 L292.600822,164.606556 L293.696834,164.606556 Z M299.066033,164.606556 L299.066033,160.276031 L300.61805,160.276031 L300.61805,159.277294 L296.362005,159.277294 L296.362005,160.276031 L297.922021,160.276031 L297.922021,164.606556 L299.066033,164.606556 Z M304.419233,164.606556 L304.419233,159.277294 L303.283221,159.277294 L303.283221,164.606556 L304.419233,164.606556 Z M309.948435,164.702435 C308.332418,164.702435 307.156405,163.551889 307.156405,161.94592 C307.156405,160.33995 308.332418,159.189405 309.948435,159.189405 C311.556452,159.189405 312.732464,160.33995 312.732464,161.94592 C312.732464,163.551889 311.556452,164.702435 309.948435,164.702435 Z M309.948435,163.695708 C310.932445,163.695708 311.564452,162.936667 311.564452,161.94592 C311.564452,160.947182 310.932445,160.196132 309.948435,160.196132 C308.956424,160.196132 308.324418,160.947182 308.324418,161.94592 C308.324418,162.936667 308.956424,163.695708 309.948435,163.695708 Z M320.245687,164.606556 L320.245687,159.277294 L319.109675,159.277294 L319.109675,162.625061 L316.637649,159.277294 L315.469636,159.277294 L315.469636,164.606556 L316.605648,164.606556 L316.605648,161.13095 L319.149675,164.606556 L320.245687,164.606556 Z" id="OPTIONS-FOR-INTERVEN" fill="#4EBCEC"></path>
                <path d="M115.531513,11.0863541 L117.051529,5.75709151 L115.779515,5.75709151 L114.843505,9.60822282 L113.835495,5.75709151 L112.947485,5.75709151 L111.931474,9.60822282 L110.995464,5.75709151 L109.723451,5.75709151 L111.251467,11.0863541 L112.45948,11.0863541 L113.38749,7.4269804 L114.3235,11.0863541 L115.531513,11.0863541 Z M124.324749,11.0863541 L124.324749,5.75709151 L123.180737,5.75709151 L123.180737,7.85044504 L120.66071,7.85044504 L120.66071,5.75709151 L119.524698,5.75709151 L119.524698,11.0863541 L120.66071,11.0863541 L120.66071,8.84119252 L123.180737,8.84119252 L123.180737,11.0863541 L124.324749,11.0863541 Z M131.085964,11.0863541 L131.085964,10.0876168 L128.445936,10.0876168 L128.445936,8.87315212 L131.029963,8.87315212 L131.029963,7.87441474 L128.445936,7.87441474 L128.445936,6.75582888 L131.085964,6.75582888 L131.085964,5.75709151 L127.309923,5.75709151 L127.309923,11.0863541 L131.085964,11.0863541 Z M138.239182,11.0863541 L136.927169,11.0863541 L135.879157,9.19274808 L135.047149,9.19274808 L135.047149,11.0863541 L133.911136,11.0863541 L133.911136,5.75709151 L136.407163,5.75709151 C137.519175,5.75709151 138.207182,6.48417232 138.207182,7.47491979 C138.207182,8.40973797 137.607176,8.92109151 137.03117,9.05691979 L138.239182,11.0863541 Z M136.247161,8.1940107 C136.695166,8.1940107 137.03917,7.92235414 137.03917,7.46692989 C137.03917,7.02748545 136.695166,6.75582888 136.247161,6.75582888 L135.047149,6.75582888 L135.047149,8.1940107 L136.247161,8.1940107 Z M144.768395,11.0863541 L144.768395,10.0876168 L142.128367,10.0876168 L142.128367,8.87315212 L144.712394,8.87315212 L144.712394,7.87441474 L142.128367,7.87441474 L142.128367,6.75582888 L144.768395,6.75582888 L144.768395,5.75709151 L140.992355,5.75709151 L140.992355,11.0863541 L144.768395,11.0863541 Z M154.17878,11.1822329 C155.346793,11.1822329 156.0268,10.5350511 156.402804,9.87188949 L155.426794,9.40048545 C155.202791,9.83193999 154.722786,10.1755057 154.17878,10.1755057 C153.20277,10.1755057 152.498763,9.43244504 152.498763,8.42571777 C152.498763,7.4189905 153.20277,6.67592989 154.17878,6.67592989 C154.722786,6.67592989 155.202791,7.01949555 155.426794,7.4509501 L156.402804,6.97155616 C156.0268,6.30040464 155.346793,5.66920262 154.17878,5.66920262 C152.570763,5.66920262 151.33075,6.77979858 151.33075,8.42571777 C151.33075,10.0636471 152.570763,11.1822329 154.17878,11.1822329 Z M161.556002,11.1822329 C159.939985,11.1822329 158.763972,10.0316875 158.763972,8.42571777 C158.763972,6.81974808 159.939985,5.66920262 161.556002,5.66920262 C163.164019,5.66920262 164.340031,6.81974808 164.340031,8.42571777 C164.340031,10.0316875 163.164019,11.1822329 161.556002,11.1822329 Z M161.556002,10.1755057 C162.540012,10.1755057 163.172019,9.41646525 163.172019,8.42571777 C163.172019,7.4269804 162.540012,6.67592989 161.556002,6.67592989 C160.563991,6.67592989 159.931984,7.4269804 159.931984,8.42571777 C159.931984,9.41646525 160.563991,10.1755057 161.556002,10.1755057 Z M168.981223,11.1822329 C170.413239,11.1822329 171.117246,10.4471622 171.117246,9.47239454 C171.117246,7.48290969 168.053214,8.05019252 168.053214,7.21125313 C168.053214,6.89165717 168.325217,6.68391979 168.805222,6.68391979 C169.349227,6.68391979 169.925234,6.86768747 170.357238,7.26718242 L170.989245,6.42025313 C170.461239,5.93286929 169.757232,5.67719252 168.909223,5.67719252 C167.653209,5.67719252 166.885201,6.41226323 166.885201,7.29914201 C166.885201,9.30460666 169.957234,8.65742484 169.957234,9.58425313 C169.957234,9.89585919 169.661231,10.1755057 169.029224,10.1755057 C168.293216,10.1755057 167.70921,9.83992989 167.333206,9.44842484 L166.709199,10.3353036 C167.213205,10.8386673 167.949213,11.1822329 168.981223,11.1822329 Z M176.086442,11.0863541 L176.086442,6.75582888 L177.638458,6.75582888 L177.638458,5.75709151 L173.382413,5.75709151 L173.382413,6.75582888 L174.94243,6.75582888 L174.94243,11.0863541 L176.086442,11.0863541 Z M182.151649,11.1822329 C183.583664,11.1822329 184.287672,10.4471622 184.287672,9.47239454 C184.287672,7.48290969 181.223639,8.05019252 181.223639,7.21125313 C181.223639,6.89165717 181.495642,6.68391979 181.975647,6.68391979 C182.519653,6.68391979 183.095659,6.86768747 183.527664,7.26718242 L184.15967,6.42025313 C183.631665,5.93286929 182.927657,5.67719252 182.079648,5.67719252 C180.823635,5.67719252 180.055627,6.41226323 180.055627,7.29914201 C180.055627,9.30460666 183.12766,8.65742484 183.12766,9.58425313 C183.12766,9.89585919 182.831656,10.1755057 182.19965,10.1755057 C181.463642,10.1755057 180.879636,9.83992989 180.503632,9.44842484 L179.879625,10.3353036 C180.38363,10.8386673 181.119638,11.1822329 182.151649,11.1822329 Z M115.219509,20.7883743 L113.931496,20.7883743 L113.595492,19.8855158 L111.307468,19.8855158 L110.971464,20.7883743 L109.68345,20.7883743 L111.739472,15.4591117 L113.163487,15.4591117 L115.219509,20.7883743 Z M113.283489,18.8867784 L112.45148,16.5936774 L111.619471,18.8867784 L113.283489,18.8867784 Z M121.980724,20.7883743 L120.66871,20.7883743 L119.620699,18.8947683 L118.78869,18.8947683 L118.78869,20.7883743 L117.652678,20.7883743 L117.652678,15.4591117 L120.148705,15.4591117 C121.260716,15.4591117 121.948724,16.1861925 121.948724,17.17694 C121.948724,18.1117582 121.348717,18.6231117 120.772711,18.75894 L121.980724,20.7883743 Z M119.988703,17.8960309 C120.436708,17.8960309 120.780711,17.6243743 120.780711,17.1689501 C120.780711,16.7295057 120.436708,16.4578491 119.988703,16.4578491 L118.78869,16.4578491 L118.78869,17.8960309 L119.988703,17.8960309 Z M128.509936,20.7883743 L128.509936,19.789637 L125.869908,19.789637 L125.869908,18.5751723 L128.453936,18.5751723 L128.453936,17.5764349 L125.869908,17.5764349 L125.869908,16.4578491 L128.509936,16.4578491 L128.509936,15.4591117 L124.733896,15.4591117 L124.733896,20.7883743 L128.509936,20.7883743 Z M139.65634,20.7883743 L138.344326,20.7883743 L137.296315,18.8947683 L136.464307,18.8947683 L136.464307,20.7883743 L135.328294,20.7883743 L135.328294,15.4591117 L137.824321,15.4591117 C138.936333,15.4591117 139.62434,16.1861925 139.62434,17.17694 C139.62434,18.1117582 139.024334,18.6231117 138.448328,18.75894 L139.65634,20.7883743 Z M137.664319,17.8960309 C138.112324,17.8960309 138.456328,17.6243743 138.456328,17.1689501 C138.456328,16.7295057 138.112324,16.4578491 137.664319,16.4578491 L136.464307,16.4578491 L136.464307,17.8960309 L137.664319,17.8960309 Z M143.545525,20.7883743 L143.545525,15.4591117 L142.409513,15.4591117 L142.409513,20.7883743 L143.545525,20.7883743 Z M148.44272,20.8842531 C149.874735,20.8842531 150.578742,20.1491824 150.578742,19.1744147 C150.578742,17.1849299 147.51471,17.7522127 147.51471,16.9132733 C147.51471,16.5936774 147.786713,16.38594 148.266718,16.38594 C148.810723,16.38594 149.38673,16.5697077 149.818734,16.9692026 L150.450741,16.1222733 C149.922735,15.6348895 149.218728,15.3792127 148.370719,15.3792127 C147.114705,15.3792127 146.346697,16.1142834 146.346697,17.0011622 C146.346697,19.0066269 149.41873,18.359445 149.41873,19.2862733 C149.41873,19.5978794 149.122727,19.8775259 148.49072,19.8775259 C147.754712,19.8775259 147.170706,19.5419501 146.794702,19.150445 L146.170695,20.0373238 C146.674701,20.5406875 147.410709,20.8842531 148.44272,20.8842531 Z M154.411926,20.7883743 L154.411926,15.4591117 L153.275914,15.4591117 L153.275914,20.7883743 L154.411926,20.7883743 Z M162.181151,20.7883743 L162.181151,15.4591117 L161.045139,15.4591117 L161.045139,18.8068794 L158.573113,15.4591117 L157.405101,15.4591117 L157.405101,20.7883743 L158.541113,20.7883743 L158.541113,17.3127683 L161.08514,20.7883743 L162.181151,20.7883743 Z M167.766353,20.8842531 C168.726364,20.8842531 169.486372,20.4927481 170.030378,19.8855158 L170.030378,17.8401016 L167.486351,17.8401016 L167.486351,18.8308491 L168.894365,18.8308491 L168.894365,19.470041 C168.678363,19.6697885 168.238359,19.8775259 167.766353,19.8775259 C166.790343,19.8775259 166.086336,19.1344652 166.086336,18.127738 C166.086336,17.1210107 166.790343,16.3779501 167.766353,16.3779501 C168.326359,16.3779501 168.782364,16.6975461 169.030367,17.0730713 L169.966377,16.5617178 C169.566373,15.9305158 168.870365,15.3712228 167.766353,15.3712228 C166.198337,15.3712228 164.918323,16.4418693 164.918323,18.127738 C164.918323,19.8056168 166.198337,20.8842531 167.766353,20.8842531 Z M174.063563,20.3968693 C174.063563,19.8775259 173.72756,19.5818996 173.351556,19.5818996 C173.007552,19.5818996 172.719549,19.869536 172.719549,20.2210915 C172.719549,20.5566673 172.959552,20.7963642 173.263555,20.7963642 C173.327555,20.7963642 173.391556,20.7803844 173.415556,20.7723945 C173.351556,21.052041 173.055553,21.3876168 172.79955,21.523445 L173.239555,21.8829905 C173.73556,21.5314349 174.063563,20.9961117 174.063563,20.3968693 Z M183.737952,20.7883743 L180.841921,20.7883743 L180.841921,15.4591117 L183.649951,15.4591117 C184.665962,15.4591117 185.185967,16.1062935 185.185967,16.8173945 C185.185967,17.4805562 184.769963,17.9359804 184.265957,18.0398491 C184.841964,18.127738 185.289968,18.679041 185.289968,19.3422026 C185.289968,20.1491824 184.761963,20.7883743 183.737952,20.7883743 Z M183.401948,17.5764349 C183.785952,17.5764349 184.025955,17.3607077 184.025955,17.017142 C184.025955,16.6895562 183.785952,16.4578491 183.401948,16.4578491 L181.977933,16.4578491 L181.977933,17.5764349 L183.401948,17.5764349 Z M183.449949,19.789637 C183.873953,19.789637 184.129956,19.5659198 184.129956,19.1824046 C184.129956,18.8468289 183.889953,18.5751723 183.449949,18.5751723 L181.977933,18.5751723 L181.977933,19.789637 L183.449949,19.789637 Z M190.491166,20.8842531 C192.115184,20.8842531 192.899192,19.9734046 192.899192,18.6550713 L192.899192,15.4591117 L191.73918,15.4591117 L191.73918,18.6231117 C191.73918,19.3661723 191.315175,19.8775259 190.491166,19.8775259 C189.667158,19.8775259 189.235153,19.3661723 189.235153,18.6231117 L189.235153,15.4591117 L188.083141,15.4591117 L188.083141,18.6550713 C188.083141,19.9734046 188.867149,20.8842531 190.491166,20.8842531 Z M198.268392,20.7883743 L198.268392,16.4578491 L199.820408,16.4578491 L199.820408,15.4591117 L195.564363,15.4591117 L195.564363,16.4578491 L197.12438,16.4578491 L197.12438,20.7883743 L198.268392,20.7883743 Z M111.379468,30.4903945 L111.379468,25.1611319 L110.243456,25.1611319 L110.243456,30.4903945 L111.379468,30.4903945 Z M120.156705,30.4903945 L120.156705,25.1611319 L118.556688,25.1611319 L117.260674,28.4929198 L115.96466,25.1611319 L114.372643,25.1611319 L114.372643,30.4903945 L115.508655,30.4903945 L115.508655,26.6472531 L117.012671,30.4903945 L117.508676,30.4903945 L119.012692,26.6472531 L119.012692,30.4903945 L120.156705,30.4903945 Z M124.285891,30.4903945 L123.149879,30.4903945 L123.149879,25.1611319 L125.645906,25.1611319 C126.805918,25.1611319 127.437925,25.944142 127.437925,26.8789602 C127.437925,27.8057885 126.797918,28.5887986 125.645906,28.5887986 L124.285891,28.5887986 L124.285891,30.4903945 Z M125.485904,27.5900612 C125.933909,27.5900612 126.277913,27.3184046 126.277913,26.8789602 C126.277913,26.4315259 125.933909,26.1598693 125.485904,26.1598693 L124.285891,26.1598693 L124.285891,27.5900612 L125.485904,27.5900612 Z M134.471142,30.4903945 L133.183129,30.4903945 L132.847125,29.587536 L130.559101,29.587536 L130.223097,30.4903945 L128.935084,30.4903945 L130.991105,25.1611319 L132.415121,25.1611319 L134.471142,30.4903945 Z M132.535122,28.5887986 L131.703113,26.2956976 L130.871104,28.5887986 L132.535122,28.5887986 Z M139.224336,30.5862733 C140.392348,30.5862733 141.072355,29.9390915 141.448359,29.2759299 L140.472349,28.8045259 C140.248347,29.2359804 139.768342,29.5795461 139.224336,29.5795461 C138.248325,29.5795461 137.544318,28.8364854 137.544318,27.8297582 C137.544318,26.8230309 138.248325,26.0799703 139.224336,26.0799703 C139.768342,26.0799703 140.248347,26.423536 140.472349,26.8549905 L141.448359,26.3755966 C141.072355,25.704445 140.392348,25.073243 139.224336,25.073243 C137.616319,25.073243 136.376306,26.183839 136.376306,27.8297582 C136.376306,29.4676875 137.616319,30.5862733 139.224336,30.5862733 Z M146.441555,30.4903945 L146.441555,26.1598693 L147.993572,26.1598693 L147.993572,25.1611319 L143.737527,25.1611319 L143.737527,26.1598693 L145.297543,26.1598693 L145.297543,30.4903945 L146.441555,30.4903945 Z M151.794755,30.4903945 L151.794755,28.2771925 L154.378783,28.2771925 L154.378783,27.2784551 L151.794755,27.2784551 L151.794755,26.1598693 L154.434783,26.1598693 L154.434783,25.1611319 L150.658743,25.1611319 L150.658743,30.4903945 L151.794755,30.4903945 Z M159.571981,30.5862733 C161.195998,30.5862733 161.980006,29.6754248 161.980006,28.3570915 L161.980006,25.1611319 L160.819994,25.1611319 L160.819994,28.3251319 C160.819994,29.0681925 160.395989,29.5795461 159.571981,29.5795461 C158.747972,29.5795461 158.315967,29.0681925 158.315967,28.3251319 L158.315967,25.1611319 L157.163955,25.1611319 L157.163955,28.3570915 C157.163955,29.6754248 157.947963,30.5862733 159.571981,30.5862733 Z M168.325217,30.4903945 L168.325217,29.4916572 L166.069193,29.4916572 L166.069193,25.1611319 L164.92518,25.1611319 L164.92518,30.4903945 L168.325217,30.4903945 Z M177.615601,30.5862733 C178.783613,30.5862733 179.463621,29.9390915 179.839625,29.2759299 L178.863614,28.8045259 C178.639612,29.2359804 178.159607,29.5795461 177.615601,29.5795461 C176.639591,29.5795461 175.935583,28.8364854 175.935583,27.8297582 C175.935583,26.8230309 176.639591,26.0799703 177.615601,26.0799703 C178.159607,26.0799703 178.639612,26.423536 178.863614,26.8549905 L179.839625,26.3755966 C179.463621,25.704445 178.783613,25.073243 177.615601,25.073243 C176.007584,25.073243 174.767571,26.183839 174.767571,27.8297582 C174.767571,29.4676875 176.007584,30.5862733 177.615601,30.5862733 Z M187.376848,30.4903945 L186.088834,30.4903945 L185.75283,29.587536 L183.464806,29.587536 L183.128802,30.4903945 L181.840789,30.4903945 L183.896811,25.1611319 L185.320826,25.1611319 L187.376848,30.4903945 Z M185.440827,28.5887986 L184.608818,26.2956976 L183.776809,28.5887986 L185.440827,28.5887986 Z M194.138062,30.4903945 L192.826048,30.4903945 L191.778037,28.5967885 L190.946028,28.5967885 L190.946028,30.4903945 L189.810016,30.4903945 L189.810016,25.1611319 L192.306043,25.1611319 C193.418055,25.1611319 194.106062,25.8882127 194.106062,26.8789602 C194.106062,27.8137784 193.506056,28.3251319 192.930049,28.4609602 L194.138062,30.4903945 Z M192.146041,27.5980511 C192.594046,27.5980511 192.93805,27.3263945 192.93805,26.8709703 C192.93805,26.4315259 192.594046,26.1598693 192.146041,26.1598693 L190.946028,26.1598693 L190.946028,27.5980511 L192.146041,27.5980511 Z M200.667275,30.4903945 L200.667275,29.4916572 L198.027247,29.4916572 L198.027247,28.2771925 L200.611274,28.2771925 L200.611274,27.2784551 L198.027247,27.2784551 L198.027247,26.1598693 L200.667275,26.1598693 L200.667275,25.1611319 L196.891234,25.1611319 L196.891234,30.4903945 L200.667275,30.4903945 Z M112.779483,40.2882935 C111.163466,40.2882935 109.987454,39.1377481 109.987454,37.5317784 C109.987454,35.9258087 111.163466,34.7752632 112.779483,34.7752632 C114.3875,34.7752632 115.563513,35.9258087 115.563513,37.5317784 C115.563513,39.1377481 114.3875,40.2882935 112.779483,40.2882935 Z M112.779483,39.2815663 C113.763494,39.2815663 114.3955,38.5225259 114.3955,37.5317784 C114.3955,36.533041 113.763494,35.7819905 112.779483,35.7819905 C111.787473,35.7819905 111.155466,36.533041 111.155466,37.5317784 C111.155466,38.5225259 111.787473,39.2815663 112.779483,39.2815663 Z M119.436697,40.1924147 L118.300685,40.1924147 L118.300685,34.8631521 L120.796711,34.8631521 C121.956724,34.8631521 122.58873,35.6461622 122.58873,36.5809804 C122.58873,37.5078087 121.948724,38.2908188 120.796711,38.2908188 L119.436697,38.2908188 L119.436697,40.1924147 Z M120.63671,37.2920814 C121.084714,37.2920814 121.428718,37.0204248 121.428718,36.5809804 C121.428718,36.1335461 121.084714,35.8618895 120.63671,35.8618895 L119.436697,35.8618895 L119.436697,37.2920814 L120.63671,37.2920814 Z M127.613927,40.1924147 L127.613927,35.8618895 L129.165943,35.8618895 L129.165943,34.8631521 L124.909898,34.8631521 L124.909898,35.8618895 L126.469915,35.8618895 L126.469915,40.1924147 L127.613927,40.1924147 Z M132.967126,40.1924147 L132.967126,34.8631521 L131.831114,34.8631521 L131.831114,40.1924147 L132.967126,40.1924147 Z M138.496328,40.2882935 C136.880311,40.2882935 135.704298,39.1377481 135.704298,37.5317784 C135.704298,35.9258087 136.880311,34.7752632 138.496328,34.7752632 C140.104345,34.7752632 141.280358,35.9258087 141.280358,37.5317784 C141.280358,39.1377481 140.104345,40.2882935 138.496328,40.2882935 Z M138.496328,39.2815663 C139.480339,39.2815663 140.112345,38.5225259 140.112345,37.5317784 C140.112345,36.533041 139.480339,35.7819905 138.496328,35.7819905 C137.504318,35.7819905 136.872311,36.533041 136.872311,37.5317784 C136.872311,38.5225259 137.504318,39.2815663 138.496328,39.2815663 Z M148.79358,40.1924147 L148.79358,34.8631521 L147.657568,34.8631521 L147.657568,38.2109198 L145.185542,34.8631521 L144.01753,34.8631521 L144.01753,40.1924147 L145.153542,40.1924147 L145.153542,36.7168087 L147.697569,40.1924147 L148.79358,40.1924147 Z M153.690775,40.2882935 C155.12279,40.2882935 155.826798,39.5532228 155.826798,38.5784551 C155.826798,36.5889703 152.762765,37.1562531 152.762765,36.3173137 C152.762765,35.9977178 153.034768,35.7899804 153.514773,35.7899804 C154.058779,35.7899804 154.634785,35.9737481 155.06679,36.373243 L155.698797,35.5263137 C155.170791,35.0389299 154.466784,34.7832531 153.618775,34.7832531 C152.362761,34.7832531 151.594753,35.5183238 151.594753,36.4052026 C151.594753,38.4106673 154.666786,37.7634854 154.666786,38.6903137 C154.666786,39.0019198 154.370782,39.2815663 153.738776,39.2815663 C153.002768,39.2815663 152.418762,38.9459905 152.042758,38.5544854 L151.418751,39.4413642 C151.922757,39.9447279 152.658764,40.2882935 153.690775,40.2882935 Z M166.845201,40.1924147 L165.533187,40.1924147 L164.485176,38.2988087 L163.653167,38.2988087 L163.653167,40.1924147 L162.517155,40.1924147 L162.517155,34.8631521 L165.013181,34.8631521 C166.125193,34.8631521 166.8132,35.5902329 166.8132,36.5809804 C166.8132,37.5157986 166.213194,38.0271521 165.637188,38.1629804 L166.845201,40.1924147 Z M164.85318,37.3000713 C165.301184,37.3000713 165.645188,37.0284147 165.645188,36.5729905 C165.645188,36.1335461 165.301184,35.8618895 164.85318,35.8618895 L163.653167,35.8618895 L163.653167,37.3000713 L164.85318,37.3000713 Z M173.374413,40.1924147 L173.374413,39.1936774 L170.734385,39.1936774 L170.734385,37.9792127 L173.318412,37.9792127 L173.318412,36.9804753 L170.734385,36.9804753 L170.734385,35.8618895 L173.374413,35.8618895 L173.374413,34.8631521 L169.598373,34.8631521 L169.598373,40.1924147 L173.374413,40.1924147 Z M181.983647,40.1924147 L181.983647,34.8631521 L180.38363,34.8631521 L179.087617,38.19494 L177.791603,34.8631521 L176.199586,34.8631521 L176.199586,40.1924147 L177.335598,40.1924147 L177.335598,36.3492733 L178.839614,40.1924147 L179.335619,40.1924147 L180.839635,36.3492733 L180.839635,40.1924147 L181.983647,40.1924147 Z M189.952875,40.1924147 L188.664861,40.1924147 L188.328858,39.2895562 L186.040833,39.2895562 L185.70483,40.1924147 L184.416816,40.1924147 L186.472838,34.8631521 L187.896853,34.8631521 L189.952875,40.1924147 Z M188.016854,38.2908188 L187.184846,35.9977178 L186.352837,38.2908188 L188.016854,38.2908188 Z M193.522056,40.1924147 L193.522056,34.8631521 L192.386044,34.8631521 L192.386044,40.1924147 L193.522056,40.1924147 Z M201.291281,40.1924147 L201.291281,34.8631521 L200.155269,34.8631521 L200.155269,38.2109198 L197.683243,34.8631521 L196.51523,34.8631521 L196.51523,40.1924147 L197.651243,40.1924147 L197.651243,36.7168087 L200.19527,40.1924147 L201.291281,40.1924147 Z" id="WHERE-COSTS-ARE-RISI" fill="#ED2378"></path>
                <path d="M-62.9820452,104.185461 L-62.9820452,98.8561985 L-64.1180572,98.8561985 L-64.1180572,104.185461 L-62.9820452,104.185461 Z M-55.8985413,104.185461 L-55.8985413,98.8561985 L-57.0345534,98.8561985 L-57.0345534,102.203966 L-59.5065797,98.8561985 L-60.6745921,98.8561985 L-60.6745921,104.185461 L-59.53858,104.185461 L-59.53858,100.709855 L-56.994553,104.185461 L-55.8985413,104.185461 Z M-50.9990607,104.28134 C-49.8310483,104.28134 -49.1510411,103.634158 -48.7750371,102.970996 L-49.7510475,102.499592 C-49.9750498,102.931047 -50.4550549,103.274613 -50.9990607,103.274613 C-51.9750711,103.274613 -52.6790786,102.531552 -52.6790786,101.524825 C-52.6790786,100.518097 -51.9750711,99.7750368 -50.9990607,99.7750368 C-50.4550549,99.7750368 -49.9750498,100.118602 -49.7510475,100.550057 L-48.7750371,100.070663 C-49.1510411,99.3995116 -49.8310483,98.7683096 -50.9990607,98.7683096 C-52.6070778,98.7683096 -53.847091,99.8789055 -53.847091,101.524825 C-53.847091,103.162754 -52.6070778,104.28134 -50.9990607,104.28134 Z M-42.515542,104.185461 L-43.827556,104.185461 L-44.8755671,102.291855 L-45.7075759,102.291855 L-45.7075759,104.185461 L-46.843588,104.185461 L-46.843588,98.8561985 L-44.3475615,98.8561985 C-43.2355497,98.8561985 -42.5475424,99.5832793 -42.5475424,100.574027 C-42.5475424,101.508845 -43.1475487,102.020198 -43.7235549,102.156027 L-42.515542,104.185461 Z M-44.5075632,101.293118 C-44.0595584,101.293118 -43.7155548,101.021461 -43.7155548,100.566037 C-43.7155548,100.126592 -44.0595584,99.8549358 -44.5075632,99.8549358 L-45.7075759,99.8549358 L-45.7075759,101.293118 L-44.5075632,101.293118 Z M-36.6720514,104.185461 L-36.6720514,103.186724 L-39.3120794,103.186724 L-39.3120794,101.972259 L-36.728052,101.972259 L-36.728052,100.973522 L-39.3120794,100.973522 L-39.3120794,99.8549358 L-36.6720514,99.8549358 L-36.6720514,98.8561985 L-40.4480915,98.8561985 L-40.4480915,104.185461 L-36.6720514,104.185461 Z M-29.5565472,104.185461 L-30.8445609,104.185461 L-31.1805644,103.282602 L-33.4685887,103.282602 L-33.8045923,104.185461 L-35.092606,104.185461 L-33.0365842,98.8561985 L-31.612569,98.8561985 L-29.5565472,104.185461 Z M-31.4925678,102.283865 L-32.3245766,99.9907641 L-33.1565854,102.283865 L-31.4925678,102.283865 Z M-25.9610804,104.28134 C-24.5290652,104.28134 -23.8250577,103.546269 -23.8250577,102.571501 C-23.8250577,100.582017 -26.8890903,101.149299 -26.8890903,100.31036 C-26.8890903,99.9907641 -26.6170874,99.7830267 -26.1370823,99.7830267 C-25.5930765,99.7830267 -25.0170704,99.9667944 -24.5850658,100.366289 L-23.9530591,99.5193601 C-24.4810647,99.0319762 -25.1850722,98.7762995 -26.0330812,98.7762995 C-27.2890945,98.7762995 -28.0571027,99.5113702 -28.0571027,100.398249 C-28.0571027,102.403714 -24.9850701,101.756532 -24.9850701,102.68336 C-24.9850701,102.994966 -25.2810732,103.274613 -25.9130799,103.274613 C-26.6490877,103.274613 -27.2330939,102.939037 -27.6090979,102.547532 L-28.2331045,103.434411 C-27.7290992,103.937774 -26.9930914,104.28134 -25.9610804,104.28134 Z M-20.6775957,104.185461 L-20.6775957,98.8561985 L-21.8136078,98.8561985 L-21.8136078,104.185461 L-20.6775957,104.185461 Z M-13.5940919,104.185461 L-13.5940919,98.8561985 L-14.7301039,98.8561985 L-14.7301039,102.203966 L-17.2021302,98.8561985 L-18.3701426,98.8561985 L-18.3701426,104.185461 L-17.2341305,104.185461 L-17.2341305,100.709855 L-14.6901035,104.185461 L-13.5940919,104.185461 Z M-8.69461125,104.28134 C-7.73460105,104.28134 -6.97459298,103.889835 -6.43058721,103.282602 L-6.43058721,101.237188 L-8.97461422,101.237188 L-8.97461422,102.227936 L-7.56659927,102.227936 L-7.56659927,102.867128 C-7.78260156,103.066875 -8.22260624,103.274613 -8.69461125,103.274613 C-9.67062161,103.274613 -10.3746291,102.531552 -10.3746291,101.524825 C-10.3746291,100.518097 -9.67062161,99.7750368 -8.69461125,99.7750368 C-8.1346053,99.7750368 -7.67860046,100.094633 -7.43059783,100.470158 L-6.49458789,99.9588045 C-6.89459213,99.3276025 -7.59059953,98.7683096 -8.69461125,98.7683096 C-10.2626279,98.7683096 -11.5426415,99.838956 -11.5426415,101.524825 C-11.5426415,103.202704 -10.2626279,104.28134 -8.69461125,104.28134 Z M1.62435554,104.28134 C2.79236794,104.28134 3.47237516,103.634158 3.84837915,102.970996 L2.87236879,102.499592 C2.64836641,102.931047 2.16836131,103.274613 1.62435554,103.274613 C0.648345173,103.274613 -0.0556623026,102.531552 -0.0556623026,101.524825 C-0.0556623026,100.518097 0.648345173,99.7750368 1.62435554,99.7750368 C2.16836131,99.7750368 2.64836641,100.118602 2.87236879,100.550057 L3.84837915,100.070663 C3.47237516,99.3995116 2.79236794,98.7683096 1.62435554,98.7683096 C0.016338462,98.7683096 -1.22367471,99.8789055 -1.22367471,101.524825 C-1.22367471,103.162754 0.016338462,104.28134 1.62435554,104.28134 Z M8.3158552,104.28134 C6.69983804,104.28134 5.52382555,103.130794 5.52382555,101.524825 C5.52382555,99.918855 6.69983804,98.7683096 8.3158552,98.7683096 C9.92387228,98.7683096 11.0998848,99.918855 11.0998848,101.524825 C11.0998848,103.130794 9.92387228,104.28134 8.3158552,104.28134 Z M8.3158552,103.274613 C9.29986565,103.274613 9.93187236,102.515572 9.93187236,101.524825 C9.93187236,100.526087 9.29986565,99.7750368 8.3158552,99.7750368 C7.32384467,99.7750368 6.69183795,100.526087 6.69183795,101.524825 C6.69183795,102.515572 7.32384467,103.274613 8.3158552,103.274613 Z M15.0553554,104.28134 C16.4873706,104.28134 17.1913781,103.546269 17.1913781,102.571501 C17.1913781,100.582017 14.1273455,101.149299 14.1273455,100.31036 C14.1273455,99.9907641 14.3993484,99.7830267 14.8793535,99.7830267 C15.4233593,99.7830267 15.9993654,99.9667944 16.43137,100.366289 L17.0633767,99.5193601 C16.5353711,99.0319762 15.8313636,98.7762995 14.9833546,98.7762995 C13.7273413,98.7762995 12.9593331,99.5113702 12.9593331,100.398249 C12.9593331,102.403714 16.0313657,101.756532 16.0313657,102.68336 C16.0313657,102.994966 15.7353626,103.274613 15.1033559,103.274613 C14.3673481,103.274613 13.7833419,102.939037 13.4073379,102.547532 L12.7833312,103.434411 C13.2873366,103.937774 14.0233444,104.28134 15.0553554,104.28134 Z M21.4748521,104.185461 L21.4748521,99.8549358 L23.0268686,99.8549358 L23.0268686,98.8561985 L18.7708234,98.8561985 L18.7708234,99.8549358 L20.33084,99.8549358 L20.33084,104.185461 L21.4748521,104.185461 Z M25.2143205,104.345259 L27.1103406,98.6964005 L26.3743328,98.6964005 L24.4783126,104.345259 L25.2143205,104.345259 Z M31.425815,104.28134 C29.8097979,104.28134 28.6337854,103.130794 28.6337854,101.524825 C28.6337854,99.918855 29.8097979,98.7683096 31.425815,98.7683096 C33.0338321,98.7683096 34.2098446,99.918855 34.2098446,101.524825 C34.2098446,103.130794 33.0338321,104.28134 31.425815,104.28134 Z M31.425815,103.274613 C32.4098255,103.274613 33.0418322,102.515572 33.0418322,101.524825 C33.0418322,100.526087 32.4098255,99.7750368 31.425815,99.7750368 C30.4338045,99.7750368 29.8017978,100.526087 29.8017978,101.524825 C29.8017978,102.515572 30.4338045,103.274613 31.425815,103.274613 Z M37.397307,104.185461 L36.261295,104.185461 L36.261295,98.8561985 L38.7573215,98.8561985 C39.9173338,98.8561985 40.5493405,99.6392086 40.5493405,100.574027 C40.5493405,101.500855 39.9093337,102.283865 38.7573215,102.283865 L37.397307,102.283865 L37.397307,104.185461 Z M38.5973198,101.285128 C39.0453245,101.285128 39.3893282,101.013471 39.3893282,100.574027 C39.3893282,100.126592 39.0453245,99.8549358 38.5973198,99.8549358 L37.397307,99.8549358 L37.397307,101.285128 L38.5973198,101.285128 Z M44.8888152,104.185461 L44.8888152,99.8549358 L46.4408317,99.8549358 L46.4408317,98.8561985 L42.1847865,98.8561985 L42.1847865,99.8549358 L43.744803,99.8549358 L43.744803,104.185461 L44.8888152,104.185461 Z M49.5562934,104.185461 L49.5562934,98.8561985 L48.4202813,98.8561985 L48.4202813,104.185461 L49.5562934,104.185461 Z M54.3997734,104.28134 C52.7837562,104.28134 51.6077438,103.130794 51.6077438,101.524825 C51.6077438,99.918855 52.7837562,98.7683096 54.3997734,98.7683096 C56.0077905,98.7683096 57.183803,99.918855 57.183803,101.524825 C57.183803,103.130794 56.0077905,104.28134 54.3997734,104.28134 Z M54.3997734,103.274613 C55.3837839,103.274613 56.0157906,102.515572 56.0157906,101.524825 C56.0157906,100.526087 55.3837839,99.7750368 54.3997734,99.7750368 C53.4077629,99.7750368 52.7757562,100.526087 52.7757562,101.524825 C52.7757562,102.515572 53.4077629,103.274613 54.3997734,103.274613 Z M64.0113041,104.185461 L64.0113041,98.8561985 L62.875292,98.8561985 L62.875292,102.203966 L60.4032658,98.8561985 L59.2352534,98.8561985 L59.2352534,104.185461 L60.3712654,104.185461 L60.3712654,100.709855 L62.9152924,104.185461 L64.0113041,104.185461 Z M68.2227774,104.28134 C69.6547926,104.28134 70.3588001,103.546269 70.3588001,102.571501 C70.3588001,100.582017 67.2947675,101.149299 67.2947675,100.31036 C67.2947675,99.9907641 67.5667704,99.7830267 68.0467755,99.7830267 C68.5907813,99.7830267 69.1667874,99.9667944 69.598792,100.366289 L70.2307987,99.5193601 C69.7027931,99.0319762 68.9987856,98.7762995 68.1507766,98.7762995 C66.8947633,98.7762995 66.1267551,99.5113702 66.1267551,100.398249 C66.1267551,102.403714 69.1987878,101.756532 69.1987878,102.68336 C69.1987878,102.994966 68.9027846,103.274613 68.2707779,103.274613 C67.5347701,103.274613 66.9507639,102.939037 66.5747599,102.547532 L65.9507533,103.434411 C66.4547586,103.937774 67.1907664,104.28134 68.2227774,104.28134 Z" id="INCREASING-COST/OPTI" fill="#474747" transform="translate(3.120371, 101.520830) rotate(-90.000000) translate(-3.120371, -101.520830) "></path>
                <g id="Group-11" transform="translate(48.000510, 213.687364)" fill="#474747">
                    <polygon id="Fill-1" points="177.91546 4.5449631 177.917392 6.77039113 234.171033 6.72411923 234.169101 4.4986912"></polygon>
                    <g id="Group-8">
                        <path d="M1.66401767,8.0444878 L1.66401767,2.71522517 L0.528005607,2.71522517 L0.528005607,8.0444878 L1.66401767,8.0444878 Z M8.7475215,8.0444878 L8.7475215,2.71522517 L7.61150943,2.71522517 L7.61150943,6.06299285 L5.13948318,2.71522517 L3.97147078,2.71522517 L3.97147078,8.0444878 L5.10748284,8.0444878 L5.10748284,4.56888174 L7.65150986,8.0444878 L8.7475215,8.0444878 Z M13.6470021,8.14036659 C14.8150145,8.14036659 15.4950218,7.49318477 15.8710257,6.83002315 L14.8950154,6.35861911 C14.671013,6.79007366 14.1910079,7.13363931 13.6470021,7.13363931 C12.6709918,7.13363931 11.9669843,6.39057871 11.9669843,5.38385143 C11.9669843,4.37712416 12.6709918,3.63406356 13.6470021,3.63406356 C14.1910079,3.63406356 14.671013,3.97762921 14.8950154,4.40908376 L15.8710257,3.92968982 C15.4950218,3.2585383 14.8150145,2.62733628 13.6470021,2.62733628 C12.0389851,2.62733628 10.7989719,3.73793224 10.7989719,5.38385143 C10.7989719,7.02178073 12.0389851,8.14036659 13.6470021,8.14036659 Z M22.1305208,8.0444878 L20.8185069,8.0444878 L19.7704958,6.15088174 L18.9384869,6.15088174 L18.9384869,8.0444878 L17.8024749,8.0444878 L17.8024749,2.71522517 L20.2985014,2.71522517 C21.4105132,2.71522517 22.0985205,3.44230598 22.0985205,4.43305345 C22.0985205,5.36787164 21.4985141,5.87922517 20.922508,6.01505345 L22.1305208,8.0444878 Z M20.1384997,5.15214436 C20.5865044,5.15214436 20.9305081,4.8804878 20.9305081,4.42506356 C20.9305081,3.98561911 20.5865044,3.71396255 20.1384997,3.71396255 L18.9384869,3.71396255 L18.9384869,5.15214436 L20.1384997,5.15214436 Z M27.9740115,8.0444878 L27.9740115,7.04575042 L25.3339834,7.04575042 L25.3339834,5.83128578 L27.9180109,5.83128578 L27.9180109,4.8325484 L25.3339834,4.8325484 L25.3339834,3.71396255 L27.9740115,3.71396255 L27.9740115,2.71522517 L24.1979714,2.71522517 L24.1979714,8.0444878 L27.9740115,8.0444878 Z M35.0895156,8.0444878 L33.801502,8.0444878 L33.4654984,7.14162921 L31.1774741,7.14162921 L30.8414705,8.0444878 L29.5534569,8.0444878 L31.6094787,2.71522517 L33.0334938,2.71522517 L35.0895156,8.0444878 Z M33.1534951,6.14289184 L32.3214862,3.84979083 L31.4894774,6.14289184 L33.1534951,6.14289184 Z M38.6849824,8.14036659 C40.1169976,8.14036659 40.8210051,7.40529588 40.8210051,6.4305282 C40.8210051,4.44104335 37.7569726,5.00832618 37.7569726,4.16938679 C37.7569726,3.84979083 38.0289755,3.64205345 38.5089806,3.64205345 C39.0529863,3.64205345 39.6289924,3.82582113 40.060997,4.22531608 L40.6930037,3.37838679 C40.1649981,2.89100295 39.4609907,2.63532618 38.6129817,2.63532618 C37.3569683,2.63532618 36.5889602,3.37039689 36.5889602,4.25727568 C36.5889602,6.26274032 39.6609928,5.61555851 39.6609928,6.54238679 C39.6609928,6.85399285 39.3649896,7.13363931 38.7329829,7.13363931 C37.9969751,7.13363931 37.4129689,6.79806356 37.0369649,6.40655851 L36.4129583,7.29343729 C36.9169637,7.79680093 37.6529715,8.14036659 38.6849824,8.14036659 Z M43.9684671,8.0444878 L43.9684671,2.71522517 L42.8324551,2.71522517 L42.8324551,8.0444878 L43.9684671,8.0444878 Z M51.051971,8.0444878 L51.051971,2.71522517 L49.9159589,2.71522517 L49.9159589,6.06299285 L47.4439326,2.71522517 L46.2759202,2.71522517 L46.2759202,8.0444878 L47.4119323,8.0444878 L47.4119323,4.56888174 L49.9559593,8.0444878 L51.051971,8.0444878 Z M55.9514516,8.14036659 C56.9114618,8.14036659 57.6714699,7.74886154 58.2154756,7.14162921 L58.2154756,5.09621507 L55.6714486,5.09621507 L55.6714486,6.08696255 L57.0794636,6.08696255 L57.0794636,6.72615446 C56.8634613,6.92590194 56.4234566,7.13363931 55.9514516,7.13363931 C54.9754412,7.13363931 54.2714338,6.39057871 54.2714338,5.38385143 C54.2714338,4.37712416 54.9754412,3.63406356 55.9514516,3.63406356 C56.5114575,3.63406356 56.9674624,3.95365952 57.215465,4.32918477 L58.151475,3.81783123 C57.7514707,3.18662921 57.0554633,2.62733628 55.9514516,2.62733628 C54.3834349,2.62733628 53.1034213,3.69798275 53.1034213,5.38385143 C53.1034213,7.06173022 54.3834349,8.14036659 55.9514516,8.14036659 Z M69.4624523,8.0444878 L69.4624523,2.71522517 L67.8624353,2.71522517 L66.5664215,6.04701305 L65.2704078,2.71522517 L63.6783909,2.71522517 L63.6783909,8.0444878 L64.8144029,8.0444878 L64.8144029,4.20134638 L66.3184189,8.0444878 L66.8144242,8.0444878 L68.3184401,4.20134638 L68.3184401,8.0444878 L69.4624523,8.0444878 Z M75.5459455,8.0444878 L75.5459455,7.04575042 L72.9059174,7.04575042 L72.9059174,5.83128578 L75.4899449,5.83128578 L75.4899449,4.8325484 L72.9059174,4.8325484 L72.9059174,3.71396255 L75.5459455,3.71396255 L75.5459455,2.71522517 L71.7699054,2.71522517 L71.7699054,8.0444878 L75.5459455,8.0444878 Z M83.4694582,8.0444878 L83.4694582,2.71522517 L81.8694412,2.71522517 L80.5734275,6.04701305 L79.2774137,2.71522517 L77.6853968,2.71522517 L77.6853968,8.0444878 L78.8214089,8.0444878 L78.8214089,4.20134638 L80.3254248,8.0444878 L80.8214301,8.0444878 L82.3254461,4.20134638 L82.3254461,8.0444878 L83.4694582,8.0444878 Z M88.6729421,8.0444878 L85.7769113,8.0444878 L85.7769113,2.71522517 L88.5849412,2.71522517 C89.6009519,2.71522517 90.1209575,3.36240699 90.1209575,4.073508 C90.1209575,4.73666962 89.704953,5.19209386 89.2009477,5.29596255 C89.7769538,5.38385143 90.2249586,5.93515446 90.2249586,6.59831608 C90.2249586,7.40529588 89.696953,8.0444878 88.6729421,8.0444878 Z M88.3369385,4.8325484 C88.7209426,4.8325484 88.9609451,4.61682113 88.9609451,4.27325547 C88.9609451,3.94566962 88.7209426,3.71396255 88.3369385,3.71396255 L86.9129234,3.71396255 L86.9129234,4.8325484 L88.3369385,4.8325484 Z M88.384939,7.04575042 C88.8089435,7.04575042 89.0649462,6.82203325 89.0649462,6.4385181 C89.0649462,6.10294234 88.8249437,5.83128578 88.384939,5.83128578 L86.9129234,5.83128578 L86.9129234,7.04575042 L88.384939,7.04575042 Z M96.1084496,8.0444878 L96.1084496,7.04575042 L93.4684216,7.04575042 L93.4684216,5.83128578 L96.0524491,5.83128578 L96.0524491,4.8325484 L93.4684216,4.8325484 L93.4684216,3.71396255 L96.1084496,3.71396255 L96.1084496,2.71522517 L92.3324096,2.71522517 L92.3324096,8.0444878 L96.1084496,8.0444878 Z M102.575947,8.0444878 L101.263933,8.0444878 L100.215922,6.15088174 L99.383913,6.15088174 L99.383913,8.0444878 L98.247901,8.0444878 L98.247901,2.71522517 L100.743927,2.71522517 C101.855939,2.71522517 102.543947,3.44230598 102.543947,4.43305345 C102.543947,5.36787164 101.94394,5.87922517 101.367934,6.01505345 L102.575947,8.0444878 Z M100.583926,5.15214436 C101.031931,5.15214436 101.375934,4.8804878 101.375934,4.42506356 C101.375934,3.98561911 101.031931,3.71396255 100.583926,3.71396255 L99.383913,3.71396255 L99.383913,5.15214436 L100.583926,5.15214436 Z M109.086873,8.0444878 L109.086873,2.71522517 L107.950861,2.71522517 L107.950861,8.0444878 L109.086873,8.0444878 Z M116.170377,8.0444878 L116.170377,2.71522517 L115.034365,2.71522517 L115.034365,6.06299285 L112.562339,2.71522517 L111.394326,2.71522517 L111.394326,8.0444878 L112.530338,8.0444878 L112.530338,4.56888174 L115.074365,8.0444878 L116.170377,8.0444878 Z M120.853855,8.0444878 L120.853855,3.71396255 L122.405872,3.71396255 L122.405872,2.71522517 L118.149827,2.71522517 L118.149827,3.71396255 L119.709843,3.71396255 L119.709843,8.0444878 L120.853855,8.0444878 Z M128.161362,8.0444878 L128.161362,7.04575042 L125.521334,7.04575042 L125.521334,5.83128578 L128.105361,5.83128578 L128.105361,4.8325484 L125.521334,4.8325484 L125.521334,3.71396255 L128.161362,3.71396255 L128.161362,2.71522517 L124.385322,2.71522517 L124.385322,8.0444878 L128.161362,8.0444878 Z M135.076864,8.0444878 L135.076864,2.71522517 L133.940852,2.71522517 L133.940852,6.06299285 L131.468825,2.71522517 L130.300813,2.71522517 L130.300813,8.0444878 L131.436825,8.0444878 L131.436825,4.56888174 L133.980852,8.0444878 L135.076864,8.0444878 Z M139.288337,8.14036659 C140.720352,8.14036659 141.42436,7.40529588 141.42436,6.4305282 C141.42436,4.44104335 138.360327,5.00832618 138.360327,4.16938679 C138.360327,3.84979083 138.63233,3.64205345 139.112335,3.64205345 C139.656341,3.64205345 140.232347,3.82582113 140.664352,4.22531608 L141.296358,3.37838679 C140.768353,2.89100295 140.064345,2.63532618 139.216336,2.63532618 C137.960323,2.63532618 137.192315,3.37039689 137.192315,4.25727568 C137.192315,6.26274032 140.264347,5.61555851 140.264347,6.54238679 C140.264347,6.85399285 139.968344,7.13363931 139.336338,7.13363931 C138.60033,7.13363931 138.016324,6.79806356 137.64032,6.40655851 L137.016313,7.29343729 C137.520318,7.79680093 138.256326,8.14036659 139.288337,8.14036659 Z M144.571822,8.0444878 L144.571822,2.71522517 L143.43581,2.71522517 L143.43581,8.0444878 L144.571822,8.0444878 Z M149.2553,8.0444878 L149.2553,3.71396255 L150.807317,3.71396255 L150.807317,2.71522517 L146.551271,2.71522517 L146.551271,3.71396255 L148.111288,3.71396255 L148.111288,8.0444878 L149.2553,8.0444878 Z M155.410794,8.0444878 L155.410794,5.86324537 L157.450816,2.71522517 L156.162802,2.71522517 L154.842788,4.8485282 L153.522774,2.71522517 L152.22676,2.71522517 L154.274782,5.86324537 L154.274782,8.0444878 L155.410794,8.0444878 Z" id="INCREASING-MEMBER-IN"></path>
                        <polygon id="Fill-2" points="230.696221 6.25295879e-05 230.705234 11.2078659 240.693506 5.59583535"></polygon>
                    </g>
                </g>
                <path d="M153.715918,48.191628 L153.715918,81.4261269" id="Line" stroke="#ED2378" stroke-width="4" stroke-linecap="square"></path>
            </g>
        </g>
    </g>
</svg>