<?xml version="1.0" standalone="no"?>
<!DOCTYPE svg PUBLIC "-//W3C//DTD SVG 20010904//EN"
 "http://www.w3.org/TR/2001/REC-SVG-20010904/DTD/svg10.dtd">
<svg version="1.0" xmlns="http://www.w3.org/2000/svg"
 width="500.000000pt" height="500.000000pt" viewBox="0 0 500.000000 500.000000"
 preserveAspectRatio="xMidYMid meet">
<metadata>
Created by potrace 1.11, written by Peter Selinger 2001-2013
</metadata>
<g transform="translate(0.000000,500.000000) scale(0.100000,-0.100000)"
fill="#000000" stroke="none">
<path d="M2382 4860 c-116 -41 -209 -145 -229 -257 -31 -171 45 -325 192 -394
136 -64 282 -41 395 63 65 59 101 140 104 238 5 108 -26 189 -101 264 -92 94
-241 129 -361 86z"/>
<path d="M1435 4604 c-5 -1 -29 -8 -52 -14 -88 -22 -195 -130 -228 -230 -42
-126 -12 -251 85 -350 72 -74 144 -105 245 -105 69 0 89 5 145 31 79 38 141
98 177 173 24 49 28 67 27 146 0 77 -5 98 -28 147 -35 74 -117 149 -194 178
-50 20 -149 33 -177 24z"/>
<path d="M3420 4595 c-185 -49 -297 -228 -260 -413 34 -168 190 -287 362 -277
100 6 172 38 240 108 65 67 91 134 91 237 0 72 -4 95 -28 147 -68 153 -247
240 -405 198z"/>
<path d="M2051 4010 c-137 -63 -170 -251 -61 -357 36 -35 105 -63 155 -63 115
0 219 103 217 215 -2 168 -161 273 -311 205z"/>
<path d="M2754 4012 c-177 -84 -167 -342 17 -411 14 -5 53 -8 86 -7 109 5 186
71 202 175 17 108 -20 190 -109 240 -41 23 -148 25 -196 3z"/>
<path d="M708 3865 c-2 -2 -20 -6 -41 -9 -151 -24 -277 -189 -270 -355 4 -108
58 -215 136 -275 81 -62 213 -83 320 -52 231 67 323 362 173 559 -38 51 -113
103 -168 118 -39 10 -144 20 -150 14z"/>
<path d="M4149 3855 c-98 -35 -184 -108 -223 -190 -22 -46 -35 -127 -30 -186
18 -211 216 -359 417 -312 117 27 199 92 249 198 85 183 -4 404 -194 477 -63
24 -168 30 -219 13z"/>
<path d="M3429 3679 c-76 -11 -126 -47 -172 -121 -79 -127 37 -316 195 -320
75 -1 166 60 203 137 19 42 19 128 -1 170 -40 85 -143 146 -225 134z"/>
<path d="M1421 3646 c-65 -44 -101 -112 -96 -184 9 -139 95 -227 218 -221 66
3 116 27 159 78 41 49 57 95 54 159 -4 72 -56 145 -129 183 -59 31 -147 24
-206 -15z"/>
<path d="M2443 3530 c-56 -25 -83 -63 -83 -117 0 -171 224 -199 275 -34 11 34
-13 103 -45 128 -43 35 -101 44 -147 23z"/>
<path d="M1995 3416 c-38 -17 -60 -42 -78 -86 -24 -62 -2 -125 58 -164 82 -54
205 14 205 114 0 100 -101 175 -185 136z"/>
<path d="M2915 3423 c-88 -22 -133 -133 -85 -210 31 -52 63 -67 137 -64 68 2
132 93 118 167 -6 35 -64 103 -88 105 -7 0 -23 2 -37 4 -14 1 -34 0 -45 -2z"/>
<path d="M2279 3121 c-17 -18 -29 -40 -29 -56 0 -39 50 -85 93 -85 74 0 118
100 65 150 -34 31 -92 27 -129 -9z"/>
<path d="M2593 3135 c-47 -33 -44 -118 6 -144 87 -47 171 55 110 133 -24 30
-80 36 -116 11z"/>
<path d="M1645 3072 c-43 -27 -54 -43 -64 -95 -21 -112 91 -201 189 -150 130
68 90 263 -55 263 -22 0 -53 -8 -70 -18z"/>
<path d="M3198 3064 c-46 -33 -62 -71 -55 -130 11 -102 127 -154 214 -97 33
22 54 59 59 106 13 115 -121 190 -218 121z"/>
<path d="M1131 3064 c-67 -19 -109 -54 -138 -112 -22 -46 -25 -62 -21 -121 5
-73 26 -115 77 -156 85 -69 224 -57 298 25 147 166 -7 426 -216 364z"/>
<path d="M3722 3056 c-58 -31 -76 -46 -106 -93 -54 -81 -38 -199 35 -270 71
-69 167 -83 254 -35 196 107 131 397 -93 415 -38 3 -60 -1 -90 -17z"/>
<path d="M2026 2977 c-18 -18 -26 -37 -26 -62 0 -48 13 -71 48 -83 62 -21 122
19 122 82 -1 46 -29 76 -77 83 -35 5 -45 2 -67 -20z"/>
<path d="M2846 2971 c-52 -54 -24 -127 56 -145 41 -9 92 39 92 86 0 36 -13 56
-51 76 -36 19 -68 14 -97 -17z"/>
<path d="M404 2845 c-102 -23 -198 -100 -243 -195 -22 -47 -26 -68 -26 -150 0
-82 4 -103 26 -151 31 -65 102 -139 162 -168 246 -119 534 86 502 357 -24 207
-224 353 -421 307z"/>
<path d="M4378 2826 c-67 -32 -113 -70 -148 -121 -114 -165 -76 -384 86 -496
63 -43 119 -60 199 -61 169 -2 325 135 344 302 14 121 -18 219 -97 297 -76 74
-131 97 -242 100 -81 2 -102 -1 -142 -21z"/>
<path d="M1893 2730 c-50 -21 -67 -97 -30 -134 41 -41 85 -45 124 -12 35 30
39 95 8 126 -24 23 -72 33 -102 20z"/>
<path d="M3005 2718 c-50 -44 -37 -122 24 -148 40 -16 74 -7 96 27 40 61 3
143 -65 143 -16 0 -41 -10 -55 -22z"/>
<path d="M1533 2623 c-78 -43 -104 -129 -60 -193 54 -79 151 -91 216 -26 33
34 36 41 36 95 0 50 -4 64 -25 86 -52 56 -110 69 -167 38z"/>
<path d="M3333 2621 c-117 -74 -81 -246 54 -258 109 -9 181 105 129 205 -33
65 -123 91 -183 53z"/>
<path d="M1893 2423 c-61 -32 -70 -87 -23 -135 27 -27 36 -30 72 -25 55 7 73
28 73 81 0 73 -60 111 -122 79z"/>
<path d="M3022 2424 c-56 -23 -69 -94 -26 -138 66 -66 167 -1 142 91 -13 50
-62 70 -116 47z"/>
<path d="M1128 2359 c-86 -23 -147 -98 -155 -190 -13 -137 81 -242 217 -242
63 0 103 17 150 65 65 64 84 158 50 236 -49 111 -150 162 -262 131z"/>
<path d="M3737 2356 c-91 -27 -151 -111 -150 -211 1 -150 130 -249 275 -212
51 13 122 77 142 128 43 106 8 212 -89 273 -52 32 -117 40 -178 22z"/>
<path d="M1648 2170 c-90 -49 -95 -179 -9 -237 92 -62 211 1 211 111 0 107
-110 176 -202 126z"/>
<path d="M3222 2173 c-50 -24 -82 -72 -82 -123 0 -153 195 -194 267 -56 16 32
12 92 -10 127 -32 53 -120 79 -175 52z"/>
<path d="M2062 2170 c-40 -9 -41 -10 -57 -56 -35 -104 90 -169 150 -78 43 67
-15 151 -93 134z"/>
<path d="M2852 2152 c-51 -39 -42 -116 18 -147 41 -21 55 -19 92 14 25 22 32
36 32 66 0 70 -85 110 -142 67z"/>
<path d="M2279 1991 c-44 -45 -34 -107 24 -134 91 -45 173 72 96 137 -41 35
-83 34 -120 -3z"/>
<path d="M2586 1993 c-55 -55 -17 -143 63 -145 40 -1 76 33 86 79 6 28 2 38
-23 63 -40 40 -88 41 -126 3z"/>
<path d="M1989 1837 c-60 -30 -94 -94 -78 -149 23 -84 100 -132 173 -108 50
16 88 69 94 129 5 56 -12 90 -62 120 -52 31 -78 33 -127 8z"/>
<path d="M2912 1849 c-113 -24 -138 -189 -39 -254 64 -42 162 -15 199 55 32
59 8 153 -46 182 -33 18 -79 25 -114 17z"/>
<path d="M698 1838 c-170 -22 -298 -167 -303 -343 -1 -42 22 -140 41 -177 30
-58 102 -124 167 -153 52 -24 75 -28 147 -28 110 0 190 33 253 103 73 81 92
130 92 240 0 82 -4 103 -27 152 -68 146 -213 227 -370 206z"/>
<path d="M4210 1839 c-248 -22 -393 -298 -273 -520 35 -66 100 -128 163 -158
46 -21 70 -25 142 -25 77 1 94 4 152 33 159 78 236 253 185 422 -48 164 -197
264 -369 248z"/>
<path d="M1465 1749 c-66 -36 -97 -66 -121 -116 -23 -47 -26 -62 -21 -114 8
-68 23 -102 64 -143 40 -41 83 -56 156 -56 53 0 71 5 109 29 151 96 134 317
-29 392 -46 21 -126 25 -158 8z"/>
<path d="M3386 1750 c-106 -32 -177 -159 -147 -262 31 -108 111 -171 212 -169
33 0 75 8 94 17 41 19 92 75 111 120 31 75 7 179 -58 243 -55 56 -133 74 -212
51z"/>
<path d="M2444 1725 c-89 -38 -113 -156 -47 -227 93 -99 269 -1 233 130 -11
42 -67 101 -98 103 -9 1 -27 3 -38 4 -12 1 -35 -3 -50 -10z"/>
<path d="M2064 1393 c-52 -17 -108 -76 -127 -132 -42 -128 33 -261 163 -288
56 -12 92 -7 141 18 171 87 160 324 -19 400 -50 22 -97 22 -158 2z"/>
<path d="M2777 1397 c-122 -38 -183 -182 -128 -299 24 -52 36 -67 80 -97 44
-32 152 -41 202 -17 116 55 168 189 114 296 -28 56 -57 83 -115 109 -50 23
-96 25 -153 8z"/>
<path d="M1377 1080 c-196 -61 -293 -273 -214 -469 13 -32 35 -72 48 -88 101
-123 283 -166 421 -98 139 68 209 185 203 342 -8 223 -238 381 -458 313z"/>
<path d="M3420 1085 c-106 -28 -190 -98 -237 -200 -23 -50 -27 -74 -28 -140 0
-71 4 -88 32 -146 119 -241 428 -277 596 -70 50 62 71 128 70 227 0 100 -28
167 -99 237 -94 92 -210 124 -334 92z"/>
<path d="M2360 802 c-62 -24 -154 -117 -185 -187 -88 -198 32 -436 244 -485
157 -37 318 44 393 198 29 58 33 76 33 147 0 71 -4 88 -33 147 -35 72 -103
141 -169 174 -54 27 -220 30 -283 6z"/>
</g>
</svg>
