<?xml version="1.0" encoding="UTF-8" standalone="no"?>
<svg width="14px" height="14px" viewBox="0 0 14 14" version="1.1" xmlns="http://www.w3.org/2000/svg" xmlns:xlink="http://www.w3.org/1999/xlink">
    <!-- Generator: Sketch 47.1 (45422) - http://www.bohemiancoding.com/sketch -->
    <title>Group</title>
    <desc>Created with Sketch.</desc>
    <defs></defs>
    <g id="Symbols" stroke="none" stroke-width="1" fill="none" fill-rule="evenodd">
        <g id="Group">
            <path d="M7.29993498,3.1338922 C7.29050804,2.79698114 7.59401848,2.47247285 7.94281519,2.48357981 C8.34151921,2.4961677 8.59031644,2.74366774 8.58772865,3.11797222 C8.58495602,3.51708224 8.34909773,3.77309762 7.93837898,3.77883622 C7.57775239,3.78383435 7.31176486,3.52874455 7.29993498,3.1338922" id="Fill-22" fill="#148DCD"></path>
            <path d="M6.53755447,3.14894212 C6.56638981,3.46678624 6.23164109,3.78888802 5.90336183,3.7805578 C5.50280939,3.77056154 5.2519789,3.49696014 5.24883659,3.14449934 C5.24550943,2.80221992 5.48968561,2.48752278 5.90169826,2.48178419 C6.27526378,2.47660094 6.55548414,2.83165336 6.53755447,3.14894212" id="Fill-24" fill="#148DCD"></path>
            <path d="M1.82661778,2.97334112 C2.40757595,2.96390021 2.81737049,3.44020358 2.84029089,3.92354137 C2.87152917,4.58070305 2.39463701,5.06311525 1.78114667,5.05145295 C1.20998513,5.04034599 0.803148059,4.60921091 0.777455032,4.06015695 C0.749543902,3.45982588 1.20924576,2.95168255 1.82661778,2.97334112" id="Fill-26" fill="#1F3366"></path>
            <path d="M1.8065994,10.9775333 C1.25669468,11.010484 0.74579161,10.5238141 0.778693473,9.89608585 C0.807343971,9.3516598 1.20512379,8.90478986 1.80863266,8.90275358 C2.37997905,8.90108754 2.85502279,9.36073048 2.84152933,10.0054894 C2.83117818,10.499749 2.40474786,11.0136309 1.8065994,10.9775333" id="Fill-28" fill="#1F3366"></path>
            <path d="M12.035086,10.9775333 C11.4735362,11.0397323 10.9715055,10.4616151 11.0129101,9.89349423 C11.0544996,9.32204124 11.4790815,8.89812568 12.0413706,8.90201312 C12.6114231,8.90608567 13.0578163,9.34295935 13.0724188,9.93921787 C13.0857274,10.4749435 12.5836968,11.0286253 12.035086,10.9775333" id="Fill-30" fill="#1F3366"></path>
            <path d="M11.014204,4.00123454 C11.0020045,3.4627322 11.4613366,2.95884654 12.0363799,2.96717676 C12.6214045,2.97550698 13.0742672,3.45588291 13.0716795,4.00900941 C13.0690917,4.55991452 12.6347132,5.05047183 12.0352708,5.05232299 C11.472612,5.05398904 11.0066255,4.60286143 11.014204,4.00123454" id="Fill-32" fill="#1F3366"></path>
            <path d="M13.8555386,6.97945424 C13.8873314,7.53035935 13.3584987,8.02869153 12.8207935,8.02184224 C12.2684859,8.01462271 11.797139,7.54276212 11.7965844,6.97815842 C11.7958451,6.40559474 12.2836429,5.93077229 12.834287,5.93410438 C13.355726,5.93743647 13.8849285,6.40429893 13.8555386,6.97945424" id="Fill-34" fill="#1F3366"></path>
            <path d="M10.9014874,12.1121646 C10.9353135,12.6854687 10.4282921,13.1634382 9.87191791,13.15844 C9.30260479,13.1534419 8.84142419,12.6695488 8.84216356,12.1195692 C8.84271808,11.5612595 9.30981362,11.0468222 9.97006897,11.0871775 C10.3992719,11.113464 10.9454798,11.5427479 10.9014874,12.1121646" id="Fill-36" fill="#1F3366"></path>
            <path d="M10.9014874,1.84106081 C10.9456646,2.3964087 10.4153532,2.90973527 9.80555966,2.86586279 C9.30038668,2.82939495 8.83994546,2.4195482 8.84419682,1.83680314 C8.84844818,1.2716441 9.28485996,0.796636531 9.9018623,0.800153734 C10.4231165,0.80311559 10.9325409,1.26960782 10.9014874,1.84106081" id="Fill-38" fill="#1F3366"></path>
            <path d="M4.99338505,12.1339528 C5.01704482,12.7005927 4.51261121,13.1596803 3.98340879,13.1583845 C3.36233993,13.1570887 2.94459718,12.6883751 2.93812772,12.1108133 C2.93202793,11.5495417 3.38137865,11.0582439 4.02610727,11.0891582 C4.48340619,11.1110019 5.03257154,11.516591 4.99338505,12.1339528" id="Fill-40" fill="#1F3366"></path>
            <path d="M0.00365129207,6.97121658 C-0.0497680235,6.39902313 0.51399984,5.92512626 1.0195425,5.93308624 C1.53820893,5.94141646 2.09014691,6.38699059 2.04171833,7.06821734 C2.00659836,7.56081093 1.58164678,8.01101295 1.00882167,8.01989852 C0.484794816,8.02822874 -0.0493983397,7.54063329 0.00365129207,6.97121658" id="Fill-42" fill="#1F3366"></path>
            <path d="M4.99338505,1.8370623 C5.03941069,2.37686046 4.51686257,2.90592189 3.88377899,2.86889869 C3.41723798,2.84150153 2.97638999,2.39574229 2.9464456,1.92943517 C2.90226838,1.24117401 3.48193265,0.783382228 3.97749384,0.797265925 C4.511687,0.812075202 5.0288747,1.26042607 4.99338505,1.8370623" id="Fill-44" fill="#1F3366"></path>
            <path d="M7.94743623,1.0390644 C7.97386863,1.62958433 7.46333524,2.08015659 6.92211809,2.07737985 C6.35853507,2.07460311 5.90511783,1.62606712 5.89402732,1.07978991 C5.8807187,0.431884033 6.374986,-0.00221290572 6.93025113,8.48586509e-06 C7.46241103,0.00222987745 7.96776884,0.444471918 7.94743623,1.0390644" id="Fill-46" fill="#1F3366"></path>
            <path d="M6.9211754,11.8972635 C7.43448141,11.8256236 8.01396084,12.3757883 7.95277816,13.0083295 C7.90749189,13.4783389 7.47348306,13.9551977 6.9348537,13.9577893 C6.34853512,13.960566 5.91119913,13.4785241 5.89105136,12.9352087 C5.87108843,12.3954105 6.36350732,11.8361752 6.9211754,11.8972635" id="Fill-48" fill="#1F3366"></path>
            <path d="M3.74015682,5.96959111 C3.7370145,6.30872356 3.44145227,6.61083281 3.0689958,6.60620492 C2.71668709,6.60176213 2.45938714,6.30557659 2.45125409,6.01198267 C2.43831516,5.54826717 2.72592919,5.29558388 3.11040039,5.29077087 C3.45808804,5.28632808 3.73941745,5.5902885 3.74015682,5.96959111" id="Fill-51" fill="#148DCD"></path>
            <path d="M4.11812158,10.4396233 C3.80278126,10.4672056 3.47450201,10.2259995 3.48245021,9.76061799 C3.48818031,9.42055996 3.78984233,9.13511114 4.12052452,9.14214555 C4.48189048,9.1497353 4.75878368,9.43629482 4.76747125,9.79153235 C4.7756043,10.1251113 4.48392374,10.4784977 4.11812158,10.4396233" id="Fill-53" fill="#148DCD"></path>
            <path d="M11.3938324,5.95700323 C11.3929082,6.34796814 11.0592685,6.60324306 10.7322831,6.6002812 C10.3498452,6.596764 10.10456,6.28410314 10.1004934,5.93849163 C10.0964269,5.60713405 10.4047432,5.28170018 10.7422646,5.28854947 C11.0790466,5.29521365 11.401226,5.55122903 11.3938324,5.95700323" id="Fill-55" fill="#148DCD"></path>
            <path d="M7.94348062,11.4705897 C7.55827005,11.4798455 7.29912167,11.1544116 7.30392756,10.8026913 C7.3089183,10.4407896 7.58433276,10.198843 7.8957914,10.1769993 C8.28525333,10.1499724 8.6052147,10.462263 8.59782102,10.8239796 C8.59116671,11.1592246 8.31723098,11.4852139 7.94348062,11.4705897" id="Fill-57" fill="#148DCD"></path>
            <path d="M9.72060631,10.4396233 C9.39972073,10.4914558 9.05499055,10.1404759 9.07735642,9.76320961 C9.09639514,9.44314411 9.32282649,9.15510366 9.71986694,9.14307113 C10.0847449,9.13196417 10.3568322,9.44258876 10.3671834,9.83521972 C10.3740225,10.0953077 10.0631184,10.4947879 9.72060631,10.4396233" id="Fill-59" fill="#148DCD"></path>
            <path d="M6.53755447,10.8402698 C6.55677803,11.1803279 6.22350804,11.4844734 5.89855594,11.4755878 C5.51223633,11.4652213 5.24587912,11.1647781 5.24680333,10.818241 C5.24772754,10.4850323 5.49338245,10.1910681 5.87692944,10.1757035 C6.26084611,10.1603389 6.5632475,10.5172425 6.53755447,10.8402698" id="Fill-61" fill="#148DCD"></path>
            <path d="M3.11045584,7.36995637 C3.42172964,7.32663923 3.74575753,7.66429075 3.74113648,8.012679 C3.73651543,8.36347375 3.43910478,8.67872624 3.09474428,8.66650859 C2.70010677,8.65243977 2.47034826,8.37421048 2.45149439,8.03841012 C2.42986788,7.65355402 2.75574419,7.33941223 3.11045584,7.36995637" id="Fill-63" fill="#148DCD"></path>
            <path d="M10.7466269,7.36995637 C11.0981962,7.34848291 11.3965311,7.66873353 11.3946826,8.00582971 C11.3924645,8.38587278 11.086736,8.67446857 10.7390483,8.66576812 C10.3455199,8.65577186 10.1074435,8.35606911 10.1020831,8.01175342 C10.0972772,7.69650093 10.3638192,7.34292943 10.7466269,7.36995637" id="Fill-65" fill="#148DCD"></path>
            <path d="M4.12205871,3.51502746 C4.40227907,3.47504241 4.77861722,3.7949228 4.76937512,4.17126355 C4.76105724,4.50928531 4.47510678,4.81435642 4.10727136,4.81398619 C3.74054498,4.81380107 3.49784754,4.5289076 3.48768123,4.1103604 C3.48065724,3.82194973 3.78509189,3.48207682 4.12205871,3.51502746" id="Fill-67" fill="#148DCD"></path>
            <path d="M10.3643922,4.16234097 C10.3956305,4.5048055 10.0107896,4.8317203 9.70949731,4.81728125 C9.36180965,4.80062081 9.08547098,4.49295808 9.07493499,4.19473626 C9.06236574,3.83783268 9.34683746,3.51036254 9.74572633,3.50962207 C10.0168894,3.50925184 10.4017303,3.82598526 10.3643922,4.16234097" id="Fill-69" fill="#148DCD"></path>
            <path d="M9.21354795,5.24078956 C9.44848203,5.24115979 9.6299968,5.4175753 9.62482123,5.64989584 C9.61964565,5.88203126 9.44164288,6.06622164 9.20800269,6.06474072 C8.96512041,6.06307467 8.8050473,5.86185362 8.80005657,5.66526046 C8.79395679,5.42775668 8.98138649,5.24041932 9.21354795,5.24078956" id="Fill-71" fill="#1F3366"></path>
            <path d="M8.26351592,8.87159856 C8.53005797,8.8790032 8.64373575,9.06745126 8.659817,9.27385556 C8.67645278,9.48988589 8.46388456,9.70184367 8.24909825,9.697586 C8.05815654,9.69388368 7.8383795,9.549123 7.8383795,9.27829834 C7.8383795,9.05486337 8.024885,8.84290559 8.26351592,8.87159856" id="Fill-73" fill="#1F3366"></path>
            <path d="M9.20985111,8.71387976 C8.97750481,8.72887415 8.80042625,8.50932662 8.79913236,8.29718372 C8.79765362,8.08430036 9.00024037,7.88937325 9.21558121,7.89307557 C9.43591278,7.89696301 9.62371217,8.08763245 9.62666965,8.30347767 C9.62962712,8.5265424 9.40633807,8.74090669 9.20985111,8.71387976" id="Fill-75" fill="#1F3366"></path>
            <path d="M6.00044081,4.68012883 C6.00044081,4.91670704 5.83556182,5.07350026 5.60284584,5.08608814 C5.39859551,5.09700999 5.19027867,4.88745871 5.19286645,4.6808693 C5.19582392,4.45465759 5.39656225,4.25973047 5.58898269,4.25528769 C5.8222532,4.24991933 6.00044081,4.43614599 6.00044081,4.68012883" id="Fill-77" fill="#1F3366"></path>
            <path d="M8.23469906,5.08307075 C8.04652999,5.10843164 7.84338872,4.91942824 7.8380283,4.68044353 C7.83211336,4.41498723 8.05688114,4.26282191 8.24634411,4.25615774 C8.46057589,4.2487531 8.66907758,4.45811925 8.66112938,4.67637098 C8.65318118,4.89721432 8.45022475,5.09899073 8.23469906,5.08307075" id="Fill-79" fill="#1F3366"></path>
            <path d="M6.9120442,10.0362001 C6.69097327,10.0362001 6.5174067,9.86052507 6.51574312,9.63838592 C6.51370986,9.39440307 6.70945746,9.20762106 6.93404039,9.21391501 C7.14771766,9.22002383 7.33644126,9.42735371 7.34180167,9.62561291 C7.34753177,9.84238371 7.13921493,10.0362001 6.9120442,10.0362001" id="Fill-81" fill="#1F3366"></path>
            <path d="M4.68007799,6.98363786 C4.67989315,7.21595839 4.50299943,7.39181856 4.26991377,7.39163344 C4.07786301,7.39126321 3.85845565,7.1789352 3.85475881,6.98956157 C3.85069229,6.78648935 4.06732702,6.56934833 4.26806535,6.56138834 C4.47083694,6.55361347 4.71261017,6.76594148 4.68007799,6.98363786" id="Fill-83" fill="#1F3366"></path>
            <path d="M4.23331507,5.64971072 C4.23423928,5.40498742 4.3983789,5.24023421 4.64107635,5.24078956 C4.87638011,5.2413449 5.03405027,5.41368787 5.03978037,5.66044745 C5.04458626,5.86944337 4.83516036,6.06881327 4.63959761,6.06640676 C4.39412754,6.06344491 4.22074581,5.8627792 4.23331507,5.64971072" id="Fill-85" fill="#1F3366"></path>
            <path d="M6.00044081,9.28627684 C6.00044081,9.50804576 5.80783553,9.69945567 5.58916753,9.70038125 C5.37401154,9.70130683 5.19194224,9.45769422 5.19157256,9.27498476 C5.19120288,9.07820649 5.38676563,8.86902545 5.60044289,8.86661894 C5.78935134,8.86439755 6.04683613,9.07524464 6.00044081,9.28627684" id="Fill-87" fill="#1F3366"></path>
            <path d="M6.91710887,3.91845068 C7.14945517,3.91845068 7.3524116,4.10949036 7.34132109,4.33107417 C7.33207899,4.51433897 7.15592464,4.7396251 6.90786678,4.73240558 C6.68993815,4.72592652 6.51563222,4.54488311 6.5160019,4.31200722 C6.51637159,4.09653224 6.69770151,3.91845068 6.91710887,3.91845068" id="Fill-89" fill="#1F3366"></path>
            <path d="M9.96156624,6.97889889 C9.96156624,7.21492174 9.78744515,7.38874564 9.55657759,7.39263307 C9.34678201,7.39615027 9.15657967,7.19067155 9.15547062,6.98908027 C9.15436157,6.76638576 9.34696685,6.56368378 9.56008959,6.56312843 C9.78892389,6.56257308 9.96156624,6.74120999 9.96156624,6.97889889" id="Fill-91" fill="#1F3366"></path>
            <path d="M4.64079908,8.71387976 C4.39958037,8.71369465 4.23359233,8.54597958 4.2330378,8.30403301 C4.23266812,8.04727717 4.42231593,7.88659651 4.63063278,7.89233511 C4.89107505,7.8991844 5.03820922,8.08892826 5.03950311,8.30699487 C5.040797,8.53024472 4.83432858,8.75071784 4.64079908,8.71387976" id="Fill-93" fill="#1F3366"></path>
            <path d="M6.48487452,5.06148623 C6.6408811,5.06185646 6.73921701,5.15978281 6.73903217,5.31435464 C6.73866248,5.45485766 6.61444871,5.5759235 6.47008717,5.57610862 C6.34624308,5.57629373 6.20557838,5.44597209 6.20317543,5.3289788 C6.2004028,5.19273345 6.33903425,5.061116 6.48487452,5.06148623" id="Fill-95" fill="#148DCD"></path>
            <path d="M8.12067008,7.93030239 C8.25708342,7.92937681 8.39442097,8.06303054 8.39460581,8.1970545 C8.39479065,8.31478825 8.24802617,8.46528753 8.13139091,8.46695358 C8.00588325,8.4684345 7.85800971,8.32182266 7.85874908,8.19631403 C7.85967329,8.06210496 7.98869295,7.93122797 8.12067008,7.93030239" id="Fill-97" fill="#148DCD"></path>
            <path d="M5.46349351,8.19855394 C5.46441772,8.03842863 5.56256878,7.93050602 5.70748485,7.9303209 C5.85110702,7.93013579 5.97291785,8.04879512 5.97772374,8.19355581 C5.98215995,8.3268393 5.83391672,8.47437673 5.69861244,8.46623162 C5.59454643,8.4601228 5.4409428,8.35608762 5.46349351,8.19855394" id="Fill-99" fill="#148DCD"></path>
            <path d="M5.2630879,7.16825401 C5.42648816,7.16825401 5.53036932,7.27191895 5.53055416,7.434821 C5.53055416,7.58069238 5.42205195,7.68361686 5.268818,7.68287639 C5.1361015,7.68232104 5.0011669,7.55329522 4.99950332,7.4255652 C4.99783974,7.29968634 5.1325895,7.16825401 5.2630879,7.16825401" id="Fill-101" fill="#148DCD"></path>
            <path d="M7.35690326,8.89318309 C7.22917749,8.8933682 7.0938732,8.77563445 7.09997299,8.65734535 C7.10866056,8.49407306 7.21938087,8.37726489 7.36910283,8.37800535 C7.4955347,8.37874582 7.63601456,8.50406933 7.63268741,8.62532028 C7.62880573,8.77211724 7.49645891,8.91780351 7.35690326,8.89318309" id="Fill-103" fill="#148DCD"></path>
            <path d="M6.46727757,8.89318309 C6.32698255,8.89318309 6.20923825,8.77952188 6.20369299,8.63864863 C6.1988871,8.52054465 6.33770338,8.37930117 6.45895968,8.3785607 C6.60572417,8.37763512 6.74176783,8.50962281 6.7389952,8.65012582 C6.73603773,8.79192465 6.62272963,8.89318309 6.46727757,8.89318309" id="Fill-105" fill="#148DCD"></path>
            <path d="M8.82022282,7.42754594 C8.82022282,7.58156242 8.72114755,7.68189528 8.5679136,7.68282086 C8.4237369,7.68393155 8.30451386,7.57119593 8.30839554,7.43772732 C8.31320143,7.27149318 8.41615838,7.16801336 8.57678601,7.16819847 C8.72909575,7.16856871 8.82022282,7.26556947 8.82022282,7.42754594" id="Fill-107" fill="#148DCD"></path>
            <path d="M7.61174482,5.31870487 C7.61174482,5.47364693 7.51285439,5.57472025 7.36017496,5.57620117 C7.20453806,5.57749698 7.09917817,5.4710553 7.09954785,5.31259604 C7.09991753,5.17746138 7.21544374,5.06194902 7.35074802,5.06157879 C7.51581186,5.06102344 7.61174482,5.15543258 7.61174482,5.31870487" id="Fill-109" fill="#148DCD"></path>
            <path d="M8.12089189,6.02438544 C7.99279644,6.02364497 7.86192836,5.89850658 7.85897089,5.77392354 C7.85582858,5.65045119 8.00702927,5.49069611 8.13124304,5.50661608 C8.25490229,5.52235094 8.4022213,5.64452748 8.3929792,5.7607803 C8.38225837,5.89480426 8.25508713,6.05437422 8.12089189,6.02438544" id="Fill-111" fill="#148DCD"></path>
            <path d="M5.53048022,6.5365828 C5.53029538,6.67208769 5.40793003,6.79963259 5.27299543,6.80463072 C5.1546966,6.80888839 4.99795065,6.65265051 4.99795065,6.53010374 C4.9977658,6.40681651 5.13787598,6.27427348 5.27096217,6.27186697 C5.39794857,6.26946046 5.53066507,6.40496535 5.53048022,6.5365828" id="Fill-113" fill="#148DCD"></path>
            <path d="M5.46356745,5.77246112 C5.46282808,5.61085488 5.55672778,5.51033691 5.70866784,5.50959645 C5.89036745,5.50867087 5.96448906,5.63343903 5.97428568,5.76209463 C5.98241872,5.86761073 5.87521041,6.03440021 5.7186493,6.02644022 C5.55950041,6.01848024 5.46430682,5.9322162 5.46356745,5.77246112" id="Fill-115" fill="#148DCD"></path>
            <path d="M8.82022282,6.54074791 C8.82022282,6.67273559 8.69286674,6.81934744 8.57881927,6.8062042 C8.43113058,6.78898842 8.32133447,6.68199139 8.31856184,6.5127954 C8.31652858,6.38154818 8.43408805,6.27103395 8.56735907,6.27177441 C8.72983512,6.27269999 8.82022282,6.36896029 8.82022282,6.54074791" id="Fill-117" fill="#148DCD"></path>
        </g>
    </g>
</svg>