<?xml version="1.0" encoding="UTF-8" standalone="no"?>
<svg width="155px" height="31px" viewBox="0 0 155 31" version="1.1" xmlns="http://www.w3.org/2000/svg" xmlns:xlink="http://www.w3.org/1999/xlink">
    <!-- Generator: Sketch 40.3 (33839) - http://www.bohemiancoding.com/sketch -->
    <title>Group 2</title>
    <desc>Created with Sketch.</desc>
    <defs>
        <polygon id="path-1" points="0.777187804 5 5.2600795 5 5.2600795 0.523781775 0.777187804 0.523781775"></polygon>
    </defs>
    <g id="Symbols" stroke="none" stroke-width="1" fill="none" fill-rule="evenodd">
        <g id="BaseHealth-Logo">
            <g id="Group-2">
                <g id="BaseHealth-Logo">
                    <path d="M15.834,6.7875 C15.813,6.0575 16.472,5.3545 17.228,5.3785 C18.093,5.4065 18.633,5.9425 18.627,6.7525 C18.621,7.6175 18.11,8.1715 17.219,8.1845 C16.437,8.1955 15.859,7.6425 15.834,6.7875" id="Fill-1" fill="#FFFFFF"></path>
                    <path d="M14.1804,6.8201 C14.2434,7.5081 13.5164,8.2061 12.8044,8.1881 C11.9364,8.1661 11.3924,7.5741 11.3854,6.8101 C11.3784,6.0691 11.9074,5.3871 12.8014,5.3751 C13.6114,5.3641 14.2194,6.1331 14.1804,6.8201" id="Fill-3" fill="#FFFFFF"></path>
                    <path d="M86.46,14.9194 L86.46,9.0954 C86.46,8.8204 86.418,8.7734 86.136,8.7774 C85.692,8.7824 85.249,8.7964 84.805,8.8004 C84.666,8.8014 84.56,8.7594 84.562,8.5794 C84.569,7.9894 84.57,7.3994 84.566,6.8084 C84.565,6.6434 84.677,6.6224 84.789,6.6224 C86.737,6.6264 88.685,6.6344 90.633,6.6404 C90.92,6.6414 90.971,6.6864 90.973,6.9754 C90.976,7.4694 90.975,7.9624 90.973,8.4554 C90.971,8.7214 90.905,8.7834 90.647,8.7824 C90.202,8.7804 89.757,8.7834 89.312,8.7744 C89.116,8.7694 89.025,8.8204 89.026,9.0454 C89.03,10.4194 89.02,11.7934 89.016,13.1684 C89.015,13.3224 89.077,13.3934 89.249,13.3924 C91.441,13.3874 93.633,13.3874 95.826,13.3934 C95.994,13.3934 96.032,13.3254 96.031,13.1794 C96.027,11.7884 96.024,10.3974 96.027,9.0064 C96.028,8.8224 95.961,8.7684 95.785,8.7734 C95.333,8.7844 94.879,8.7744 94.427,8.7864 C94.214,8.7914 94.12,8.7284 94.126,8.4974 C94.14,7.9724 94.139,7.4464 94.127,6.9204 C94.122,6.6944 94.206,6.6354 94.424,6.6364 C96.276,6.6444 98.129,6.6414 99.981,6.6424 C100.511,6.6424 100.502,6.6414 100.501,7.1704 C100.499,7.6134 100.52,8.0564 100.533,8.4994 C100.538,8.7044 100.427,8.7974 100.22,8.7914 C99.776,8.7794 99.331,8.7804 98.887,8.7764 C98.691,8.7744 98.641,8.8954 98.647,9.0624 C98.653,9.2074 98.666,9.3524 98.666,9.4964 C98.667,13.1284 98.667,16.7604 98.666,20.3924 C98.666,20.5444 98.652,20.6964 98.646,20.8484 C98.641,20.9944 98.698,21.0654 98.86,21.0624 C99.288,21.0534 99.717,21.0584 100.146,21.0594 C100.493,21.0604 100.51,21.1014 100.501,21.4424 C100.488,21.9184 100.5,22.3954 100.521,22.8704 C100.531,23.1074 100.476,23.1924 100.234,23.1924 C98.285,23.1934 96.335,23.1904 94.386,23.1974 C94.179,23.1984 94.123,23.1304 94.127,22.9324 C94.138,22.4064 94.139,21.8804 94.127,21.3554 C94.121,21.1254 94.224,21.0554 94.431,21.0574 C94.9,21.0624 95.37,21.0514 95.838,21.0644 C95.994,21.0684 96.047,21.0004 96.046,20.8724 C96.041,19.7824 96.026,18.6914 96.026,17.6004 C96.025,16.9874 96.05,16.3744 96.05,15.7624 C96.05,15.6994 95.96,15.6324 95.903,15.5764 C95.887,15.5594 95.841,15.5724 95.809,15.5724 C93.624,15.5724 91.44,15.5724 89.256,15.5714 C89.069,15.5714 88.957,15.6214 89.026,15.8414 C89.044,15.9004 89.032,15.9704 89.032,16.0344 L89.032,20.5964 C89.032,21.0594 89.031,21.0594 89.498,21.0594 C89.862,21.0594 90.226,21.0584 90.59,21.0594 C90.923,21.0604 90.971,21.1084 90.971,21.4304 C90.971,21.8994 90.972,22.3684 90.973,22.8374 C90.973,23.1514 90.933,23.1934 90.634,23.1934 C88.7,23.1934 86.767,23.1914 84.834,23.1974 C84.642,23.1974 84.557,23.1534 84.558,22.9434 C84.558,22.3884 84.531,21.8324 84.532,21.2774 C84.533,21.0944 84.688,21.0594 84.844,21.0594 C85.289,21.0594 85.734,21.0474 86.178,21.0644 C86.413,21.0734 86.461,20.9774 86.46,20.7674 C86.455,18.8184 86.457,16.8684 86.457,14.9194 L86.46,14.9194 Z" id="Fill-5" fill="#FFFFFF"></path>
                    <path d="M143.4005,14.9374 L143.4005,9.0414 C143.4005,8.7474 143.3805,8.7284 143.0815,8.7274 C142.5875,8.7274 142.0945,8.7224 141.6005,8.7304 C141.3965,8.7344 141.3075,8.6604 141.3105,8.4494 C141.3185,7.9564 141.3115,7.4624 141.3135,6.9694 C141.3145,6.6794 141.3565,6.6424 141.6555,6.6424 L145.2475,6.6424 C145.3195,6.6424 145.3985,6.6594 145.4645,6.6374 C145.6665,6.5684 145.6945,6.7074 145.7255,6.8424 C145.7375,6.8964 145.7285,6.9554 145.7285,7.0114 L145.7285,12.4224 C145.7275,12.5024 145.7125,12.5824 145.7135,12.6624 C145.7135,12.7194 145.7265,12.7764 145.7345,12.8324 C145.7895,12.8164 145.8495,12.8104 145.8975,12.7814 C146.4325,12.4554 146.9535,12.1014 147.5045,11.8034 C147.9955,11.5374 148.5405,11.4184 149.0985,11.3444 C149.7745,11.2544 150.4195,11.3384 151.0405,11.5964 C151.7145,11.8764 152.1815,12.3664 152.4285,13.0614 C152.6565,13.7034 152.7105,14.3724 152.7145,15.0424 C152.7265,16.8944 152.7185,18.7474 152.7185,20.5994 C152.7185,20.7414 152.7055,20.8864 152.7255,21.0264 C152.7305,21.0674 152.8255,21.1254 152.8805,21.1254 C153.3885,21.1264 153.8975,21.1124 154.4065,21.1114 C154.6075,21.1114 154.6965,21.2564 154.6905,21.4664 C154.6775,21.9334 154.6725,22.4014 154.6875,22.8684 C154.6955,23.1164 154.6555,23.1924 154.4095,23.1924 C153.1635,23.1934 151.9185,23.1934 150.6725,23.1934 C150.3585,23.1934 150.3425,23.1774 150.3425,22.8654 C150.3415,20.1874 150.3435,17.5104 150.3375,14.8334 C150.3375,14.6454 150.2995,14.4494 150.2405,14.2704 C150.0765,13.7794 149.6515,13.5094 149.1345,13.4794 C148.2865,13.4304 147.5675,13.7794 146.8635,14.1774 C146.5385,14.3604 146.2345,14.5814 145.9195,14.7824 C145.7885,14.8664 145.7235,14.9664 145.7245,15.1374 C145.7315,17.0624 145.7295,18.9874 145.7255,20.9124 C145.7255,21.0804 145.7455,21.1464 145.9505,21.1344 C146.4495,21.1034 146.9525,21.1124 147.4535,21.1124 C147.6325,21.1124 147.7285,21.1884 147.7235,21.3954 C147.7105,21.9204 147.7135,22.4464 147.7215,22.9724 C147.7245,23.1434 147.6645,23.1964 147.4965,23.1954 C145.5235,23.1914 143.5495,23.1914 141.5755,23.1954 C141.3735,23.1954 141.3085,23.1034 141.3115,22.9134 C141.3175,22.4284 141.3125,21.9434 141.3135,21.4574 C141.3145,21.1964 141.3905,21.1144 141.6605,21.1174 C142.1685,21.1214 142.6765,21.1384 143.1835,21.1474 C143.3235,21.1494 143.4065,21.0924 143.4025,20.9304 C143.3955,20.5674 143.4005,20.2024 143.4005,19.8384 L143.4005,14.9374" id="Fill-7" fill="#FFFFFF"></path>
                    <path d="M103.9711,16.302 L104.2511,16.302 L110.5801,16.302 C110.6601,16.302 110.7461,16.287 110.8211,16.309 C111.0371,16.37 111.0481,16.231 111.0131,16.099 C110.9701,15.932 110.8961,15.771 110.8211,15.614 C110.5381,15.025 110.1631,14.509 109.6591,14.084 C108.6291,13.215 107.4631,13.047 106.2131,13.446 C105.3971,13.706 104.8031,14.278 104.3851,15.017 C104.1671,15.402 104.0101,15.818 103.9711,16.302 L103.9711,16.302 Z M108.6541,18.048 L104.2131,18.048 C103.8851,18.048 103.8831,18.048 103.9341,18.371 C104.0561,19.152 104.4111,19.822 104.9471,20.39 C105.4931,20.97 106.1681,21.33 106.9621,21.446 C108.1161,21.614 109.2231,21.467 110.2001,20.803 C110.6051,20.528 110.9351,20.138 111.2761,19.779 C111.3921,19.657 111.4761,19.623 111.6231,19.689 C112.1451,19.921 112.6691,20.147 113.1911,20.378 C113.4821,20.507 113.4971,20.567 113.2881,20.812 C112.9771,21.175 112.6831,21.558 112.3401,21.888 C111.7961,22.412 111.1441,22.786 110.4341,23.04 C109.9741,23.206 109.4971,23.329 109.0231,23.454 C108.8401,23.502 108.6441,23.52 108.4541,23.521 C107.9041,23.523 107.3531,23.524 106.8041,23.495 C106.5131,23.48 106.2241,23.405 105.9351,23.349 C105.1901,23.203 104.5181,22.887 103.8881,22.47 C102.9551,21.851 102.2261,21.058 101.7711,20.028 C101.5221,19.465 101.3901,18.872 101.3091,18.262 C101.2041,17.471 101.2541,16.688 101.4241,15.921 C101.6061,15.098 101.9771,14.346 102.5051,13.683 C103.1031,12.933 103.8391,12.348 104.6981,11.92 C105.3601,11.59 106.0591,11.418 106.7991,11.337 C107.4431,11.266 108.0691,11.331 108.6801,11.465 C109.5581,11.658 110.3411,12.081 111.0641,12.624 C111.7901,13.168 112.3751,13.833 112.7491,14.65 C112.9941,15.185 113.1591,15.765 113.2901,16.341 C113.3971,16.811 113.3981,17.306 113.4511,17.789 C113.4741,17.992 113.3921,18.055 113.1911,18.054 C111.6791,18.048 110.1661,18.051 108.6541,18.051 L108.6541,18.048 Z" id="Fill-9" fill="#FFFFFF"></path>
                    <path d="M38.0147,10.9144 C38.0147,11.8274 38.0187,12.7414 38.0117,13.6544 C38.0107,13.8764 38.0587,13.9854 38.3197,13.9784 C38.9987,13.9594 39.6777,13.9764 40.3567,13.9714 C41.0287,13.9654 41.7007,13.9404 42.3467,13.7274 C43.0297,13.5034 43.6277,13.1414 44.0387,12.5384 C44.4747,11.8974 44.6537,11.1864 44.5197,10.4114 C44.3947,9.6864 44.0917,9.0544 43.5137,8.5824 C42.8577,8.0464 42.0617,7.8594 41.2487,7.8174 C40.2897,7.7674 39.3257,7.8054 38.3637,7.8054 C38.0537,7.8054 38.0157,7.8424 38.0147,8.1504 L38.0147,10.9144 M38.0147,18.6084 L38.0147,20.1854 C38.0147,20.7194 38.0127,21.2534 38.0157,21.7874 C38.0167,22.0354 38.0717,22.0774 38.3147,22.0454 C38.3627,22.0394 38.4117,22.0454 38.4597,22.0444 C39.5877,22.0234 40.7167,22.0124 41.8437,21.9784 C42.5807,21.9554 43.2667,21.7324 43.8977,21.3484 C44.6067,20.9174 45.0747,20.2864 45.2757,19.4934 C45.4137,18.9464 45.4397,18.3844 45.3107,17.8074 C45.1377,17.0254 44.7637,16.4094 44.1107,15.9554 C43.3007,15.3914 42.3777,15.2074 41.4187,15.1884 C40.3837,15.1674 39.3477,15.1934 38.3127,15.1764 C38.0667,15.1734 38.0087,15.2514 38.0107,15.4774 C38.0187,16.5214 38.0147,17.5644 38.0147,18.6084 M43.6717,14.3894 C43.7807,14.4534 43.8217,14.4884 43.8687,14.5044 C44.9637,14.8804 45.8787,15.4894 46.4257,16.5424 C46.6447,16.9644 46.8037,17.4204 46.8007,17.9114 C46.7987,18.2134 46.7907,18.5164 46.8037,18.8174 C46.8237,19.3244 46.6967,19.7964 46.5117,20.2594 C46.2497,20.9144 45.8917,21.5084 45.3217,21.9374 C44.9737,22.1994 44.6167,22.4754 44.2197,22.6394 C43.6837,22.8604 43.1127,23.0164 42.5437,23.1324 C42.1467,23.2124 41.7267,23.1904 41.3177,23.1914 C39.1417,23.1954 36.9657,23.1934 34.7897,23.1934 C34.4877,23.1934 34.4737,23.1794 34.4727,22.8804 C34.4717,22.6854 34.4787,22.4914 34.4707,22.2974 C34.4627,22.1064 34.5697,22.0334 34.7347,22.0354 C35.2597,22.0424 35.7837,22.0614 36.3077,22.0704 C36.4627,22.0724 36.5727,22.0134 36.5607,21.8284 C36.5557,21.7484 36.5597,21.6674 36.5597,21.5864 C36.5597,17.0964 36.5577,12.6074 36.5647,8.1174 C36.5657,7.8694 36.4867,7.7954 36.2487,7.8014 C35.7317,7.8144 35.2137,7.8004 34.6957,7.8084 C34.5287,7.8104 34.4617,7.7574 34.4697,7.5854 C34.4807,7.3434 34.4737,7.1004 34.4727,6.8574 C34.4727,6.7004 34.5477,6.6224 34.7057,6.6234 C36.2827,6.6294 37.8587,6.6364 39.4357,6.6414 C40.0987,6.6444 40.7617,6.6384 41.4257,6.6434 C42.2877,6.6484 43.1317,6.7974 43.8967,7.1904 C44.9987,7.7544 45.6917,8.6754 45.9147,9.8964 C46.0367,10.5664 46.0467,11.2614 45.8877,11.9314 C45.6147,13.0764 44.8927,13.8544 43.8197,14.3184 C43.7827,14.3344 43.7467,14.3534 43.6717,14.3894" id="Fill-11" fill="#FFFFFF"></path>
                    <path d="M119.222,21.5781 C119.411,21.5631 119.603,21.5641 119.789,21.5301 C120.558,21.3921 121.227,21.0321 121.835,20.5551 C122.08,20.3631 122.316,20.1601 122.21,19.7751 C122.165,19.6101 122.166,19.4131 122.209,19.2461 C122.265,19.0301 122.175,18.8971 122.028,18.7931 C121.122,18.1521 120.147,17.7181 119,17.8551 C118.192,17.9511 117.567,18.3141 117.284,19.1211 C117.046,19.7991 117.18,20.4201 117.645,20.9521 C118.056,21.4231 118.611,21.5791 119.222,21.5781 M122.374,22.0091 C121.949,22.2991 121.569,22.5921 121.156,22.8311 C120.588,23.1601 119.963,23.3181 119.307,23.3991 C118.793,23.4621 118.301,23.4021 117.812,23.2981 C117.077,23.1421 116.444,22.7521 115.926,22.2281 C115.336,21.6311 114.986,20.9041 114.947,20.0311 C114.908,19.1391 115.065,18.3171 115.626,17.6061 C116.281,16.7781 117.144,16.2761 118.172,16.0621 C119.547,15.7771 120.815,16.0951 122.012,16.7801 C122.056,16.8051 122.146,16.8361 122.155,16.8221 C122.194,16.7671 122.229,16.6951 122.23,16.6291 C122.236,16.2441 122.22,15.8581 122.232,15.4731 C122.259,14.5491 121.752,13.7781 120.864,13.5011 C119.92,13.2071 118.98,13.2111 118.125,13.7821 C117.873,13.9501 117.671,14.2021 117.474,14.4391 C117.335,14.6051 117.221,14.6781 116.992,14.6061 C116.469,14.4421 115.933,14.3241 115.406,14.1731 C115.046,14.0701 115.055,14.0581 115.241,13.7561 C115.8,12.8491 116.558,12.1611 117.544,11.7671 C118.009,11.5811 118.519,11.4921 119.017,11.4071 C119.433,11.3361 119.864,11.2931 120.285,11.3111 C121.196,11.3501 122.093,11.4801 122.912,11.9341 C123.571,12.2981 124.041,12.8311 124.29,13.5341 C124.4,13.8431 124.456,14.1861 124.46,14.5141 C124.49,16.6311 124.501,18.7471 124.513,20.8641 C124.514,21.0291 124.546,21.1101 124.737,21.1231 C124.814,21.1291 124.94,21.2721 124.943,21.3551 C124.962,21.8971 124.953,22.4391 124.952,22.9811 C124.952,23.1301 124.877,23.1961 124.725,23.1951 C124.029,23.1921 123.334,23.1871 122.638,23.1961 C122.401,23.1991 122.409,23.0471 122.41,22.8941 C122.411,22.6601 122.427,22.4261 122.427,22.1931 C122.427,22.1281 122.39,22.0631 122.374,22.0091" id="Fill-13" fill="#FFFFFF"></path>
                    <path d="M130.972,13.9132 L130.972,20.8292 C130.972,21.1162 131.001,21.1352 131.295,21.1252 C131.667,21.1132 132.039,21.1092 132.411,21.1122 C132.603,21.1142 132.725,21.1982 132.722,21.4202 C132.715,21.9212 132.715,22.4232 132.721,22.9242 C132.724,23.1222 132.64,23.1952 132.446,23.1952 C130.577,23.1922 128.709,23.1912 126.84,23.1962 C126.662,23.1972 126.598,23.1432 126.602,22.9612 C126.611,22.4352 126.613,21.9092 126.601,21.3842 C126.597,21.1722 126.707,21.1092 126.881,21.1112 C127.373,21.1162 127.866,21.1252 128.359,21.1402 C128.557,21.1462 128.633,21.0552 128.619,20.8672 C128.609,20.7312 128.596,20.5942 128.596,20.4582 C128.595,16.7452 128.595,13.0322 128.595,9.3202 C128.595,8.7272 128.595,8.7272 127.998,8.7272 C127.609,8.7282 127.221,8.7232 126.833,8.7302 C126.672,8.7342 126.599,8.6902 126.602,8.5122 C126.611,7.9632 126.61,7.4122 126.602,6.8622 C126.6,6.6922 126.66,6.6392 126.828,6.6392 C128.122,6.6432 129.416,6.6422 130.71,6.6372 C130.958,6.6362 130.974,6.7852 130.973,6.9732 C130.971,9.1412 130.972,11.3082 130.972,13.4762 L130.972,13.9132" id="Fill-15" fill="#FFFFFF"></path>
                    <path d="M76.0477,16.5542 L79.9797,16.5542 C80.0527,16.5542 80.1257,16.5512 80.1977,16.5602 C80.4327,16.5892 80.4797,16.5352 80.4247,16.3002 C80.2857,15.7082 80.0857,15.1402 79.7907,14.6062 C79.2437,13.6182 78.4167,12.9772 77.3417,12.6632 C76.6277,12.4552 75.8967,12.4192 75.1637,12.5642 C74.4057,12.7142 73.7277,13.0292 73.1577,13.5592 C72.4247,14.2392 72.0087,15.1002 71.7537,16.0482 C71.6177,16.5542 71.6237,16.5542 72.1397,16.5542 L76.0477,16.5542 M76.7177,17.7562 L71.9617,17.7562 C71.5787,17.7562 71.6127,17.7542 71.6407,18.1412 C71.6747,18.6182 71.7867,19.0692 71.9647,19.5062 C72.3717,20.5022 73.0527,21.2642 73.9797,21.8062 C74.5927,22.1652 75.2567,22.3562 75.9647,22.4212 C77.2777,22.5412 78.4297,22.1402 79.4717,21.3702 C79.9257,21.0352 80.3157,20.6312 80.6427,20.1732 C80.7767,19.9862 80.9077,19.9452 81.1077,20.0532 C81.2957,20.1542 81.4897,20.2452 81.6877,20.3252 C81.8597,20.3952 81.9007,20.5072 81.7897,20.6402 C81.4247,21.0742 81.0817,21.5362 80.6647,21.9142 C80.2727,22.2712 79.8187,22.5752 79.3537,22.8322 C78.7057,23.1902 77.9987,23.4132 77.2537,23.4842 C76.8797,23.5202 76.5047,23.5842 76.1307,23.5752 C74.8167,23.5432 73.5867,23.2082 72.5367,22.3902 C71.5997,21.6602 70.9497,20.7222 70.5747,19.5802 C70.2867,18.7032 70.1907,17.8092 70.2557,16.9052 C70.3727,15.2972 70.9587,13.8822 72.1597,12.7702 C72.9437,12.0432 73.8877,11.6022 74.9337,11.4112 C75.4107,11.3232 75.9097,11.2852 76.3927,11.3122 C77.6877,11.3842 78.8647,11.7742 79.8527,12.6712 C80.8687,13.5952 81.4457,14.7442 81.7007,16.0722 C81.7837,16.5022 81.8367,16.9372 81.8937,17.3722 C81.9357,17.6882 81.8677,17.7562 81.5457,17.7562 L76.7177,17.7562" id="Fill-17" fill="#FFFFFF"></path>
                    <path d="M139.3978,20.9246 C139.4258,21.0576 139.4628,21.1536 139.4638,21.2486 C139.4698,21.7746 139.4658,22.3006 139.4668,22.8256 C139.4678,23.0376 139.4018,23.1686 139.1588,23.2006 C138.6618,23.2636 138.1698,23.4186 137.6748,23.4206 C136.9408,23.4246 136.2368,23.2556 135.6878,22.6936 C135.3118,22.3076 135.1538,21.8276 135.1068,21.3176 C135.0458,20.6616 135.0118,20.0016 135.0068,19.3426 C134.9948,17.5636 135.0048,15.7846 135.0058,14.0046 C135.0058,13.9406 134.9998,13.8766 134.9948,13.7756 C134.6408,13.7756 134.2888,13.7766 133.9368,13.7756 C133.5718,13.7756 133.4978,13.7036 133.4978,13.3416 C133.4978,12.8886 133.4968,12.4356 133.4988,11.9826 C133.4998,11.6946 133.5518,11.6436 133.8348,11.6426 C134.1508,11.6416 134.4668,11.6326 134.7818,11.6456 C134.9678,11.6526 135.0208,11.5716 135.0178,11.4026 C135.0088,10.9826 135.0088,10.5626 135.0018,10.1436 C134.9998,9.9706 135.0648,9.8526 135.2048,9.7366 C135.5258,9.4686 135.8248,9.1736 136.1298,8.8876 C136.4418,8.5946 136.7488,8.2966 137.0648,8.0086 C137.1218,7.9556 137.2138,7.9396 137.2908,7.9076 C137.3198,7.9826 137.3748,8.0576 137.3758,8.1336 C137.3808,9.2096 137.3858,10.2856 137.3738,11.3606 C137.3708,11.5886 137.4408,11.6536 137.6628,11.6466 C138.1808,11.6316 138.6988,11.6486 139.2158,11.6386 C139.3928,11.6346 139.4668,11.6976 139.4668,11.8686 C139.4658,12.4186 139.4688,12.9686 139.4648,13.5186 C139.4638,13.6866 139.3918,13.7826 139.1988,13.7786 C138.6728,13.7696 138.1468,13.7816 137.6218,13.7716 C137.4478,13.7686 137.3758,13.8116 137.3758,13.9996 C137.3808,16.0296 137.3738,18.0596 137.3858,20.0896 C137.3878,20.3706 137.4488,20.6606 137.5438,20.9246 C137.5828,21.0316 137.7808,21.1366 137.9128,21.1456 C138.3988,21.1786 138.8918,21.2026 139.3978,20.9246" id="Fill-19" fill="#FFFFFF"></path>
                    <path d="M56.0737,19.435 C56.0737,19.314 56.0577,19.19 56.0767,19.071 C56.1507,18.603 55.9927,18.327 55.5377,18.101 C54.2487,17.461 52.9347,17.173 51.5327,17.614 C50.6397,17.895 50.0527,18.476 49.7967,19.414 C49.5097,20.46 50.0337,21.617 51.0097,22.074 C51.6307,22.365 52.2917,22.377 52.9397,22.242 C54.0417,22.014 55.0017,21.495 55.8027,20.691 C55.9837,20.509 56.1047,20.334 56.0777,20.066 C56.0567,19.857 56.0737,19.645 56.0737,19.435 M56.0737,21.649 C55.7177,21.901 55.4367,22.139 55.1217,22.314 C54.5877,22.611 54.0497,22.919 53.4797,23.131 C52.7877,23.389 52.0567,23.449 51.3097,23.346 C50.0917,23.178 49.2087,22.52 48.6927,21.448 C48.0937,20.205 48.1957,18.973 49.0617,17.853 C49.6017,17.154 50.3387,16.778 51.1737,16.535 C51.8047,16.351 52.4437,16.318 53.0827,16.359 C54.0197,16.418 54.9067,16.695 55.7487,17.114 C56.0697,17.273 56.0777,17.271 56.0727,16.917 C56.0617,16.053 56.0817,15.187 56.0227,14.327 C55.9507,13.29 55.3147,12.728 54.3657,12.474 C53.4437,12.227 52.5107,12.25 51.5917,12.511 C50.7477,12.752 50.0937,13.239 49.6977,14.04 C49.6037,14.227 49.4807,14.322 49.2547,14.231 C49.1027,14.169 48.9317,14.154 48.7727,14.105 C48.6027,14.053 48.5407,13.935 48.6287,13.772 C49.2167,12.669 50.0437,11.861 51.2947,11.538 C52.0157,11.352 52.7447,11.271 53.4807,11.309 C54.4067,11.357 55.3197,11.487 56.1177,12.025 C56.7537,12.455 57.1747,13.033 57.3287,13.789 C57.3807,14.047 57.4257,14.311 57.4267,14.572 C57.4337,16.975 57.4317,19.377 57.4297,21.78 C57.4297,21.954 57.4167,22.111 57.6737,22.087 C57.7167,22.083 57.8077,22.195 57.8127,22.258 C57.8287,22.499 57.8357,22.744 57.8097,22.984 C57.8017,23.06 57.6827,23.181 57.6107,23.184 C57.1577,23.202 56.7047,23.19 56.2517,23.195 C56.0877,23.197 56.0717,23.104 56.0727,22.976 C56.0757,22.557 56.0737,22.139 56.0737,21.649" id="Fill-21" fill="#FFFFFF"></path>
                    <path d="M60.9403,21.9033 C60.9173,21.9973 60.8843,22.0663 60.8863,22.1343 C60.8933,22.4073 60.9163,22.6793 60.9243,22.9523 C60.9283,23.1173 60.8443,23.2003 60.6683,23.1953 C60.4173,23.1873 60.1663,23.1893 59.9163,23.1963 C59.7373,23.2003 59.6663,23.1073 59.6663,22.9443 C59.6653,21.7633 59.6653,20.5823 59.6663,19.4013 C59.6663,19.2203 59.7493,19.1153 59.9423,19.1173 C60.1763,19.1193 60.4113,19.1173 60.6453,19.1173 C60.8303,19.1183 60.9203,19.2103 60.9263,19.3963 C60.9613,20.4263 61.4293,21.2143 62.2883,21.7613 C62.8623,22.1263 63.5013,22.2973 64.1863,22.3093 C64.8653,22.3203 65.5263,22.2593 66.1563,21.9823 C66.8363,21.6823 67.3613,21.2103 67.5103,20.4783 C67.6593,19.7453 67.4893,19.0453 66.6513,18.5793 C66.0713,18.2573 65.4303,18.1353 64.7933,17.9993 C63.8933,17.8053 62.9793,17.6733 62.1183,17.3223 C61.0603,16.8893 60.4083,16.1343 60.3163,14.9793 C60.2153,13.7253 60.7763,12.6293 61.9083,11.9783 C62.6153,11.5723 63.3823,11.4073 64.1853,11.4533 C65.1673,11.5093 66.0553,11.8223 66.7593,12.5483 C66.8543,12.6463 66.9423,12.7513 67.0333,12.8523 C67.0533,12.8423 67.0733,12.8323 67.0923,12.8223 L67.0923,11.9933 C67.0933,11.6673 67.1173,11.6423 67.4333,11.6423 C67.6193,11.6413 67.8053,11.6463 67.9913,11.6403 C68.1723,11.6353 68.2573,11.7093 68.2573,11.8963 C68.2543,13.0123 68.2543,14.1283 68.2573,15.2453 C68.2583,15.4433 68.1573,15.5203 67.9763,15.5233 C67.7823,15.5253 67.5873,15.5133 67.3943,15.5263 C67.1863,15.5403 67.1163,15.4423 67.0893,15.2493 C67.0183,14.7483 66.8723,14.2713 66.5683,13.8553 C66.0863,13.1953 65.4273,12.8173 64.6383,12.6633 C64.0803,12.5543 63.5163,12.5663 62.9783,12.7623 C62.0013,13.1173 61.4933,13.8743 61.5663,14.8823 C61.6093,15.4783 62.0073,15.8843 62.5323,16.0853 C63.1153,16.3073 63.7313,16.4503 64.3413,16.5883 C65.3093,16.8063 66.3033,16.9323 67.2043,17.3783 C68.0703,17.8083 68.6203,18.4703 68.7523,19.4723 C68.8863,20.4913 68.6503,21.3803 67.9683,22.1363 C67.5853,22.5623 67.0803,22.8333 66.5513,23.0433 C65.6923,23.3863 64.7863,23.4213 63.8793,23.3823 C62.9903,23.3453 62.1713,23.0773 61.4803,22.4963 C61.2933,22.3393 61.1473,22.1333 60.9403,21.9033" id="Fill-23" fill="#FFFFFF"></path>
                    <path d="M3.9621,6.4398 C5.2221,6.4188 6.1111,7.4508 6.1611,8.4978 C6.2281,9.9208 5.1941,10.9658 3.8631,10.9408 C2.6241,10.9168 1.7421,9.9828 1.6861,8.7938 C1.6261,7.4938 2.6231,6.3928 3.9621,6.4398" id="Fill-25" fill="#FFFFFF"></path>
                    <path d="M3.9186,23.7757 C2.7256,23.8477 1.6176,22.7927 1.6896,21.4337 C1.7506,20.2537 2.6136,19.2867 3.9236,19.2827 C5.1626,19.2787 6.1926,20.2737 6.1636,21.6707 C6.1406,22.7407 5.2156,23.8537 3.9186,23.7757" id="Fill-27" fill="#FFFFFF"></path>
                    <path d="M26.1049,23.7757 C24.8869,23.9107 23.7979,22.6587 23.8879,21.4277 C23.9779,20.1897 24.8989,19.2717 26.1189,19.2807 C27.3549,19.2897 28.3229,20.2357 28.3549,21.5267 C28.3839,22.6867 27.2949,23.8867 26.1049,23.7757" id="Fill-29" fill="#FFFFFF"></path>
                    <path d="M23.8905,8.666 C23.8635,7.5 24.8605,6.408 26.1075,6.426 C27.3765,6.444 28.3585,7.485 28.3535,8.683 C28.3475,9.876 27.4055,10.939 26.1055,10.943 C24.8845,10.946 23.8745,9.969 23.8905,8.666" id="Fill-31" fill="#FFFFFF"></path>
                    <path d="M30.0535,15.1164 C30.1225,16.3094 28.9755,17.3894 27.8085,17.3734 C26.6115,17.3584 25.5885,16.3364 25.5875,15.1134 C25.5855,13.8734 26.6435,12.8454 27.8385,12.8524 C28.9695,12.8594 30.1175,13.8704 30.0535,15.1164" id="Fill-33" fill="#FFFFFF"></path>
                    <path d="M23.646,26.2331 C23.72,27.4751 22.62,28.5101 21.413,28.4991 C20.178,28.4881 19.178,27.4401 19.179,26.2491 C19.18,25.0401 20.193,23.9261 21.626,24.0131 C22.557,24.0701 23.741,25.0001 23.646,26.2331" id="Fill-35" fill="#FFFFFF"></path>
                    <path d="M23.646,3.9875 C23.742,5.1905 22.592,6.3025 21.269,6.2065 C20.173,6.1285 19.174,5.2405 19.184,3.9785 C19.193,2.7545 20.139,1.7255 21.478,1.7335 C22.608,1.7395 23.713,2.7495 23.646,3.9875" id="Fill-37" fill="#FFFFFF"></path>
                    <path d="M10.831,26.2803 C10.882,27.5073 9.788,28.5013 8.64,28.4993 C7.293,28.4963 6.387,27.4813 6.373,26.2303 C6.36,25.0143 7.335,23.9503 8.733,24.0173 C9.725,24.0643 10.916,24.9433 10.831,26.2803" id="Fill-39" fill="#FFFFFF"></path>
                    <g id="Group-43" transform="translate(0.000000, 12.230300)" fill="#FFFFFF">
                        <path d="M0.0079,2.8683 C-0.1081,1.6293 1.1149,0.6023 2.2119,0.6203 C3.3359,0.6373 4.5339,1.6033 4.4279,3.0783 C4.3519,4.1453 3.4309,5.1203 2.1879,5.1393 C1.0519,5.1573 -0.1071,4.1013 0.0079,2.8683" id="Fill-41"></path>
                    </g>
                    <path d="M10.831,3.9788 C10.931,5.1478 9.797,6.2938 8.424,6.2138 C7.412,6.1538 6.456,5.1888 6.391,4.1788 C6.295,2.6878 7.553,1.6968 8.628,1.7268 C9.786,1.7588 10.908,2.7298 10.831,3.9788" id="Fill-44" fill="#FFFFFF"></path>
                    <path d="M17.2385,2.2504 C17.2955,3.5294 16.1885,4.5054 15.0145,4.4994 C13.7925,4.4934 12.8085,3.5214 12.7845,2.3384 C12.7555,0.9354 13.8275,-0.0046 15.0325,0.0004 C16.1865,0.0044 17.2825,0.9624 17.2385,2.2504" id="Fill-46" fill="#FFFFFF"></path>
                    <g id="Group-50" transform="translate(12.000000, 25.230300)">
                        <mask id="mask-2" fill="white">
                            <use xlink:href="#path-1"></use>
                        </mask>
                        <g id="Clip-49"></g>
                        <path d="M3.0125,0.5374 C4.1255,0.3824 5.3825,1.5734 5.2505,2.9444 C5.1515,3.9614 4.2105,4.9944 3.0425,5.0004 C1.7705,5.0064 0.8215,3.9624 0.7785,2.7854 C0.7345,1.6164 1.8035,0.4054 3.0125,0.5374" id="Fill-48" fill="#FFFFFF" mask="url(#mask-2)"></path>
                    </g>
                    <path d="M8.1126,12.9292 C8.1056,13.6632 7.4646,14.3182 6.6566,14.3082 C5.8926,14.2982 5.3346,13.6572 5.3166,13.0212 C5.2886,12.0172 5.9126,11.4692 6.7466,11.4592 C7.5006,11.4492 8.1106,12.1082 8.1126,12.9292" id="Fill-51" fill="#FFFFFF"></path>
                    <path d="M8.9325,22.6107 C8.2485,22.6707 7.5365,22.1487 7.5535,21.1397 C7.5665,20.4037 8.2205,19.7857 8.9375,19.8007 C9.7215,19.8167 10.3215,20.4377 10.3405,21.2067 C10.3585,21.9297 9.7265,22.6947 8.9325,22.6107" id="Fill-53" fill="#FFFFFF"></path>
                    <path d="M24.7139,12.9019 C24.7119,13.7489 23.9879,14.3019 23.2789,14.2949 C22.4489,14.2879 21.9179,13.6099 21.9089,12.8619 C21.8999,12.1439 22.5679,11.4399 23.3009,11.4539 C24.0309,11.4689 24.7299,12.0229 24.7139,12.9019" id="Fill-55" fill="#FFFFFF"></path>
                    <path d="M17.2299,24.8436 C16.3939,24.8636 15.8319,24.1586 15.8429,23.3966 C15.8539,22.6136 16.4509,22.0896 17.1269,22.0416 C17.9709,21.9836 18.6649,22.6596 18.6489,23.4436 C18.6349,24.1696 18.0409,24.8756 17.2299,24.8436" id="Fill-57" fill="#FFFFFF"></path>
                    <path d="M21.0846,22.6107 C20.3886,22.7227 19.6406,21.9627 19.6896,21.1457 C19.7306,20.4527 20.2216,19.8287 21.0826,19.8027 C21.8746,19.7787 22.4646,20.4517 22.4866,21.3017 C22.5016,21.8647 21.8276,22.7307 21.0846,22.6107" id="Fill-59" fill="#FFFFFF"></path>
                    <path d="M14.1804,23.4784 C14.2224,24.2154 13.4994,24.8734 12.7944,24.8544 C11.9564,24.8314 11.3784,24.1814 11.3804,23.4304 C11.3824,22.7084 11.9154,22.0724 12.7474,22.0394 C13.5804,22.0064 14.2364,22.7784 14.1804,23.4784" id="Fill-61" fill="#FFFFFF"></path>
                    <path d="M6.7468,15.9622 C7.4218,15.8682 8.1248,16.6002 8.1148,17.3542 C8.1048,18.1142 7.4598,18.7972 6.7128,18.7702 C5.8568,18.7402 5.3588,18.1372 5.3178,17.4102 C5.2708,16.5762 5.9778,15.8962 6.7468,15.9622" id="Fill-63" fill="#FFFFFF"></path>
                    <path d="M23.3101,15.9622 C24.0721,15.9162 24.7201,16.6092 24.7161,17.3392 C24.7111,18.1622 24.0481,18.7872 23.2941,18.7682 C22.4401,18.7472 21.9241,18.0982 21.9121,17.3522 C21.9011,16.6692 22.4801,15.9042 23.3101,15.9622" id="Fill-65" fill="#FFFFFF"></path>
                    <path d="M8.941,7.613 C9.549,7.526 10.365,8.219 10.345,9.034 C10.327,9.767 9.707,10.427 8.909,10.427 C8.113,10.426 7.587,9.809 7.565,8.902 C7.55,8.278 8.21,7.542 8.941,7.613" id="Fill-67" fill="#FFFFFF"></path>
                    <path d="M22.481,9.015 C22.549,9.757 21.714,10.465 21.061,10.434 C20.306,10.397 19.707,9.731 19.684,9.085 C19.657,8.312 20.274,7.603 21.139,7.601 C21.727,7.6 22.562,8.287 22.481,9.015" id="Fill-69" fill="#FFFFFF"></path>
                    <path d="M19.9848,11.3507 C20.4938,11.3517 20.8878,11.7337 20.8768,12.2367 C20.8658,12.7397 20.4798,13.1387 19.9728,13.1347 C19.4458,13.1317 19.0988,12.6957 19.0878,12.2707 C19.0748,11.7557 19.4818,11.3497 19.9848,11.3507" id="Fill-71" fill="#FFFFFF"></path>
                    <path d="M17.9241,19.2145 C18.5021,19.2305 18.7491,19.6385 18.7831,20.0855 C18.8201,20.5535 18.3591,21.0125 17.8931,21.0035 C17.4791,20.9955 17.0021,20.6815 17.0021,20.0955 C17.0021,19.6115 17.4071,19.1525 17.9241,19.2145" id="Fill-73" fill="#FFFFFF"></path>
                    <path d="M19.9767,18.8729 C19.4727,18.9049 19.0887,18.4299 19.0857,17.9709 C19.0827,17.5089 19.5217,17.0869 19.9887,17.0949 C20.4667,17.1039 20.8747,17.5169 20.8807,17.9839 C20.8867,18.4669 20.4027,18.9319 19.9767,18.8729" id="Fill-75" fill="#FFFFFF"></path>
                    <path d="M13.0154,10.1364 C13.0154,10.6494 12.6574,10.9884 12.1524,11.0154 C11.7094,11.0394 11.2584,10.5854 11.2634,10.1384 C11.2704,9.6484 11.7054,9.2264 12.1224,9.2164 C12.6294,9.2044 13.0154,9.6074 13.0154,10.1364" id="Fill-77" fill="#FFFFFF"></path>
                    <path d="M17.8616,11.0092 C17.4536,11.0642 17.0126,10.6552 17.0016,10.1372 C16.9886,9.5622 17.4756,9.2322 17.8866,9.2182 C18.3516,9.2022 18.8036,9.6552 18.7866,10.1282 C18.7696,10.6062 18.3286,11.0442 17.8616,11.0092" id="Fill-79" fill="#FFFFFF"></path>
                    <path d="M14.9927,21.7369 C14.5127,21.7369 14.1367,21.3569 14.1327,20.8749 C14.1287,20.3469 14.5537,19.9429 15.0407,19.9559 C15.5037,19.9689 15.9127,20.4179 15.9247,20.8479 C15.9377,21.3169 15.4857,21.7369 14.9927,21.7369" id="Fill-81" fill="#FFFFFF"></path>
                    <path d="M10.1514,15.1255 C10.1514,15.6285 9.7674,16.0095 9.2614,16.0085 C8.8454,16.0085 8.3694,15.5485 8.3614,15.1385 C8.3524,14.6985 8.8224,14.2285 9.2574,14.2115 C9.6974,14.1945 10.2224,14.6535 10.1514,15.1255" id="Fill-83" fill="#FFFFFF"></path>
                    <path d="M9.1824,12.2364 C9.1844,11.7064 9.5404,11.3494 10.0664,11.3504 C10.5774,11.3524 10.9194,11.7254 10.9314,12.2594 C10.9424,12.7124 10.4874,13.1444 10.0634,13.1394 C9.5314,13.1324 9.1554,12.6974 9.1824,12.2364" id="Fill-85" fill="#FFFFFF"></path>
                    <path d="M13.0154,20.1127 C13.0154,20.5927 12.5974,21.0077 12.1234,21.0097 C11.6564,21.0117 11.2614,20.4837 11.2614,20.0887 C11.2604,19.6617 11.6844,19.2087 12.1484,19.2037 C12.5574,19.1987 13.1164,19.6557 13.0154,20.1127" id="Fill-87" fill="#FFFFFF"></path>
                    <path d="M15.0036,8.4868 C15.5076,8.4868 15.9476,8.9008 15.9236,9.3808 C15.9036,9.7778 15.5216,10.2658 14.9836,10.2498 C14.5106,10.2358 14.1326,9.8438 14.1336,9.3388 C14.1346,8.8728 14.5276,8.4868 15.0036,8.4868" id="Fill-89" fill="#FFFFFF"></path>
                    <path d="M21.6073,15.1152 C21.6073,15.6262 21.2293,16.0032 20.7283,16.0112 C20.2733,16.0192 19.8613,15.5742 19.8583,15.1372 C19.8563,14.6552 20.2743,14.2162 20.7363,14.2142 C21.2333,14.2132 21.6073,14.6002 21.6073,15.1152" id="Fill-91" fill="#FFFFFF"></path>
                    <path d="M10.0662,18.8729 C9.5432,18.8729 9.1832,18.5089 9.1822,17.9849 C9.1812,17.4289 9.5922,17.0809 10.0442,17.0939 C10.6092,17.1089 10.9282,17.5199 10.9312,17.9919 C10.9332,18.4749 10.4862,18.9529 10.0662,18.8729" id="Fill-93" fill="#FFFFFF"></path>
                    <path d="M14.0661,10.9624 C14.4041,10.9634 14.6181,11.1754 14.6171,11.5104 C14.6171,11.8144 14.3471,12.0764 14.0341,12.0774 C13.7651,12.0774 13.4601,11.7954 13.4551,11.5414 C13.4491,11.2464 13.7501,10.9614 14.0661,10.9624" id="Fill-95" fill="#FFFFFF"></path>
                    <path d="M17.6143,17.1758 C17.9103,17.1738 18.2083,17.4638 18.2083,17.7538 C18.2093,18.0088 17.8903,18.3348 17.6373,18.3378 C17.3653,18.3418 17.0443,18.0238 17.0463,17.7518 C17.0483,17.4618 17.3283,17.1778 17.6143,17.1758" id="Fill-97" fill="#FFFFFF"></path>
                    <path d="M11.8507,17.7568 C11.8527,17.4098 12.0657,17.1758 12.3797,17.1758 C12.6917,17.1758 12.9557,17.4328 12.9657,17.7458 C12.9757,18.0348 12.6547,18.3538 12.3607,18.3368 C12.1347,18.3228 11.8017,18.0978 11.8507,17.7568" id="Fill-99" fill="#FFFFFF"></path>
                    <path d="M11.416,15.5253 C11.77,15.5253 11.996,15.7503 11.996,16.1023 C11.996,16.4183 11.761,16.6413 11.428,16.6403 C11.14,16.6383 10.848,16.3593 10.844,16.0823 C10.841,15.8103 11.133,15.5253 11.416,15.5253" id="Fill-101" fill="#FFFFFF"></path>
                    <path d="M15.9576,19.2613 C15.6806,19.2613 15.3866,19.0063 15.4006,18.7503 C15.4196,18.3973 15.6596,18.1443 15.9846,18.1453 C16.2586,18.1473 16.5626,18.4183 16.5556,18.6813 C16.5476,18.9993 16.2606,19.3143 15.9576,19.2613" id="Fill-103" fill="#FFFFFF"></path>
                    <path d="M14.028,19.2613 C13.724,19.2613 13.468,19.0153 13.456,18.7103 C13.446,18.4543 13.747,18.1483 14.01,18.1463 C14.328,18.1443 14.624,18.4303 14.617,18.7353 C14.611,19.0423 14.365,19.2613 14.028,19.2613" id="Fill-105" fill="#FFFFFF"></path>
                    <path d="M19.1316,16.0869 C19.1316,16.4209 18.9166,16.6379 18.5846,16.6399 C18.2716,16.6419 18.0126,16.3979 18.0216,16.1089 C18.0316,15.7489 18.2556,15.5249 18.6036,15.5249 C18.9346,15.5259 19.1316,15.7359 19.1316,16.0869" id="Fill-107" fill="#FFFFFF"></path>
                    <path d="M16.5104,11.5195 C16.5104,11.8545 16.2954,12.0745 15.9644,12.0775 C15.6274,12.0795 15.3984,11.8495 15.3994,11.5065 C15.4004,11.2135 15.6504,10.9635 15.9444,10.9625 C16.3024,10.9615 16.5104,11.1655 16.5104,11.5195" id="Fill-109" fill="#FFFFFF"></path>
                    <path d="M17.6147,13.0479 C17.3367,13.0459 17.0527,12.7749 17.0467,12.5059 C17.0397,12.2379 17.3677,11.8919 17.6367,11.9269 C17.9057,11.9609 18.2247,12.2249 18.2047,12.4769 C18.1817,12.7669 17.9057,13.1129 17.6147,13.0479" id="Fill-111" fill="#FFFFFF"></path>
                    <path d="M11.996,14.1572 C11.996,14.4502 11.73,14.7272 11.438,14.7372 C11.181,14.7472 10.841,14.4082 10.841,14.1432 C10.84,13.8762 11.144,13.5892 11.433,13.5842 C11.708,13.5792 11.996,13.8722 11.996,14.1572" id="Fill-113" fill="#FFFFFF"></path>
                    <path d="M11.8508,12.5022 C11.8488,12.1522 12.0528,11.9342 12.3828,11.9332 C12.7768,11.9312 12.9378,12.2012 12.9588,12.4792 C12.9758,12.7082 12.7438,13.0692 12.4038,13.0522 C12.0588,13.0352 11.8528,12.8482 11.8508,12.5022" id="Fill-115" fill="#FFFFFF"></path>
                    <path d="M19.1316,14.1663 C19.1316,14.4523 18.8556,14.7703 18.6076,14.7413 C18.2876,14.7043 18.0496,14.4723 18.0436,14.1063 C18.0386,13.8213 18.2946,13.5823 18.5826,13.5833 C18.9356,13.5853 19.1316,13.7943 19.1316,14.1663" id="Fill-117" fill="#FFFFFF"></path>
                </g>
            </g>
        </g>
    </g>
</svg>