<?xml version="1.0" encoding="UTF-8" standalone="no"?>
<svg width="142px" height="28px" viewBox="0 0 142 28" version="1.1" xmlns="http://www.w3.org/2000/svg" xmlns:xlink="http://www.w3.org/1999/xlink">
    <!-- Generator: Sketch 40.3 (33839) - http://www.bohemiancoding.com/sketch -->
    <title>Page 1</title>
    <desc>Created with Sketch.</desc>
    <defs>
        <polygon id="path-1" points="12.4441295 15.27286 12.4441295 0.0400914249 0.167066916 0.0400914249 0.167066916 15.27286"></polygon>
        <polygon id="path-3" points="0.319178492 4.42105263 4.4325121 4.42105263 4.4325121 0.307771733 0.319178492 0.307771733 0.319178492 4.42105263"></polygon>
    </defs>
    <g id="Symbols" stroke="none" stroke-width="1" fill="none" fill-rule="evenodd">
        <g id="BaseHealth-Logo" transform="translate(-6.000000, -2.000000)">
            <g id="Page-1" transform="translate(6.000000, 2.000000)">
                <path d="M79.3311694,13.7096105 C79.3311694,11.9257158 79.3311694,10.1418211 79.3315373,8.35792632 C79.3315373,8.10518947 79.2925425,8.06208421 79.033558,8.0654 C78.6266876,8.07018947 78.2194492,8.08345263 77.8125788,8.08676842 C77.6849259,8.08787368 77.5874389,8.04882105 77.5896461,7.88413684 C77.5962679,7.34182105 77.5966358,6.79913684 77.5933249,6.25682105 C77.5925891,6.10466316 77.6948585,6.08513684 77.7978637,6.08550526 C79.5853715,6.08882105 81.3728793,6.09618947 83.160387,6.10208421 C83.4234181,6.10282105 83.4701383,6.14408421 83.4716098,6.41008421 C83.4745528,6.86324211 83.4738171,7.31676842 83.4716098,7.77029474 C83.4705062,8.01418947 83.4098067,8.07166316 83.1725269,8.07018947 C82.7645528,8.06797895 82.3562109,8.07092632 81.9482368,8.06245263 C81.7679777,8.05876842 81.6844699,8.10555789 81.6852057,8.31150526 C81.6892523,9.57445263 81.6804233,10.8374 81.6763767,12.1003474 C81.6756409,12.2425579 81.7319259,12.3074 81.8904803,12.3070316 C83.9016565,12.3022421 85.9132005,12.3022421 87.9243767,12.3070316 C88.0792523,12.3074 88.1138326,12.2444 88.1134648,12.1106632 C88.109786,10.8326105 88.1061073,9.55418947 88.109786,8.27576842 C88.1101539,8.10666316 88.0490865,8.05766316 87.8875891,8.06171579 C87.4722575,8.0724 87.056558,8.06245263 86.6412264,8.07350526 C86.4455166,8.07866316 86.3598016,8.02045263 86.3653197,7.80861053 C86.3774596,7.32561053 86.3767238,6.84224211 86.3656876,6.35924211 C86.3609052,6.15182105 86.4381591,6.09729474 86.6386513,6.0984 C88.3382368,6.10576842 90.0378223,6.10318947 91.7374078,6.10355789 C92.2233715,6.10355789 92.2152782,6.10318947 92.2141746,6.58913684 C92.2127031,6.99624211 92.2322005,7.40334737 92.2432368,7.81045263 C92.248387,7.99834737 92.1464855,8.08345263 91.9570295,8.07829474 C91.5494233,8.06761053 91.1414492,8.06871579 90.7334751,8.06466316 C90.5539518,8.06318947 90.5075995,8.17445263 90.5134855,8.32771579 C90.5182679,8.46071579 90.5307756,8.59371579 90.5307756,8.72671579 C90.5315114,12.0642421 90.5315114,15.4014 90.5307756,18.7389263 C90.5304078,18.8785579 90.5175321,19.0181895 90.5123819,19.1578211 C90.5075995,19.2922947 90.5598378,19.3571368 90.7084596,19.3541895 C91.1013508,19.3460842 91.4949777,19.3508737 91.8882368,19.3516105 C92.2068171,19.3523474 92.2226358,19.3906632 92.2141746,19.7034526 C92.2024026,20.1407684 92.2138067,20.5791895 92.2325684,21.0161368 C92.2417653,21.2338737 92.1913663,21.3119789 91.9695373,21.3119789 C90.1809259,21.3127158 88.3923145,21.3097684 86.6037031,21.3164 C86.4131435,21.3171368 86.3620088,21.2541368 86.3656876,21.0725053 C86.3759881,20.5895053 86.3767238,20.1061368 86.3656876,19.6231368 C86.3609052,19.4124 86.4554492,19.3482947 86.6449052,19.3501368 C87.0753197,19.3541895 87.5061021,19.3446105 87.9361487,19.3564 C88.0785166,19.3600842 88.127444,19.2978211 88.1267083,19.1802947 C88.1219259,18.1778211 88.1086824,17.1757158 88.1083145,16.1732421 C88.1079466,15.6102947 88.1307549,15.0469789 88.130387,14.4840316 C88.130387,14.4261895 88.047615,14.3650316 87.9957446,14.3130842 C87.9806617,14.2979789 87.9387238,14.3094 87.9089259,14.3094 C85.9047394,14.3094 83.9009207,14.3097684 81.8971021,14.3086632 C81.7249363,14.3086632 81.6226668,14.3550842 81.6855736,14.5569789 C81.7024959,14.6115053 81.6907238,14.6748737 81.6907238,14.7345579 C81.6910917,16.1319789 81.6910917,17.5290316 81.6907238,18.9264526 C81.6907238,19.3512421 81.690356,19.3512421 82.1189311,19.3512421 C82.4529622,19.3512421 82.7869933,19.3508737 83.1210244,19.3516105 C83.4263611,19.3523474 83.4705062,19.3965579 83.4705062,19.6920316 C83.4705062,20.1234526 83.471242,20.5545053 83.4716098,20.9855579 C83.4719777,21.2736632 83.435558,21.3123474 83.1607549,21.3123474 C81.3868585,21.3127158 79.6129622,21.3105053 77.8390658,21.3160316 C77.6632212,21.3164 77.5852316,21.2758737 77.5855995,21.0831895 C77.5863352,20.5729263 77.5613197,20.0622947 77.5624233,19.5520316 C77.5627912,19.3836632 77.7047912,19.3512421 77.8482627,19.3512421 C78.2562368,19.3516105 78.6649466,19.3401895 79.0725528,19.3560316 C79.2877601,19.3645053 79.3315373,19.2760842 79.3311694,19.0837684 C79.3260192,17.2925053 79.3282264,15.5008737 79.3282264,13.7096105 L79.3311694,13.7096105 Z" id="Fill-1" fill="#1F3366"></path>
                <g id="Group-5" transform="translate(129.492228, 6.042068)">
                    <mask id="mask-2" fill="white">
                        <use xlink:href="#path-1"></use>
                    </mask>
                    <g id="Clip-4"></g>
                    <path d="M2.08453057,7.68412105 L2.08453057,2.26612105 C2.08453057,1.99606842 2.06650466,1.97838421 1.79133368,1.97801579 C1.33884663,1.97764737 0.88599171,1.97359474 0.433504663,1.98096316 C0.246255959,1.98391053 0.163851813,1.91648947 0.167162694,1.72233158 C0.174520207,1.26917368 0.167898446,0.815647368 0.169737824,0.362121053 C0.170841451,0.0961210526 0.208732642,0.0614894737 0.483903627,0.0614894737 L3.7789658,0.0614894737 C3.8455513,0.0614894737 3.9180228,0.0773315789 3.97798653,0.0567 C4.16339585,-0.0063 4.1898829,0.121542105 4.21784145,0.245331579 C4.22887772,0.295068421 4.22078446,0.348857895 4.22078446,0.401173684 C4.22078446,2.05833158 4.22115233,3.71585789 4.2200487,5.37338421 C4.2200487,5.4467 4.20643731,5.52001579 4.20643731,5.5937 C4.20643731,5.64564737 4.21931295,5.69796316 4.22630259,5.75027895 C4.27633368,5.73480526 4.3318829,5.72927895 4.37529223,5.70275263 C4.86677409,5.40322632 5.34501244,5.07864737 5.8501057,4.80417368 C6.30075337,4.55954211 6.8003285,4.45048947 7.31277927,4.38196316 C7.93264974,4.29943684 8.52529741,4.37717368 9.09440104,4.61406842 C9.7128,4.87085789 10.1413751,5.32143684 10.3679865,5.95991053 C10.5773078,6.54975263 10.626971,7.16464737 10.6306497,7.78064737 C10.641686,9.48275263 10.6346964,11.1848579 10.6343285,12.8865947 C10.6343285,13.0177526 10.6225565,13.1507526 10.6402145,13.2793316 C10.6453648,13.3169105 10.7329192,13.3703316 10.7825824,13.3703316 C11.2494166,13.3714368 11.7162508,13.3581737 12.183085,13.3574368 C12.3673907,13.3570684 12.4494269,13.4911737 12.4439088,13.6838579 C12.4321368,14.1130684 12.4266187,14.5433842 12.4405979,14.9722263 C12.4483233,15.2002789 12.4111679,15.2699105 12.1856601,15.2699105 C11.0426705,15.2706474 9.89968083,15.2706474 8.75705907,15.2702789 C8.46864456,15.2702789 8.45392953,15.2559105 8.45392953,14.9689105 C8.45356166,12.5085947 8.45540104,10.0486474 8.4498829,7.5887 C8.44951503,7.41554211 8.41456684,7.23612105 8.36012124,7.07143684 C8.21039585,6.61975263 7.82007979,6.37180526 7.34625596,6.34454211 C6.56746321,6.29922632 5.90786218,6.62048947 5.26150466,6.98559474 C4.96352539,7.15396316 4.68467565,7.35696316 4.39589326,7.54227895 C4.27559793,7.61927895 4.21600207,7.71064737 4.21673782,7.86833158 C4.22299171,9.63712105 4.22188808,11.4059105 4.21820933,13.1750684 C4.21784145,13.3290684 4.23586736,13.3894895 4.42385181,13.3780684 C4.88259275,13.3504368 5.34317306,13.3589105 5.80338549,13.3585421 C5.96745803,13.3585421 6.05538031,13.4285421 6.05059793,13.6182789 C6.03919378,14.1012789 6.04213679,14.5846474 6.0494943,15.0676474 C6.05206943,15.2242263 5.99688808,15.2732263 5.84274819,15.2728579 C4.03206425,15.2688053 2.22138031,15.2691737 0.410328497,15.2721211 C0.224919171,15.2724895 0.165323316,15.1877526 0.16753057,15.0134895 C0.173048705,14.5677 0.168634197,14.1215421 0.169737824,13.6757526 C0.170105699,13.4359105 0.240002073,13.3603842 0.488318135,13.3625947 C0.954048705,13.3666474 1.41977927,13.3824895 1.88587772,13.3902263 C2.01426632,13.3924368 2.08968083,13.3401211 2.08673782,13.1912789 C2.07974819,12.8571211 2.08453057,12.5225947 2.08453057,12.1880684 L2.08453057,7.68412105" id="Fill-3" fill="#1F3366" mask="url(#mask-2)"></path>
                </g>
                <path d="M95.3984694,14.9801105 L95.6556145,14.9801105 L101.462164,14.9801105 C101.536107,14.9801105 101.614832,14.9668474 101.683625,14.9863737 C101.881542,15.0423737 101.891842,14.9149 101.860205,14.7933211 C101.820107,14.6396895 101.752418,14.4915842 101.683257,14.3475316 C101.424273,13.8066895 101.079941,13.3321632 100.617521,12.9420053 C99.6724487,12.1432684 98.6022984,11.9892684 97.4559979,12.3554789 C96.707371,12.5949526 96.1621793,13.1203211 95.778485,13.7989526 C95.5783606,14.1530053 95.4341534,14.5354263 95.3984694,14.9801105 L95.3984694,14.9801105 Z M99.695257,16.5842158 L95.6210342,16.5842158 C95.3193762,16.5842158 95.3179047,16.5845842 95.364257,16.8815316 C95.4760912,17.5988474 95.8023969,18.2144789 96.2935109,18.7365316 C96.7945575,19.2692684 97.414428,19.6004789 98.1424539,19.7065842 C99.2019358,19.8613211 100.21764,19.7261105 101.114153,19.1160053 C101.484972,18.8632684 101.788102,18.5051632 102.101164,18.1750579 C102.20748,18.0626895 102.284734,18.0321105 102.419744,18.0921632 C102.897982,18.3058474 103.379532,18.5129 103.858506,18.7251105 C104.125583,18.8437421 104.139195,18.8997421 103.946796,19.1244789 C103.661692,19.4582684 103.392407,19.8097421 103.077506,20.1133211 C102.577931,20.5952158 101.979765,20.9378474 101.328625,21.1721632 C100.905936,21.3239526 100.468899,21.4374263 100.03407,21.5523737 C99.8659513,21.5965842 99.6860601,21.6127947 99.511687,21.6135316 C99.0069617,21.6153737 98.5018684,21.6168474 97.9982466,21.5899526 C97.730801,21.5759526 97.4655627,21.5074263 97.2006922,21.4554789 C96.5168114,21.3217421 95.8998839,21.0314263 95.3219513,20.6475316 C94.4666404,20.0794263 93.7971067,19.3499526 93.3795679,18.4042158 C93.151485,17.8869526 93.030086,17.3420579 92.9557751,16.7805842 C92.8601275,16.0544263 92.9053762,15.3349 93.0609876,14.6301105 C93.2280031,13.8737421 93.568656,13.1822158 94.0535161,12.5735842 C94.6020187,11.8846368 95.2778062,11.3463737 96.0657959,10.9532684 C96.6731585,10.6504263 97.3147337,10.4923737 97.9930964,10.4175842 C98.5839047,10.3523737 99.1585264,10.4124263 99.7191689,10.5354789 C100.524449,10.7123211 101.24291,11.1017421 101.906558,11.5998474 C102.573148,12.1005316 103.109879,12.7113737 103.453107,13.4625842 C103.677511,13.9536895 103.828708,14.4867947 103.948635,15.0154789 C104.046858,15.4480053 104.047962,15.9026368 104.096889,16.3469526 C104.11749,16.5333737 104.042811,16.5912158 103.858506,16.5904789 C102.470511,16.5845842 101.082884,16.5871632 99.695257,16.5871632 L99.695257,16.5842158 Z" id="Fill-6" fill="#1F3366"></path>
                <path d="M34.8802767,10.0293421 C34.8802767,10.8686053 34.8835876,11.7078684 34.8780694,12.5471316 C34.8765979,12.7512368 34.920743,12.8514474 35.1605979,12.8448158 C35.7830435,12.8275 36.4062249,12.8426053 37.0290383,12.8378158 C37.6459658,12.8333947 38.2621575,12.8098158 38.8551731,12.6145526 C39.4820332,12.4082368 40.0305358,12.0762895 40.4076083,11.5214474 C40.807857,10.9327105 40.9719295,10.2787632 40.8490591,9.56660526 C40.733914,8.90086842 40.4565358,8.31986842 39.9264269,7.88660526 C39.3238466,7.39402632 38.5936135,7.22234211 37.8479295,7.18328947 C36.9676031,7.13723684 36.0832301,7.17223684 35.2006964,7.17260526 C34.9163285,7.17260526 34.8810124,7.20686842 34.8806446,7.48944737 C34.8802767,8.33607895 34.8806446,9.18271053 34.8802767,10.0293421 M34.8799088,17.0993421 L34.8799088,18.5487105 C34.8799088,19.0394474 34.8780694,19.5298158 34.8810124,20.0205526 C34.8821161,20.2482368 34.932515,20.2869211 35.1554477,20.2578158 C35.1992249,20.2519211 35.2444736,20.2578158 35.2886187,20.2570789 C36.3238207,20.2379211 37.3590228,20.2276053 38.393857,20.1955526 C39.0700124,20.1749211 39.6990798,19.9697105 40.2777482,19.6175 C40.9288881,19.2210789 41.358199,18.6411842 41.5425047,17.9131842 C41.6694218,17.4102895 41.6929658,16.8937632 41.5748777,16.3628684 C41.4155876,15.6451842 41.0727275,15.0792895 40.473458,14.6615 C39.7303492,14.1435 38.8838674,13.9743947 38.0035409,13.9567105 C37.053686,13.9379211 36.1030953,13.9611316 35.1532404,13.9460263 C34.9273648,13.9427105 34.8751264,14.0149211 34.8765979,14.2223421 C34.8843233,15.1813421 34.8799088,16.1403421 34.8799088,17.0993421 M40.0710021,13.2228158 C40.1706964,13.2817632 40.2082197,13.3134474 40.2512611,13.3281842 C41.2559295,13.6733947 42.0961575,14.2337632 42.597572,15.2008684 C42.7988,15.5891842 42.9448466,16.0073421 42.9419036,16.4593947 C42.9404321,16.7368158 42.9330746,17.0146053 42.9444788,17.2916579 C42.9632404,17.7569737 42.846256,18.1913421 42.6762974,18.6168684 C42.4360746,19.2188684 42.1082974,19.7641316 41.5848104,20.1587105 C41.2654943,20.3996579 40.9377171,20.6527632 40.5735202,20.8034474 C40.0816705,21.0068158 39.5581834,21.1505 39.0354321,21.2566053 C38.671971,21.3302895 38.2868052,21.3096579 37.9112041,21.3103947 C35.9143751,21.3148158 33.917914,21.3126053 31.9214528,21.3122368 C31.6437067,21.3122368 31.631199,21.2997105 31.6304632,21.0245 C31.6297275,20.8461842 31.6363492,20.6675 31.6286238,20.4895526 C31.6212663,20.3134474 31.7194891,20.2463947 31.8710539,20.2486053 C32.3522352,20.2552368 32.8330487,20.2721842 33.3138622,20.2802895 C33.4562301,20.2828684 33.5577637,20.2279737 33.5463596,20.0585 C33.5412093,19.9844474 33.5456238,19.9100263 33.5456238,19.8356053 C33.5456238,15.7100263 33.5437845,11.5848158 33.5504062,7.45923684 C33.5507741,7.23155263 33.4783026,7.16339474 33.2601523,7.16892105 C32.7855927,7.18034211 32.3102974,7.16781579 31.8353699,7.17518421 C31.6819658,7.17739474 31.6205306,7.12876316 31.6278881,6.97071053 C31.6378207,6.74818421 31.6308311,6.52455263 31.6304632,6.30165789 C31.6297275,6.15760526 31.699256,6.08576316 31.8445668,6.08613158 C33.2910539,6.09202632 34.7371731,6.09865789 36.1836601,6.10307895 C36.7924943,6.10528947 37.4009606,6.1005 38.0097948,6.10455263 C38.8010953,6.10971053 39.5751057,6.24639474 40.2777482,6.60707895 C41.2886705,7.12581579 41.9243596,7.97207895 42.1285306,9.09355263 C42.2407326,9.70918421 42.2499295,10.3480263 42.1038829,10.9632895 C41.8540953,12.0158684 41.1908155,12.7309737 40.2067482,13.1572368 C40.1725358,13.1719737 40.1397948,13.1892895 40.0710021,13.2228158" id="Fill-8" fill="#138DCD"></path>
                <path d="M109.391834,19.8283105 C109.565471,19.8146789 109.741683,19.8150474 109.91201,19.7844684 C110.617963,19.6569947 111.231948,19.3265211 111.789279,18.8881 C112.013683,18.7116263 112.23073,18.5248368 112.133611,18.1718895 C112.092041,18.0197316 112.093145,17.8384684 112.132507,17.6852053 C112.183642,17.4866263 112.10087,17.3643105 111.966227,17.2692579 C111.134828,16.6797842 110.240155,16.2811526 109.188398,16.4067842 C108.446393,16.4955737 107.873243,16.8286263 107.613155,17.5706263 C107.395005,18.1932579 107.518611,18.7639421 107.945347,19.2532053 C108.322419,19.6861 108.831559,19.8294158 109.391834,19.8283105 M112.284072,20.2243632 C111.894124,20.4907316 111.54501,20.7604158 111.166466,20.9799947 C110.645186,21.2824684 110.072036,21.4276263 109.469455,21.5013105 C108.998207,21.5591526 108.546455,21.5038895 108.098015,21.4084684 C107.423331,21.2651526 106.842455,20.9074158 106.367528,20.4258895 C105.826015,19.8773105 105.50486,19.2086263 105.469544,18.4069421 C105.433492,17.5868368 105.577699,16.8315737 106.092725,16.1783632 C106.693098,15.4172053 107.485502,14.9559421 108.428367,14.7599421 C109.690181,14.4976263 110.853036,14.7901526 111.951512,15.4194158 C111.991979,15.4426263 112.075119,15.4702579 112.08358,15.4581 C112.118896,15.4068895 112.151269,15.3416789 112.152005,15.2808895 C112.156787,14.9268368 112.142808,14.5724158 112.153108,14.2183632 C112.178124,13.3695211 111.713497,12.6606789 110.898652,12.4064684 C110.032673,12.1364158 109.170005,12.1397316 108.385326,12.6647316 C108.154668,12.8194684 107.968891,13.0508368 107.787896,13.2682053 C107.660979,13.4211 107.556134,13.4874158 107.345341,13.4214684 C106.865999,13.2715211 106.37415,13.1624684 105.890761,13.0239421 C105.560409,12.9296263 105.568134,12.9185737 105.739196,12.6404158 C106.251647,11.8070474 106.9473,11.1748368 107.851906,10.8130474 C108.27901,10.6424684 108.74658,10.5603105 109.203481,10.4822053 C109.585704,10.4166263 109.980803,10.3768368 110.367072,10.3937842 C111.202885,10.4295211 112.025823,10.5496263 112.777025,10.9659421 C113.381813,11.3012053 113.813331,11.7904684 114.04215,12.4363105 C114.142948,12.7203632 114.193715,13.0353632 114.198129,13.3374684 C114.226088,15.2819947 114.235652,17.2268895 114.247056,19.1717842 C114.247792,19.3243105 114.277222,19.3983632 114.452331,19.4105211 C114.522595,19.4153105 114.638476,19.5468368 114.641051,19.6238368 C114.658341,20.1212053 114.650248,20.6196789 114.649512,21.1177842 C114.649512,21.2548368 114.580352,21.3148895 114.441295,21.3141526 C113.802663,21.3112053 113.164398,21.3071526 112.526134,21.3152579 C112.308352,21.3182053 112.315709,21.1778368 112.316445,21.0374684 C112.317549,20.8226789 112.332632,20.6078895 112.332264,20.3931 C112.332264,20.3334158 112.298787,20.2737316 112.284072,20.2243632" id="Fill-10" fill="#1F3366"></path>
                <path d="M120.173055,12.7850211 L120.173055,19.1399158 C120.173055,19.4037053 120.19991,19.4213895 120.469563,19.4125474 C120.810583,19.4014947 121.151972,19.3974421 121.493361,19.4003895 C121.669941,19.4018632 121.781039,19.4796 121.778464,19.6833368 C121.77221,20.1438632 121.772578,20.6047579 121.778096,21.0656526 C121.780304,21.2472842 121.703785,21.3147053 121.525366,21.3143368 C119.811065,21.3110211 118.096397,21.3106526 116.382096,21.3154421 C116.21876,21.3158105 116.159899,21.2668105 116.162842,21.0991789 C116.172039,20.6161789 116.173143,20.1328105 116.162842,19.6501789 C116.158428,19.4556526 116.259962,19.3978105 116.419252,19.3992842 C116.871371,19.4033368 117.323122,19.4121789 117.775241,19.4258105 C117.957708,19.4313368 118.026501,19.3477053 118.013993,19.1749158 C118.005164,19.0496526 117.993024,18.9243895 117.993024,18.7991263 C117.99192,15.3871789 117.992288,11.9756 117.992288,8.56402105 C117.992288,8.01986316 117.992656,8.01986316 117.444153,8.01986316 C117.087682,8.02023158 116.731578,8.01544211 116.375475,8.02244211 C116.227589,8.02538947 116.160635,7.98523158 116.16321,7.82238947 C116.171304,7.31691579 116.170568,6.81144211 116.163578,6.30633684 C116.161371,6.14975789 116.216552,6.10038947 116.370692,6.10112632 C117.558195,6.10481053 118.745697,6.10370526 119.9332,6.09928421 C120.159811,6.09817895 120.174526,6.23486316 120.174159,6.40765263 C120.172319,8.39970526 120.173055,10.3917579 120.173055,12.3838105 L120.173055,12.7850211" id="Fill-12" fill="#1F3366"></path>
                <path d="M69.7774389,15.2118105 L73.3851953,15.2118105 C73.4517808,15.2121789 73.5191021,15.2084947 73.5849518,15.2169684 C73.8012627,15.2442316 73.8443041,15.1944947 73.7935373,14.9786 C73.6655166,14.4348105 73.4826824,13.9123895 73.211558,13.4216526 C72.7097756,12.5138632 71.9512161,11.9243895 70.9645736,11.6366526 C70.3097549,11.4454421 69.6387497,11.4122842 68.9659052,11.5452842 C68.2709881,11.6827053 67.6492782,11.9722842 67.1254233,12.4593368 C66.4529466,13.0849158 66.0718275,13.8751789 65.8371228,14.7468632 C65.712413,15.2114421 65.7179311,15.2121789 66.1921228,15.2118105 C67.3873508,15.2114421 68.5822109,15.2118105 69.7774389,15.2118105 M70.3921591,16.3167053 L66.028786,16.3167053 C65.676729,16.3167053 65.7083663,16.3144947 65.7337497,16.6700211 C65.7646513,17.1088105 65.8676565,17.5232842 66.0313611,17.9241263 C66.4047549,18.8396526 67.0294078,19.5400211 67.8795684,20.0381263 C68.4420503,20.3674947 69.0516202,20.5432316 69.7012886,20.6029158 C70.9060813,20.7134421 71.963356,20.3453895 72.9190969,19.6372842 C73.3355321,19.3292842 73.6931073,18.9582842 73.9936617,18.5375474 C74.1165321,18.3654947 74.2364596,18.3279158 74.4200295,18.4270211 C74.5925632,18.5198632 74.7709829,18.6034947 74.9523456,18.6771789 C75.1101642,18.7409158 75.1480554,18.8444421 75.045786,18.9663895 C74.7110192,19.3650211 74.3964855,19.7894421 74.0142627,20.1376 C73.6544803,20.4651263 73.2380451,20.7440211 72.8109415,20.9805474 C72.2160865,21.3099158 71.5678896,21.5143895 70.8840088,21.5796 C70.5407808,21.6127579 70.1964492,21.6717053 69.853957,21.6636 C68.6480606,21.6337579 67.519786,21.3261263 66.5555839,20.5741789 C65.6958585,19.9036526 65.0995321,19.0422842 64.7555684,17.9926526 C64.4914337,17.1861789 64.4035114,16.3653368 64.4634751,15.5345474 C64.5701591,14.0568105 65.1083611,12.7562842 66.2101487,11.7342842 C66.9297135,11.0670737 67.7960606,10.6614421 68.7551124,10.4853368 C69.1932523,10.4050211 69.6505218,10.3696526 70.0941798,10.3947053 C71.282786,10.4613895 72.362501,10.8198632 73.2682109,11.6440211 C74.2015114,12.4932316 74.7301487,13.5491263 74.9644855,14.7686 C75.0402679,15.1635474 75.0888275,15.5640211 75.1414337,15.9630211 C75.1800606,16.2533368 75.1175218,16.3167053 74.8224855,16.3167053 L70.3921591,16.3167053" id="Fill-14" fill="#138DCD"></path>
                <path d="M127.904146,19.2278211 C127.930265,19.3505053 127.964109,19.4378211 127.964845,19.5258737 C127.969995,20.0088737 127.966684,20.4918737 127.967788,20.9748737 C127.968156,21.1697684 127.907824,21.2902421 127.684524,21.3189789 C127.229094,21.3775579 126.777342,21.5194 126.323016,21.5219789 C125.649436,21.5252947 125.003446,21.3694526 124.500192,20.8529263 C124.155125,20.4988737 124.010182,20.0578737 123.966773,19.5892421 C123.910855,18.9865053 123.879586,18.3797158 123.875539,17.7744 C123.864503,16.1393474 123.8737,14.5042947 123.874068,12.8692421 C123.874068,12.8102947 123.868918,12.7513474 123.864135,12.6588737 C123.539669,12.6588737 123.216674,12.6592421 122.893679,12.6588737 C122.558177,12.6585053 122.490855,12.5918211 122.490855,12.2595053 C122.490488,11.8431895 122.489384,11.4272421 122.491223,11.0109263 C122.492327,10.7460316 122.540151,10.6988737 122.800239,10.6981368 C123.089757,10.6974 123.379275,10.6896632 123.668425,10.7010842 C123.839488,10.7077158 123.888415,10.6332947 123.885104,10.4781895 C123.877011,10.0924526 123.876643,9.70634737 123.870757,9.32061053 C123.86855,9.16255789 123.928513,9.05350526 124.056534,8.94666316 C124.35157,8.70092632 124.62527,8.42976842 124.905959,8.16634737 C125.192166,7.89776842 125.473223,7.62366316 125.763109,7.35876842 C125.816083,7.31050526 125.900695,7.29613684 125.970591,7.26629474 C125.997814,7.33555789 126.048213,7.40482105 126.048581,7.47408421 C126.053731,8.46255789 126.057778,9.45103158 126.047109,10.4395053 C126.044534,10.6495053 126.108177,10.7080842 126.312716,10.7021895 C126.787275,10.6885579 127.26257,10.7040316 127.73713,10.6948211 C127.898995,10.6915053 127.967788,10.7493474 127.96742,10.9066632 C127.966684,11.4121368 127.969627,11.9172421 127.965949,12.4227158 C127.964477,12.5763474 127.898627,12.6647684 127.721311,12.6614526 C127.239026,12.6529789 126.756374,12.6636632 126.274089,12.6548211 C126.114798,12.6518737 126.048581,12.6920316 126.048949,12.8644526 C126.053731,14.7301368 126.046741,16.5954526 126.058513,18.4607684 C126.059985,18.7182947 126.11627,18.9854 126.203089,19.2278211 C126.238773,19.3265579 126.420503,19.4230842 126.541534,19.4311895 C126.987399,19.4610316 127.439519,19.4835053 127.904146,19.2278211" id="Fill-16" fill="#1F3366"></path>
                <path d="M51.4503155,17.8590263 C51.4503155,17.7473947 51.4356005,17.6339211 51.4528907,17.5248684 C51.5205798,17.0945526 51.3760047,16.8407105 50.9584658,16.6329211 C49.7761135,16.0452895 48.5702171,15.7800263 47.2833881,16.1852895 C46.464129,16.4435526 45.9259269,16.9781316 45.6904865,17.8395 C45.4278233,18.8010789 45.9082689,19.8639737 46.8033104,20.2839737 C47.3738855,20.5514474 47.9801446,20.5625 48.5746316,20.4387105 C49.5862896,20.2283421 50.4662482,19.7519737 51.2019995,19.0129211 C51.3682793,18.8456579 51.4790098,18.6853947 51.4539943,18.4385526 C51.4348648,18.2469737 51.4503155,18.0524474 51.4503155,17.8590263 M51.4503155,19.8938158 C51.1240098,20.1251842 50.866129,20.3436579 50.5766109,20.5046579 C50.0866005,20.7776579 49.5932793,21.0602368 49.0701601,21.2551316 C48.4352067,21.4920263 47.7642016,21.5480263 47.0792171,21.4529737 C45.961243,21.2982368 45.1519166,20.6936579 44.6780927,19.7092368 C44.1284865,18.5667632 44.2222948,17.4349737 45.0169062,16.4052368 C45.5124347,15.7627105 46.1885902,15.4175 46.9545073,15.1938684 C47.5335435,15.0251316 48.1192016,14.9952895 48.7059632,15.0325 C49.5660565,15.0866579 50.3797974,15.3416053 51.1519684,15.7258684 C51.4466368,15.8725 51.4539943,15.8706579 51.4495798,15.5453421 C51.4389114,14.7517632 51.4573052,13.9556053 51.4032275,13.1649737 C51.3377456,12.2122368 50.7535591,11.6957105 49.8831653,11.4621316 C49.0374192,11.2355526 48.1806368,11.2561842 47.3374658,11.4967632 C46.5638233,11.7178158 45.9638181,12.1658158 45.5996212,12.9011842 C45.5142741,13.0736053 45.4006005,13.1605526 45.1938544,13.0769211 C45.0536938,13.0198158 44.8969788,13.0061842 44.7513,12.9608684 C44.5956886,12.9129737 44.5386679,12.8053947 44.6188648,12.6550789 C45.1589062,11.6422895 45.9174658,10.8991842 47.0656057,10.6026053 C47.7270461,10.4312895 48.395844,10.3568684 49.0708959,10.3918684 C49.9203207,10.4360789 50.7587093,10.5554474 51.490414,11.0502368 C52.0742326,11.4448158 52.4605021,11.9760789 52.6017663,12.6712895 C52.649958,12.9078158 52.6911601,13.1506053 52.6918959,13.3908158 C52.6985176,15.5983947 52.6963104,17.8059737 52.694471,20.0139211 C52.6941031,20.1738158 52.6823311,20.3182368 52.9181394,20.2957632 C52.9575021,20.2920789 53.0417456,20.3948684 53.0454244,20.4527105 C53.0608751,20.6748684 53.0667611,20.8999737 53.0432171,21.1202895 C53.0354917,21.1902895 52.9262326,21.3008158 52.860015,21.3037632 C52.4450513,21.3207105 52.0293518,21.3092895 51.6136523,21.3137105 C51.4635591,21.3155526 51.4481083,21.2308158 51.4492119,21.1125526 C51.4525228,20.7279211 51.4503155,20.3436579 51.4503155,19.8938158" id="Fill-18" fill="#138DCD"></path>
                <path d="M55.9156637,20.1271368 C55.8943269,20.2133474 55.8641611,20.2770842 55.8660005,20.3397158 C55.8726223,20.5902421 55.8939591,20.8404 55.9005808,21.0905579 C55.9046275,21.2427158 55.8273736,21.3189789 55.666244,21.3141895 C55.4363218,21.3075579 55.2060316,21.3090316 54.9757415,21.3149263 C54.8116689,21.3189789 54.7469228,21.2335053 54.7469228,21.0839263 C54.746187,19.9985579 54.746187,18.9135579 54.7465549,17.8281895 C54.7469228,17.6612947 54.8223373,17.5655053 54.9996534,17.5669789 C55.2148606,17.5684526 55.4300679,17.5669789 55.6452751,17.5673474 C55.8148658,17.5680842 55.8976378,17.6528211 55.903156,17.8237684 C55.9344254,18.7698737 56.3641041,19.4945579 57.1528295,19.9967158 C57.6792596,20.3319789 58.2656534,20.4892947 58.893985,20.4999789 C59.5167984,20.5106632 60.1234254,20.4542947 60.7020938,20.1993474 C61.3260109,19.9245053 61.8071922,19.4905053 61.9436741,18.8181368 C62.0805238,18.1442947 61.9241767,17.5002947 61.1556845,17.0732947 C60.6233684,16.7770842 60.0355031,16.6650842 59.4513166,16.5394526 C58.6254358,16.3618737 57.7863114,16.2406632 56.9964824,15.9171895 C56.0260264,15.5200316 55.4278606,14.8259263 55.3428813,13.7641368 C55.2505446,12.6124526 55.7648347,11.6048211 56.8037155,11.0072421 C57.4530161,10.6340316 58.1560264,10.4826105 58.8928813,10.5246105 C59.7938088,10.5761895 60.6086534,10.8635579 61.254643,11.5307684 C61.3414617,11.6206632 61.4223943,11.7168211 61.5062699,11.8100316 C61.5246637,11.8008211 61.5426896,11.7912421 61.5607155,11.7820316 C61.5607155,11.5281895 61.5603477,11.2743474 61.5607155,11.0205053 C61.5614513,10.7209789 61.5835238,10.6985053 61.8734098,10.6981368 C62.0441041,10.6977684 62.2151663,10.7021895 62.3854927,10.6966632 C62.5514047,10.6915053 62.6297622,10.7592947 62.6293943,10.9313474 C62.6268192,11.9574 62.6264513,12.9830842 62.6293943,14.0087684 C62.6301301,14.1907684 62.5374254,14.2618737 62.3718813,14.2640842 C62.1938295,14.2662947 62.015042,14.2556105 61.8377259,14.2670316 C61.6467984,14.2795579 61.5824202,14.1900316 61.5574047,14.0124526 C61.4922907,13.5522947 61.3583839,13.1135053 61.0795342,12.7314526 C60.6377155,12.1257684 60.032928,11.7776105 59.3085808,11.6361368 C58.7964979,11.5362947 58.2792648,11.5473474 57.7855756,11.7271368 C56.8890627,12.0531895 56.4225964,12.7491368 56.4895497,13.6749789 C56.5292803,14.2228211 56.8945808,14.5964 57.3764979,14.7806105 C57.9110212,14.9850842 58.4764461,15.1166105 59.0363528,15.2429789 C59.9244047,15.4434 60.8367363,15.5594526 61.6633528,15.9695053 C62.4579642,16.3637158 62.9623218,16.9723474 63.0837207,17.8934 C63.2069591,18.8299263 62.9899124,19.6467158 62.3645238,20.3415579 C62.0124668,20.7324526 61.5493114,20.9811368 61.0644513,21.1749263 C60.2757259,21.4902947 59.4446948,21.5216105 58.6121922,21.4866105 C57.796244,21.4519789 57.045042,21.2055053 56.4111922,20.6720316 C56.2397622,20.5276105 56.1054876,20.3386105 55.9156637,20.1271368" id="Fill-20" fill="#138DCD"></path>
                <path d="M14.5284762,6.23714737 C14.5097145,5.56662105 15.1137663,4.92077895 15.8079477,4.94288421 C16.6014554,4.96793684 17.0966161,5.46051579 17.0914658,6.20546316 C17.0859477,6.99977895 16.6165383,7.50930526 15.7991187,7.52072632 C15.0813933,7.53067368 14.5520202,7.02298947 14.5284762,6.23714737" id="Fill-22" fill="#138DCD"></path>
                <path d="M13.0111731,6.2671 C13.0685617,6.89967895 12.4023389,7.54073158 11.7489917,7.52415263 C10.9518052,7.50425789 10.4525979,6.95973158 10.446344,6.25825789 C10.4397223,5.57704737 10.925686,4.95073158 11.7456808,4.93931053 C12.4891575,4.92899474 13.046857,5.63562632 13.0111731,6.2671" id="Fill-24" fill="#138DCD"></path>
                <path d="M3.63538394,5.91761579 C4.7916171,5.89882632 5.60719741,6.84677368 5.65281399,7.80872105 C5.71498497,9.11661579 4.7658658,10.0767211 3.54488653,10.0535105 C2.40815078,10.0314053 1.59845648,9.17335263 1.54732176,8.08061579 C1.49177254,6.88582632 2.40667927,5.87451053 3.63538394,5.91761579" id="Fill-26" fill="#1F3366"></path>
                <path d="M3.59554301,21.8477 C2.50111295,21.9132789 1.48430466,20.9447 1.54978653,19.6953842 C1.60680725,18.6118579 2.39847565,17.7224895 3.59958964,17.7184368 C4.73669326,17.7151211 5.68213368,18.6299105 5.65527876,19.9131211 C5.63467772,20.8968053 4.7859886,21.9195421 3.59554301,21.8477" id="Fill-28" fill="#1F3366"></path>
                <path d="M23.952457,21.8477 C22.8348508,21.9714895 21.8357005,20.8209105 21.9181047,19.6902263 C22.0008767,18.5529105 22.845887,17.7092263 23.9649648,17.7169632 C25.0994933,17.7250684 25.987913,18.5945421 26.0169751,19.7812263 C26.0434622,20.8474368 25.0443119,21.9493842 23.952457,21.8477" id="Fill-30" fill="#1F3366"></path>
                <path d="M21.9206798,7.96334737 C21.8964,6.89161053 22.810571,5.88876842 23.9550321,5.90534737 C25.1193585,5.92192632 26.0206539,6.87797895 26.0155036,7.97882105 C26.0103534,9.07524211 25.1458456,10.0515579 23.9528249,10.0552421 C22.8330114,10.0585579 21.9055969,9.16071579 21.9206798,7.96334737" id="Fill-32" fill="#1F3366"></path>
                <path d="M27.5755539,13.8906526 C27.6388285,14.9870737 26.5863363,15.9788632 25.516186,15.9652316 C24.4169736,15.9508632 23.4788907,15.0117579 23.477787,13.8880737 C23.4763155,12.7485474 24.4471394,11.8035474 25.5430409,11.8101789 C26.5808181,11.8168105 27.6340461,12.7459684 27.5755539,13.8906526" id="Fill-34" fill="#1F3366"></path>
                <path d="M21.6963492,24.1058632 C21.7636705,25.2468632 20.7545876,26.1981263 19.6472819,26.1881789 C18.5142249,26.1782316 17.5963751,25.2151789 17.5978466,24.1206 C17.5989503,23.0094421 18.528572,21.9856 19.8426238,22.0659158 C20.6968311,22.1182316 21.7839036,22.9726 21.6963492,24.1058632" id="Fill-36" fill="#1F3366"></path>
                <path d="M21.6963492,3.66413158 C21.7842715,4.76939474 20.7288363,5.79102632 19.5152145,5.70371053 C18.5098104,5.63113158 17.5934321,4.81544737 17.6018933,3.65565789 C17.6103544,2.53086842 18.4789088,1.5855 19.7068777,1.5925 C20.744287,1.59839474 21.7581523,2.52681579 21.6963492,3.66413158" id="Fill-38" fill="#1F3366"></path>
                <path d="M9.9379399,24.1492263 C9.98502798,25.2769632 8.98109534,26.1906474 7.92786736,26.1880684 C6.69180518,26.1854895 5.86040622,25.2526474 5.84753057,24.1031737 C5.83539067,22.9861211 6.72969637,22.0083316 8.01284663,22.0698579 C8.92297098,22.1133316 10.0159295,22.9205421 9.9379399,24.1492263" id="Fill-40" fill="#1F3366"></path>
                <path d="M0.00728393782,13.8742579 C-0.0990321244,12.7354684 1.0229886,11.7923105 2.0291285,11.8081526 C3.06138756,11.8247316 4.15986425,12.7115211 4.06348083,14.0673105 C3.99358446,15.0476789 3.14783834,15.9436789 2.00779171,15.9613632 C0.964864249,15.9779421 -0.0982963731,15.0075211 0.00728393782,13.8742579" id="Fill-42" fill="#1F3366"></path>
                <path d="M9.9379399,3.65617368 C10.0295409,4.73048947 8.98955648,5.78343684 7.72958238,5.70975263 C6.80106425,5.65522632 5.92368083,4.76806842 5.86408497,3.84001579 C5.77616269,2.47022632 6.92982073,1.55912105 7.91609534,1.58675263 C8.97925596,1.61622632 10.008572,2.50854211 9.9379399,3.65617368" id="Fill-44" fill="#1F3366"></path>
                <path d="M15.8171446,2.06798421 C15.8697508,3.24324737 14.8536782,4.13998421 13.7765383,4.13445789 C12.6548855,4.12893158 11.7524865,3.23624737 11.730414,2.14903684 C11.7039269,0.859563158 12.6876264,-0.00438421053 13.7927249,3.68421053e-05 C14.8518389,0.00445789474 15.8576109,0.884615789 15.8171446,2.06798421" id="Fill-46" fill="#1F3366"></path>
                <g id="Group-50" transform="translate(11.404145, 23.357858)">
                    <mask id="mask-4" fill="white">
                        <use xlink:href="#path-3"></use>
                    </mask>
                    <g id="Clip-49"></g>
                    <path d="M2.3705171,0.320305263 C3.39210777,0.177726316 4.54539793,1.27267368 4.42363109,2.53156842 C4.33350155,3.46698947 3.46972953,4.41604211 2.3977399,4.4212 C1.23083834,4.42672632 0.36044456,3.46735789 0.320346114,2.38604211 C0.280615544,1.31172632 1.26063627,0.198726316 2.3705171,0.320305263" id="Fill-48" fill="#1F3366" mask="url(#mask-4)"></path>
                </g>
                <path d="M7.44374301,11.8808053 C7.43748912,12.5557526 6.84925596,13.1570158 6.10798653,13.1478053 C5.40681554,13.1389632 4.89473264,12.5494895 4.87854611,11.9651737 C4.85279482,11.0422789 5.42520933,10.5393842 6.19039067,10.5298053 C6.88236477,10.5209632 7.4422715,11.1259105 7.44374301,11.8808053" id="Fill-51" fill="#138DCD"></path>
                <path d="M8.19597513,20.7771421 C7.56837927,20.8320368 6.91503212,20.3519842 6.93085078,19.4257737 C6.94225492,18.7489842 7.54262798,18.1808789 8.20075751,18.1948789 C8.9199544,18.2099842 9.47103212,18.7803 9.48832228,19.4873 C9.50450881,20.1511947 8.92400104,20.8545105 8.19597513,20.7771421" id="Fill-53" fill="#138DCD"></path>
                <path d="M22.6762228,11.8557526 C22.6743834,12.6338579 22.0103679,13.1419105 21.3595959,13.1360158 C20.5984611,13.1290158 20.1102902,12.5067526 20.1021969,11.8189105 C20.0941036,11.1594368 20.7077202,10.5117526 21.3794611,10.5253842 C22.0497306,10.5386474 22.6909378,11.0481737 22.6762228,11.8557526" id="Fill-55" fill="#138DCD"></path>
                <path d="M15.809272,22.8289895 C15.0426192,22.8474105 14.5268575,22.1997263 14.5364223,21.4997263 C14.5463549,20.7794632 15.0944896,20.2979368 15.7143601,20.2544632 C16.4894741,20.2006737 17.1262668,20.8222 17.1115518,21.5420947 C17.0983083,22.2093053 16.5531166,22.8580947 15.809272,22.8289895" id="Fill-57" fill="#138DCD"></path>
                <path d="M19.3461389,20.7771421 C18.7075067,20.8803 18.0214187,20.1817737 18.0659316,19.4309316 C18.1038228,18.7939316 18.5544705,18.2206684 19.3446674,18.1967211 C20.0708539,18.1746158 20.6123668,18.7928263 20.6329679,19.5742474 C20.6465793,20.0918789 20.0278124,20.8869316 19.3461389,20.7771421" id="Fill-59" fill="#138DCD"></path>
                <path d="M13.0111731,21.5745158 C13.0494321,22.2513053 12.3861523,22.8566211 11.7394269,22.8389368 C10.9705668,22.8183053 10.440458,22.2203579 10.4422974,21.5306737 C10.4441368,20.8675158 10.9330435,20.2824632 11.6963855,20.2518842 C12.4604632,20.2213053 13.0623078,20.9316211 13.0111731,21.5745158" id="Fill-61" fill="#138DCD"></path>
                <path d="M6.19050104,14.6678368 C6.81000363,14.5816263 7.45488964,15.2536263 7.44569275,15.9469947 C7.43649585,16.6451526 6.84458394,17.2725737 6.15923161,17.2482579 C5.3738171,17.2202579 4.91654767,16.6665211 4.87902435,15.9982053 C4.8359829,15.2322579 5.48454767,14.6070474 6.19050104,14.6678368" id="Fill-63" fill="#138DCD"></path>
                <path d="M21.388143,14.6678368 C22.0878425,14.6251 22.6815938,15.2624684 22.677915,15.9333632 C22.6735005,16.6897316 22.0650342,17.2641 21.3730601,17.2467842 C20.5898528,17.2268895 20.116029,16.6304158 20.1053606,15.9451526 C20.0957959,15.3177316 20.6262725,14.6140474 21.388143,14.6678368" id="Fill-65" fill="#138DCD"></path>
                <path d="M8.20381088,6.99568947 C8.76151036,6.91611053 9.51050518,7.55274211 9.4921114,8.30174211 C9.47555699,8.97447895 8.90645337,9.58163684 8.17438083,9.5809 C7.44451554,9.58053158 6.96149482,9.01353158 6.94126166,8.18053158 C6.92728238,7.60653158 7.53317358,6.93011053 8.20381088,6.99568947" id="Fill-67" fill="#138DCD"></path>
                <path d="M20.627413,8.28398421 C20.6895839,8.96556316 19.9236668,9.61619474 19.3240295,9.58745789 C18.6320554,9.5543 18.0820813,8.94198421 18.0611124,8.34845789 C18.0360969,7.63814211 18.6022575,6.98640526 19.3961332,6.98493158 C19.9358067,6.98419474 20.7017238,7.61456316 20.627413,8.28398421" id="Fill-69" fill="#138DCD"></path>
                <path d="M18.3369824,10.4303316 C18.8045523,10.4310684 19.1658062,10.7821737 19.1555057,11.2445421 C19.1452052,11.7065421 18.7909409,12.0731211 18.3259461,12.0701737 C17.8425575,12.0668579 17.5239772,11.6663842 17.5140446,11.2751211 C17.5019047,10.8024368 17.8749306,10.4295947 18.3369824,10.4303316" id="Fill-71" fill="#1F3366"></path>
                <path d="M16.4462119,17.6564316 C16.9766886,17.6711684 17.2029321,18.0462211 17.2349373,18.4570105 C17.2680461,18.8869579 16.8449891,19.3088 16.4175176,19.3003263 C16.0375021,19.2929579 15.6000979,19.0048526 15.6000979,18.4658526 C15.6000979,18.0211684 15.9712845,17.5993263 16.4462119,17.6564316" id="Fill-73" fill="#1F3366"></path>
                <path d="M18.3296249,17.3425368 C17.8672052,17.3723789 17.5147803,16.9354316 17.5122052,16.5132211 C17.5092622,16.0895368 17.9124539,15.7015895 18.341029,15.7089579 C18.7795368,15.7166947 19.1532984,16.0961684 19.1591845,16.5257474 C19.1650705,16.9696947 18.7206767,17.3963263 18.3296249,17.3425368" id="Fill-75" fill="#1F3366"></path>
                <path d="M11.9422,9.31449474 C11.9422,9.78533684 11.6140549,10.0973895 11.1508995,10.1224421 C10.7443969,10.1441789 10.329801,9.72712632 10.3349513,9.31596842 C10.3408373,8.86575789 10.7403503,8.47781053 11.1233088,8.46896842 C11.5875679,8.45828421 11.9422,8.82891579 11.9422,9.31449474" id="Fill-77" fill="#1F3366"></path>
                <path d="M16.3888601,10.1164368 C16.0143627,10.1669105 15.6100674,9.79075263 15.599399,9.31512105 C15.5876269,8.78680526 16.0349637,8.48396316 16.4120363,8.4707 C16.8384041,8.45596316 17.2533679,8.87264737 17.2375492,9.30701579 C17.2217306,9.74654211 16.8178031,10.1481211 16.3888601,10.1164368" id="Fill-79" fill="#1F3366"></path>
                <path d="M13.7564891,19.9742421 C13.3165098,19.9742421 12.9710746,19.6246105 12.9677637,19.1825053 C12.9637171,18.6969263 13.3532974,18.3251895 13.8002663,18.3377158 C14.2255306,18.3498737 14.6011316,18.7625053 14.6118,19.1570842 C14.6232041,19.5885053 14.2086083,19.9742421 13.7564891,19.9742421" id="Fill-81" fill="#1F3366"></path>
                <path d="M9.31439067,13.8989789 C9.3140228,14.3613474 8.9619658,14.7113474 8.49807461,14.7109789 C8.11585181,14.7102421 7.67918342,14.2876632 7.67182591,13.9107684 C7.66373264,13.5066105 8.0948829,13.0744526 8.49439585,13.0586105 C8.89795544,13.0431368 9.37913679,13.4657158 9.31439067,13.8989789" id="Fill-83" fill="#1F3366"></path>
                <path d="M8.42523523,11.2441737 C8.42707461,10.7571211 8.75374819,10.4292263 9.23676891,10.4303316 C9.70507461,10.4314368 10.0188725,10.7744368 10.0302767,11.2655421 C10.0398415,11.6814895 9.62303834,12.0782789 9.23382591,12.0734895 C8.74528705,12.0675947 8.40021969,11.6682263 8.42523523,11.2441737" id="Fill-85" fill="#1F3366"></path>
                <path d="M11.9422,18.4817316 C11.9422,18.9231 11.5588736,19.3040474 11.1236767,19.3058895 C10.6954694,19.3077316 10.3331119,18.8228895 10.3323762,18.4592579 C10.3316404,18.0676263 10.7208528,17.6513105 11.1461171,17.6465211 C11.522086,17.6421 12.0345368,18.0617316 11.9422,18.4817316" id="Fill-87" fill="#1F3366"></path>
                <path d="M13.7665689,7.79858947 C14.2289886,7.79858947 14.6329161,8.1788 14.6108435,8.6198 C14.5924497,8.98453684 14.2418642,9.43290526 13.7481751,9.41853684 C13.3144497,9.40564211 12.967543,9.04532632 12.9682788,8.58185263 C12.9690145,8.15301053 13.3299005,7.79858947 13.7665689,7.79858947" id="Fill-89" fill="#1F3366"></path>
                <path d="M19.8257016,13.8895474 C19.8257016,14.3592842 19.4791627,14.7052316 19.019686,14.7129684 C18.6021472,14.7199684 18.2236031,14.3110211 18.2213959,13.9098105 C18.2191886,13.4666 18.602515,13.0631789 19.0266756,13.0620737 C19.4821057,13.0609684 19.8257016,13.4164947 19.8257016,13.8895474" id="Fill-91" fill="#1F3366"></path>
                <path d="M9.2362171,17.3425368 C8.75613938,17.3421684 8.42578705,17.0083789 8.42468342,16.5268526 C8.42394767,16.0158526 8.80138808,15.6960632 9.21598394,15.7074842 C9.73432073,15.7211158 10.0271497,16.0987474 10.0297249,16.5327474 C10.0323,16.9770632 9.6213829,17.4158526 9.2362171,17.3425368" id="Fill-93" fill="#1F3366"></path>
                <path d="M12.9063285,10.0734789 C13.2168155,10.0742158 13.4125254,10.2691105 13.4121575,10.5767421 C13.4114218,10.8563737 13.1642093,11.0973211 12.8768984,11.0976895 C12.6304218,11.0980579 12.3504684,10.8386895 12.345686,10.6058474 C12.3401679,10.3346895 12.6160746,10.0727421 12.9063285,10.0734789" id="Fill-95" fill="#138DCD"></path>
                <path d="M16.1619176,15.7830474 C16.4334098,15.7812053 16.7067415,16.0472053 16.7071093,16.3139421 C16.7074772,16.5482579 16.4153839,16.8477842 16.1832544,16.8511 C15.9334668,16.8540474 15.6391663,16.5622579 15.6406378,16.3124684 C15.6424772,16.0453632 15.8992544,15.7848895 16.1619176,15.7830474" id="Fill-97" fill="#138DCD"></path>
                <path d="M10.873558,16.3169263 C10.8753974,15.9982421 11.0707394,15.7834526 11.3591539,15.7830842 C11.6449933,15.7827158 11.8874233,16.0188737 11.8969881,16.3069789 C11.9058171,16.5722421 11.6107808,16.8658737 11.3414959,16.8496632 C11.1343819,16.8375053 10.8286772,16.6304526 10.873558,16.3169263" id="Fill-99" fill="#138DCD"></path>
                <path d="M10.4747073,14.2664053 C10.7999093,14.2664053 11.0066554,14.4727211 11.0070233,14.7969316 C11.0070233,15.0872474 10.7910803,15.2920895 10.4861114,15.2906158 C10.2219767,15.2895105 9.95342746,15.0327211 9.95011658,14.7785105 C9.9468057,14.5279842 10.214987,14.2664053 10.4747073,14.2664053" id="Fill-101" fill="#138DCD"></path>
                <path d="M14.6418554,17.6993895 C14.3876534,17.6997579 14.1183684,17.4654421 14.1305083,17.2300211 C14.1477984,16.9050737 14.368156,16.6726 14.6661352,16.6740737 C14.9177622,16.6755474 15.1973477,16.9249684 15.1907259,17.1662842 C15.1830005,17.4584421 14.9196016,17.7483895 14.6418554,17.6993895" id="Fill-103" fill="#138DCD"></path>
                <path d="M12.8713067,17.6993895 C12.5920891,17.6993895 12.3577523,17.4731789 12.3467161,17.1928105 C12.3371513,16.9577579 12.6134259,16.6766526 12.8547523,16.6751789 C13.1468456,16.6733368 13.4176021,16.9360211 13.4120839,17.2156526 C13.4061979,17.4978632 13.1806902,17.6993895 12.8713067,17.6993895" id="Fill-105" fill="#138DCD"></path>
                <path d="M17.5541798,14.7824526 C17.5541798,15.0889789 17.3569984,15.2886632 17.0520295,15.2905053 C16.7650865,15.2927158 16.5278067,15.0683474 16.5355321,14.8027158 C16.5450969,14.4718737 16.7500036,14.2659263 17.0696876,14.2662947 C17.3728171,14.2670316 17.5541798,14.4600842 17.5541798,14.7824526" id="Fill-107" fill="#138DCD"></path>
                <path d="M15.1490456,10.5854 C15.1490456,10.8937684 14.9522321,11.0949263 14.6483668,11.0978737 C14.3386155,11.1004526 14.1289264,10.8886105 14.1296622,10.5732421 C14.1303979,10.3042947 14.3603202,10.0744 14.6296052,10.0736632 C14.9581181,10.0725579 15.1490456,10.2604526 15.1490456,10.5854" id="Fill-109" fill="#138DCD"></path>
                <path d="M16.1623591,11.9898579 C15.9074212,11.9883842 15.6469653,11.7393316 15.6410793,11.4913842 C15.6348254,11.2456474 15.9357477,10.9277 16.1829601,10.9593842 C16.4290689,10.9907 16.7222658,11.2338579 16.703872,11.4652263 C16.6825352,11.7319632 16.4294368,12.0495421 16.1623591,11.9898579" id="Fill-111" fill="#138DCD"></path>
                <path d="M11.0068762,13.0092421 C11.0065083,13.2789263 10.7629746,13.5327684 10.4944254,13.5427158 C10.258985,13.5511895 9.94702642,13.2402421 9.94702642,12.9963474 C9.94665855,12.7509789 10.2255083,12.4871895 10.4903788,12.4824 C10.7431093,12.4776105 11.007244,12.7472947 11.0068762,13.0092421" id="Fill-113" fill="#138DCD"></path>
                <path d="M10.8737052,11.4884737 C10.8722337,11.1668421 11.0591145,10.9667895 11.3615083,10.9653158 C11.7231301,10.9634737 11.8706482,11.2117895 11.8901456,11.4678421 C11.9063321,11.6778421 11.6929642,12.0097895 11.3813736,11.9939474 C11.0646326,11.9781053 10.8751767,11.8064211 10.8737052,11.4884737" id="Fill-115" fill="#138DCD"></path>
                <path d="M17.5541798,13.0175316 C17.5541798,13.2802158 17.3007135,13.5720053 17.0737342,13.5458474 C16.7798016,13.5115842 16.5612834,13.2986368 16.5557653,12.9619 C16.5517187,12.7006895 16.7856876,12.4807421 17.0509259,12.4822158 C17.3742886,12.4840579 17.5541798,12.6756368 17.5541798,13.0175316" id="Fill-117" fill="#138DCD"></path>
            </g>
        </g>
    </g>
</svg>