<?xml version="1.0" encoding="UTF-8" standalone="no"?>
<svg width="19px" height="18px" viewBox="0 0 19 18" version="1.1" xmlns="http://www.w3.org/2000/svg" xmlns:xlink="http://www.w3.org/1999/xlink">
    <!-- Generator: Sketch 40.3 (33839) - http://www.bohemiancoding.com/sketch -->
    <title>facebook-icon</title>
    <desc>Created with Sketch.</desc>
    <defs></defs>
    <g id="Page-1" stroke="none" stroke-width="1" fill="none" fill-rule="evenodd">
        <g id="BaseHealth-Cookies-Policy" transform="translate(-846.000000, -4241.000000)">
            <g id="facebook-icon" transform="translate(846.000000, 4241.000000)">
                <polygon id="Fill-1" fill="#2DAAE1" points="0 18 18.4433498 18 18.4433498 0 0 0"></polygon>
                <path d="M14.6675734,4.665825 C14.2107163,4.92645 13.7039084,5.115825 13.1652089,5.217825 C12.7344798,4.776075 12.1197015,4.500075 11.4392187,4.500075 C10.133199,4.500075 9.07424335,5.51745 9.07424335,6.7722 C9.07424335,6.950325 9.09537635,7.1232 9.13533695,7.2897 C7.16958325,7.1952 5.42707094,6.2907 4.26052906,4.91595 C4.05726798,5.2512 3.94007586,5.641575 3.94007586,6.058575 C3.94007586,6.84645 4.35850936,7.5417 4.99249951,7.949325 C4.6055734,7.937325 4.24016453,7.835325 3.92124828,7.665075 L3.92124828,7.693575 C3.92124828,8.7942 4.73659803,9.712575 5.81899212,9.921825 C5.61995764,9.973575 5.41131724,10.001325 5.19537635,10.001325 C5.04283448,10.001325 4.89490345,9.987075 4.75004631,9.960825 C5.05205616,10.863075 5.92465714,11.520075 6.95940591,11.53845 C6.1498197,12.147825 5.13082463,12.5112 4.02191823,12.5112 C3.83056847,12.5112 3.64306108,12.500325 3.45747488,12.479325 C4.50490345,13.12395 5.74829261,13.500075 7.08351429,13.500075 C11.4338394,13.500075 13.8118788,10.038075 13.8118788,7.035825 C13.8118788,6.9372 13.8107261,6.83895 13.8061153,6.74145 C14.2675833,6.421575 14.6691103,6.02145 14.9857212,5.565075 C14.5619084,5.7462 14.1062039,5.868075 13.6274453,5.922825 C14.1158099,5.64195 14.4904404,5.196825 14.6675734,4.665825 L14.6675734,4.665825 Z" id="Fill-2" fill="#FFFFFF"></path>
            </g>
        </g>
    </g>
</svg>