<?xml version="1.0" encoding="UTF-8" standalone="no"?>
<svg width="366px" height="503px" viewBox="0 0 366 503" version="1.1" xmlns="http://www.w3.org/2000/svg" xmlns:xlink="http://www.w3.org/1999/xlink">
    <!-- Generator: Sketch 40.2 (33826) - http://www.bohemiancoding.com/sketch -->
    <title>Page 1</title>
    <desc>Created with Sketch.</desc>
    <defs></defs>
    <g id="Page-1" stroke="none" stroke-width="1" fill="none" fill-rule="evenodd">
        <g id="BaseHealth-Home" transform="translate(-173.000000, -1219.000000)">
            <g id="Page-1" transform="translate(175.000000, 1220.000000)">
                <polygon id="Stroke-1" stroke="#50BCEB" stroke-width="3" stroke-linecap="round" stroke-linejoin="round" points="144.486532 43.3792808 33.0288652 152.341008 160.847143 210.713101 195.613259 155.259612"></polygon>
                <polygon id="Stroke-2" stroke="#50BCEB" stroke-width="3" stroke-linecap="round" stroke-linejoin="round" points="90.2917338 338.158351 0.307642929 279.786258 33.0288652 152.341008 90.2917338 338.158351 160.847143 210.713101 260.033986 413.068717 163.915214 499.654961"></polygon>
                <polyline id="Stroke-4" stroke="#50BCEB" stroke-width="3" stroke-linecap="round" stroke-linejoin="round" points="19.059948 291.950564 52.4584227 443.22768 151.519741 473.924105"></polyline>
                <polyline id="Stroke-5" stroke="#50BCEB" stroke-width="3" stroke-linecap="round" stroke-linejoin="round" points="144.486532 43.3792808 291.732032 118.289647 195.613259 155.259612 260.033986 413.068717 90.2917338 338.158351"></polyline>
                <polygon id="Stroke-6" stroke="#50BCEB" stroke-width="3" stroke-linecap="round" stroke-linejoin="round" points="260.033694 413.069301 297.867881 291.950126 335.702068 430.580928"></polygon>
                <polyline id="Stroke-7" stroke="#50BCEB" stroke-width="3" stroke-linecap="round" stroke-linejoin="round" points="0.308080808 279.786258 52.4579848 443.228118 163.914192 499.654961 335.701338 430.580345 362.287879 300.21649 297.867152 291.951002"></polyline>
                <polyline id="Stroke-9" stroke="#50BCEB" stroke-width="3" stroke-linecap="round" stroke-linejoin="round" points="362.287879 300.21649 291.73247 118.289647 297.867152 291.951002 195.613697 155.259612"></polyline>
                <g id="Group-26" transform="translate(22.000000, 0.843477)">
                    <polyline id="Stroke-12" stroke="#50BCEB" stroke-width="3" stroke-linecap="round" stroke-linejoin="round" points="182.165032 100.551535 223.033719 0.345622674 286.769895 30.9909715 263.41636 47.5307041 269.732032 75.2574483 203.418209 48.4398494"></polyline>
                    <path d="M21.4368061,151.497093 C21.4368061,157.243826 16.7777758,161.901919 11.0298869,161.901919 C5.28199798,161.901919 0.621508081,157.243826 0.621508081,151.497093 C0.621508081,145.75036 5.28199798,141.092267 11.0298869,141.092267 C16.7777758,141.092267 21.4368061,145.75036 21.4368061,151.497093" id="Fill-14" fill="#F7F8FB"></path>
                    <path d="M21.4368061,151.497093 C21.4368061,157.243826 16.7777758,161.901919 11.0298869,161.901919 C5.28199798,161.901919 0.621508081,157.243826 0.621508081,151.497093 C0.621508081,145.75036 5.28199798,141.092267 11.0298869,141.092267 C16.7777758,141.092267 21.4368061,145.75036 21.4368061,151.497093 L21.4368061,151.497093 Z" id="Stroke-16" stroke="#50BCEB" stroke-width="3" stroke-linecap="round" stroke-linejoin="round"></path>
                    <path d="M280.139827,117.446754 C280.139827,123.193487 275.480796,127.85158 269.732908,127.85158 C263.985019,127.85158 259.324529,123.193487 259.324529,117.446754 C259.324529,111.700022 263.985019,107.041928 269.732908,107.041928 C275.480796,107.041928 280.139827,111.700022 280.139827,117.446754" id="Fill-18" fill="#F7F8FB"></path>
                    <path d="M280.139827,117.446754 C280.139827,123.193487 275.480796,127.85158 269.732908,127.85158 C263.985019,127.85158 259.324529,123.193487 259.324529,117.446754 C259.324529,111.700022 263.985019,107.041928 269.732908,107.041928 C275.480796,107.041928 280.139827,111.700022 280.139827,117.446754 L280.139827,117.446754 Z" id="Stroke-20" stroke="#50BCEB" stroke-width="3" stroke-linecap="round" stroke-linejoin="round"></path>
                    <path d="M134.675034,42.5358041 C134.675034,48.2825366 130.016004,52.9406297 124.268115,52.9406297 C118.520226,52.9406297 113.859736,48.2825366 113.859736,42.5358041 C113.859736,36.7890715 118.520226,32.1309785 124.268115,32.1309785 C130.016004,32.1309785 134.675034,36.7890715 134.675034,42.5358041" id="Fill-22" fill="#F7F8FB"></path>
                    <path d="M134.675034,42.5358041 C134.675034,48.2825366 130.016004,52.9406297 124.268115,52.9406297 C118.520226,52.9406297 113.859736,48.2825366 113.859736,42.5358041 C113.859736,36.7890715 118.520226,32.1309785 124.268115,32.1309785 C130.016004,32.1309785 134.675034,36.7890715 134.675034,42.5358041 L134.675034,42.5358041 Z" id="Stroke-24" stroke="#50BCEB" stroke-width="3" stroke-linecap="round" stroke-linejoin="round"></path>
                </g>
            </g>
        </g>
    </g>
</svg>