<?xml version="1.0" encoding="UTF-8" standalone="no"?>
<svg width="19px" height="18px" viewBox="0 0 19 18" version="1.1" xmlns="http://www.w3.org/2000/svg" xmlns:xlink="http://www.w3.org/1999/xlink">
    <!-- Generator: Sketch 40.3 (33839) - http://www.bohemiancoding.com/sketch -->
    <title>linkedin-icon</title>
    <desc>Created with Sketch.</desc>
    <defs></defs>
    <g id="Page-1" stroke="none" stroke-width="1" fill="none" fill-rule="evenodd">
        <g id="BaseHealth-Cookies-Policy" transform="translate(-819.000000, -4241.000000)">
            <g id="linkedin-icon" transform="translate(819.000000, 4241.000000)">
                <polygon id="Fill-7" fill="#0173B2" points="0.556650246 18 19 18 19 0 0.556650246 0"></polygon>
                <polygon id="Fill-8" fill="#FFFFFF" points="4.01477833 14.625 6.7044335 14.625 6.7044335 7.125 4.01477833 7.125"></polygon>
                <path d="M5.35960591,6 C6.1015665,6 6.7044335,5.412 6.7044335,4.687125 C6.7044335,3.962625 6.1015665,3.375 5.35960591,3.375 C4.61610837,3.375 4.01477833,3.962625 4.01477833,4.687125 C4.01477833,5.412 4.61610837,6 5.35960591,6" id="Fill-9" fill="#FFFFFF"></path>
                <path d="M15.5418719,10.5033 C15.5418719,8.479425 15.0946207,7.124925 12.6773892,7.124925 C11.5154581,7.124925 10.7358424,7.546425 10.4169261,8.13705 L10.3838818,8.13705 L10.3838818,7.124925 L8.24137931,7.124925 L8.24137931,14.624925 L10.4807094,14.624925 L10.4807094,10.90755 C10.4807094,9.9273 10.6705222,8.9778 11.9135271,8.9778 C13.1373202,8.9778 13.2364532,10.09905 13.2364532,10.97055 L13.2364532,14.624925 L15.5418719,14.624925 L15.5418719,10.5033 Z" id="Fill-10" fill="#FFFFFF"></path>
            </g>
        </g>
    </g>
</svg>